<?xml version="1.0" encoding="utf-8" standalone="no"?>
<!DOCTYPE svg PUBLIC "-//W3C//DTD SVG 1.1//EN"
  "http://www.w3.org/Graphics/SVG/1.1/DTD/svg11.dtd">
<svg xmlns:xlink="http://www.w3.org/1999/xlink" width="720pt" height="701.28pt" viewBox="0 0 720 701.28" xmlns="http://www.w3.org/2000/svg" version="1.1">
 <metadata>
  <rdf:RDF xmlns:dc="http://purl.org/dc/elements/1.1/" xmlns:cc="http://creativecommons.org/ns#" xmlns:rdf="http://www.w3.org/1999/02/22-rdf-syntax-ns#">
   <cc:Work>
    <dc:type rdf:resource="http://purl.org/dc/dcmitype/StillImage"/>
    <dc:date>2024-06-20T10:40:19.810482</dc:date>
    <dc:format>image/svg+xml</dc:format>
    <dc:creator>
     <cc:Agent>
      <dc:title>Matplotlib v3.7.5, https://matplotlib.org/</dc:title>
     </cc:Agent>
    </dc:creator>
   </cc:Work>
  </rdf:RDF>
 </metadata>
 <defs>
  <style type="text/css">*{stroke-linejoin: round; stroke-linecap: butt}</style>
 </defs>
 <g id="figure_1">
  <g id="patch_1">
   <path d="M 0 701.28 
L 720 701.28 
L 720 0 
L 0 0 
z
" style="fill: #ffffff"/>
  </g>
  <g id="axes_1">
   <g id="patch_2">
    <path d="M 50.953205 320.126528 
L 344.898613 320.126528 
L 344.898613 26.18112 
L 50.953205 26.18112 
z
" style="fill: #ffffff"/>
   </g>
   <g id="patch_3">
    <path d="M 197.925909 179.032732 
C 199.485014 179.032732 200.980471 178.413293 202.082925 177.31084 
C 203.185378 176.208386 203.804817 174.712929 203.804817 173.153824 
C 203.804817 171.594719 203.185378 170.099262 202.082925 168.996808 
C 200.980471 167.894355 199.485014 167.274916 197.925909 167.274916 
C 196.366804 167.274916 194.871347 167.894355 193.768893 168.996808 
C 192.66644 170.099262 192.047001 171.594719 192.047001 173.153824 
C 192.047001 174.712929 192.66644 176.208386 193.768893 177.31084 
C 194.871347 178.413293 196.366804 179.032732 197.925909 179.032732 
z
" clip-path="url(#p49cdf1436e)" style="fill: #bfbf00; stroke: #bfbf00; stroke-width: 2; stroke-linejoin: miter"/>
   </g>
   <g id="PathCollection_1">
    <defs>
     <path id="m41c03bec20" d="M -7.549341 -6.722745 
L -3.552891 -1.943117 
L -2.73646 -2.625769 
L -1.506311 -1.154549 
L -4.928466 1.706876 
L -2.1902 4.981774 
L -3.46915 6.051159 
L -5.132385 4.061964 
L -7.566517 6.097245 
L -3.570068 10.87689 
L -1.135928 8.841601 
L -2.799165 6.852423 
L -1.520214 5.783038 
L 1.218061 9.057929 
L 8.864112 2.664741 
L 6.125845 -0.610157 
L 7.397909 -1.673784 
L 9.061146 0.315394 
L 11.49574 -1.720273 
L 7.49929 -6.499901 
L 5.064689 -4.464242 
L 6.727933 -2.475055 
L 5.45586 -1.411421 
L 2.717584 -4.686312 
L -0.704579 -1.824896 
L -1.934743 -3.296134 
L -1.118306 -3.978777 
L -5.114763 -8.758414 
L -7.549341 -6.722745 
z
" style="stroke: #0000ff"/>
    </defs>
    <g clip-path="url(#p49cdf1436e)">
     <use xlink:href="#m41c03bec20" x="494.402322" y="298.894378" style="fill: #0000ff; stroke: #0000ff"/>
    </g>
   </g>
   <g id="matplotlib.axis_1">
    <g id="xtick_1">
     <g id="line2d_1">
      <defs>
       <path id="me5f5946128" d="M 0 0 
L 0 3.5 
" style="stroke: #000000; stroke-width: 0.8"/>
      </defs>
      <g>
       <use xlink:href="#me5f5946128" x="80.347746" y="320.126528" style="stroke: #000000; stroke-width: 0.8"/>
      </g>
     </g>
     <g id="text_1">
      <!-- −4 -->
      <g transform="translate(72.976652 334.724965) scale(0.1 -0.1)">
       <defs>
        <path id="DejaVuSans-2212" d="M 678 2272 
L 4684 2272 
L 4684 1741 
L 678 1741 
L 678 2272 
z
" transform="scale(0.015625)"/>
        <path id="DejaVuSans-34" d="M 2419 4116 
L 825 1625 
L 2419 1625 
L 2419 4116 
z
M 2253 4666 
L 3047 4666 
L 3047 1625 
L 3713 1625 
L 3713 1100 
L 3047 1100 
L 3047 0 
L 2419 0 
L 2419 1100 
L 313 1100 
L 313 1709 
L 2253 4666 
z
" transform="scale(0.015625)"/>
       </defs>
       <use xlink:href="#DejaVuSans-2212"/>
       <use xlink:href="#DejaVuSans-34" x="83.789062"/>
      </g>
     </g>
    </g>
    <g id="xtick_2">
     <g id="line2d_2">
      <g>
       <use xlink:href="#me5f5946128" x="139.136827" y="320.126528" style="stroke: #000000; stroke-width: 0.8"/>
      </g>
     </g>
     <g id="text_2">
      <!-- −2 -->
      <g transform="translate(131.765734 334.724965) scale(0.1 -0.1)">
       <defs>
        <path id="DejaVuSans-32" d="M 1228 531 
L 3431 531 
L 3431 0 
L 469 0 
L 469 531 
Q 828 903 1448 1529 
Q 2069 2156 2228 2338 
Q 2531 2678 2651 2914 
Q 2772 3150 2772 3378 
Q 2772 3750 2511 3984 
Q 2250 4219 1831 4219 
Q 1534 4219 1204 4116 
Q 875 4013 500 3803 
L 500 4441 
Q 881 4594 1212 4672 
Q 1544 4750 1819 4750 
Q 2544 4750 2975 4387 
Q 3406 4025 3406 3419 
Q 3406 3131 3298 2873 
Q 3191 2616 2906 2266 
Q 2828 2175 2409 1742 
Q 1991 1309 1228 531 
z
" transform="scale(0.015625)"/>
       </defs>
       <use xlink:href="#DejaVuSans-2212"/>
       <use xlink:href="#DejaVuSans-32" x="83.789062"/>
      </g>
     </g>
    </g>
    <g id="xtick_3">
     <g id="line2d_3">
      <g>
       <use xlink:href="#me5f5946128" x="197.925909" y="320.126528" style="stroke: #000000; stroke-width: 0.8"/>
      </g>
     </g>
     <g id="text_3">
      <!-- 0 -->
      <g transform="translate(194.744659 334.724965) scale(0.1 -0.1)">
       <defs>
        <path id="DejaVuSans-30" d="M 2034 4250 
Q 1547 4250 1301 3770 
Q 1056 3291 1056 2328 
Q 1056 1369 1301 889 
Q 1547 409 2034 409 
Q 2525 409 2770 889 
Q 3016 1369 3016 2328 
Q 3016 3291 2770 3770 
Q 2525 4250 2034 4250 
z
M 2034 4750 
Q 2819 4750 3233 4129 
Q 3647 3509 3647 2328 
Q 3647 1150 3233 529 
Q 2819 -91 2034 -91 
Q 1250 -91 836 529 
Q 422 1150 422 2328 
Q 422 3509 836 4129 
Q 1250 4750 2034 4750 
z
" transform="scale(0.015625)"/>
       </defs>
       <use xlink:href="#DejaVuSans-30"/>
      </g>
     </g>
    </g>
    <g id="xtick_4">
     <g id="line2d_4">
      <g>
       <use xlink:href="#me5f5946128" x="256.714991" y="320.126528" style="stroke: #000000; stroke-width: 0.8"/>
      </g>
     </g>
     <g id="text_4">
      <!-- 2 -->
      <g transform="translate(253.533741 334.724965) scale(0.1 -0.1)">
       <use xlink:href="#DejaVuSans-32"/>
      </g>
     </g>
    </g>
    <g id="xtick_5">
     <g id="line2d_5">
      <g>
       <use xlink:href="#me5f5946128" x="315.504072" y="320.126528" style="stroke: #000000; stroke-width: 0.8"/>
      </g>
     </g>
     <g id="text_5">
      <!-- 4 -->
      <g transform="translate(312.322822 334.724965) scale(0.1 -0.1)">
       <use xlink:href="#DejaVuSans-34"/>
      </g>
     </g>
    </g>
    <g id="text_6">
     <!-- x [m] -->
     <g transform="translate(184.605597 348.403091) scale(0.1 -0.1)">
      <defs>
       <path id="DejaVuSans-78" d="M 3513 3500 
L 2247 1797 
L 3578 0 
L 2900 0 
L 1881 1375 
L 863 0 
L 184 0 
L 1544 1831 
L 300 3500 
L 978 3500 
L 1906 2253 
L 2834 3500 
L 3513 3500 
z
" transform="scale(0.015625)"/>
       <path id="DejaVuSans-20" transform="scale(0.015625)"/>
       <path id="DejaVuSans-5b" d="M 550 4863 
L 1875 4863 
L 1875 4416 
L 1125 4416 
L 1125 -397 
L 1875 -397 
L 1875 -844 
L 550 -844 
L 550 4863 
z
" transform="scale(0.015625)"/>
       <path id="DejaVuSans-6d" d="M 3328 2828 
Q 3544 3216 3844 3400 
Q 4144 3584 4550 3584 
Q 5097 3584 5394 3201 
Q 5691 2819 5691 2113 
L 5691 0 
L 5113 0 
L 5113 2094 
Q 5113 2597 4934 2840 
Q 4756 3084 4391 3084 
Q 3944 3084 3684 2787 
Q 3425 2491 3425 1978 
L 3425 0 
L 2847 0 
L 2847 2094 
Q 2847 2600 2669 2842 
Q 2491 3084 2119 3084 
Q 1678 3084 1418 2786 
Q 1159 2488 1159 1978 
L 1159 0 
L 581 0 
L 581 3500 
L 1159 3500 
L 1159 2956 
Q 1356 3278 1631 3431 
Q 1906 3584 2284 3584 
Q 2666 3584 2933 3390 
Q 3200 3197 3328 2828 
z
" transform="scale(0.015625)"/>
       <path id="DejaVuSans-5d" d="M 1947 4863 
L 1947 -844 
L 622 -844 
L 622 -397 
L 1369 -397 
L 1369 4416 
L 622 4416 
L 622 4863 
L 1947 4863 
z
" transform="scale(0.015625)"/>
      </defs>
      <use xlink:href="#DejaVuSans-78"/>
      <use xlink:href="#DejaVuSans-20" x="59.179688"/>
      <use xlink:href="#DejaVuSans-5b" x="90.966797"/>
      <use xlink:href="#DejaVuSans-6d" x="129.980469"/>
      <use xlink:href="#DejaVuSans-5d" x="227.392578"/>
     </g>
    </g>
   </g>
   <g id="matplotlib.axis_2">
    <g id="ytick_1">
     <g id="line2d_6">
      <defs>
       <path id="m4450679cc8" d="M 0 0 
L -3.5 0 
" style="stroke: #000000; stroke-width: 0.8"/>
      </defs>
      <g>
       <use xlink:href="#m4450679cc8" x="50.953205" y="290.731987" style="stroke: #000000; stroke-width: 0.8"/>
      </g>
     </g>
     <g id="text_7">
      <!-- −4 -->
      <g transform="translate(29.211018 294.531206) scale(0.1 -0.1)">
       <use xlink:href="#DejaVuSans-2212"/>
       <use xlink:href="#DejaVuSans-34" x="83.789062"/>
      </g>
     </g>
    </g>
    <g id="ytick_2">
     <g id="line2d_7">
      <g>
       <use xlink:href="#m4450679cc8" x="50.953205" y="231.942906" style="stroke: #000000; stroke-width: 0.8"/>
      </g>
     </g>
     <g id="text_8">
      <!-- −2 -->
      <g transform="translate(29.211018 235.742124) scale(0.1 -0.1)">
       <use xlink:href="#DejaVuSans-2212"/>
       <use xlink:href="#DejaVuSans-32" x="83.789062"/>
      </g>
     </g>
    </g>
    <g id="ytick_3">
     <g id="line2d_8">
      <g>
       <use xlink:href="#m4450679cc8" x="50.953205" y="173.153824" style="stroke: #000000; stroke-width: 0.8"/>
      </g>
     </g>
     <g id="text_9">
      <!-- 0 -->
      <g transform="translate(37.590705 176.953043) scale(0.1 -0.1)">
       <use xlink:href="#DejaVuSans-30"/>
      </g>
     </g>
    </g>
    <g id="ytick_4">
     <g id="line2d_9">
      <g>
       <use xlink:href="#m4450679cc8" x="50.953205" y="114.364742" style="stroke: #000000; stroke-width: 0.8"/>
      </g>
     </g>
     <g id="text_10">
      <!-- 2 -->
      <g transform="translate(37.590705 118.163961) scale(0.1 -0.1)">
       <use xlink:href="#DejaVuSans-32"/>
      </g>
     </g>
    </g>
    <g id="ytick_5">
     <g id="line2d_10">
      <g>
       <use xlink:href="#m4450679cc8" x="50.953205" y="55.575661" style="stroke: #000000; stroke-width: 0.8"/>
      </g>
     </g>
     <g id="text_11">
      <!-- 4 -->
      <g transform="translate(37.590705 59.37488) scale(0.1 -0.1)">
       <use xlink:href="#DejaVuSans-34"/>
      </g>
     </g>
    </g>
    <g id="text_12">
     <!-- y [m] -->
     <g transform="translate(23.13133 186.474136) rotate(-90) scale(0.1 -0.1)">
      <defs>
       <path id="DejaVuSans-79" d="M 2059 -325 
Q 1816 -950 1584 -1140 
Q 1353 -1331 966 -1331 
L 506 -1331 
L 506 -850 
L 844 -850 
Q 1081 -850 1212 -737 
Q 1344 -625 1503 -206 
L 1606 56 
L 191 3500 
L 800 3500 
L 1894 763 
L 2988 3500 
L 3597 3500 
L 2059 -325 
z
" transform="scale(0.015625)"/>
      </defs>
      <use xlink:href="#DejaVuSans-79"/>
      <use xlink:href="#DejaVuSans-20" x="59.179688"/>
      <use xlink:href="#DejaVuSans-5b" x="90.966797"/>
      <use xlink:href="#DejaVuSans-6d" x="129.980469"/>
      <use xlink:href="#DejaVuSans-5d" x="227.392578"/>
     </g>
    </g>
   </g>
   <g id="line2d_11">
    <path d="M 50.953205 173.153824 
L 344.898613 173.153824 
" clip-path="url(#p49cdf1436e)" style="fill: none; stroke-dasharray: 2.775,1.2; stroke-dashoffset: 0; stroke: #000000; stroke-width: 0.75"/>
   </g>
   <g id="line2d_12">
    <path d="M 197.925909 320.126528 
L 197.925909 26.18112 
" clip-path="url(#p49cdf1436e)" style="fill: none; stroke-dasharray: 2.775,1.2; stroke-dashoffset: 0; stroke: #000000; stroke-width: 0.75"/>
   </g>
   <g id="line2d_13">
    <path d="M 256.714991 173.153824 
L 256.716782 173.839963 
L 256.614774 160.776247 
L 256.320102 140.202292 
L 255.922744 126.980951 
L 255.431132 118.176654 
L 254.909006 112.321277 
L 254.349747 107.948001 
L 253.570106 103.608964 
L 252.871572 100.754125 
L 251.974687 97.955274 
L 250.781968 95.27046 
L 250.011762 94.009318 
L 249.049695 92.900454 
L 244.550394 89.06324 
L 243.708815 87.816985 
L 243.304482 86.410054 
L 243.347506 84.946809 
L 244.17881 82.083948 
L 244.733395 80.723218 
L 245.588834 79.426017 
L 246.834983 78.667473 
L 248.282442 78.485419 
L 251.324233 78.9039 
L 255.721864 79.217259 
L 260.129324 79.325148 
L 264.536932 79.224884 
L 268.933581 78.900186 
L 273.302825 78.313932 
L 276.188515 77.755818 
L 279.039796 77.042812 
L 281.841871 76.156469 
L 284.574496 75.075105 
L 287.204816 73.765065 
L 289.683459 72.187978 
L 290.84448 71.287182 
L 291.926521 70.290018 
L 292.882361 69.17468 
L 295.43473 65.536719 
L 297.603644 63.487237 
L 298.540358 62.355954 
L 300.907364 58.60066 
L 302.783819 56.145397 
L 303.042518 54.70825 
L 302.729867 53.281869 
L 301.835053 51.669293 
L 302.222008 50.267861 
L 303.243505 49.233313 
L 304.772347 48.558407 
L 307.18764 46.886199 
L 308.303431 45.92909 
L 309.325916 44.874056 
L 311.39738 42.463705 
L 312.823212 42.188707 
L 314.188869 42.682267 
L 315.401996 43.816449 
L 318.972252 46.403074 
L 322.659275 48.820347 
L 326.455039 51.063007 
L 330.351282 53.12617 
L 334.339521 55.005347 
L 338.411073 56.696444 
L 342.557076 58.195782 
L 346.768503 59.500096 
L 351.036186 60.606546 
L 355.350834 61.512725 
L 359.703055 62.216658 
L 364.083374 62.716814 
L 368.482255 63.012104 
L 372.890122 63.101886 
L 377.297375 62.985863 
L 381.69375 62.656593 
L 386.063351 62.072813 
L 388.94841 61.51163 
L 391.795922 60.784069 
L 394.58389 59.854825 
L 397.271151 58.66636 
L 398.549834 57.942364 
L 399.726033 56.959472 
L 400.415614 55.671086 
L 400.998968 52.724575 
L 401.097592 51.256302 
L 400.998201 49.791054 
L 400.376979 48.026075 
L 398.978998 48.127513 
L 398.1955 49.745543 
L 394.932491 52.710356 
L 391.811328 55.824147 
L 388.838806 59.080136 
L 386.021397 62.471235 
L 383.365233 65.990063 
L 380.876098 69.628958 
L 378.55941 73.379999 
L 376.420213 77.235019 
L 374.463163 81.185628 
L 372.69252 85.223223 
L 371.112141 89.339016 
L 369.725464 93.524046 
L 368.535509 97.769203 
L 367.544867 102.065246 
L 366.755693 106.40282 
L 366.169706 110.772485 
L 365.788182 115.164727 
L 365.611951 119.569985 
L 365.641396 123.978668 
L 365.876455 128.381178 
L 366.316614 132.767932 
L 366.960916 137.12938 
L 367.807958 141.456026 
L 368.855897 145.738453 
L 370.10245 149.967336 
L 371.544904 154.133471 
L 373.180119 158.227787 
L 375.004535 162.241371 
L 377.014181 166.165485 
L 379.204681 169.991588 
L 381.571266 173.711349 
L 384.108786 177.316671 
L 386.811715 180.799705 
L 389.674169 184.152869 
L 392.689917 187.368862 
L 395.852394 190.440684 
L 399.154715 193.361648 
L 402.589691 196.125394 
L 406.149844 198.725905 
L 409.827423 201.157522 
L 413.614424 203.41495 
L 417.502601 205.493274 
L 421.483489 207.38797 
L 425.549295 209.092753 
L 428.311076 210.098633 
L 431.12856 210.935594 
L 432.56424 211.249275 
L 434.530669 211.558166 
L 434.181292 210.256788 
L 432.632831 210.761346 
L 431.397295 209.96607 
L 430.227793 209.076555 
L 429.132426 208.097199 
L 428.123316 207.029187 
L 427.215866 205.873709 
L 426.434551 204.628852 
L 425.815497 203.296921 
L 425.453105 201.85631 
L 425.509984 200.392614 
L 425.816011 198.826765 
L 425.836881 197.358328 
L 425.493738 195.875613 
L 424.607518 194.716422 
L 423.293073 193.745313 
L 422.25445 192.705992 
L 421.309976 191.580387 
L 420.47788 190.369579 
L 419.790955 189.069453 
L 419.299798 187.685588 
L 419.229255 186.06499 
L 420.090957 184.904806 
L 421.649358 184.204437 
L 425.292648 181.721814 
L 428.802765 179.054441 
L 432.137977 176.171833 
L 434.235429 174.112976 
L 436.204838 171.931498 
L 438.015051 169.616459 
L 439.624426 167.157912 
L 440.974776 164.548659 
L 441.978443 161.788431 
L 442.30682 160.355668 
L 442.481949 158.897103 
L 442.434707 157.420467 
L 442.069977 155.999739 
L 441.541542 154.467937 
L 441.497321 153.002663 
L 441.633681 151.402076 
L 441.049237 148.220838 
L 441.734413 146.940663 
L 443.040586 145.899798 
L 445.043398 143.748935 
L 446.900072 141.470829 
L 448.575317 139.05647 
L 450.017365 136.496433 
L 451.150355 133.786142 
L 451.565232 132.376562 
L 451.84854 130.933992 
L 451.964608 129.469665 
L 451.809345 127.98844 
L 451.246288 126.636341 
L 450.408598 125.284009 
L 449.848238 123.926303 
L 449.539966 122.475551 
L 449.630772 121.013107 
L 449.953862 119.459625 
L 450.00457 117.991854 
L 449.691694 116.49825 
L 448.821085 115.327708 
L 447.517388 114.353477 
L 445.474221 112.243094 
L 444.56833 111.086146 
L 443.760601 109.858315 
L 443.076568 108.558129 
L 442.561453 107.178904 
L 442.287356 105.736752 
L 442.159788 103.791875 
L 440.754334 103.716924 
L 439.678273 105.157399 
L 436.000599 107.588873 
L 432.440345 110.189246 
L 429.005262 112.952859 
L 425.702828 115.873694 
L 422.540232 118.945394 
L 419.524359 122.16127 
L 416.661774 125.514323 
L 413.95871 128.997252 
L 411.421051 132.602475 
L 409.054321 136.322145 
L 406.863673 140.148162 
L 404.853875 144.072199 
L 403.029303 148.085712 
L 401.393929 152.179964 
L 399.951313 156.346043 
L 398.704596 160.574878 
L 397.656491 164.857264 
L 396.809281 169.183877 
L 396.16481 173.5453 
L 395.72448 177.932037 
L 395.489251 182.334538 
L 395.459634 186.74322 
L 395.635694 191.148484 
L 396.017048 195.540741 
L 396.602865 199.910429 
L 397.391871 204.248034 
L 398.382346 208.544115 
L 399.572136 212.789318 
L 400.958651 216.974402 
L 402.538871 221.090256 
L 404.309356 225.127921 
L 406.266253 229.078605 
L 408.405301 232.933709 
L 410.721843 236.684839 
L 413.210837 240.323831 
L 415.866864 243.842762 
L 418.684141 247.23397 
L 421.656537 250.490075 
L 424.777579 253.603987 
L 428.040474 256.568927 
L 431.438117 259.378441 
L 434.963114 262.026412 
L 438.607789 264.507076 
L 442.377355 266.793107 
L 445.006597 268.109219 
L 449.138635 269.701218 
L 450.501424 270.324908 
L 454.720941 271.670635 
L 456.058575 272.304856 
L 457.248669 273.163834 
L 460.608371 276.066312 
L 464.080519 278.783209 
L 467.67562 281.33519 
L 471.385845 283.716698 
L 473.934251 285.181132 
L 476.602343 286.412661 
L 477.9781 287.007505 
L 480.457068 288.61246 
L 484.153173 291.015824 
L 486.688444 292.50294 
L 490.688724 294.520993 
L 491.746929 295.53498 
L 494.402322 298.894378 
L 494.402322 298.894378 
" clip-path="url(#p49cdf1436e)" style="fill: none; stroke-dasharray: 1.85,0.8; stroke-dashoffset: 0; stroke: #0000ff; stroke-width: 0.5"/>
   </g>
   <g id="patch_4">
    <path d="M 50.953205 320.126528 
L 50.953205 26.18112 
" style="fill: none; stroke: #000000; stroke-width: 0.8; stroke-linejoin: miter; stroke-linecap: square"/>
   </g>
   <g id="patch_5">
    <path d="M 344.898613 320.126528 
L 344.898613 26.18112 
" style="fill: none; stroke: #000000; stroke-width: 0.8; stroke-linejoin: miter; stroke-linecap: square"/>
   </g>
   <g id="patch_6">
    <path d="M 50.953205 320.126528 
L 344.898613 320.126528 
" style="fill: none; stroke: #000000; stroke-width: 0.8; stroke-linejoin: miter; stroke-linecap: square"/>
   </g>
   <g id="patch_7">
    <path d="M 50.953205 26.18112 
L 344.898613 26.18112 
" style="fill: none; stroke: #000000; stroke-width: 0.8; stroke-linejoin: miter; stroke-linecap: square"/>
   </g>
   <g id="text_13">
    <!-- Target -->
    <g transform="translate(309.625164 58.335036) scale(0.1 -0.1)">
     <defs>
      <path id="DejaVuSans-54" d="M -19 4666 
L 3928 4666 
L 3928 4134 
L 2272 4134 
L 2272 0 
L 1638 0 
L 1638 4134 
L -19 4134 
L -19 4666 
z
" transform="scale(0.015625)"/>
      <path id="DejaVuSans-61" d="M 2194 1759 
Q 1497 1759 1228 1600 
Q 959 1441 959 1056 
Q 959 750 1161 570 
Q 1363 391 1709 391 
Q 2188 391 2477 730 
Q 2766 1069 2766 1631 
L 2766 1759 
L 2194 1759 
z
M 3341 1997 
L 3341 0 
L 2766 0 
L 2766 531 
Q 2569 213 2275 61 
Q 1981 -91 1556 -91 
Q 1019 -91 701 211 
Q 384 513 384 1019 
Q 384 1609 779 1909 
Q 1175 2209 1959 2209 
L 2766 2209 
L 2766 2266 
Q 2766 2663 2505 2880 
Q 2244 3097 1772 3097 
Q 1472 3097 1187 3025 
Q 903 2953 641 2809 
L 641 3341 
Q 956 3463 1253 3523 
Q 1550 3584 1831 3584 
Q 2591 3584 2966 3190 
Q 3341 2797 3341 1997 
z
" transform="scale(0.015625)"/>
      <path id="DejaVuSans-72" d="M 2631 2963 
Q 2534 3019 2420 3045 
Q 2306 3072 2169 3072 
Q 1681 3072 1420 2755 
Q 1159 2438 1159 1844 
L 1159 0 
L 581 0 
L 581 3500 
L 1159 3500 
L 1159 2956 
Q 1341 3275 1631 3429 
Q 1922 3584 2338 3584 
Q 2397 3584 2469 3576 
Q 2541 3569 2628 3553 
L 2631 2963 
z
" transform="scale(0.015625)"/>
      <path id="DejaVuSans-67" d="M 2906 1791 
Q 2906 2416 2648 2759 
Q 2391 3103 1925 3103 
Q 1463 3103 1205 2759 
Q 947 2416 947 1791 
Q 947 1169 1205 825 
Q 1463 481 1925 481 
Q 2391 481 2648 825 
Q 2906 1169 2906 1791 
z
M 3481 434 
Q 3481 -459 3084 -895 
Q 2688 -1331 1869 -1331 
Q 1566 -1331 1297 -1286 
Q 1028 -1241 775 -1147 
L 775 -588 
Q 1028 -725 1275 -790 
Q 1522 -856 1778 -856 
Q 2344 -856 2625 -561 
Q 2906 -266 2906 331 
L 2906 616 
Q 2728 306 2450 153 
Q 2172 0 1784 0 
Q 1141 0 747 490 
Q 353 981 353 1791 
Q 353 2603 747 3093 
Q 1141 3584 1784 3584 
Q 2172 3584 2450 3431 
Q 2728 3278 2906 2969 
L 2906 3500 
L 3481 3500 
L 3481 434 
z
" transform="scale(0.015625)"/>
      <path id="DejaVuSans-65" d="M 3597 1894 
L 3597 1613 
L 953 1613 
Q 991 1019 1311 708 
Q 1631 397 2203 397 
Q 2534 397 2845 478 
Q 3156 559 3463 722 
L 3463 178 
Q 3153 47 2828 -22 
Q 2503 -91 2169 -91 
Q 1331 -91 842 396 
Q 353 884 353 1716 
Q 353 2575 817 3079 
Q 1281 3584 2069 3584 
Q 2775 3584 3186 3129 
Q 3597 2675 3597 1894 
z
M 3022 2063 
Q 3016 2534 2758 2815 
Q 2500 3097 2075 3097 
Q 1594 3097 1305 2825 
Q 1016 2553 972 2059 
L 3022 2063 
z
" transform="scale(0.015625)"/>
      <path id="DejaVuSans-74" d="M 1172 4494 
L 1172 3500 
L 2356 3500 
L 2356 3053 
L 1172 3053 
L 1172 1153 
Q 1172 725 1289 603 
Q 1406 481 1766 481 
L 2356 481 
L 2356 0 
L 1766 0 
Q 1100 0 847 248 
Q 594 497 594 1153 
L 594 3053 
L 172 3053 
L 172 3500 
L 594 3500 
L 594 4494 
L 1172 4494 
z
" transform="scale(0.015625)"/>
     </defs>
     <use xlink:href="#DejaVuSans-54"/>
     <use xlink:href="#DejaVuSans-61" x="44.583984"/>
     <use xlink:href="#DejaVuSans-72" x="105.863281"/>
     <use xlink:href="#DejaVuSans-67" x="145.226562"/>
     <use xlink:href="#DejaVuSans-65" x="208.703125"/>
     <use xlink:href="#DejaVuSans-74" x="270.226562"/>
    </g>
   </g>
   <g id="text_14">
    <!-- t = 30.000 -->
    <g transform="translate(65.650475 43.637765) scale(0.1 -0.1)">
     <defs>
      <path id="DejaVuSans-3d" d="M 678 2906 
L 4684 2906 
L 4684 2381 
L 678 2381 
L 678 2906 
z
M 678 1631 
L 4684 1631 
L 4684 1100 
L 678 1100 
L 678 1631 
z
" transform="scale(0.015625)"/>
      <path id="DejaVuSans-33" d="M 2597 2516 
Q 3050 2419 3304 2112 
Q 3559 1806 3559 1356 
Q 3559 666 3084 287 
Q 2609 -91 1734 -91 
Q 1441 -91 1130 -33 
Q 819 25 488 141 
L 488 750 
Q 750 597 1062 519 
Q 1375 441 1716 441 
Q 2309 441 2620 675 
Q 2931 909 2931 1356 
Q 2931 1769 2642 2001 
Q 2353 2234 1838 2234 
L 1294 2234 
L 1294 2753 
L 1863 2753 
Q 2328 2753 2575 2939 
Q 2822 3125 2822 3475 
Q 2822 3834 2567 4026 
Q 2313 4219 1838 4219 
Q 1578 4219 1281 4162 
Q 984 4106 628 3988 
L 628 4550 
Q 988 4650 1302 4700 
Q 1616 4750 1894 4750 
Q 2613 4750 3031 4423 
Q 3450 4097 3450 3541 
Q 3450 3153 3228 2886 
Q 3006 2619 2597 2516 
z
" transform="scale(0.015625)"/>
      <path id="DejaVuSans-2e" d="M 684 794 
L 1344 794 
L 1344 0 
L 684 0 
L 684 794 
z
" transform="scale(0.015625)"/>
     </defs>
     <use xlink:href="#DejaVuSans-74"/>
     <use xlink:href="#DejaVuSans-20" x="39.208984"/>
     <use xlink:href="#DejaVuSans-3d" x="70.996094"/>
     <use xlink:href="#DejaVuSans-20" x="154.785156"/>
     <use xlink:href="#DejaVuSans-33" x="186.572266"/>
     <use xlink:href="#DejaVuSans-30" x="250.195312"/>
     <use xlink:href="#DejaVuSans-2e" x="313.818359"/>
     <use xlink:href="#DejaVuSans-30" x="345.605469"/>
     <use xlink:href="#DejaVuSans-30" x="409.228516"/>
     <use xlink:href="#DejaVuSans-30" x="472.851562"/>
    </g>
   </g>
   <g id="text_15">
    <!-- Pause - space, q - quit, click - data cursor -->
    <g transform="translate(74.016534 20.18112) scale(0.12 -0.12)">
     <defs>
      <path id="DejaVuSans-50" d="M 1259 4147 
L 1259 2394 
L 2053 2394 
Q 2494 2394 2734 2622 
Q 2975 2850 2975 3272 
Q 2975 3691 2734 3919 
Q 2494 4147 2053 4147 
L 1259 4147 
z
M 628 4666 
L 2053 4666 
Q 2838 4666 3239 4311 
Q 3641 3956 3641 3272 
Q 3641 2581 3239 2228 
Q 2838 1875 2053 1875 
L 1259 1875 
L 1259 0 
L 628 0 
L 628 4666 
z
" transform="scale(0.015625)"/>
      <path id="DejaVuSans-75" d="M 544 1381 
L 544 3500 
L 1119 3500 
L 1119 1403 
Q 1119 906 1312 657 
Q 1506 409 1894 409 
Q 2359 409 2629 706 
Q 2900 1003 2900 1516 
L 2900 3500 
L 3475 3500 
L 3475 0 
L 2900 0 
L 2900 538 
Q 2691 219 2414 64 
Q 2138 -91 1772 -91 
Q 1169 -91 856 284 
Q 544 659 544 1381 
z
M 1991 3584 
L 1991 3584 
z
" transform="scale(0.015625)"/>
      <path id="DejaVuSans-73" d="M 2834 3397 
L 2834 2853 
Q 2591 2978 2328 3040 
Q 2066 3103 1784 3103 
Q 1356 3103 1142 2972 
Q 928 2841 928 2578 
Q 928 2378 1081 2264 
Q 1234 2150 1697 2047 
L 1894 2003 
Q 2506 1872 2764 1633 
Q 3022 1394 3022 966 
Q 3022 478 2636 193 
Q 2250 -91 1575 -91 
Q 1294 -91 989 -36 
Q 684 19 347 128 
L 347 722 
Q 666 556 975 473 
Q 1284 391 1588 391 
Q 1994 391 2212 530 
Q 2431 669 2431 922 
Q 2431 1156 2273 1281 
Q 2116 1406 1581 1522 
L 1381 1569 
Q 847 1681 609 1914 
Q 372 2147 372 2553 
Q 372 3047 722 3315 
Q 1072 3584 1716 3584 
Q 2034 3584 2315 3537 
Q 2597 3491 2834 3397 
z
" transform="scale(0.015625)"/>
      <path id="DejaVuSans-2d" d="M 313 2009 
L 1997 2009 
L 1997 1497 
L 313 1497 
L 313 2009 
z
" transform="scale(0.015625)"/>
      <path id="DejaVuSans-70" d="M 1159 525 
L 1159 -1331 
L 581 -1331 
L 581 3500 
L 1159 3500 
L 1159 2969 
Q 1341 3281 1617 3432 
Q 1894 3584 2278 3584 
Q 2916 3584 3314 3078 
Q 3713 2572 3713 1747 
Q 3713 922 3314 415 
Q 2916 -91 2278 -91 
Q 1894 -91 1617 61 
Q 1341 213 1159 525 
z
M 3116 1747 
Q 3116 2381 2855 2742 
Q 2594 3103 2138 3103 
Q 1681 3103 1420 2742 
Q 1159 2381 1159 1747 
Q 1159 1113 1420 752 
Q 1681 391 2138 391 
Q 2594 391 2855 752 
Q 3116 1113 3116 1747 
z
" transform="scale(0.015625)"/>
      <path id="DejaVuSans-63" d="M 3122 3366 
L 3122 2828 
Q 2878 2963 2633 3030 
Q 2388 3097 2138 3097 
Q 1578 3097 1268 2742 
Q 959 2388 959 1747 
Q 959 1106 1268 751 
Q 1578 397 2138 397 
Q 2388 397 2633 464 
Q 2878 531 3122 666 
L 3122 134 
Q 2881 22 2623 -34 
Q 2366 -91 2075 -91 
Q 1284 -91 818 406 
Q 353 903 353 1747 
Q 353 2603 823 3093 
Q 1294 3584 2113 3584 
Q 2378 3584 2631 3529 
Q 2884 3475 3122 3366 
z
" transform="scale(0.015625)"/>
      <path id="DejaVuSans-2c" d="M 750 794 
L 1409 794 
L 1409 256 
L 897 -744 
L 494 -744 
L 750 256 
L 750 794 
z
" transform="scale(0.015625)"/>
      <path id="DejaVuSans-71" d="M 947 1747 
Q 947 1113 1208 752 
Q 1469 391 1925 391 
Q 2381 391 2643 752 
Q 2906 1113 2906 1747 
Q 2906 2381 2643 2742 
Q 2381 3103 1925 3103 
Q 1469 3103 1208 2742 
Q 947 2381 947 1747 
z
M 2906 525 
Q 2725 213 2448 61 
Q 2172 -91 1784 -91 
Q 1150 -91 751 415 
Q 353 922 353 1747 
Q 353 2572 751 3078 
Q 1150 3584 1784 3584 
Q 2172 3584 2448 3432 
Q 2725 3281 2906 2969 
L 2906 3500 
L 3481 3500 
L 3481 -1331 
L 2906 -1331 
L 2906 525 
z
" transform="scale(0.015625)"/>
      <path id="DejaVuSans-69" d="M 603 3500 
L 1178 3500 
L 1178 0 
L 603 0 
L 603 3500 
z
M 603 4863 
L 1178 4863 
L 1178 4134 
L 603 4134 
L 603 4863 
z
" transform="scale(0.015625)"/>
      <path id="DejaVuSans-6c" d="M 603 4863 
L 1178 4863 
L 1178 0 
L 603 0 
L 603 4863 
z
" transform="scale(0.015625)"/>
      <path id="DejaVuSans-6b" d="M 581 4863 
L 1159 4863 
L 1159 1991 
L 2875 3500 
L 3609 3500 
L 1753 1863 
L 3688 0 
L 2938 0 
L 1159 1709 
L 1159 0 
L 581 0 
L 581 4863 
z
" transform="scale(0.015625)"/>
      <path id="DejaVuSans-64" d="M 2906 2969 
L 2906 4863 
L 3481 4863 
L 3481 0 
L 2906 0 
L 2906 525 
Q 2725 213 2448 61 
Q 2172 -91 1784 -91 
Q 1150 -91 751 415 
Q 353 922 353 1747 
Q 353 2572 751 3078 
Q 1150 3584 1784 3584 
Q 2172 3584 2448 3432 
Q 2725 3281 2906 2969 
z
M 947 1747 
Q 947 1113 1208 752 
Q 1469 391 1925 391 
Q 2381 391 2643 752 
Q 2906 1113 2906 1747 
Q 2906 2381 2643 2742 
Q 2381 3103 1925 3103 
Q 1469 3103 1208 2742 
Q 947 2381 947 1747 
z
" transform="scale(0.015625)"/>
      <path id="DejaVuSans-6f" d="M 1959 3097 
Q 1497 3097 1228 2736 
Q 959 2375 959 1747 
Q 959 1119 1226 758 
Q 1494 397 1959 397 
Q 2419 397 2687 759 
Q 2956 1122 2956 1747 
Q 2956 2369 2687 2733 
Q 2419 3097 1959 3097 
z
M 1959 3584 
Q 2709 3584 3137 3096 
Q 3566 2609 3566 1747 
Q 3566 888 3137 398 
Q 2709 -91 1959 -91 
Q 1206 -91 779 398 
Q 353 888 353 1747 
Q 353 2609 779 3096 
Q 1206 3584 1959 3584 
z
" transform="scale(0.015625)"/>
     </defs>
     <use xlink:href="#DejaVuSans-50"/>
     <use xlink:href="#DejaVuSans-61" x="55.802734"/>
     <use xlink:href="#DejaVuSans-75" x="117.082031"/>
     <use xlink:href="#DejaVuSans-73" x="180.460938"/>
     <use xlink:href="#DejaVuSans-65" x="232.560547"/>
     <use xlink:href="#DejaVuSans-20" x="294.083984"/>
     <use xlink:href="#DejaVuSans-2d" x="325.871094"/>
     <use xlink:href="#DejaVuSans-20" x="361.955078"/>
     <use xlink:href="#DejaVuSans-73" x="393.742188"/>
     <use xlink:href="#DejaVuSans-70" x="445.841797"/>
     <use xlink:href="#DejaVuSans-61" x="509.318359"/>
     <use xlink:href="#DejaVuSans-63" x="570.597656"/>
     <use xlink:href="#DejaVuSans-65" x="625.578125"/>
     <use xlink:href="#DejaVuSans-2c" x="687.101562"/>
     <use xlink:href="#DejaVuSans-20" x="718.888672"/>
     <use xlink:href="#DejaVuSans-71" x="750.675781"/>
     <use xlink:href="#DejaVuSans-20" x="814.152344"/>
     <use xlink:href="#DejaVuSans-2d" x="845.939453"/>
     <use xlink:href="#DejaVuSans-20" x="882.023438"/>
     <use xlink:href="#DejaVuSans-71" x="913.810547"/>
     <use xlink:href="#DejaVuSans-75" x="977.287109"/>
     <use xlink:href="#DejaVuSans-69" x="1040.666016"/>
     <use xlink:href="#DejaVuSans-74" x="1068.449219"/>
     <use xlink:href="#DejaVuSans-2c" x="1107.658203"/>
     <use xlink:href="#DejaVuSans-20" x="1139.445312"/>
     <use xlink:href="#DejaVuSans-63" x="1171.232422"/>
     <use xlink:href="#DejaVuSans-6c" x="1226.212891"/>
     <use xlink:href="#DejaVuSans-69" x="1253.996094"/>
     <use xlink:href="#DejaVuSans-63" x="1281.779297"/>
     <use xlink:href="#DejaVuSans-6b" x="1336.759766"/>
     <use xlink:href="#DejaVuSans-20" x="1394.669922"/>
     <use xlink:href="#DejaVuSans-2d" x="1426.457031"/>
     <use xlink:href="#DejaVuSans-20" x="1462.541016"/>
     <use xlink:href="#DejaVuSans-64" x="1494.328125"/>
     <use xlink:href="#DejaVuSans-61" x="1557.804688"/>
     <use xlink:href="#DejaVuSans-74" x="1619.083984"/>
     <use xlink:href="#DejaVuSans-61" x="1658.292969"/>
     <use xlink:href="#DejaVuSans-20" x="1719.572266"/>
     <use xlink:href="#DejaVuSans-63" x="1751.359375"/>
     <use xlink:href="#DejaVuSans-75" x="1806.339844"/>
     <use xlink:href="#DejaVuSans-72" x="1869.71875"/>
     <use xlink:href="#DejaVuSans-73" x="1910.832031"/>
     <use xlink:href="#DejaVuSans-6f" x="1962.931641"/>
     <use xlink:href="#DejaVuSans-72" x="2024.113281"/>
    </g>
   </g>
  </g>
  <g id="axes_2">
   <g id="patch_8">
    <path d="M 398.511818 320.126528 
L 702.9 320.126528 
L 702.9 26.18112 
L 398.511818 26.18112 
z
" style="fill: #ffffff"/>
   </g>
   <g id="matplotlib.axis_3">
    <g id="xtick_6">
     <g id="line2d_14">
      <g>
       <use xlink:href="#me5f5946128" x="398.511818" y="320.126528" style="stroke: #000000; stroke-width: 0.8"/>
      </g>
     </g>
     <g id="text_16">
      <!-- 0 -->
      <g transform="translate(395.330568 334.724965) scale(0.1 -0.1)">
       <use xlink:href="#DejaVuSans-30"/>
      </g>
     </g>
    </g>
    <g id="xtick_7">
     <g id="line2d_15">
      <g>
       <use xlink:href="#me5f5946128" x="449.243182" y="320.126528" style="stroke: #000000; stroke-width: 0.8"/>
      </g>
     </g>
     <g id="text_17">
      <!-- 5 -->
      <g transform="translate(446.061932 334.724965) scale(0.1 -0.1)">
       <defs>
        <path id="DejaVuSans-35" d="M 691 4666 
L 3169 4666 
L 3169 4134 
L 1269 4134 
L 1269 2991 
Q 1406 3038 1543 3061 
Q 1681 3084 1819 3084 
Q 2600 3084 3056 2656 
Q 3513 2228 3513 1497 
Q 3513 744 3044 326 
Q 2575 -91 1722 -91 
Q 1428 -91 1123 -41 
Q 819 9 494 109 
L 494 744 
Q 775 591 1075 516 
Q 1375 441 1709 441 
Q 2250 441 2565 725 
Q 2881 1009 2881 1497 
Q 2881 1984 2565 2268 
Q 2250 2553 1709 2553 
Q 1456 2553 1204 2497 
Q 953 2441 691 2322 
L 691 4666 
z
" transform="scale(0.015625)"/>
       </defs>
       <use xlink:href="#DejaVuSans-35"/>
      </g>
     </g>
    </g>
    <g id="xtick_8">
     <g id="line2d_16">
      <g>
       <use xlink:href="#me5f5946128" x="499.974545" y="320.126528" style="stroke: #000000; stroke-width: 0.8"/>
      </g>
     </g>
     <g id="text_18">
      <!-- 10 -->
      <g transform="translate(493.612045 334.724965) scale(0.1 -0.1)">
       <defs>
        <path id="DejaVuSans-31" d="M 794 531 
L 1825 531 
L 1825 4091 
L 703 3866 
L 703 4441 
L 1819 4666 
L 2450 4666 
L 2450 531 
L 3481 531 
L 3481 0 
L 794 0 
L 794 531 
z
" transform="scale(0.015625)"/>
       </defs>
       <use xlink:href="#DejaVuSans-31"/>
       <use xlink:href="#DejaVuSans-30" x="63.623047"/>
      </g>
     </g>
    </g>
    <g id="xtick_9">
     <g id="line2d_17">
      <g>
       <use xlink:href="#me5f5946128" x="550.705909" y="320.126528" style="stroke: #000000; stroke-width: 0.8"/>
      </g>
     </g>
     <g id="text_19">
      <!-- 15 -->
      <g transform="translate(544.343409 334.724965) scale(0.1 -0.1)">
       <use xlink:href="#DejaVuSans-31"/>
       <use xlink:href="#DejaVuSans-35" x="63.623047"/>
      </g>
     </g>
    </g>
    <g id="xtick_10">
     <g id="line2d_18">
      <g>
       <use xlink:href="#me5f5946128" x="601.437273" y="320.126528" style="stroke: #000000; stroke-width: 0.8"/>
      </g>
     </g>
     <g id="text_20">
      <!-- 20 -->
      <g transform="translate(595.074773 334.724965) scale(0.1 -0.1)">
       <use xlink:href="#DejaVuSans-32"/>
       <use xlink:href="#DejaVuSans-30" x="63.623047"/>
      </g>
     </g>
    </g>
    <g id="xtick_11">
     <g id="line2d_19">
      <g>
       <use xlink:href="#me5f5946128" x="652.168636" y="320.126528" style="stroke: #000000; stroke-width: 0.8"/>
      </g>
     </g>
     <g id="text_21">
      <!-- 25 -->
      <g transform="translate(645.806136 334.724965) scale(0.1 -0.1)">
       <use xlink:href="#DejaVuSans-32"/>
       <use xlink:href="#DejaVuSans-35" x="63.623047"/>
      </g>
     </g>
    </g>
    <g id="xtick_12">
     <g id="line2d_20">
      <g>
       <use xlink:href="#me5f5946128" x="702.9" y="320.126528" style="stroke: #000000; stroke-width: 0.8"/>
      </g>
     </g>
     <g id="text_22">
      <!-- 30 -->
      <g transform="translate(696.5375 334.724965) scale(0.1 -0.1)">
       <use xlink:href="#DejaVuSans-33"/>
       <use xlink:href="#DejaVuSans-30" x="63.623047"/>
      </g>
     </g>
    </g>
    <g id="text_23">
     <!-- t [s] -->
     <g transform="translate(540.65044 348.403091) scale(0.1 -0.1)">
      <use xlink:href="#DejaVuSans-74"/>
      <use xlink:href="#DejaVuSans-20" x="39.208984"/>
      <use xlink:href="#DejaVuSans-5b" x="70.996094"/>
      <use xlink:href="#DejaVuSans-73" x="110.009766"/>
      <use xlink:href="#DejaVuSans-5d" x="162.109375"/>
     </g>
    </g>
   </g>
   <g id="matplotlib.axis_4">
    <g id="ytick_6">
     <g id="line2d_21">
      <g>
       <use xlink:href="#m4450679cc8" x="398.511818" y="306.765373" style="stroke: #000000; stroke-width: 0.8"/>
      </g>
     </g>
     <g id="text_24">
      <!-- −10.0 -->
      <g transform="translate(360.866506 310.564592) scale(0.1 -0.1)">
       <use xlink:href="#DejaVuSans-2212"/>
       <use xlink:href="#DejaVuSans-31" x="83.789062"/>
       <use xlink:href="#DejaVuSans-30" x="147.412109"/>
       <use xlink:href="#DejaVuSans-2e" x="211.035156"/>
       <use xlink:href="#DejaVuSans-30" x="242.822266"/>
      </g>
     </g>
    </g>
    <g id="ytick_7">
     <g id="line2d_22">
      <g>
       <use xlink:href="#m4450679cc8" x="398.511818" y="273.362486" style="stroke: #000000; stroke-width: 0.8"/>
      </g>
     </g>
     <g id="text_25">
      <!-- −7.5 -->
      <g transform="translate(367.229006 277.161705) scale(0.1 -0.1)">
       <defs>
        <path id="DejaVuSans-37" d="M 525 4666 
L 3525 4666 
L 3525 4397 
L 1831 0 
L 1172 0 
L 2766 4134 
L 525 4134 
L 525 4666 
z
" transform="scale(0.015625)"/>
       </defs>
       <use xlink:href="#DejaVuSans-2212"/>
       <use xlink:href="#DejaVuSans-37" x="83.789062"/>
       <use xlink:href="#DejaVuSans-2e" x="147.412109"/>
       <use xlink:href="#DejaVuSans-35" x="179.199219"/>
      </g>
     </g>
    </g>
    <g id="ytick_8">
     <g id="line2d_23">
      <g>
       <use xlink:href="#m4450679cc8" x="398.511818" y="239.959599" style="stroke: #000000; stroke-width: 0.8"/>
      </g>
     </g>
     <g id="text_26">
      <!-- −5.0 -->
      <g transform="translate(367.229006 243.758817) scale(0.1 -0.1)">
       <use xlink:href="#DejaVuSans-2212"/>
       <use xlink:href="#DejaVuSans-35" x="83.789062"/>
       <use xlink:href="#DejaVuSans-2e" x="147.412109"/>
       <use xlink:href="#DejaVuSans-30" x="179.199219"/>
      </g>
     </g>
    </g>
    <g id="ytick_9">
     <g id="line2d_24">
      <g>
       <use xlink:href="#m4450679cc8" x="398.511818" y="206.556711" style="stroke: #000000; stroke-width: 0.8"/>
      </g>
     </g>
     <g id="text_27">
      <!-- −2.5 -->
      <g transform="translate(367.229006 210.35593) scale(0.1 -0.1)">
       <use xlink:href="#DejaVuSans-2212"/>
       <use xlink:href="#DejaVuSans-32" x="83.789062"/>
       <use xlink:href="#DejaVuSans-2e" x="147.412109"/>
       <use xlink:href="#DejaVuSans-35" x="179.199219"/>
      </g>
     </g>
    </g>
    <g id="ytick_10">
     <g id="line2d_25">
      <g>
       <use xlink:href="#m4450679cc8" x="398.511818" y="173.153824" style="stroke: #000000; stroke-width: 0.8"/>
      </g>
     </g>
     <g id="text_28">
      <!-- 0.0 -->
      <g transform="translate(375.608693 176.953043) scale(0.1 -0.1)">
       <use xlink:href="#DejaVuSans-30"/>
       <use xlink:href="#DejaVuSans-2e" x="63.623047"/>
       <use xlink:href="#DejaVuSans-30" x="95.410156"/>
      </g>
     </g>
    </g>
    <g id="ytick_11">
     <g id="line2d_26">
      <g>
       <use xlink:href="#m4450679cc8" x="398.511818" y="139.750937" style="stroke: #000000; stroke-width: 0.8"/>
      </g>
     </g>
     <g id="text_29">
      <!-- 2.5 -->
      <g transform="translate(375.608693 143.550155) scale(0.1 -0.1)">
       <use xlink:href="#DejaVuSans-32"/>
       <use xlink:href="#DejaVuSans-2e" x="63.623047"/>
       <use xlink:href="#DejaVuSans-35" x="95.410156"/>
      </g>
     </g>
    </g>
    <g id="ytick_12">
     <g id="line2d_27">
      <g>
       <use xlink:href="#m4450679cc8" x="398.511818" y="106.348049" style="stroke: #000000; stroke-width: 0.8"/>
      </g>
     </g>
     <g id="text_30">
      <!-- 5.0 -->
      <g transform="translate(375.608693 110.147268) scale(0.1 -0.1)">
       <use xlink:href="#DejaVuSans-35"/>
       <use xlink:href="#DejaVuSans-2e" x="63.623047"/>
       <use xlink:href="#DejaVuSans-30" x="95.410156"/>
      </g>
     </g>
    </g>
    <g id="ytick_13">
     <g id="line2d_28">
      <g>
       <use xlink:href="#m4450679cc8" x="398.511818" y="72.945162" style="stroke: #000000; stroke-width: 0.8"/>
      </g>
     </g>
     <g id="text_31">
      <!-- 7.5 -->
      <g transform="translate(375.608693 76.744381) scale(0.1 -0.1)">
       <use xlink:href="#DejaVuSans-37"/>
       <use xlink:href="#DejaVuSans-2e" x="63.623047"/>
       <use xlink:href="#DejaVuSans-35" x="95.410156"/>
      </g>
     </g>
    </g>
    <g id="ytick_14">
     <g id="line2d_29">
      <g>
       <use xlink:href="#m4450679cc8" x="398.511818" y="39.542275" style="stroke: #000000; stroke-width: 0.8"/>
      </g>
     </g>
     <g id="text_32">
      <!-- 10.0 -->
      <g transform="translate(369.246193 43.341494) scale(0.1 -0.1)">
       <use xlink:href="#DejaVuSans-31"/>
       <use xlink:href="#DejaVuSans-30" x="63.623047"/>
       <use xlink:href="#DejaVuSans-2e" x="127.246094"/>
       <use xlink:href="#DejaVuSans-30" x="159.033203"/>
      </g>
     </g>
    </g>
   </g>
   <g id="line2d_30">
    <path d="M 398.511818 173.153824 
L 702.9 173.153824 
" clip-path="url(#pb7115375e0)" style="fill: none; stroke-dasharray: 2.775,1.2; stroke-dashoffset: 0; stroke: #000000; stroke-width: 0.75"/>
   </g>
   <g id="line2d_31">
    <path d="M 398.511818 146.431514 
L 401.619556 146.351017 
L 403.64881 146.014102 
L 405.678065 145.42715 
L 407.70732 144.607019 
L 409.736574 143.575076 
L 412.273142 142.024312 
L 415.317024 139.847752 
L 418.86822 136.991484 
L 426.477924 130.701963 
L 427.492551 130.087498 
L 428.507179 129.815074 
L 429.521806 129.639587 
L 430.02912 129.448696 
L 430.536433 129.134551 
L 431.55106 128.056136 
L 434.087629 124.792734 
L 434.594942 124.413732 
L 436.116883 123.633452 
L 438.146138 122.344525 
L 440.175392 120.812615 
L 442.71196 118.577414 
L 445.248529 115.987998 
L 447.785097 113.052692 
L 450.828979 109.147771 
L 456.916742 101.17062 
L 458.438683 99.89069 
L 463.004506 93.962075 
L 463.51182 93.718962 
L 464.526447 93.667369 
L 466.555701 93.2452 
L 468.584956 92.574946 
L 470.61421 91.665281 
L 472.643465 90.527565 
L 475.180033 88.805563 
L 477.716601 86.77865 
L 480.25317 84.479523 
L 483.297051 81.409018 
L 486.848247 77.471086 
L 490.399442 73.216707 
L 494.457951 67.99393 
L 495.472579 66.743312 
L 496.99452 65.456534 
L 498.009147 64.972589 
L 499.023774 66.226884 
L 505.111538 73.951897 
L 509.170047 78.777585 
L 512.721242 82.673527 
L 515.765124 85.698531 
L 518.301692 87.952635 
L 520.83826 89.927937 
L 523.374829 91.591843 
L 525.404083 92.678663 
L 527.433338 93.533869 
L 529.462592 94.146586 
L 531.491847 94.508753 
L 533.521101 94.615499 
L 535.550356 94.465371 
L 537.57961 94.06041 
L 539.608865 93.406048 
L 541.63812 92.510848 
L 543.667374 91.386119 
L 546.203942 89.678277 
L 548.74051 87.663314 
L 551.277079 85.374096 
L 554.32096 82.313083 
L 557.872156 78.38343 
L 561.930665 73.529533 
L 567.003801 67.095361 
L 568.525742 65.103475 
L 569.033056 64.198695 
L 569.54037 64.448791 
L 571.06231 66.307012 
L 572.584251 67.875292 
L 573.598879 68.66543 
L 574.106192 68.912708 
L 576.135447 69.19957 
L 576.64276 69.651621 
L 577.657388 70.799734 
L 578.672015 71.69162 
L 579.686642 72.312763 
L 580.193956 72.390345 
L 580.70127 72.02855 
L 581.715897 70.797183 
L 585.267092 67.173143 
L 587.80366 64.843795 
L 589.832915 63.257062 
L 591.354856 62.333236 
L 592.369483 61.91937 
L 593.38411 61.78361 
L 594.906051 62.061295 
L 595.413365 61.937208 
L 596.427992 62.063616 
L 596.935306 61.69309 
L 597.949933 60.537292 
L 600.486501 58.17291 
L 602.008442 56.998007 
L 603.02307 56.382794 
L 604.037697 55.986882 
L 604.54501 55.940387 
L 605.052324 56.082917 
L 605.559638 56.344461 
L 606.066951 56.477921 
L 606.574265 56.487031 
L 608.60352 55.85303 
L 609.110833 56.120728 
L 610.12546 56.956915 
L 611.140088 57.548267 
L 612.154715 57.918304 
L 612.662029 57.983056 
L 613.169342 57.93074 
L 613.676656 57.748262 
L 616.720538 61.537435 
L 621.28636 66.978191 
L 624.837556 70.871225 
L 627.881438 73.902011 
L 630.92532 76.59282 
L 633.461888 78.536807 
L 635.998456 80.17829 
L 638.02771 81.2558 
L 640.056965 82.111016 
L 642.08622 82.734283 
L 644.115474 83.118352 
L 646.144729 83.258667 
L 648.173983 83.153544 
L 650.203238 82.804244 
L 652.232492 82.214923 
L 654.261747 81.392456 
L 656.291001 80.346174 
L 658.320256 79.087518 
L 660.856824 77.235721 
L 663.393392 75.101215 
L 666.437274 72.209625 
L 669.481156 69.009152 
L 673.032351 64.956954 
L 677.598174 59.369852 
L 683.178624 52.168461 
L 688.25176 45.549973 
L 693.83221 38.418173 
L 702.456542 27.290281 
L 702.9 26.772578 
L 702.9 26.772578 
" clip-path="url(#pb7115375e0)" style="fill: none; stroke: #0000ff; stroke-width: 0.5; stroke-linecap: square"/>
   </g>
   <g id="line2d_32">
    <path d="M 398.511818 152.176811 
L 401.112242 152.069802 
L 411.258515 151.882195 
L 415.824338 151.605903 
L 418.86822 151.191342 
L 420.897474 150.734562 
L 422.926729 149.927884 
L 423.941356 149.379447 
L 425.463297 148.091622 
L 426.985238 145.809471 
L 428.507179 139.294585 
L 429.014492 140.157024 
L 430.02912 142.499255 
L 431.55106 154.624829 
L 432.565688 156.852265 
L 433.073001 157.821872 
L 434.594942 174.299185 
L 435.102256 174.623836 
L 441.19002 172.047203 
L 443.219274 170.920961 
L 444.741215 169.879807 
L 445.755842 169.060523 
L 447.277783 167.568973 
L 448.29241 166.39059 
L 449.814351 163.92245 
L 451.336292 159.276197 
L 452.35092 162.09087 
L 452.858233 163.640432 
L 453.87286 160.563686 
L 454.380174 158.877868 
L 454.887488 159.704549 
L 455.902115 161.861851 
L 456.916742 151.914461 
L 457.424056 146.651773 
L 458.438683 159.17044 
L 458.945997 165.979939 
L 459.45331 165.868383 
L 460.467938 164.257093 
L 461.989879 160.605573 
L 463.004506 174.19782 
L 463.51182 181.377186 
L 464.019133 181.842676 
L 488.370188 171.799803 
L 490.399442 170.59969 
L 491.921383 169.361173 
L 492.93601 168.277088 
L 493.443324 167.656308 
L 494.457951 165.798314 
L 495.472579 156.255064 
L 495.979892 154.891901 
L 496.487206 153.888891 
L 497.501833 150.36113 
L 498.009147 137.303822 
L 498.51646 207.068192 
L 499.023774 205.586296 
L 566.496488 177.847202 
L 567.511115 177.079776 
L 568.525742 175.667238 
L 569.54037 139.100739 
L 570.047683 138.301037 
L 572.076938 142.661105 
L 572.584251 143.881083 
L 573.598879 147.190872 
L 574.613506 154.580818 
L 575.12082 153.268259 
L 575.628133 151.443842 
L 576.64276 140.665225 
L 577.150074 141.137976 
L 578.164701 143.479936 
L 578.672015 144.762897 
L 579.686642 148.578087 
L 580.70127 164.941674 
L 581.208583 165.500697 
L 584.759779 163.797159 
L 586.789033 162.409325 
L 588.310974 161.033019 
L 589.325601 159.910362 
L 590.340229 158.547021 
L 590.847542 157.78763 
L 591.86217 155.843865 
L 592.876797 153.055989 
L 593.891424 147.346939 
L 594.906051 153.424902 
L 595.413365 151.391697 
L 595.920679 148.82127 
L 596.935306 162.3327 
L 597.44262 162.607069 
L 599.471874 160.810311 
L 600.486501 159.677437 
L 601.501129 158.286367 
L 602.008442 157.506984 
L 603.02307 155.477802 
L 604.037697 152.455987 
L 605.052324 144.96966 
L 605.559638 146.113806 
L 606.066951 147.758662 
L 607.081579 154.799793 
L 607.588892 153.515276 
L 608.096206 151.739892 
L 609.110833 140.798018 
L 609.618147 141.034481 
L 610.632774 142.809918 
L 611.140088 143.771093 
L 612.154715 146.34697 
L 613.169342 150.789105 
L 613.676656 138.670752 
L 614.18397 209.060567 
L 614.691283 207.635678 
L 681.14937 180.339995 
L 682.163997 179.500228 
L 683.178624 177.283613 
L 684.193251 179.318407 
L 685.207879 176.673217 
L 685.715192 177.244836 
L 686.222506 178.018118 
L 687.237133 182.7203 
L 687.744447 182.75258 
L 693.324897 180.466551 
L 694.339524 179.764949 
L 695.354151 178.050026 
L 696.368779 181.203344 
L 696.876092 181.168868 
L 698.905347 180.241735 
L 699.41266 179.928452 
L 700.427288 178.53578 
L 701.441915 185.098729 
L 701.949229 185.226334 
L 702.9 184.836851 
L 702.9 184.836851 
" clip-path="url(#pb7115375e0)" style="fill: none; stroke: #ff0000; stroke-width: 0.5; stroke-linecap: square"/>
   </g>
   <g id="patch_9">
    <path d="M 398.511818 320.126528 
L 398.511818 26.18112 
" style="fill: none; stroke: #000000; stroke-width: 0.8; stroke-linejoin: miter; stroke-linecap: square"/>
   </g>
   <g id="patch_10">
    <path d="M 702.9 320.126528 
L 702.9 26.18112 
" style="fill: none; stroke: #000000; stroke-width: 0.8; stroke-linejoin: miter; stroke-linecap: square"/>
   </g>
   <g id="patch_11">
    <path d="M 398.511818 320.126528 
L 702.9 320.126528 
" style="fill: none; stroke: #000000; stroke-width: 0.8; stroke-linejoin: miter; stroke-linecap: square"/>
   </g>
   <g id="patch_12">
    <path d="M 398.511818 26.18112 
L 702.9 26.18112 
" style="fill: none; stroke: #000000; stroke-width: 0.8; stroke-linejoin: miter; stroke-linecap: square"/>
   </g>
   <g id="legend_1">
    <g id="patch_13">
     <path d="M 608.4 63.959245 
L 695.9 63.959245 
Q 697.9 63.959245 697.9 61.959245 
L 697.9 33.18112 
Q 697.9 31.18112 695.9 31.18112 
L 608.4 31.18112 
Q 606.4 31.18112 606.4 33.18112 
L 606.4 61.959245 
Q 606.4 63.959245 608.4 63.959245 
z
" style="fill: #ffffff; opacity: 0.8; stroke: #cccccc; stroke-linejoin: miter"/>
    </g>
    <g id="line2d_33">
     <path d="M 610.4 39.38112 
L 620.4 39.38112 
L 630.4 39.38112 
" style="fill: none; stroke: #0000ff; stroke-width: 0.5; stroke-linecap: square"/>
    </g>
    <g id="text_33">
     <!-- $\Vert(x,y)\Vert$ [m] -->
     <g transform="translate(638.4 42.88112) scale(0.1 -0.1)">
      <defs>
       <path id="DejaVuSans-2016" d="M 1344 4891 
L 1344 -1509 
L 813 -1509 
L 813 4891 
L 1344 4891 
z
M 2376 4891 
L 2376 -1509 
L 1845 -1509 
L 1845 4891 
L 2376 4891 
z
" transform="scale(0.015625)"/>
       <path id="DejaVuSans-28" d="M 1984 4856 
Q 1566 4138 1362 3434 
Q 1159 2731 1159 2009 
Q 1159 1288 1364 580 
Q 1569 -128 1984 -844 
L 1484 -844 
Q 1016 -109 783 600 
Q 550 1309 550 2009 
Q 550 2706 781 3412 
Q 1013 4119 1484 4856 
L 1984 4856 
z
" transform="scale(0.015625)"/>
       <path id="DejaVuSans-Oblique-78" d="M 3841 3500 
L 2234 1784 
L 3219 0 
L 2559 0 
L 1819 1388 
L 531 0 
L -166 0 
L 1556 1844 
L 641 3500 
L 1300 3500 
L 1972 2234 
L 3144 3500 
L 3841 3500 
z
" transform="scale(0.015625)"/>
       <path id="DejaVuSans-Oblique-79" d="M 1588 -325 
Q 1188 -997 936 -1164 
Q 684 -1331 294 -1331 
L -159 -1331 
L -63 -850 
L 269 -850 
Q 509 -850 678 -719 
Q 847 -588 1056 -206 
L 1234 128 
L 459 3500 
L 1069 3500 
L 1650 819 
L 3256 3500 
L 3859 3500 
L 1588 -325 
z
" transform="scale(0.015625)"/>
       <path id="DejaVuSans-29" d="M 513 4856 
L 1013 4856 
Q 1481 4119 1714 3412 
Q 1947 2706 1947 2009 
Q 1947 1309 1714 600 
Q 1481 -109 1013 -844 
L 513 -844 
Q 928 -128 1133 580 
Q 1338 1288 1338 2009 
Q 1338 2731 1133 3434 
Q 928 4138 513 4856 
z
" transform="scale(0.015625)"/>
      </defs>
      <use xlink:href="#DejaVuSans-2016" transform="translate(0 0.578125)"/>
      <use xlink:href="#DejaVuSans-28" transform="translate(50 0.578125)"/>
      <use xlink:href="#DejaVuSans-Oblique-78" transform="translate(89.013672 0.578125)"/>
      <use xlink:href="#DejaVuSans-2c" transform="translate(148.193359 0.578125)"/>
      <use xlink:href="#DejaVuSans-Oblique-79" transform="translate(199.462891 0.578125)"/>
      <use xlink:href="#DejaVuSans-29" transform="translate(258.642578 0.578125)"/>
      <use xlink:href="#DejaVuSans-2016" transform="translate(297.65625 0.578125)"/>
      <use xlink:href="#DejaVuSans-20" transform="translate(347.65625 0.578125)"/>
      <use xlink:href="#DejaVuSans-5b" transform="translate(379.443359 0.578125)"/>
      <use xlink:href="#DejaVuSans-6d" transform="translate(418.457031 0.578125)"/>
      <use xlink:href="#DejaVuSans-5d" transform="translate(515.869141 0.578125)"/>
     </g>
    </g>
    <g id="line2d_34">
     <path d="M 610.4 54.379558 
L 620.4 54.379558 
L 630.4 54.379558 
" style="fill: none; stroke: #ff0000; stroke-width: 0.5; stroke-linecap: square"/>
    </g>
    <g id="text_34">
     <!-- $\alpha$ [rad] -->
     <g transform="translate(638.4 57.879558) scale(0.1 -0.1)">
      <defs>
       <path id="DejaVuSans-Oblique-3b1" d="M 2619 1628 
L 2622 2350 
Q 2625 3088 2069 3091 
Q 1653 3094 1394 2747 
Q 1069 2319 959 1747 
Q 825 1059 994 731 
Q 1169 397 1547 397 
Q 1966 397 2319 1063 
L 2619 1628 
z
M 2166 3578 
Q 3141 3594 3128 2584 
Q 3128 2584 3616 3500 
L 4128 3500 
L 3119 1603 
L 3109 919 
Q 3109 766 3194 638 
Q 3291 488 3391 488 
L 3669 488 
L 3575 0 
L 3228 0 
Q 2934 0 2722 263 
Q 2622 394 2619 669 
Q 2416 334 2066 50 
Q 1900 -81 1453 -78 
Q 722 -72 456 397 
Q 184 884 353 1747 
Q 534 2675 1009 3097 
Q 1544 3569 2166 3578 
z
" transform="scale(0.015625)"/>
      </defs>
      <use xlink:href="#DejaVuSans-Oblique-3b1" transform="translate(0 0.015625)"/>
      <use xlink:href="#DejaVuSans-20" transform="translate(65.917969 0.015625)"/>
      <use xlink:href="#DejaVuSans-5b" transform="translate(97.705078 0.015625)"/>
      <use xlink:href="#DejaVuSans-72" transform="translate(136.71875 0.015625)"/>
      <use xlink:href="#DejaVuSans-61" transform="translate(177.832031 0.015625)"/>
      <use xlink:href="#DejaVuSans-64" transform="translate(239.111328 0.015625)"/>
      <use xlink:href="#DejaVuSans-5d" transform="translate(302.587891 0.015625)"/>
     </g>
    </g>
   </g>
  </g>
  <g id="axes_3">
   <g id="patch_14">
    <path d="M 45.731818 660.41096 
L 350.12 660.41096 
L 350.12 366.465552 
L 45.731818 366.465552 
z
" style="fill: #ffffff"/>
   </g>
   <g id="matplotlib.axis_5">
    <g id="xtick_13">
     <g id="line2d_35">
      <g>
       <use xlink:href="#me5f5946128" x="45.731818" y="660.41096" style="stroke: #000000; stroke-width: 0.8"/>
      </g>
     </g>
     <g id="text_35">
      <!-- 0 -->
      <g transform="translate(42.550568 675.009398) scale(0.1 -0.1)">
       <use xlink:href="#DejaVuSans-30"/>
      </g>
     </g>
    </g>
    <g id="xtick_14">
     <g id="line2d_36">
      <g>
       <use xlink:href="#me5f5946128" x="96.463182" y="660.41096" style="stroke: #000000; stroke-width: 0.8"/>
      </g>
     </g>
     <g id="text_36">
      <!-- 5 -->
      <g transform="translate(93.281932 675.009398) scale(0.1 -0.1)">
       <use xlink:href="#DejaVuSans-35"/>
      </g>
     </g>
    </g>
    <g id="xtick_15">
     <g id="line2d_37">
      <g>
       <use xlink:href="#me5f5946128" x="147.194545" y="660.41096" style="stroke: #000000; stroke-width: 0.8"/>
      </g>
     </g>
     <g id="text_37">
      <!-- 10 -->
      <g transform="translate(140.832045 675.009398) scale(0.1 -0.1)">
       <use xlink:href="#DejaVuSans-31"/>
       <use xlink:href="#DejaVuSans-30" x="63.623047"/>
      </g>
     </g>
    </g>
    <g id="xtick_16">
     <g id="line2d_38">
      <g>
       <use xlink:href="#me5f5946128" x="197.925909" y="660.41096" style="stroke: #000000; stroke-width: 0.8"/>
      </g>
     </g>
     <g id="text_38">
      <!-- 15 -->
      <g transform="translate(191.563409 675.009398) scale(0.1 -0.1)">
       <use xlink:href="#DejaVuSans-31"/>
       <use xlink:href="#DejaVuSans-35" x="63.623047"/>
      </g>
     </g>
    </g>
    <g id="xtick_17">
     <g id="line2d_39">
      <g>
       <use xlink:href="#me5f5946128" x="248.657273" y="660.41096" style="stroke: #000000; stroke-width: 0.8"/>
      </g>
     </g>
     <g id="text_39">
      <!-- 20 -->
      <g transform="translate(242.294773 675.009398) scale(0.1 -0.1)">
       <use xlink:href="#DejaVuSans-32"/>
       <use xlink:href="#DejaVuSans-30" x="63.623047"/>
      </g>
     </g>
    </g>
    <g id="xtick_18">
     <g id="line2d_40">
      <g>
       <use xlink:href="#me5f5946128" x="299.388636" y="660.41096" style="stroke: #000000; stroke-width: 0.8"/>
      </g>
     </g>
     <g id="text_40">
      <!-- 25 -->
      <g transform="translate(293.026136 675.009398) scale(0.1 -0.1)">
       <use xlink:href="#DejaVuSans-32"/>
       <use xlink:href="#DejaVuSans-35" x="63.623047"/>
      </g>
     </g>
    </g>
    <g id="xtick_19">
     <g id="line2d_41">
      <g>
       <use xlink:href="#me5f5946128" x="350.12" y="660.41096" style="stroke: #000000; stroke-width: 0.8"/>
      </g>
     </g>
     <g id="text_41">
      <!-- 30 -->
      <g transform="translate(343.7575 675.009398) scale(0.1 -0.1)">
       <use xlink:href="#DejaVuSans-33"/>
       <use xlink:href="#DejaVuSans-30" x="63.623047"/>
      </g>
     </g>
    </g>
    <g id="text_42">
     <!-- t [s] -->
     <g transform="translate(187.87044 688.687523) scale(0.1 -0.1)">
      <use xlink:href="#DejaVuSans-74"/>
      <use xlink:href="#DejaVuSans-20" x="39.208984"/>
      <use xlink:href="#DejaVuSans-5b" x="70.996094"/>
      <use xlink:href="#DejaVuSans-73" x="110.009766"/>
      <use xlink:href="#DejaVuSans-5d" x="162.109375"/>
     </g>
    </g>
   </g>
   <g id="matplotlib.axis_6">
    <g id="ytick_15">
     <g id="line2d_42">
      <g>
       <use xlink:href="#m4450679cc8" x="45.731818" y="660.41096" style="stroke: #000000; stroke-width: 0.8"/>
      </g>
     </g>
     <g id="text_43">
      <!-- $\mathdefault{0}$ -->
      <g transform="translate(32.331818 664.210179) scale(0.1 -0.1)">
       <use xlink:href="#DejaVuSans-30" transform="translate(0 0.78125)"/>
      </g>
     </g>
    </g>
    <g id="ytick_16">
     <g id="line2d_43">
      <g>
       <use xlink:href="#m4450679cc8" x="45.731818" y="626.460804" style="stroke: #000000; stroke-width: 0.8"/>
      </g>
     </g>
     <g id="text_44">
      <!-- $\mathdefault{10^{0}}$ -->
      <g transform="translate(21.131818 630.260023) scale(0.1 -0.1)">
       <use xlink:href="#DejaVuSans-31" transform="translate(0 0.765625)"/>
       <use xlink:href="#DejaVuSans-30" transform="translate(63.623047 0.765625)"/>
       <use xlink:href="#DejaVuSans-30" transform="translate(128.203125 39.046875) scale(0.7)"/>
      </g>
     </g>
    </g>
    <g id="ytick_17">
     <g id="line2d_44">
      <g>
       <use xlink:href="#m4450679cc8" x="45.731818" y="549.796395" style="stroke: #000000; stroke-width: 0.8"/>
      </g>
     </g>
     <g id="text_45">
      <!-- $\mathdefault{10^{1}}$ -->
      <g transform="translate(21.131818 553.595613) scale(0.1 -0.1)">
       <use xlink:href="#DejaVuSans-31" transform="translate(0 0.684375)"/>
       <use xlink:href="#DejaVuSans-30" transform="translate(63.623047 0.684375)"/>
       <use xlink:href="#DejaVuSans-31" transform="translate(128.203125 38.965625) scale(0.7)"/>
      </g>
     </g>
    </g>
    <g id="ytick_18">
     <g id="line2d_45">
      <g>
       <use xlink:href="#m4450679cc8" x="45.731818" y="488.686114" style="stroke: #000000; stroke-width: 0.8"/>
      </g>
     </g>
     <g id="text_46">
      <!-- $\mathdefault{10^{2}}$ -->
      <g transform="translate(21.131818 492.485333) scale(0.1 -0.1)">
       <use xlink:href="#DejaVuSans-31" transform="translate(0 0.765625)"/>
       <use xlink:href="#DejaVuSans-30" transform="translate(63.623047 0.765625)"/>
       <use xlink:href="#DejaVuSans-32" transform="translate(128.203125 39.046875) scale(0.7)"/>
      </g>
     </g>
    </g>
    <g id="ytick_19">
     <g id="line2d_46">
      <g>
       <use xlink:href="#m4450679cc8" x="45.731818" y="427.575833" style="stroke: #000000; stroke-width: 0.8"/>
      </g>
     </g>
     <g id="text_47">
      <!-- $\mathdefault{10^{3}}$ -->
      <g transform="translate(21.131818 431.375052) scale(0.1 -0.1)">
       <use xlink:href="#DejaVuSans-31" transform="translate(0 0.765625)"/>
       <use xlink:href="#DejaVuSans-30" transform="translate(63.623047 0.765625)"/>
       <use xlink:href="#DejaVuSans-33" transform="translate(128.203125 39.046875) scale(0.7)"/>
      </g>
     </g>
    </g>
    <g id="ytick_20">
     <g id="line2d_47">
      <g>
       <use xlink:href="#m4450679cc8" x="45.731818" y="366.465552" style="stroke: #000000; stroke-width: 0.8"/>
      </g>
     </g>
     <g id="text_48">
      <!-- $\mathdefault{10^{4}}$ -->
      <g transform="translate(21.131818 370.264771) scale(0.1 -0.1)">
       <use xlink:href="#DejaVuSans-31" transform="translate(0 0.684375)"/>
       <use xlink:href="#DejaVuSans-30" transform="translate(63.623047 0.684375)"/>
       <use xlink:href="#DejaVuSans-34" transform="translate(128.203125 38.965625) scale(0.7)"/>
      </g>
     </g>
    </g>
   </g>
   <g id="line2d_48">
    <path d="M 45.731818 626.460804 
L 350.12 626.460804 
L 350.12 626.460804 
" clip-path="url(#p192ad9a2ce)" style="fill: none; stroke: #ff0000; stroke-width: 0.5; stroke-linecap: square"/>
   </g>
   <g id="line2d_49">
    <path d="M 45.731818 660.41096 
L 45.795674 650.225913 
L 54.420006 592.510648 
L 55.941947 588.801386 
L 57.971201 584.545915 
L 60.000456 580.879424 
L 62.02971 577.658524 
L 64.566279 574.11462 
L 67.102847 570.988675 
L 69.639415 568.192422 
L 72.683297 565.184695 
L 75.727179 562.483397 
L 79.278374 559.644372 
L 82.82957 557.079909 
L 86.888079 554.423709 
L 91.453901 551.72241 
L 96.019724 549.270836 
L 101.09286 546.788667 
L 106.67331 544.302268 
L 112.761074 541.831661 
L 119.356151 539.391653 
L 126.458542 536.992873 
L 134.57556 534.493158 
L 143.199892 532.072298 
L 152.838851 529.604716 
L 163.492438 527.120333 
L 174.653338 524.745266 
L 187.336179 522.281545 
L 201.033647 519.854894 
L 215.745742 517.474147 
L 231.979779 515.073428 
L 249.735756 512.674648 
L 269.013674 510.294481 
L 290.320847 507.890524 
L 313.657274 505.485665 
L 339.022956 503.097377 
L 350.12 502.110985 
L 350.12 502.110985 
" clip-path="url(#p192ad9a2ce)" style="fill: none; stroke: #008000; stroke-width: 0.5; stroke-linecap: square"/>
   </g>
   <g id="patch_15">
    <path d="M 45.731818 660.41096 
L 45.731818 366.465552 
" style="fill: none; stroke: #000000; stroke-width: 0.8; stroke-linejoin: miter; stroke-linecap: square"/>
   </g>
   <g id="patch_16">
    <path d="M 350.12 660.41096 
L 350.12 366.465552 
" style="fill: none; stroke: #000000; stroke-width: 0.8; stroke-linejoin: miter; stroke-linecap: square"/>
   </g>
   <g id="patch_17">
    <path d="M 45.731818 660.41096 
L 350.12 660.41096 
" style="fill: none; stroke: #000000; stroke-width: 0.8; stroke-linejoin: miter; stroke-linecap: square"/>
   </g>
   <g id="patch_18">
    <path d="M 45.731818 366.465552 
L 350.12 366.465552 
" style="fill: none; stroke: #000000; stroke-width: 0.8; stroke-linejoin: miter; stroke-linecap: square"/>
   </g>
   <g id="legend_2">
    <g id="patch_19">
     <path d="M 245.02 408.043677 
L 343.12 408.043677 
Q 345.12 408.043677 345.12 406.043677 
L 345.12 373.465552 
Q 345.12 371.465552 343.12 371.465552 
L 245.02 371.465552 
Q 243.02 371.465552 243.02 373.465552 
L 243.02 406.043677 
Q 243.02 408.043677 245.02 408.043677 
z
" style="fill: #ffffff; opacity: 0.8; stroke: #cccccc; stroke-linejoin: miter"/>
    </g>
    <g id="line2d_50">
     <path d="M 247.02 379.56399 
L 257.02 379.56399 
L 267.02 379.56399 
" style="fill: none; stroke: #ff0000; stroke-width: 0.5; stroke-linecap: square"/>
    </g>
    <g id="text_49">
     <!-- Run. obj. -->
     <g transform="translate(275.02 383.06399) scale(0.1 -0.1)">
      <defs>
       <path id="DejaVuSans-52" d="M 2841 2188 
Q 3044 2119 3236 1894 
Q 3428 1669 3622 1275 
L 4263 0 
L 3584 0 
L 2988 1197 
Q 2756 1666 2539 1819 
Q 2322 1972 1947 1972 
L 1259 1972 
L 1259 0 
L 628 0 
L 628 4666 
L 2053 4666 
Q 2853 4666 3247 4331 
Q 3641 3997 3641 3322 
Q 3641 2881 3436 2590 
Q 3231 2300 2841 2188 
z
M 1259 4147 
L 1259 2491 
L 2053 2491 
Q 2509 2491 2742 2702 
Q 2975 2913 2975 3322 
Q 2975 3731 2742 3939 
Q 2509 4147 2053 4147 
L 1259 4147 
z
" transform="scale(0.015625)"/>
       <path id="DejaVuSans-6e" d="M 3513 2113 
L 3513 0 
L 2938 0 
L 2938 2094 
Q 2938 2591 2744 2837 
Q 2550 3084 2163 3084 
Q 1697 3084 1428 2787 
Q 1159 2491 1159 1978 
L 1159 0 
L 581 0 
L 581 3500 
L 1159 3500 
L 1159 2956 
Q 1366 3272 1645 3428 
Q 1925 3584 2291 3584 
Q 2894 3584 3203 3211 
Q 3513 2838 3513 2113 
z
" transform="scale(0.015625)"/>
       <path id="DejaVuSans-62" d="M 3116 1747 
Q 3116 2381 2855 2742 
Q 2594 3103 2138 3103 
Q 1681 3103 1420 2742 
Q 1159 2381 1159 1747 
Q 1159 1113 1420 752 
Q 1681 391 2138 391 
Q 2594 391 2855 752 
Q 3116 1113 3116 1747 
z
M 1159 2969 
Q 1341 3281 1617 3432 
Q 1894 3584 2278 3584 
Q 2916 3584 3314 3078 
Q 3713 2572 3713 1747 
Q 3713 922 3314 415 
Q 2916 -91 2278 -91 
Q 1894 -91 1617 61 
Q 1341 213 1159 525 
L 1159 0 
L 581 0 
L 581 4863 
L 1159 4863 
L 1159 2969 
z
" transform="scale(0.015625)"/>
       <path id="DejaVuSans-6a" d="M 603 3500 
L 1178 3500 
L 1178 -63 
Q 1178 -731 923 -1031 
Q 669 -1331 103 -1331 
L -116 -1331 
L -116 -844 
L 38 -844 
Q 366 -844 484 -692 
Q 603 -541 603 -63 
L 603 3500 
z
M 603 4863 
L 1178 4863 
L 1178 4134 
L 603 4134 
L 603 4863 
z
" transform="scale(0.015625)"/>
      </defs>
      <use xlink:href="#DejaVuSans-52"/>
      <use xlink:href="#DejaVuSans-75" x="64.982422"/>
      <use xlink:href="#DejaVuSans-6e" x="128.361328"/>
      <use xlink:href="#DejaVuSans-2e" x="191.740234"/>
      <use xlink:href="#DejaVuSans-20" x="223.527344"/>
      <use xlink:href="#DejaVuSans-6f" x="255.314453"/>
      <use xlink:href="#DejaVuSans-62" x="316.496094"/>
      <use xlink:href="#DejaVuSans-6a" x="379.972656"/>
      <use xlink:href="#DejaVuSans-2e" x="407.755859"/>
     </g>
    </g>
    <g id="line2d_51">
     <path d="M 247.02 397.443677 
L 257.02 397.443677 
L 267.02 397.443677 
" style="fill: none; stroke: #008000; stroke-width: 0.5; stroke-linecap: square"/>
    </g>
    <g id="text_50">
     <!-- $\int \mathrm{Run.\,obj.} \,\mathrm{d}t$ -->
     <g transform="translate(275.02 400.943677) scale(0.1 -0.1)">
      <defs>
       <path id="DejaVuSansDisplay-222b" d="M 2134 5525 
Q 2172 6263 2528 6556 
Q 2884 6850 3218 6850 
Q 3553 6850 3833 6575 
Q 4113 6300 4200 5678 
L 3544 5613 
Q 3469 6188 3219 6188 
Q 2906 6188 2869 5413 
L 2581 -597 
Q 2547 -1334 2187 -1628 
Q 1828 -1922 1497 -1922 
Q 1163 -1922 883 -1647 
Q 603 -1372 516 -750 
L 1172 -684 
Q 1247 -1259 1497 -1259 
Q 1809 -1259 1847 -488 
L 2134 5525 
z
" transform="scale(0.015625)"/>
       <path id="DejaVuSans-Oblique-74" d="M 2706 3500 
L 2619 3053 
L 1472 3053 
L 1100 1153 
Q 1081 1047 1072 975 
Q 1063 903 1063 863 
Q 1063 663 1183 572 
Q 1303 481 1569 481 
L 2150 481 
L 2053 0 
L 1503 0 
Q 991 0 739 200 
Q 488 400 488 806 
Q 488 878 497 964 
Q 506 1050 525 1153 
L 897 3053 
L 409 3053 
L 500 3500 
L 978 3500 
L 1172 4494 
L 1747 4494 
L 1556 3500 
L 2706 3500 
z
" transform="scale(0.015625)"/>
      </defs>
      <use xlink:href="#DejaVuSansDisplay-222b" transform="translate(0 0.96875)"/>
      <use xlink:href="#DejaVuSans-52" transform="translate(73.632812 0.96875)"/>
      <use xlink:href="#DejaVuSans-75" transform="translate(143.115234 0.96875)"/>
      <use xlink:href="#DejaVuSans-6e" transform="translate(206.494141 0.96875)"/>
      <use xlink:href="#DejaVuSans-2e" transform="translate(269.873047 0.96875)"/>
      <use xlink:href="#DejaVuSans-6f" transform="translate(337.378254 0.96875)"/>
      <use xlink:href="#DejaVuSans-62" transform="translate(398.559895 0.96875)"/>
      <use xlink:href="#DejaVuSans-6a" transform="translate(462.036458 0.96875)"/>
      <use xlink:href="#DejaVuSans-2e" transform="translate(489.819661 0.96875)"/>
      <use xlink:href="#DejaVuSans-64" transform="translate(557.324868 0.96875)"/>
      <use xlink:href="#DejaVuSans-Oblique-74" transform="translate(620.801431 0.96875)"/>
     </g>
    </g>
   </g>
  </g>
  <g id="axes_4">
   <g id="patch_20">
    <path d="M 398.511818 660.41096 
L 702.9 660.41096 
L 702.9 366.465552 
L 398.511818 366.465552 
z
" style="fill: #ffffff"/>
   </g>
   <g id="matplotlib.axis_7">
    <g id="xtick_20">
     <g id="line2d_52">
      <g>
       <use xlink:href="#me5f5946128" x="398.511818" y="660.41096" style="stroke: #000000; stroke-width: 0.8"/>
      </g>
     </g>
     <g id="text_51">
      <!-- 0 -->
      <g transform="translate(395.330568 675.009398) scale(0.1 -0.1)">
       <use xlink:href="#DejaVuSans-30"/>
      </g>
     </g>
    </g>
    <g id="xtick_21">
     <g id="line2d_53">
      <g>
       <use xlink:href="#me5f5946128" x="449.243182" y="660.41096" style="stroke: #000000; stroke-width: 0.8"/>
      </g>
     </g>
     <g id="text_52">
      <!-- 5 -->
      <g transform="translate(446.061932 675.009398) scale(0.1 -0.1)">
       <use xlink:href="#DejaVuSans-35"/>
      </g>
     </g>
    </g>
    <g id="xtick_22">
     <g id="line2d_54">
      <g>
       <use xlink:href="#me5f5946128" x="499.974545" y="660.41096" style="stroke: #000000; stroke-width: 0.8"/>
      </g>
     </g>
     <g id="text_53">
      <!-- 10 -->
      <g transform="translate(493.612045 675.009398) scale(0.1 -0.1)">
       <use xlink:href="#DejaVuSans-31"/>
       <use xlink:href="#DejaVuSans-30" x="63.623047"/>
      </g>
     </g>
    </g>
    <g id="xtick_23">
     <g id="line2d_55">
      <g>
       <use xlink:href="#me5f5946128" x="550.705909" y="660.41096" style="stroke: #000000; stroke-width: 0.8"/>
      </g>
     </g>
     <g id="text_54">
      <!-- 15 -->
      <g transform="translate(544.343409 675.009398) scale(0.1 -0.1)">
       <use xlink:href="#DejaVuSans-31"/>
       <use xlink:href="#DejaVuSans-35" x="63.623047"/>
      </g>
     </g>
    </g>
    <g id="xtick_24">
     <g id="line2d_56">
      <g>
       <use xlink:href="#me5f5946128" x="601.437273" y="660.41096" style="stroke: #000000; stroke-width: 0.8"/>
      </g>
     </g>
     <g id="text_55">
      <!-- 20 -->
      <g transform="translate(595.074773 675.009398) scale(0.1 -0.1)">
       <use xlink:href="#DejaVuSans-32"/>
       <use xlink:href="#DejaVuSans-30" x="63.623047"/>
      </g>
     </g>
    </g>
    <g id="xtick_25">
     <g id="line2d_57">
      <g>
       <use xlink:href="#me5f5946128" x="652.168636" y="660.41096" style="stroke: #000000; stroke-width: 0.8"/>
      </g>
     </g>
     <g id="text_56">
      <!-- 25 -->
      <g transform="translate(645.806136 675.009398) scale(0.1 -0.1)">
       <use xlink:href="#DejaVuSans-32"/>
       <use xlink:href="#DejaVuSans-35" x="63.623047"/>
      </g>
     </g>
    </g>
    <g id="xtick_26">
     <g id="line2d_58">
      <g>
       <use xlink:href="#me5f5946128" x="702.9" y="660.41096" style="stroke: #000000; stroke-width: 0.8"/>
      </g>
     </g>
     <g id="text_57">
      <!-- 30 -->
      <g transform="translate(696.5375 675.009398) scale(0.1 -0.1)">
       <use xlink:href="#DejaVuSans-33"/>
       <use xlink:href="#DejaVuSans-30" x="63.623047"/>
      </g>
     </g>
    </g>
    <g id="text_58">
     <!-- t [s] -->
     <g transform="translate(540.65044 688.687523) scale(0.1 -0.1)">
      <use xlink:href="#DejaVuSans-74"/>
      <use xlink:href="#DejaVuSans-20" x="39.208984"/>
      <use xlink:href="#DejaVuSans-5b" x="70.996094"/>
      <use xlink:href="#DejaVuSans-73" x="110.009766"/>
      <use xlink:href="#DejaVuSans-5d" x="162.109375"/>
     </g>
    </g>
   </g>
   <g id="matplotlib.axis_8">
    <g id="ytick_21">
     <g id="line2d_59">
      <g>
       <use xlink:href="#m4450679cc8" x="398.511818" y="654.577216" style="stroke: #000000; stroke-width: 0.8"/>
      </g>
     </g>
     <g id="text_59">
      <!-- −3 -->
      <g transform="translate(376.769631 658.376435) scale(0.1 -0.1)">
       <use xlink:href="#DejaVuSans-2212"/>
       <use xlink:href="#DejaVuSans-33" x="83.789062"/>
      </g>
     </g>
    </g>
    <g id="ytick_22">
     <g id="line2d_60">
      <g>
       <use xlink:href="#m4450679cc8" x="398.511818" y="607.530896" style="stroke: #000000; stroke-width: 0.8"/>
      </g>
     </g>
     <g id="text_60">
      <!-- −2 -->
      <g transform="translate(376.769631 611.330115) scale(0.1 -0.1)">
       <use xlink:href="#DejaVuSans-2212"/>
       <use xlink:href="#DejaVuSans-32" x="83.789062"/>
      </g>
     </g>
    </g>
    <g id="ytick_23">
     <g id="line2d_61">
      <g>
       <use xlink:href="#m4450679cc8" x="398.511818" y="560.484576" style="stroke: #000000; stroke-width: 0.8"/>
      </g>
     </g>
     <g id="text_61">
      <!-- −1 -->
      <g transform="translate(376.769631 564.283795) scale(0.1 -0.1)">
       <use xlink:href="#DejaVuSans-2212"/>
       <use xlink:href="#DejaVuSans-31" x="83.789062"/>
      </g>
     </g>
    </g>
    <g id="ytick_24">
     <g id="line2d_62">
      <g>
       <use xlink:href="#m4450679cc8" x="398.511818" y="513.438256" style="stroke: #000000; stroke-width: 0.8"/>
      </g>
     </g>
     <g id="text_62">
      <!-- 0 -->
      <g transform="translate(385.149318 517.237475) scale(0.1 -0.1)">
       <use xlink:href="#DejaVuSans-30"/>
      </g>
     </g>
    </g>
    <g id="ytick_25">
     <g id="line2d_63">
      <g>
       <use xlink:href="#m4450679cc8" x="398.511818" y="466.391936" style="stroke: #000000; stroke-width: 0.8"/>
      </g>
     </g>
     <g id="text_63">
      <!-- 1 -->
      <g transform="translate(385.149318 470.191155) scale(0.1 -0.1)">
       <use xlink:href="#DejaVuSans-31"/>
      </g>
     </g>
    </g>
    <g id="ytick_26">
     <g id="line2d_64">
      <g>
       <use xlink:href="#m4450679cc8" x="398.511818" y="419.345616" style="stroke: #000000; stroke-width: 0.8"/>
      </g>
     </g>
     <g id="text_64">
      <!-- 2 -->
      <g transform="translate(385.149318 423.144835) scale(0.1 -0.1)">
       <use xlink:href="#DejaVuSans-32"/>
      </g>
     </g>
    </g>
    <g id="ytick_27">
     <g id="line2d_65">
      <g>
       <use xlink:href="#m4450679cc8" x="398.511818" y="372.299296" style="stroke: #000000; stroke-width: 0.8"/>
      </g>
     </g>
     <g id="text_65">
      <!-- 3 -->
      <g transform="translate(385.149318 376.098514) scale(0.1 -0.1)">
       <use xlink:href="#DejaVuSans-33"/>
      </g>
     </g>
    </g>
   </g>
   <g id="line2d_66">
    <path d="M 398.511818 513.438256 
L 702.9 513.438256 
" clip-path="url(#pbdfa86cf99)" style="fill: none; stroke-dasharray: 2.775,1.2; stroke-dashoffset: 0; stroke: #000000; stroke-width: 0.75"/>
   </g>
   <g id="line2d_67">
    <path d="M 398.511818 513.438256 
L 398.575674 523.788446 
L 399.082988 523.788446 
L 399.590301 466.391936 
L 702.9 466.391936 
L 702.9 466.391936 
" clip-path="url(#pbdfa86cf99)" style="fill: none; stroke: #1f77b4; stroke-width: 0.5; stroke-linecap: square"/>
   </g>
   <g id="line2d_68">
    <path d="M 398.511818 513.438256 
L 398.575674 526.799411 
L 399.082988 526.799411 
L 399.590301 513.158914 
L 403.141497 513.063441 
L 404.663438 512.927749 
L 406.185379 512.850516 
L 407.70732 512.63904 
L 408.214633 512.63904 
L 408.721947 512.494426 
L 409.22926 512.494426 
L 409.736574 512.31432 
L 410.243888 512.31432 
L 410.751201 512.088748 
L 411.258515 512.088748 
L 411.765829 511.80458 
L 412.273142 511.80458 
L 412.780456 511.444449 
L 413.28777 511.444449 
L 413.795083 510.985249 
L 414.302397 510.985249 
L 414.80971 510.396077 
L 415.317024 510.396077 
L 415.824338 509.635368 
L 416.331651 509.635368 
L 416.838965 508.646921 
L 417.346279 508.646921 
L 417.853592 507.354356 
L 418.86822 507.354356 
L 419.375533 504.773993 
L 420.39016 504.773993 
L 420.897474 500.9226 
L 421.912101 500.9226 
L 422.419415 495.113702 
L 423.434042 495.113702 
L 423.941356 486.327067 
L 424.955983 486.327067 
L 425.463297 473.129955 
L 426.477924 473.129955 
L 426.985238 453.316298 
L 427.999865 453.316298 
L 428.507179 415.149031 
L 429.521806 415.149031 
L 430.02912 431.996582 
L 431.043747 431.996582 
L 431.55106 558.955204 
L 432.565688 558.955204 
L 433.073001 581.785953 
L 434.087629 581.785953 
L 434.594942 650.955643 
L 435.102256 647.049805 
L 435.60957 647.049805 
L 436.116883 650.623955 
L 436.624197 647.049805 
L 437.13151 647.049805 
L 437.638824 648.475147 
L 438.146138 647.049805 
L 438.653451 647.049805 
L 439.160765 646.267553 
L 440.175392 646.267553 
L 440.682706 643.870447 
L 441.697333 643.870447 
L 442.204647 640.981892 
L 443.219274 640.981892 
L 443.726588 637.441261 
L 444.741215 637.441261 
L 445.248529 633.003563 
L 446.263156 633.003563 
L 446.77047 627.235843 
L 447.785097 627.235843 
L 448.29241 619.221593 
L 449.307038 619.221593 
L 449.814351 606.251761 
L 450.828979 606.251761 
L 451.336292 568.188299 
L 452.35092 568.188299 
L 452.858233 605.088841 
L 453.87286 605.088841 
L 454.380174 561.25018 
L 455.394801 561.25018 
L 455.902115 593.278838 
L 456.916742 593.278838 
L 457.424056 434.937231 
L 458.438683 434.937231 
L 458.945997 619.908914 
L 459.960624 619.908914 
L 460.467938 610.745639 
L 461.482565 610.745639 
L 461.989879 582.973237 
L 463.004506 582.973237 
L 463.51182 680.438196 
L 464.019133 647.049805 
L 464.526447 647.049805 
L 465.03376 680.588405 
L 465.541074 647.049805 
L 466.048388 647.049805 
L 466.555701 678.452801 
L 467.063015 647.049805 
L 467.570329 647.049805 
L 468.077642 676.282351 
L 468.584956 647.049805 
L 469.09227 647.049805 
L 469.599583 674.077522 
L 470.106897 647.049805 
L 470.61421 647.049805 
L 471.121524 671.838135 
L 471.628838 647.049805 
L 472.136151 647.049805 
L 472.643465 669.563354 
L 473.150779 647.049805 
L 473.658092 647.049805 
L 474.165406 667.251645 
L 474.67272 647.049805 
L 475.180033 647.049805 
L 475.687347 664.900704 
L 476.19466 647.049805 
L 476.701974 647.049805 
L 477.209288 662.507345 
L 477.716601 647.049805 
L 478.223915 647.049805 
L 478.731229 660.067333 
L 479.238542 647.049805 
L 479.745856 647.049805 
L 480.25317 657.575151 
L 480.760483 647.049805 
L 481.267797 655.881276 
L 481.77511 647.049805 
L 482.282424 654.158497 
L 482.789738 647.049805 
L 483.297051 652.403738 
L 483.804365 647.049805 
L 484.311679 650.613342 
L 484.818992 647.049805 
L 485.326306 648.782949 
L 485.83362 647.049805 
L 486.340933 646.907332 
L 486.848247 646.907332 
L 487.35556 644.960303 
L 487.862874 644.960303 
L 488.370188 642.666507 
L 488.877501 642.666507 
L 489.384815 639.903912 
L 489.892129 639.903912 
L 490.399442 636.489166 
L 490.906756 636.489166 
L 491.41407 632.091955 
L 491.921383 632.091955 
L 492.428697 626.013548 
L 492.93601 626.013548 
L 493.443324 616.31945 
L 493.950638 616.31945 
L 494.457951 593.644191 
L 494.965265 593.644191 
L 495.472579 467.181438 
L 495.979892 467.181438 
L 496.487206 456.255825 
L 496.99452 456.255825 
L 497.501833 441.751936 
L 498.009147 441.751936 
L 498.51646 676.28508 
L 499.023774 647.049805 
L 499.511189 702.28 
M 499.550987 702.28 
L 500.038401 647.049805 
L 500.470031 702.28 
M 500.621399 702.28 
L 501.053029 647.049805 
L 501.445537 702.28 
M 501.675148 702.28 
L 502.067656 647.049805 
L 502.433126 702.28 
M 502.716813 702.28 
L 503.082283 647.049805 
L 503.429132 702.28 
M 503.750062 702.28 
L 504.09691 647.049805 
L 504.430935 702.28 
M 504.777514 702.28 
L 505.111538 647.049805 
L 505.436765 702.28 
M 505.800938 702.28 
L 506.126165 647.049805 
L 506.445447 702.28 
M 506.82151 702.28 
L 507.140792 647.049805 
L 507.456202 702.28 
M 507.84001 702.28 
L 508.15542 647.049805 
L 508.468502 702.28 
M 508.856964 702.28 
L 509.170047 647.049805 
L 509.481988 702.28 
M 509.872733 702.28 
L 510.184674 647.049805 
L 510.496408 702.28 
M 510.887567 702.28 
L 511.199301 647.049805 
L 511.511584 702.28 
M 511.901646 702.28 
L 512.213929 647.049805 
L 512.527387 702.28 
M 512.915098 702.28 
L 513.228556 647.049805 
L 513.543723 702.28 
M 513.928016 702.28 
L 514.243183 647.049805 
L 514.560523 702.28 
M 514.940471 702.28 
L 515.25781 647.049805 
L 515.577735 702.28 
M 515.952513 702.28 
L 516.272438 647.049805 
L 516.595323 702.28 
M 516.96418 702.28 
L 517.287065 647.049805 
L 517.613258 702.28 
M 517.975499 702.28 
L 518.301692 647.049805 
L 518.631521 702.28 
M 518.986491 702.28 
L 519.31632 647.049805 
L 519.650098 702.28 
M 519.997169 702.28 
L 520.330947 647.049805 
L 520.668981 702.28 
M 521.00754 702.28 
L 521.345574 647.049805 
L 521.688165 702.28 
M 522.01761 702.28 
L 522.360201 647.049805 
L 522.70765 702.28 
M 523.02738 702.28 
L 523.374829 647.049805 
L 523.72744 702.28 
M 524.036845 702.28 
L 524.389456 647.049805 
L 524.747538 702.28 
M 525.046001 702.28 
L 525.404083 647.049805 
L 525.767954 702.28 
M 526.054839 702.28 
L 526.41871 647.049805 
L 526.788699 702.28 
M 527.063349 702.28 
L 527.433338 647.049805 
L 527.809787 702.28 
M 528.071516 702.28 
L 528.447965 647.049805 
L 528.831233 702.28 
M 529.079324 702.28 
L 529.462592 647.049805 
L 529.853058 702.28 
M 530.086754 702.28 
L 530.47722 647.049805 
L 530.875284 702.28 
M 531.093782 702.28 
L 531.491847 647.049805 
L 531.897937 702.28 
M 532.100384 702.28 
L 532.506474 647.049805 
L 532.921048 702.28 
M 533.106528 702.28 
L 533.521101 647.049805 
L 533.944649 702.28 
M 534.112181 702.28 
L 534.535729 647.049805 
L 534.968782 702.28 
M 535.117303 702.28 
L 535.550356 647.049805 
L 535.993489 702.28 
M 536.12185 702.28 
L 536.564983 647.049805 
L 537.018823 702.28 
M 537.125771 702.28 
L 537.57961 647.049805 
L 538.044843 702.28 
M 538.129006 702.28 
L 538.594238 647.049805 
L 539.071616 702.28 
M 539.131486 702.28 
L 539.608865 647.049805 
L 540.099223 702.28 
M 540.133134 702.28 
L 540.623492 647.049805 
L 541.127756 702.28 
M 541.133856 702.28 
L 541.63812 647.049805 
L 542.145433 701.015266 
L 542.652747 647.049805 
L 543.16006 699.392023 
L 543.667374 647.049805 
L 544.174688 697.742718 
L 544.682001 647.049805 
L 545.189315 696.065415 
L 545.696629 647.049805 
L 546.203942 694.357798 
L 546.711256 647.049805 
L 547.21857 692.617108 
L 547.725883 647.049805 
L 548.233197 690.840065 
L 548.74051 647.049805 
L 549.247824 689.02276 
L 549.755138 647.049805 
L 550.262451 687.160534 
L 550.769765 647.049805 
L 551.277079 685.247807 
L 551.784392 647.049805 
L 552.291706 683.277875 
L 552.79902 647.049805 
L 553.306333 681.242637 
L 553.813647 647.049805 
L 554.32096 679.132245 
L 554.828274 647.049805 
L 555.335588 676.934652 
L 555.842901 647.049805 
L 556.350215 674.634998 
L 556.857529 647.049805 
L 557.364842 672.214818 
L 557.872156 647.049805 
L 558.37947 669.650958 
L 558.886783 647.049805 
L 559.394097 666.914131 
L 559.90141 647.049805 
L 560.408724 663.966965 
L 560.916038 647.049805 
L 561.423351 660.761373 
L 561.930665 647.049805 
L 562.437979 657.235085 
L 562.945292 647.049805 
L 563.452606 653.307208 
L 563.95992 647.049805 
L 564.467233 648.873026 
L 564.974547 647.049805 
L 565.48186 643.799161 
L 565.989174 643.799161 
L 566.496488 636.397998 
L 567.003801 636.397998 
L 567.511115 622.483674 
L 568.018429 622.483674 
L 568.525742 588.98143 
L 569.033056 588.98143 
L 569.54037 412.629028 
L 570.047683 412.629028 
L 570.554997 413.070436 
L 571.06231 413.070436 
L 571.569624 415.967983 
L 572.076938 415.967983 
L 572.584251 421.690084 
L 573.091565 421.690084 
L 573.598879 431.332559 
L 574.106192 431.332559 
L 574.613506 456.051906 
L 575.12082 456.051906 
L 575.628133 445.164388 
L 576.135447 445.164388 
L 576.64276 413.431372 
L 577.150074 413.431372 
L 577.657388 416.951963 
L 578.164701 416.951963 
L 578.672015 423.916287 
L 579.179329 423.916287 
L 579.686642 435.839362 
L 580.193956 435.839362 
L 580.70127 497.503669 
L 581.208583 497.503669 
L 581.715897 498.984648 
L 582.22321 498.984648 
L 582.730524 496.977475 
L 583.237838 496.977475 
L 583.745151 494.740589 
L 584.252465 494.740589 
L 584.759779 492.223636 
L 585.267092 492.223636 
L 585.774406 489.38808 
L 586.28172 489.38808 
L 586.789033 486.183472 
L 587.296347 486.183472 
L 587.80366 482.54059 
L 588.310974 482.54059 
L 588.818288 478.358929 
L 589.325601 478.358929 
L 589.832915 473.482056 
L 590.340229 473.482056 
L 590.847542 467.64215 
L 591.354856 467.64215 
L 591.86217 460.308131 
L 592.369483 460.308131 
L 592.876797 450.107894 
L 593.38411 450.107894 
L 593.891424 430.20612 
L 594.398738 430.20612 
L 594.906051 451.500807 
L 595.413365 451.500807 
L 595.920679 435.18592 
L 596.427992 435.18592 
L 596.935306 487.019476 
L 597.44262 487.019476 
L 597.949933 486.328231 
L 598.457247 486.328231 
L 598.96456 482.449395 
L 599.471874 482.449395 
L 599.979188 478.028136 
L 600.486501 478.028136 
L 600.993815 472.876848 
L 601.501129 472.876848 
L 602.008442 466.695437 
L 602.515756 466.695437 
L 603.02307 458.860663 
L 603.530383 458.860663 
L 604.037697 447.623922 
L 604.54501 447.623922 
L 605.052324 421.387757 
L 605.559638 421.387757 
L 606.066951 430.929484 
L 606.574265 430.929484 
L 607.081579 456.470061 
L 607.588892 456.470061 
L 608.096206 445.077662 
L 608.60352 445.077662 
L 609.110833 407.557879 
L 609.618147 407.557879 
L 610.12546 410.962553 
L 610.632774 410.962553 
L 611.140088 417.25725 
L 611.647401 417.25725 
L 612.154715 426.043758 
L 612.662029 426.043758 
L 613.169342 441.853882 
L 613.676656 441.853882 
L 614.119752 702.28 
M 614.389919 702.28 
L 614.691283 647.049805 
L 614.954361 702.28 
M 615.442833 702.28 
L 615.70591 647.049805 
L 615.965884 702.28 
M 616.460564 702.28 
L 616.720538 647.049805 
L 616.978639 702.28 
M 617.477063 702.28 
L 617.735165 647.049805 
L 617.992317 702.28 
M 618.492641 702.28 
L 618.749792 647.049805 
L 619.006703 702.28 
M 619.507509 702.28 
L 619.76442 647.049805 
L 620.02165 702.28 
M 620.521817 702.28 
L 620.779047 647.049805 
L 621.037052 702.28 
M 621.535669 702.28 
L 621.793674 647.049805 
L 622.052833 702.28 
M 622.549143 702.28 
L 622.808301 647.049805 
L 623.068937 702.28 
M 623.562293 702.28 
L 623.822929 647.049805 
L 624.085321 702.28 
M 624.575163 702.28 
L 624.837556 647.049805 
L 625.101956 702.28 
M 625.587783 702.28 
L 625.852183 647.049805 
L 626.118817 702.28 
M 626.600177 702.28 
L 626.86681 647.049805 
L 627.135888 702.28 
M 627.612361 702.28 
L 627.881438 647.049805 
L 628.153154 702.28 
M 628.624349 702.28 
L 628.896065 647.049805 
L 629.170608 702.28 
M 629.636149 702.28 
L 629.910692 647.049805 
L 630.188242 702.28 
M 630.64777 702.28 
L 630.92532 647.049805 
L 631.206053 702.28 
M 631.659214 702.28 
L 631.939947 647.049805 
L 632.224037 702.28 
M 632.670484 702.28 
L 632.954574 647.049805 
L 633.242196 702.28 
M 633.681579 702.28 
L 633.969201 647.049805 
L 634.26053 702.28 
M 634.6925 702.28 
L 634.983829 647.049805 
L 635.279041 702.28 
M 635.703244 702.28 
L 635.998456 647.049805 
L 636.297733 702.28 
M 636.713806 702.28 
L 637.013083 647.049805 
L 637.316611 702.28 
M 637.724183 702.28 
L 638.02771 647.049805 
L 638.335681 702.28 
M 638.734368 702.28 
L 639.042338 647.049805 
L 639.35495 702.28 
M 639.744353 702.28 
L 640.056965 647.049805 
L 640.374427 702.28 
M 640.754131 702.28 
L 641.071592 647.049805 
L 641.394121 702.28 
M 641.763691 702.28 
L 642.08622 647.049805 
L 642.414044 702.28 
M 642.773023 702.28 
L 643.100847 647.049805 
L 643.434208 702.28 
M 643.782113 702.28 
L 644.115474 647.049805 
L 644.454627 702.28 
M 644.790949 702.28 
L 645.130101 647.049805 
L 645.475317 702.28 
M 645.799513 702.28 
L 646.144729 647.049805 
L 646.496297 702.28 
M 646.807788 702.28 
L 647.159356 647.049805 
L 647.517585 702.28 
M 647.815754 702.28 
L 648.173983 647.049805 
L 648.539206 702.28 
M 648.823388 702.28 
L 649.18861 647.049805 
L 649.561184 702.28 
M 649.830665 702.28 
L 650.203238 647.049805 
L 650.583548 702.28 
M 650.837555 702.28 
L 651.217865 647.049805 
L 651.606332 702.28 
M 651.844025 702.28 
L 652.232492 647.049805 
L 652.629573 702.28 
M 652.850038 702.28 
L 653.24712 647.049805 
L 653.653315 702.28 
M 653.855552 702.28 
L 654.261747 647.049805 
L 654.677606 702.28 
M 654.860515 702.28 
L 655.276374 647.049805 
L 655.702505 702.28 
M 655.86487 702.28 
L 656.291001 647.049805 
L 656.728079 702.28 
M 656.868551 702.28 
L 657.305629 647.049805 
L 657.754407 702.28 
M 657.871478 702.28 
L 658.320256 647.049805 
L 658.781582 702.28 
M 658.873557 702.28 
L 659.334883 647.049805 
L 659.809716 702.28 
M 659.874678 702.28 
L 660.34951 647.049805 
L 660.838943 702.28 
M 660.874706 702.28 
L 661.364138 647.049805 
L 661.869427 702.28 
M 661.873475 702.28 
L 662.378765 647.049805 
L 662.886079 700.663783 
L 663.393392 647.049805 
L 663.900706 698.780124 
L 664.40802 647.049805 
L 664.915333 696.843786 
L 665.422647 647.049805 
L 665.92996 694.84692 
L 666.437274 647.049805 
L 666.944588 692.779934 
L 667.451901 647.049805 
L 667.959215 690.631005 
L 668.466529 647.049805 
L 668.973842 688.385434 
L 669.481156 647.049805 
L 669.98847 686.024764 
L 670.495783 647.049805 
L 671.003097 683.525573 
L 671.51041 647.049805 
L 672.017724 680.857806 
L 672.525038 647.049805 
L 673.032351 677.982434 
L 673.539665 647.049805 
L 674.046979 674.848185 
L 674.554292 647.049805 
L 675.061606 671.386943 
L 675.56892 647.049805 
L 676.076233 667.507412 
L 676.583547 647.049805 
L 677.09086 663.086743 
L 677.598174 647.049805 
L 678.105488 657.960721 
L 678.612801 647.049805 
L 679.120115 651.915983 
L 679.627429 647.049805 
L 680.134742 644.695674 
L 680.642056 644.695674 
L 681.14937 634.420974 
L 681.656683 634.420974 
L 682.163997 612.262395 
L 682.67131 612.262395 
L 683.178624 562.043924 
L 683.685938 562.043924 
L 684.193251 607.783651 
L 684.700565 607.783651 
L 685.207879 553.816858 
L 685.715192 553.816858 
L 686.222506 574.698569 
L 686.72982 574.698569 
L 687.237133 672.241798 
L 687.744447 647.049805 
L 688.25176 670.580488 
L 688.759074 647.049805 
L 689.266388 666.242525 
L 689.773701 647.049805 
L 690.281015 661.142048 
L 690.788329 647.049805 
L 691.295642 655.003701 
L 691.802956 647.049805 
L 692.31027 647.464085 
L 692.817583 647.049805 
L 693.324897 638.115054 
L 693.83221 638.115054 
L 694.339524 617.853133 
L 694.846838 617.853133 
L 695.354151 569.666155 
L 695.861465 569.666155 
L 696.368779 654.38169 
L 696.876092 647.049805 
L 697.383406 649.877626 
L 697.89072 647.049805 
L 698.398033 640.608938 
L 698.905347 640.608938 
L 699.41266 622.704634 
L 699.919974 622.704634 
L 700.427288 578.396132 
L 700.934601 578.396132 
L 701.441915 690.63766 
L 701.949229 647.049805 
L 702.456542 690.180151 
L 702.9 647.049805 
L 702.9 647.049805 
" clip-path="url(#pbdfa86cf99)" style="fill: none; stroke: #ff7f0e; stroke-width: 0.5; stroke-linecap: square"/>
   </g>
   <g id="patch_21">
    <path d="M 398.511818 660.41096 
L 398.511818 366.465552 
" style="fill: none; stroke: #000000; stroke-width: 0.8; stroke-linejoin: miter; stroke-linecap: square"/>
   </g>
   <g id="patch_22">
    <path d="M 702.9 660.41096 
L 702.9 366.465552 
" style="fill: none; stroke: #000000; stroke-width: 0.8; stroke-linejoin: miter; stroke-linecap: square"/>
   </g>
   <g id="patch_23">
    <path d="M 398.511818 660.41096 
L 702.9 660.41096 
" style="fill: none; stroke: #000000; stroke-width: 0.8; stroke-linejoin: miter; stroke-linecap: square"/>
   </g>
   <g id="patch_24">
    <path d="M 398.511818 366.465552 
L 702.9 366.465552 
" style="fill: none; stroke: #000000; stroke-width: 0.8; stroke-linejoin: miter; stroke-linecap: square"/>
   </g>
   <g id="legend_3">
    <g id="patch_25">
     <path d="M 619.3 403.821802 
L 695.9 403.821802 
Q 697.9 403.821802 697.9 401.821802 
L 697.9 373.465552 
Q 697.9 371.465552 695.9 371.465552 
L 619.3 371.465552 
Q 617.3 371.465552 617.3 373.465552 
L 617.3 401.821802 
Q 617.3 403.821802 619.3 403.821802 
z
" style="fill: #ffffff; opacity: 0.8; stroke: #cccccc; stroke-linejoin: miter"/>
    </g>
    <g id="line2d_69">
     <path d="M 621.3 379.56399 
L 631.3 379.56399 
L 641.3 379.56399 
" style="fill: none; stroke: #1f77b4; stroke-width: 0.5; stroke-linecap: square"/>
    </g>
    <g id="text_66">
     <!-- v [m/s] -->
     <g transform="translate(649.3 383.06399) scale(0.1 -0.1)">
      <defs>
       <path id="DejaVuSans-76" d="M 191 3500 
L 800 3500 
L 1894 563 
L 2988 3500 
L 3597 3500 
L 2284 0 
L 1503 0 
L 191 3500 
z
" transform="scale(0.015625)"/>
       <path id="DejaVuSans-2f" d="M 1625 4666 
L 2156 4666 
L 531 -594 
L 0 -594 
L 1625 4666 
z
" transform="scale(0.015625)"/>
      </defs>
      <use xlink:href="#DejaVuSans-76"/>
      <use xlink:href="#DejaVuSans-20" x="59.179688"/>
      <use xlink:href="#DejaVuSans-5b" x="90.966797"/>
      <use xlink:href="#DejaVuSans-6d" x="129.980469"/>
      <use xlink:href="#DejaVuSans-2f" x="227.392578"/>
      <use xlink:href="#DejaVuSans-73" x="261.083984"/>
      <use xlink:href="#DejaVuSans-5d" x="313.183594"/>
     </g>
    </g>
    <g id="line2d_70">
     <path d="M 621.3 394.242115 
L 631.3 394.242115 
L 641.3 394.242115 
" style="fill: none; stroke: #ff7f0e; stroke-width: 0.5; stroke-linecap: square"/>
    </g>
    <g id="text_67">
     <!-- $\omega$ [rad/s] -->
     <g transform="translate(649.3 397.742115) scale(0.1 -0.1)">
      <defs>
       <path id="DejaVuSans-Oblique-3c9" d="M 1369 -91 
Q 72 -91 434 1766 
Q 575 2500 1256 3500 
L 1875 3500 
Q 1231 2500 1088 1750 
Q 819 397 1519 397 
Q 2166 397 2478 2078 
L 3009 2078 
Q 2669 388 3316 397 
Q 4013 403 4275 1750 
Q 4419 2500 4169 3500 
L 4788 3500 
Q 5075 2500 4934 1766 
Q 4578 -94 3278 -91 
Q 2428 -88 2503 844 
Q 2194 -91 1369 -91 
z
" transform="scale(0.015625)"/>
      </defs>
      <use xlink:href="#DejaVuSans-Oblique-3c9" transform="translate(0 0.015625)"/>
      <use xlink:href="#DejaVuSans-20" transform="translate(83.740234 0.015625)"/>
      <use xlink:href="#DejaVuSans-5b" transform="translate(115.527344 0.015625)"/>
      <use xlink:href="#DejaVuSans-72" transform="translate(154.541016 0.015625)"/>
      <use xlink:href="#DejaVuSans-61" transform="translate(195.654297 0.015625)"/>
      <use xlink:href="#DejaVuSans-64" transform="translate(256.933594 0.015625)"/>
      <use xlink:href="#DejaVuSans-2f" transform="translate(320.410156 0.015625)"/>
      <use xlink:href="#DejaVuSans-73" transform="translate(354.101562 0.015625)"/>
      <use xlink:href="#DejaVuSans-5d" transform="translate(406.201172 0.015625)"/>
     </g>
    </g>
   </g>
  </g>
  <g id="text_68">
   <!-- $\int \mathrm{Run.\,obj.} \,\mathrm{d}t$ = 60.3 -->
   <g transform="translate(36 354.49) scale(0.1 -0.1)">
    <defs>
     <path id="DejaVuSans-36" d="M 2113 2584 
Q 1688 2584 1439 2293 
Q 1191 2003 1191 1497 
Q 1191 994 1439 701 
Q 1688 409 2113 409 
Q 2538 409 2786 701 
Q 3034 994 3034 1497 
Q 3034 2003 2786 2293 
Q 2538 2584 2113 2584 
z
M 3366 4563 
L 3366 3988 
Q 3128 4100 2886 4159 
Q 2644 4219 2406 4219 
Q 1781 4219 1451 3797 
Q 1122 3375 1075 2522 
Q 1259 2794 1537 2939 
Q 1816 3084 2150 3084 
Q 2853 3084 3261 2657 
Q 3669 2231 3669 1497 
Q 3669 778 3244 343 
Q 2819 -91 2113 -91 
Q 1303 -91 875 529 
Q 447 1150 447 2328 
Q 447 3434 972 4092 
Q 1497 4750 2381 4750 
Q 2619 4750 2861 4703 
Q 3103 4656 3366 4563 
z
" transform="scale(0.015625)"/>
    </defs>
    <use xlink:href="#DejaVuSansDisplay-222b" transform="translate(0 0.96875)"/>
    <use xlink:href="#DejaVuSans-52" transform="translate(73.632812 0.96875)"/>
    <use xlink:href="#DejaVuSans-75" transform="translate(143.115234 0.96875)"/>
    <use xlink:href="#DejaVuSans-6e" transform="translate(206.494141 0.96875)"/>
    <use xlink:href="#DejaVuSans-2e" transform="translate(269.873047 0.96875)"/>
    <use xlink:href="#DejaVuSans-6f" transform="translate(337.378254 0.96875)"/>
    <use xlink:href="#DejaVuSans-62" transform="translate(398.559895 0.96875)"/>
    <use xlink:href="#DejaVuSans-6a" transform="translate(462.036458 0.96875)"/>
    <use xlink:href="#DejaVuSans-2e" transform="translate(489.819661 0.96875)"/>
    <use xlink:href="#DejaVuSans-64" transform="translate(557.324868 0.96875)"/>
    <use xlink:href="#DejaVuSans-Oblique-74" transform="translate(620.801431 0.96875)"/>
    <use xlink:href="#DejaVuSans-20" transform="translate(660.010415 0.96875)"/>
    <use xlink:href="#DejaVuSans-3d" transform="translate(691.797524 0.96875)"/>
    <use xlink:href="#DejaVuSans-20" transform="translate(775.586587 0.96875)"/>
    <use xlink:href="#DejaVuSans-36" transform="translate(807.373696 0.96875)"/>
    <use xlink:href="#DejaVuSans-30" transform="translate(870.996743 0.96875)"/>
    <use xlink:href="#DejaVuSans-2e" transform="translate(934.61979 0.96875)"/>
    <use xlink:href="#DejaVuSans-33" transform="translate(966.406899 0.96875)"/>
   </g>
  </g>
 </g>
 <defs>
  <clipPath id="p49cdf1436e">
   <rect x="50.953205" y="26.18112" width="293.945408" height="293.945408"/>
  </clipPath>
  <clipPath id="pb7115375e0">
   <rect x="398.511818" y="26.18112" width="304.388182" height="293.945408"/>
  </clipPath>
  <clipPath id="p192ad9a2ce">
   <rect x="45.731818" y="366.465552" width="304.388182" height="293.945408"/>
  </clipPath>
  <clipPath id="pbdfa86cf99">
   <rect x="398.511818" y="366.465552" width="304.388182" height="293.945408"/>
  </clipPath>
 </defs>
</svg>
