<?xml version="1.0" encoding="utf-8" standalone="no"?>
<!DOCTYPE svg PUBLIC "-//W3C//DTD SVG 1.1//EN"
  "http://www.w3.org/Graphics/SVG/1.1/DTD/svg11.dtd">
<svg xmlns:xlink="http://www.w3.org/1999/xlink" width="720pt" height="701.28pt" viewBox="0 0 720 701.28" xmlns="http://www.w3.org/2000/svg" version="1.1">
 <metadata>
  <rdf:RDF xmlns:dc="http://purl.org/dc/elements/1.1/" xmlns:cc="http://creativecommons.org/ns#" xmlns:rdf="http://www.w3.org/1999/02/22-rdf-syntax-ns#">
   <cc:Work>
    <dc:type rdf:resource="http://purl.org/dc/dcmitype/StillImage"/>
    <dc:date>2024-07-07T19:23:34.592871</dc:date>
    <dc:format>image/svg+xml</dc:format>
    <dc:creator>
     <cc:Agent>
      <dc:title>Matplotlib v3.7.5, https://matplotlib.org/</dc:title>
     </cc:Agent>
    </dc:creator>
   </cc:Work>
  </rdf:RDF>
 </metadata>
 <defs>
  <style type="text/css">*{stroke-linejoin: round; stroke-linecap: butt}</style>
 </defs>
 <g id="figure_1">
  <g id="patch_1">
   <path d="M 0 701.28 
L 720 701.28 
L 720 0 
L 0 0 
z
" style="fill: #ffffff"/>
  </g>
  <g id="axes_1">
   <g id="patch_2">
    <path d="M 49.585709 322.86152 
L 346.266109 322.86152 
L 346.266109 26.18112 
L 49.585709 26.18112 
z
" style="fill: #ffffff"/>
   </g>
   <g id="patch_3">
    <path d="M 197.925909 180.454928 
C 199.49952 180.454928 201.008892 179.829726 202.121604 178.717014 
C 203.234315 177.604303 203.859517 176.094931 203.859517 174.52132 
C 203.859517 172.947709 203.234315 171.438337 202.121604 170.325626 
C 201.008892 169.212914 199.49952 168.587712 197.925909 168.587712 
C 196.352298 168.587712 194.842926 169.212914 193.730215 170.325626 
C 192.617503 171.438337 191.992301 172.947709 191.992301 174.52132 
C 191.992301 176.094931 192.617503 177.604303 193.730215 178.717014 
C 194.842926 179.829726 196.352298 180.454928 197.925909 180.454928 
z
" clip-path="url(#p55abb74592)" style="fill: #bfbf00; stroke: #bfbf00; stroke-width: 2; stroke-linejoin: miter"/>
   </g>
   <g id="PathCollection_1">
    <defs>
     <path id="m3915c2c36d" d="M -9.919371 1.9478 
L -3.695977 1.654838 
L -3.746019 0.591791 
L -1.830393 0.501614 
L -1.620623 4.957498 
L 2.643503 4.756778 
L 2.721895 6.422057 
L 0.13184 6.543971 
L 0.281038 9.713372 
L 6.504444 9.420421 
L 6.355246 6.251008 
L 3.765203 6.372932 
L 3.686811 4.707654 
L 7.950937 4.506923 
L 7.48228 -5.448744 
L 3.218153 -5.248025 
L 3.140184 -6.904337 
L 5.730226 -7.026261 
L 5.581 -10.196264 
L -0.642393 -9.903302 
L -0.493179 -6.733298 
L 2.096875 -6.855223 
L 2.174846 -5.1989 
L -2.08928 -4.998169 
L -1.879522 -0.542285 
L -3.795172 -0.452106 
L -3.845202 -1.515154 
L -10.068608 -1.22219 
L -9.919371 1.9478 
z
" style="stroke: #0000ff"/>
    </defs>
    <g clip-path="url(#p55abb74592)">
     <use xlink:href="#m3915c2c36d" x="191.20171" y="190.017828" style="fill: #0000ff; stroke: #0000ff"/>
    </g>
   </g>
   <g id="matplotlib.axis_1">
    <g id="xtick_1">
     <g id="line2d_1">
      <defs>
       <path id="m2cf0fa0f10" d="M 0 0 
L 0 3.5 
" style="stroke: #000000; stroke-width: 0.8"/>
      </defs>
      <g>
       <use xlink:href="#m2cf0fa0f10" x="79.253749" y="322.86152" style="stroke: #000000; stroke-width: 0.8"/>
      </g>
     </g>
     <g id="text_1">
      <!-- −4 -->
      <g transform="translate(71.882655 337.459958) scale(0.1 -0.1)">
       <defs>
        <path id="DejaVuSans-2212" d="M 678 2272 
L 4684 2272 
L 4684 1741 
L 678 1741 
L 678 2272 
z
" transform="scale(0.015625)"/>
        <path id="DejaVuSans-34" d="M 2419 4116 
L 825 1625 
L 2419 1625 
L 2419 4116 
z
M 2253 4666 
L 3047 4666 
L 3047 1625 
L 3713 1625 
L 3713 1100 
L 3047 1100 
L 3047 0 
L 2419 0 
L 2419 1100 
L 313 1100 
L 313 1709 
L 2253 4666 
z
" transform="scale(0.015625)"/>
       </defs>
       <use xlink:href="#DejaVuSans-2212"/>
       <use xlink:href="#DejaVuSans-34" x="83.789062"/>
      </g>
     </g>
    </g>
    <g id="xtick_2">
     <g id="line2d_2">
      <g>
       <use xlink:href="#m2cf0fa0f10" x="138.589829" y="322.86152" style="stroke: #000000; stroke-width: 0.8"/>
      </g>
     </g>
     <g id="text_2">
      <!-- −2 -->
      <g transform="translate(131.218735 337.459958) scale(0.1 -0.1)">
       <defs>
        <path id="DejaVuSans-32" d="M 1228 531 
L 3431 531 
L 3431 0 
L 469 0 
L 469 531 
Q 828 903 1448 1529 
Q 2069 2156 2228 2338 
Q 2531 2678 2651 2914 
Q 2772 3150 2772 3378 
Q 2772 3750 2511 3984 
Q 2250 4219 1831 4219 
Q 1534 4219 1204 4116 
Q 875 4013 500 3803 
L 500 4441 
Q 881 4594 1212 4672 
Q 1544 4750 1819 4750 
Q 2544 4750 2975 4387 
Q 3406 4025 3406 3419 
Q 3406 3131 3298 2873 
Q 3191 2616 2906 2266 
Q 2828 2175 2409 1742 
Q 1991 1309 1228 531 
z
" transform="scale(0.015625)"/>
       </defs>
       <use xlink:href="#DejaVuSans-2212"/>
       <use xlink:href="#DejaVuSans-32" x="83.789062"/>
      </g>
     </g>
    </g>
    <g id="xtick_3">
     <g id="line2d_3">
      <g>
       <use xlink:href="#m2cf0fa0f10" x="197.925909" y="322.86152" style="stroke: #000000; stroke-width: 0.8"/>
      </g>
     </g>
     <g id="text_3">
      <!-- 0 -->
      <g transform="translate(194.744659 337.459958) scale(0.1 -0.1)">
       <defs>
        <path id="DejaVuSans-30" d="M 2034 4250 
Q 1547 4250 1301 3770 
Q 1056 3291 1056 2328 
Q 1056 1369 1301 889 
Q 1547 409 2034 409 
Q 2525 409 2770 889 
Q 3016 1369 3016 2328 
Q 3016 3291 2770 3770 
Q 2525 4250 2034 4250 
z
M 2034 4750 
Q 2819 4750 3233 4129 
Q 3647 3509 3647 2328 
Q 3647 1150 3233 529 
Q 2819 -91 2034 -91 
Q 1250 -91 836 529 
Q 422 1150 422 2328 
Q 422 3509 836 4129 
Q 1250 4750 2034 4750 
z
" transform="scale(0.015625)"/>
       </defs>
       <use xlink:href="#DejaVuSans-30"/>
      </g>
     </g>
    </g>
    <g id="xtick_4">
     <g id="line2d_4">
      <g>
       <use xlink:href="#m2cf0fa0f10" x="257.261989" y="322.86152" style="stroke: #000000; stroke-width: 0.8"/>
      </g>
     </g>
     <g id="text_4">
      <!-- 2 -->
      <g transform="translate(254.080739 337.459958) scale(0.1 -0.1)">
       <use xlink:href="#DejaVuSans-32"/>
      </g>
     </g>
    </g>
    <g id="xtick_5">
     <g id="line2d_5">
      <g>
       <use xlink:href="#m2cf0fa0f10" x="316.598069" y="322.86152" style="stroke: #000000; stroke-width: 0.8"/>
      </g>
     </g>
     <g id="text_5">
      <!-- 4 -->
      <g transform="translate(313.416819 337.459958) scale(0.1 -0.1)">
       <use xlink:href="#DejaVuSans-34"/>
      </g>
     </g>
    </g>
    <g id="text_6">
     <!-- x [m] -->
     <g transform="translate(184.605597 351.138083) scale(0.1 -0.1)">
      <defs>
       <path id="DejaVuSans-78" d="M 3513 3500 
L 2247 1797 
L 3578 0 
L 2900 0 
L 1881 1375 
L 863 0 
L 184 0 
L 1544 1831 
L 300 3500 
L 978 3500 
L 1906 2253 
L 2834 3500 
L 3513 3500 
z
" transform="scale(0.015625)"/>
       <path id="DejaVuSans-20" transform="scale(0.015625)"/>
       <path id="DejaVuSans-5b" d="M 550 4863 
L 1875 4863 
L 1875 4416 
L 1125 4416 
L 1125 -397 
L 1875 -397 
L 1875 -844 
L 550 -844 
L 550 4863 
z
" transform="scale(0.015625)"/>
       <path id="DejaVuSans-6d" d="M 3328 2828 
Q 3544 3216 3844 3400 
Q 4144 3584 4550 3584 
Q 5097 3584 5394 3201 
Q 5691 2819 5691 2113 
L 5691 0 
L 5113 0 
L 5113 2094 
Q 5113 2597 4934 2840 
Q 4756 3084 4391 3084 
Q 3944 3084 3684 2787 
Q 3425 2491 3425 1978 
L 3425 0 
L 2847 0 
L 2847 2094 
Q 2847 2600 2669 2842 
Q 2491 3084 2119 3084 
Q 1678 3084 1418 2786 
Q 1159 2488 1159 1978 
L 1159 0 
L 581 0 
L 581 3500 
L 1159 3500 
L 1159 2956 
Q 1356 3278 1631 3431 
Q 1906 3584 2284 3584 
Q 2666 3584 2933 3390 
Q 3200 3197 3328 2828 
z
" transform="scale(0.015625)"/>
       <path id="DejaVuSans-5d" d="M 1947 4863 
L 1947 -844 
L 622 -844 
L 622 -397 
L 1369 -397 
L 1369 4416 
L 622 4416 
L 622 4863 
L 1947 4863 
z
" transform="scale(0.015625)"/>
      </defs>
      <use xlink:href="#DejaVuSans-78"/>
      <use xlink:href="#DejaVuSans-20" x="59.179688"/>
      <use xlink:href="#DejaVuSans-5b" x="90.966797"/>
      <use xlink:href="#DejaVuSans-6d" x="129.980469"/>
      <use xlink:href="#DejaVuSans-5d" x="227.392578"/>
     </g>
    </g>
   </g>
   <g id="matplotlib.axis_2">
    <g id="ytick_1">
     <g id="line2d_6">
      <defs>
       <path id="m8fcc87584b" d="M 0 0 
L -3.5 0 
" style="stroke: #000000; stroke-width: 0.8"/>
      </defs>
      <g>
       <use xlink:href="#m8fcc87584b" x="49.585709" y="293.19348" style="stroke: #000000; stroke-width: 0.8"/>
      </g>
     </g>
     <g id="text_7">
      <!-- −4 -->
      <g transform="translate(27.843522 296.992699) scale(0.1 -0.1)">
       <use xlink:href="#DejaVuSans-2212"/>
       <use xlink:href="#DejaVuSans-34" x="83.789062"/>
      </g>
     </g>
    </g>
    <g id="ytick_2">
     <g id="line2d_7">
      <g>
       <use xlink:href="#m8fcc87584b" x="49.585709" y="233.8574" style="stroke: #000000; stroke-width: 0.8"/>
      </g>
     </g>
     <g id="text_8">
      <!-- −2 -->
      <g transform="translate(27.843522 237.656619) scale(0.1 -0.1)">
       <use xlink:href="#DejaVuSans-2212"/>
       <use xlink:href="#DejaVuSans-32" x="83.789062"/>
      </g>
     </g>
    </g>
    <g id="ytick_3">
     <g id="line2d_8">
      <g>
       <use xlink:href="#m8fcc87584b" x="49.585709" y="174.52132" style="stroke: #000000; stroke-width: 0.8"/>
      </g>
     </g>
     <g id="text_9">
      <!-- 0 -->
      <g transform="translate(36.223209 178.320539) scale(0.1 -0.1)">
       <use xlink:href="#DejaVuSans-30"/>
      </g>
     </g>
    </g>
    <g id="ytick_4">
     <g id="line2d_9">
      <g>
       <use xlink:href="#m8fcc87584b" x="49.585709" y="115.18524" style="stroke: #000000; stroke-width: 0.8"/>
      </g>
     </g>
     <g id="text_10">
      <!-- 2 -->
      <g transform="translate(36.223209 118.984459) scale(0.1 -0.1)">
       <use xlink:href="#DejaVuSans-32"/>
      </g>
     </g>
    </g>
    <g id="ytick_5">
     <g id="line2d_10">
      <g>
       <use xlink:href="#m8fcc87584b" x="49.585709" y="55.84916" style="stroke: #000000; stroke-width: 0.8"/>
      </g>
     </g>
     <g id="text_11">
      <!-- 4 -->
      <g transform="translate(36.223209 59.648379) scale(0.1 -0.1)">
       <use xlink:href="#DejaVuSans-34"/>
      </g>
     </g>
    </g>
    <g id="text_12">
     <!-- y [m] -->
     <g transform="translate(21.763834 187.841633) rotate(-90) scale(0.1 -0.1)">
      <defs>
       <path id="DejaVuSans-79" d="M 2059 -325 
Q 1816 -950 1584 -1140 
Q 1353 -1331 966 -1331 
L 506 -1331 
L 506 -850 
L 844 -850 
Q 1081 -850 1212 -737 
Q 1344 -625 1503 -206 
L 1606 56 
L 191 3500 
L 800 3500 
L 1894 763 
L 2988 3500 
L 3597 3500 
L 2059 -325 
z
" transform="scale(0.015625)"/>
      </defs>
      <use xlink:href="#DejaVuSans-79"/>
      <use xlink:href="#DejaVuSans-20" x="59.179688"/>
      <use xlink:href="#DejaVuSans-5b" x="90.966797"/>
      <use xlink:href="#DejaVuSans-6d" x="129.980469"/>
      <use xlink:href="#DejaVuSans-5d" x="227.392578"/>
     </g>
    </g>
   </g>
   <g id="line2d_11">
    <path d="M 49.585709 174.52132 
L 346.266109 174.52132 
" clip-path="url(#p55abb74592)" style="fill: none; stroke-dasharray: 2.775,1.2; stroke-dashoffset: 0; stroke: #000000; stroke-width: 0.75"/>
   </g>
   <g id="line2d_12">
    <path d="M 197.925909 322.86152 
L 197.925909 26.18112 
" clip-path="url(#p55abb74592)" style="fill: none; stroke-dasharray: 2.775,1.2; stroke-dashoffset: 0; stroke: #000000; stroke-width: 0.75"/>
   </g>
   <g id="line2d_13">
    <path d="M 108.921789 263.52544 
L 108.865051 265.121156 
L 108.775516 266.096024 
L 111.405766 256.969936 
L 117.790363 249.645385 
L 126.585032 245.464111 
L 136.298632 244.90648 
L 146.717409 247.037898 
L 156.439217 248.190297 
L 166.197608 248.974759 
L 174.525434 248.674614 
L 182.178907 246.412785 
L 189.055006 242.361764 
L 196.864816 236.07212 
L 204.77667 230.306145 
L 214.16647 225.611526 
L 223.882604 225.517422 
L 232.769256 229.446743 
L 226.290133 223.550199 
L 218.858715 217.176792 
L 211.61479 210.591062 
L 203.496699 204.33675 
L 194.379765 200.854858 
L 184.658248 199.998041 
L 176.415957 201.236881 
L 168.714369 203.889391 
L 161.618631 207.889488 
L 168.910132 203.146405 
L 177.871891 199.226553 
L 187.353905 196.813691 
L 197.110342 196.188101 
L 206.862829 197.154619 
L 216.391813 199.371923 
L 208.279453 197.275124 
L 198.555382 196.207058 
L 188.777693 196.507854 
L 179.140261 198.185038 
L 187.282413 196.400401 
L 197.018436 195.417698 
L 206.802531 195.579483 
L 216.485793 196.978998 
L 208.348598 195.491082 
L 198.593636 194.705742 
L 188.809942 194.937595 
L 179.115284 196.266318 
L 187.236009 194.917209 
L 196.999028 194.235077 
L 206.781645 194.512459 
L 216.482818 195.798815 
L 208.3714 194.534219 
L 198.603671 193.920923 
L 188.822171 194.239674 
L 179.120747 195.526751 
L 187.224516 194.282689 
L 196.992759 193.676186 
L 206.774686 193.985033 
L 216.480692 195.238615 
L 208.570726 194.057591 
L 199.007321 193.475581 
L 189.243627 193.773008 
L 179.533288 194.993933 
L 187.20722 193.877767 
L 196.519383 193.31849 
L 206.260766 193.599815 
L 215.975849 194.783736 
L 208.600687 193.743117 
L 199.609017 193.21588 
L 189.896567 193.489818 
L 180.178429 194.64947 
L 187.307372 193.665567 
L 196.034246 193.163808 
L 205.722634 193.436646 
L 215.441838 194.587779 
L 208.433097 193.629161 
L 199.836039 193.140446 
L 190.159554 193.415328 
L 180.440042 194.564132 
L 187.431086 193.611916 
L 196.009228 193.128969 
L 205.683803 193.40927 
L 215.402699 194.56329 
L 208.409823 193.607291 
L 199.829454 193.120454 
L 190.154545 193.39668 
L 180.435105 194.546136 
L 187.406298 193.59582 
L 195.963281 193.111049 
L 205.636102 193.386423 
L 215.35566 194.534885 
L 208.4096 193.588316 
L 199.879794 193.103963 
L 190.209356 193.376508 
L 180.489268 194.520576 
L 187.43643 193.577781 
L 195.967401 193.097916 
L 205.637781 193.375395 
L 215.357332 194.524039 
L 208.412969 193.578444 
L 199.884716 193.094713 
L 190.214426 193.367368 
L 180.494244 194.510691 
L 187.433109 193.569718 
L 195.95525 193.090307 
L 205.624855 193.366936 
L 215.344591 194.514061 
L 208.413422 193.571324 
L 199.899354 193.088504 
L 190.230325 193.360285 
L 180.509956 194.50206 
L 170.930238 196.506612 
L 178.912454 194.722725 
L 188.616032 193.447095 
L 198.395431 193.059763 
L 208.045907 193.541261 
L 217.605296 194.859636 
L 227.013675 197.004964 
L 219.063949 195.076205 
L 209.390746 193.585757 
L 199.624507 192.943219 
L 189.839975 193.169609 
L 180.116831 194.286306 
L 170.535828 196.284031 
L 178.512293 194.485223 
L 188.209786 193.162411 
L 197.98599 192.696545 
L 207.765385 193.090237 
L 217.472705 194.339031 
L 227.033325 196.433327 
L 219.088113 194.56185 
L 209.409803 193.103306 
L 199.643439 192.458979 
L 189.857951 192.651994 
L 180.127783 193.707671 
L 170.528714 195.617781 
L 178.508713 193.895511 
L 188.212714 192.619017 
L 197.989442 192.157842 
L 207.538583 192.502949 
L 217.003082 193.636111 
L 226.341179 195.549416 
L 218.357807 193.799475 
L 208.661661 192.463334 
L 198.889172 191.916559 
L 189.104839 192.171526 
L 179.375614 193.239147 
L 169.768848 195.112029 
L 177.739227 193.432989 
L 187.442544 192.148544 
L 197.216537 191.625837 
L 206.959968 191.878792 
L 216.646646 192.920631 
L 226.216959 194.744437 
L 218.241602 193.103272 
L 208.534973 191.843074 
L 198.760638 191.324302 
L 189.136213 191.552438 
L 179.574766 192.52702 
L 170.118009 194.24191 
L 178.112336 192.680883 
L 187.828511 191.495378 
L 197.605651 191.029522 
L 206.698528 191.259725 
L 215.681651 192.142157 
L 224.577516 193.671461 
L 216.520712 192.202645 
L 206.790917 191.134554 
L 197.008928 190.784653 
L 188.924628 191.050117 
L 181.043813 191.813171 
L 173.226692 193.070995 
L 181.391732 191.719813 
L 191.137111 190.804516 
L 200.923334 190.604504 
L 207.517656 190.886289 
L 213.767639 191.487533 
L 219.978054 192.411938 
L 211.655191 191.196354 
L 201.89364 190.474504 
L 192.105437 190.478753 
L 187.66636 190.728039 
L 183.776937 191.092634 
L 179.902594 191.592644 
L 188.450665 190.599744 
L 198.229131 190.16295 
L 209.243927 190.537916 
L 200.970711 190.033805 
L 191.868209 190.055815 
L 182.786808 190.67563 
L 191.088585 190.048702 
L 195.869606 189.899343 
L 201.42258 189.922089 
L 207.047045 190.170256 
L 212.656961 190.644637 
L 206.462106 190.1225 
L 199.100693 189.866358 
L 191.20171 190.017828 
L 191.20171 190.017828 
" clip-path="url(#p55abb74592)" style="fill: none; stroke-dasharray: 1.85,0.8; stroke-dashoffset: 0; stroke: #0000ff; stroke-width: 0.5"/>
   </g>
   <g id="patch_4">
    <path d="M 49.585709 322.86152 
L 49.585709 26.18112 
" style="fill: none; stroke: #000000; stroke-width: 0.8; stroke-linejoin: miter; stroke-linecap: square"/>
   </g>
   <g id="patch_5">
    <path d="M 346.266109 322.86152 
L 346.266109 26.18112 
" style="fill: none; stroke: #000000; stroke-width: 0.8; stroke-linejoin: miter; stroke-linecap: square"/>
   </g>
   <g id="patch_6">
    <path d="M 49.585709 322.86152 
L 346.266109 322.86152 
" style="fill: none; stroke: #000000; stroke-width: 0.8; stroke-linejoin: miter; stroke-linecap: square"/>
   </g>
   <g id="patch_7">
    <path d="M 49.585709 26.18112 
L 346.266109 26.18112 
" style="fill: none; stroke: #000000; stroke-width: 0.8; stroke-linejoin: miter; stroke-linecap: square"/>
   </g>
   <g id="text_13">
    <!-- Target -->
    <g transform="translate(310.664461 58.608535) scale(0.1 -0.1)">
     <defs>
      <path id="DejaVuSans-54" d="M -19 4666 
L 3928 4666 
L 3928 4134 
L 2272 4134 
L 2272 0 
L 1638 0 
L 1638 4134 
L -19 4134 
L -19 4666 
z
" transform="scale(0.015625)"/>
      <path id="DejaVuSans-61" d="M 2194 1759 
Q 1497 1759 1228 1600 
Q 959 1441 959 1056 
Q 959 750 1161 570 
Q 1363 391 1709 391 
Q 2188 391 2477 730 
Q 2766 1069 2766 1631 
L 2766 1759 
L 2194 1759 
z
M 3341 1997 
L 3341 0 
L 2766 0 
L 2766 531 
Q 2569 213 2275 61 
Q 1981 -91 1556 -91 
Q 1019 -91 701 211 
Q 384 513 384 1019 
Q 384 1609 779 1909 
Q 1175 2209 1959 2209 
L 2766 2209 
L 2766 2266 
Q 2766 2663 2505 2880 
Q 2244 3097 1772 3097 
Q 1472 3097 1187 3025 
Q 903 2953 641 2809 
L 641 3341 
Q 956 3463 1253 3523 
Q 1550 3584 1831 3584 
Q 2591 3584 2966 3190 
Q 3341 2797 3341 1997 
z
" transform="scale(0.015625)"/>
      <path id="DejaVuSans-72" d="M 2631 2963 
Q 2534 3019 2420 3045 
Q 2306 3072 2169 3072 
Q 1681 3072 1420 2755 
Q 1159 2438 1159 1844 
L 1159 0 
L 581 0 
L 581 3500 
L 1159 3500 
L 1159 2956 
Q 1341 3275 1631 3429 
Q 1922 3584 2338 3584 
Q 2397 3584 2469 3576 
Q 2541 3569 2628 3553 
L 2631 2963 
z
" transform="scale(0.015625)"/>
      <path id="DejaVuSans-67" d="M 2906 1791 
Q 2906 2416 2648 2759 
Q 2391 3103 1925 3103 
Q 1463 3103 1205 2759 
Q 947 2416 947 1791 
Q 947 1169 1205 825 
Q 1463 481 1925 481 
Q 2391 481 2648 825 
Q 2906 1169 2906 1791 
z
M 3481 434 
Q 3481 -459 3084 -895 
Q 2688 -1331 1869 -1331 
Q 1566 -1331 1297 -1286 
Q 1028 -1241 775 -1147 
L 775 -588 
Q 1028 -725 1275 -790 
Q 1522 -856 1778 -856 
Q 2344 -856 2625 -561 
Q 2906 -266 2906 331 
L 2906 616 
Q 2728 306 2450 153 
Q 2172 0 1784 0 
Q 1141 0 747 490 
Q 353 981 353 1791 
Q 353 2603 747 3093 
Q 1141 3584 1784 3584 
Q 2172 3584 2450 3431 
Q 2728 3278 2906 2969 
L 2906 3500 
L 3481 3500 
L 3481 434 
z
" transform="scale(0.015625)"/>
      <path id="DejaVuSans-65" d="M 3597 1894 
L 3597 1613 
L 953 1613 
Q 991 1019 1311 708 
Q 1631 397 2203 397 
Q 2534 397 2845 478 
Q 3156 559 3463 722 
L 3463 178 
Q 3153 47 2828 -22 
Q 2503 -91 2169 -91 
Q 1331 -91 842 396 
Q 353 884 353 1716 
Q 353 2575 817 3079 
Q 1281 3584 2069 3584 
Q 2775 3584 3186 3129 
Q 3597 2675 3597 1894 
z
M 3022 2063 
Q 3016 2534 2758 2815 
Q 2500 3097 2075 3097 
Q 1594 3097 1305 2825 
Q 1016 2553 972 2059 
L 3022 2063 
z
" transform="scale(0.015625)"/>
      <path id="DejaVuSans-74" d="M 1172 4494 
L 1172 3500 
L 2356 3500 
L 2356 3053 
L 1172 3053 
L 1172 1153 
Q 1172 725 1289 603 
Q 1406 481 1766 481 
L 2356 481 
L 2356 0 
L 1766 0 
Q 1100 0 847 248 
Q 594 497 594 1153 
L 594 3053 
L 172 3053 
L 172 3500 
L 594 3500 
L 594 4494 
L 1172 4494 
z
" transform="scale(0.015625)"/>
     </defs>
     <use xlink:href="#DejaVuSans-54"/>
     <use xlink:href="#DejaVuSans-61" x="44.583984"/>
     <use xlink:href="#DejaVuSans-72" x="105.863281"/>
     <use xlink:href="#DejaVuSans-67" x="145.226562"/>
     <use xlink:href="#DejaVuSans-65" x="208.703125"/>
     <use xlink:href="#DejaVuSans-74" x="270.226562"/>
    </g>
   </g>
   <g id="text_14">
    <!-- t = 30.000 -->
    <g transform="translate(64.419729 43.774515) scale(0.1 -0.1)">
     <defs>
      <path id="DejaVuSans-3d" d="M 678 2906 
L 4684 2906 
L 4684 2381 
L 678 2381 
L 678 2906 
z
M 678 1631 
L 4684 1631 
L 4684 1100 
L 678 1100 
L 678 1631 
z
" transform="scale(0.015625)"/>
      <path id="DejaVuSans-33" d="M 2597 2516 
Q 3050 2419 3304 2112 
Q 3559 1806 3559 1356 
Q 3559 666 3084 287 
Q 2609 -91 1734 -91 
Q 1441 -91 1130 -33 
Q 819 25 488 141 
L 488 750 
Q 750 597 1062 519 
Q 1375 441 1716 441 
Q 2309 441 2620 675 
Q 2931 909 2931 1356 
Q 2931 1769 2642 2001 
Q 2353 2234 1838 2234 
L 1294 2234 
L 1294 2753 
L 1863 2753 
Q 2328 2753 2575 2939 
Q 2822 3125 2822 3475 
Q 2822 3834 2567 4026 
Q 2313 4219 1838 4219 
Q 1578 4219 1281 4162 
Q 984 4106 628 3988 
L 628 4550 
Q 988 4650 1302 4700 
Q 1616 4750 1894 4750 
Q 2613 4750 3031 4423 
Q 3450 4097 3450 3541 
Q 3450 3153 3228 2886 
Q 3006 2619 2597 2516 
z
" transform="scale(0.015625)"/>
      <path id="DejaVuSans-2e" d="M 684 794 
L 1344 794 
L 1344 0 
L 684 0 
L 684 794 
z
" transform="scale(0.015625)"/>
     </defs>
     <use xlink:href="#DejaVuSans-74"/>
     <use xlink:href="#DejaVuSans-20" x="39.208984"/>
     <use xlink:href="#DejaVuSans-3d" x="70.996094"/>
     <use xlink:href="#DejaVuSans-20" x="154.785156"/>
     <use xlink:href="#DejaVuSans-33" x="186.572266"/>
     <use xlink:href="#DejaVuSans-30" x="250.195312"/>
     <use xlink:href="#DejaVuSans-2e" x="313.818359"/>
     <use xlink:href="#DejaVuSans-30" x="345.605469"/>
     <use xlink:href="#DejaVuSans-30" x="409.228516"/>
     <use xlink:href="#DejaVuSans-30" x="472.851562"/>
    </g>
   </g>
   <g id="text_15">
    <!-- Pause - space, q - quit, click - data cursor -->
    <g transform="translate(74.016534 20.18112) scale(0.12 -0.12)">
     <defs>
      <path id="DejaVuSans-50" d="M 1259 4147 
L 1259 2394 
L 2053 2394 
Q 2494 2394 2734 2622 
Q 2975 2850 2975 3272 
Q 2975 3691 2734 3919 
Q 2494 4147 2053 4147 
L 1259 4147 
z
M 628 4666 
L 2053 4666 
Q 2838 4666 3239 4311 
Q 3641 3956 3641 3272 
Q 3641 2581 3239 2228 
Q 2838 1875 2053 1875 
L 1259 1875 
L 1259 0 
L 628 0 
L 628 4666 
z
" transform="scale(0.015625)"/>
      <path id="DejaVuSans-75" d="M 544 1381 
L 544 3500 
L 1119 3500 
L 1119 1403 
Q 1119 906 1312 657 
Q 1506 409 1894 409 
Q 2359 409 2629 706 
Q 2900 1003 2900 1516 
L 2900 3500 
L 3475 3500 
L 3475 0 
L 2900 0 
L 2900 538 
Q 2691 219 2414 64 
Q 2138 -91 1772 -91 
Q 1169 -91 856 284 
Q 544 659 544 1381 
z
M 1991 3584 
L 1991 3584 
z
" transform="scale(0.015625)"/>
      <path id="DejaVuSans-73" d="M 2834 3397 
L 2834 2853 
Q 2591 2978 2328 3040 
Q 2066 3103 1784 3103 
Q 1356 3103 1142 2972 
Q 928 2841 928 2578 
Q 928 2378 1081 2264 
Q 1234 2150 1697 2047 
L 1894 2003 
Q 2506 1872 2764 1633 
Q 3022 1394 3022 966 
Q 3022 478 2636 193 
Q 2250 -91 1575 -91 
Q 1294 -91 989 -36 
Q 684 19 347 128 
L 347 722 
Q 666 556 975 473 
Q 1284 391 1588 391 
Q 1994 391 2212 530 
Q 2431 669 2431 922 
Q 2431 1156 2273 1281 
Q 2116 1406 1581 1522 
L 1381 1569 
Q 847 1681 609 1914 
Q 372 2147 372 2553 
Q 372 3047 722 3315 
Q 1072 3584 1716 3584 
Q 2034 3584 2315 3537 
Q 2597 3491 2834 3397 
z
" transform="scale(0.015625)"/>
      <path id="DejaVuSans-2d" d="M 313 2009 
L 1997 2009 
L 1997 1497 
L 313 1497 
L 313 2009 
z
" transform="scale(0.015625)"/>
      <path id="DejaVuSans-70" d="M 1159 525 
L 1159 -1331 
L 581 -1331 
L 581 3500 
L 1159 3500 
L 1159 2969 
Q 1341 3281 1617 3432 
Q 1894 3584 2278 3584 
Q 2916 3584 3314 3078 
Q 3713 2572 3713 1747 
Q 3713 922 3314 415 
Q 2916 -91 2278 -91 
Q 1894 -91 1617 61 
Q 1341 213 1159 525 
z
M 3116 1747 
Q 3116 2381 2855 2742 
Q 2594 3103 2138 3103 
Q 1681 3103 1420 2742 
Q 1159 2381 1159 1747 
Q 1159 1113 1420 752 
Q 1681 391 2138 391 
Q 2594 391 2855 752 
Q 3116 1113 3116 1747 
z
" transform="scale(0.015625)"/>
      <path id="DejaVuSans-63" d="M 3122 3366 
L 3122 2828 
Q 2878 2963 2633 3030 
Q 2388 3097 2138 3097 
Q 1578 3097 1268 2742 
Q 959 2388 959 1747 
Q 959 1106 1268 751 
Q 1578 397 2138 397 
Q 2388 397 2633 464 
Q 2878 531 3122 666 
L 3122 134 
Q 2881 22 2623 -34 
Q 2366 -91 2075 -91 
Q 1284 -91 818 406 
Q 353 903 353 1747 
Q 353 2603 823 3093 
Q 1294 3584 2113 3584 
Q 2378 3584 2631 3529 
Q 2884 3475 3122 3366 
z
" transform="scale(0.015625)"/>
      <path id="DejaVuSans-2c" d="M 750 794 
L 1409 794 
L 1409 256 
L 897 -744 
L 494 -744 
L 750 256 
L 750 794 
z
" transform="scale(0.015625)"/>
      <path id="DejaVuSans-71" d="M 947 1747 
Q 947 1113 1208 752 
Q 1469 391 1925 391 
Q 2381 391 2643 752 
Q 2906 1113 2906 1747 
Q 2906 2381 2643 2742 
Q 2381 3103 1925 3103 
Q 1469 3103 1208 2742 
Q 947 2381 947 1747 
z
M 2906 525 
Q 2725 213 2448 61 
Q 2172 -91 1784 -91 
Q 1150 -91 751 415 
Q 353 922 353 1747 
Q 353 2572 751 3078 
Q 1150 3584 1784 3584 
Q 2172 3584 2448 3432 
Q 2725 3281 2906 2969 
L 2906 3500 
L 3481 3500 
L 3481 -1331 
L 2906 -1331 
L 2906 525 
z
" transform="scale(0.015625)"/>
      <path id="DejaVuSans-69" d="M 603 3500 
L 1178 3500 
L 1178 0 
L 603 0 
L 603 3500 
z
M 603 4863 
L 1178 4863 
L 1178 4134 
L 603 4134 
L 603 4863 
z
" transform="scale(0.015625)"/>
      <path id="DejaVuSans-6c" d="M 603 4863 
L 1178 4863 
L 1178 0 
L 603 0 
L 603 4863 
z
" transform="scale(0.015625)"/>
      <path id="DejaVuSans-6b" d="M 581 4863 
L 1159 4863 
L 1159 1991 
L 2875 3500 
L 3609 3500 
L 1753 1863 
L 3688 0 
L 2938 0 
L 1159 1709 
L 1159 0 
L 581 0 
L 581 4863 
z
" transform="scale(0.015625)"/>
      <path id="DejaVuSans-64" d="M 2906 2969 
L 2906 4863 
L 3481 4863 
L 3481 0 
L 2906 0 
L 2906 525 
Q 2725 213 2448 61 
Q 2172 -91 1784 -91 
Q 1150 -91 751 415 
Q 353 922 353 1747 
Q 353 2572 751 3078 
Q 1150 3584 1784 3584 
Q 2172 3584 2448 3432 
Q 2725 3281 2906 2969 
z
M 947 1747 
Q 947 1113 1208 752 
Q 1469 391 1925 391 
Q 2381 391 2643 752 
Q 2906 1113 2906 1747 
Q 2906 2381 2643 2742 
Q 2381 3103 1925 3103 
Q 1469 3103 1208 2742 
Q 947 2381 947 1747 
z
" transform="scale(0.015625)"/>
      <path id="DejaVuSans-6f" d="M 1959 3097 
Q 1497 3097 1228 2736 
Q 959 2375 959 1747 
Q 959 1119 1226 758 
Q 1494 397 1959 397 
Q 2419 397 2687 759 
Q 2956 1122 2956 1747 
Q 2956 2369 2687 2733 
Q 2419 3097 1959 3097 
z
M 1959 3584 
Q 2709 3584 3137 3096 
Q 3566 2609 3566 1747 
Q 3566 888 3137 398 
Q 2709 -91 1959 -91 
Q 1206 -91 779 398 
Q 353 888 353 1747 
Q 353 2609 779 3096 
Q 1206 3584 1959 3584 
z
" transform="scale(0.015625)"/>
     </defs>
     <use xlink:href="#DejaVuSans-50"/>
     <use xlink:href="#DejaVuSans-61" x="55.802734"/>
     <use xlink:href="#DejaVuSans-75" x="117.082031"/>
     <use xlink:href="#DejaVuSans-73" x="180.460938"/>
     <use xlink:href="#DejaVuSans-65" x="232.560547"/>
     <use xlink:href="#DejaVuSans-20" x="294.083984"/>
     <use xlink:href="#DejaVuSans-2d" x="325.871094"/>
     <use xlink:href="#DejaVuSans-20" x="361.955078"/>
     <use xlink:href="#DejaVuSans-73" x="393.742188"/>
     <use xlink:href="#DejaVuSans-70" x="445.841797"/>
     <use xlink:href="#DejaVuSans-61" x="509.318359"/>
     <use xlink:href="#DejaVuSans-63" x="570.597656"/>
     <use xlink:href="#DejaVuSans-65" x="625.578125"/>
     <use xlink:href="#DejaVuSans-2c" x="687.101562"/>
     <use xlink:href="#DejaVuSans-20" x="718.888672"/>
     <use xlink:href="#DejaVuSans-71" x="750.675781"/>
     <use xlink:href="#DejaVuSans-20" x="814.152344"/>
     <use xlink:href="#DejaVuSans-2d" x="845.939453"/>
     <use xlink:href="#DejaVuSans-20" x="882.023438"/>
     <use xlink:href="#DejaVuSans-71" x="913.810547"/>
     <use xlink:href="#DejaVuSans-75" x="977.287109"/>
     <use xlink:href="#DejaVuSans-69" x="1040.666016"/>
     <use xlink:href="#DejaVuSans-74" x="1068.449219"/>
     <use xlink:href="#DejaVuSans-2c" x="1107.658203"/>
     <use xlink:href="#DejaVuSans-20" x="1139.445312"/>
     <use xlink:href="#DejaVuSans-63" x="1171.232422"/>
     <use xlink:href="#DejaVuSans-6c" x="1226.212891"/>
     <use xlink:href="#DejaVuSans-69" x="1253.996094"/>
     <use xlink:href="#DejaVuSans-63" x="1281.779297"/>
     <use xlink:href="#DejaVuSans-6b" x="1336.759766"/>
     <use xlink:href="#DejaVuSans-20" x="1394.669922"/>
     <use xlink:href="#DejaVuSans-2d" x="1426.457031"/>
     <use xlink:href="#DejaVuSans-20" x="1462.541016"/>
     <use xlink:href="#DejaVuSans-64" x="1494.328125"/>
     <use xlink:href="#DejaVuSans-61" x="1557.804688"/>
     <use xlink:href="#DejaVuSans-74" x="1619.083984"/>
     <use xlink:href="#DejaVuSans-61" x="1658.292969"/>
     <use xlink:href="#DejaVuSans-20" x="1719.572266"/>
     <use xlink:href="#DejaVuSans-63" x="1751.359375"/>
     <use xlink:href="#DejaVuSans-75" x="1806.339844"/>
     <use xlink:href="#DejaVuSans-72" x="1869.71875"/>
     <use xlink:href="#DejaVuSans-73" x="1910.832031"/>
     <use xlink:href="#DejaVuSans-6f" x="1962.931641"/>
     <use xlink:href="#DejaVuSans-72" x="2024.113281"/>
    </g>
   </g>
  </g>
  <g id="axes_2">
   <g id="patch_8">
    <path d="M 398.511818 322.86152 
L 702.9 322.86152 
L 702.9 26.18112 
L 398.511818 26.18112 
z
" style="fill: #ffffff"/>
   </g>
   <g id="matplotlib.axis_3">
    <g id="xtick_6">
     <g id="line2d_14">
      <g>
       <use xlink:href="#m2cf0fa0f10" x="398.511818" y="322.86152" style="stroke: #000000; stroke-width: 0.8"/>
      </g>
     </g>
     <g id="text_16">
      <!-- 0 -->
      <g transform="translate(395.330568 337.459958) scale(0.1 -0.1)">
       <use xlink:href="#DejaVuSans-30"/>
      </g>
     </g>
    </g>
    <g id="xtick_7">
     <g id="line2d_15">
      <g>
       <use xlink:href="#m2cf0fa0f10" x="449.243182" y="322.86152" style="stroke: #000000; stroke-width: 0.8"/>
      </g>
     </g>
     <g id="text_17">
      <!-- 5 -->
      <g transform="translate(446.061932 337.459958) scale(0.1 -0.1)">
       <defs>
        <path id="DejaVuSans-35" d="M 691 4666 
L 3169 4666 
L 3169 4134 
L 1269 4134 
L 1269 2991 
Q 1406 3038 1543 3061 
Q 1681 3084 1819 3084 
Q 2600 3084 3056 2656 
Q 3513 2228 3513 1497 
Q 3513 744 3044 326 
Q 2575 -91 1722 -91 
Q 1428 -91 1123 -41 
Q 819 9 494 109 
L 494 744 
Q 775 591 1075 516 
Q 1375 441 1709 441 
Q 2250 441 2565 725 
Q 2881 1009 2881 1497 
Q 2881 1984 2565 2268 
Q 2250 2553 1709 2553 
Q 1456 2553 1204 2497 
Q 953 2441 691 2322 
L 691 4666 
z
" transform="scale(0.015625)"/>
       </defs>
       <use xlink:href="#DejaVuSans-35"/>
      </g>
     </g>
    </g>
    <g id="xtick_8">
     <g id="line2d_16">
      <g>
       <use xlink:href="#m2cf0fa0f10" x="499.974545" y="322.86152" style="stroke: #000000; stroke-width: 0.8"/>
      </g>
     </g>
     <g id="text_18">
      <!-- 10 -->
      <g transform="translate(493.612045 337.459958) scale(0.1 -0.1)">
       <defs>
        <path id="DejaVuSans-31" d="M 794 531 
L 1825 531 
L 1825 4091 
L 703 3866 
L 703 4441 
L 1819 4666 
L 2450 4666 
L 2450 531 
L 3481 531 
L 3481 0 
L 794 0 
L 794 531 
z
" transform="scale(0.015625)"/>
       </defs>
       <use xlink:href="#DejaVuSans-31"/>
       <use xlink:href="#DejaVuSans-30" x="63.623047"/>
      </g>
     </g>
    </g>
    <g id="xtick_9">
     <g id="line2d_17">
      <g>
       <use xlink:href="#m2cf0fa0f10" x="550.705909" y="322.86152" style="stroke: #000000; stroke-width: 0.8"/>
      </g>
     </g>
     <g id="text_19">
      <!-- 15 -->
      <g transform="translate(544.343409 337.459958) scale(0.1 -0.1)">
       <use xlink:href="#DejaVuSans-31"/>
       <use xlink:href="#DejaVuSans-35" x="63.623047"/>
      </g>
     </g>
    </g>
    <g id="xtick_10">
     <g id="line2d_18">
      <g>
       <use xlink:href="#m2cf0fa0f10" x="601.437273" y="322.86152" style="stroke: #000000; stroke-width: 0.8"/>
      </g>
     </g>
     <g id="text_20">
      <!-- 20 -->
      <g transform="translate(595.074773 337.459958) scale(0.1 -0.1)">
       <use xlink:href="#DejaVuSans-32"/>
       <use xlink:href="#DejaVuSans-30" x="63.623047"/>
      </g>
     </g>
    </g>
    <g id="xtick_11">
     <g id="line2d_19">
      <g>
       <use xlink:href="#m2cf0fa0f10" x="652.168636" y="322.86152" style="stroke: #000000; stroke-width: 0.8"/>
      </g>
     </g>
     <g id="text_21">
      <!-- 25 -->
      <g transform="translate(645.806136 337.459958) scale(0.1 -0.1)">
       <use xlink:href="#DejaVuSans-32"/>
       <use xlink:href="#DejaVuSans-35" x="63.623047"/>
      </g>
     </g>
    </g>
    <g id="xtick_12">
     <g id="line2d_20">
      <g>
       <use xlink:href="#m2cf0fa0f10" x="702.9" y="322.86152" style="stroke: #000000; stroke-width: 0.8"/>
      </g>
     </g>
     <g id="text_22">
      <!-- 30 -->
      <g transform="translate(696.5375 337.459958) scale(0.1 -0.1)">
       <use xlink:href="#DejaVuSans-33"/>
       <use xlink:href="#DejaVuSans-30" x="63.623047"/>
      </g>
     </g>
    </g>
    <g id="text_23">
     <!-- t [s] -->
     <g transform="translate(540.65044 351.138083) scale(0.1 -0.1)">
      <use xlink:href="#DejaVuSans-74"/>
      <use xlink:href="#DejaVuSans-20" x="39.208984"/>
      <use xlink:href="#DejaVuSans-5b" x="70.996094"/>
      <use xlink:href="#DejaVuSans-73" x="110.009766"/>
      <use xlink:href="#DejaVuSans-5d" x="162.109375"/>
     </g>
    </g>
   </g>
   <g id="matplotlib.axis_4">
    <g id="ytick_6">
     <g id="line2d_21">
      <g>
       <use xlink:href="#m8fcc87584b" x="398.511818" y="309.376047" style="stroke: #000000; stroke-width: 0.8"/>
      </g>
     </g>
     <g id="text_24">
      <!-- −10.0 -->
      <g transform="translate(360.866506 313.175266) scale(0.1 -0.1)">
       <use xlink:href="#DejaVuSans-2212"/>
       <use xlink:href="#DejaVuSans-31" x="83.789062"/>
       <use xlink:href="#DejaVuSans-30" x="147.412109"/>
       <use xlink:href="#DejaVuSans-2e" x="211.035156"/>
       <use xlink:href="#DejaVuSans-30" x="242.822266"/>
      </g>
     </g>
    </g>
    <g id="ytick_7">
     <g id="line2d_22">
      <g>
       <use xlink:href="#m8fcc87584b" x="398.511818" y="275.662365" style="stroke: #000000; stroke-width: 0.8"/>
      </g>
     </g>
     <g id="text_25">
      <!-- −7.5 -->
      <g transform="translate(367.229006 279.461584) scale(0.1 -0.1)">
       <defs>
        <path id="DejaVuSans-37" d="M 525 4666 
L 3525 4666 
L 3525 4397 
L 1831 0 
L 1172 0 
L 2766 4134 
L 525 4134 
L 525 4666 
z
" transform="scale(0.015625)"/>
       </defs>
       <use xlink:href="#DejaVuSans-2212"/>
       <use xlink:href="#DejaVuSans-37" x="83.789062"/>
       <use xlink:href="#DejaVuSans-2e" x="147.412109"/>
       <use xlink:href="#DejaVuSans-35" x="179.199219"/>
      </g>
     </g>
    </g>
    <g id="ytick_8">
     <g id="line2d_23">
      <g>
       <use xlink:href="#m8fcc87584b" x="398.511818" y="241.948684" style="stroke: #000000; stroke-width: 0.8"/>
      </g>
     </g>
     <g id="text_26">
      <!-- −5.0 -->
      <g transform="translate(367.229006 245.747902) scale(0.1 -0.1)">
       <use xlink:href="#DejaVuSans-2212"/>
       <use xlink:href="#DejaVuSans-35" x="83.789062"/>
       <use xlink:href="#DejaVuSans-2e" x="147.412109"/>
       <use xlink:href="#DejaVuSans-30" x="179.199219"/>
      </g>
     </g>
    </g>
    <g id="ytick_9">
     <g id="line2d_24">
      <g>
       <use xlink:href="#m8fcc87584b" x="398.511818" y="208.235002" style="stroke: #000000; stroke-width: 0.8"/>
      </g>
     </g>
     <g id="text_27">
      <!-- −2.5 -->
      <g transform="translate(367.229006 212.034221) scale(0.1 -0.1)">
       <use xlink:href="#DejaVuSans-2212"/>
       <use xlink:href="#DejaVuSans-32" x="83.789062"/>
       <use xlink:href="#DejaVuSans-2e" x="147.412109"/>
       <use xlink:href="#DejaVuSans-35" x="179.199219"/>
      </g>
     </g>
    </g>
    <g id="ytick_10">
     <g id="line2d_25">
      <g>
       <use xlink:href="#m8fcc87584b" x="398.511818" y="174.52132" style="stroke: #000000; stroke-width: 0.8"/>
      </g>
     </g>
     <g id="text_28">
      <!-- 0.0 -->
      <g transform="translate(375.608693 178.320539) scale(0.1 -0.1)">
       <use xlink:href="#DejaVuSans-30"/>
       <use xlink:href="#DejaVuSans-2e" x="63.623047"/>
       <use xlink:href="#DejaVuSans-30" x="95.410156"/>
      </g>
     </g>
    </g>
    <g id="ytick_11">
     <g id="line2d_26">
      <g>
       <use xlink:href="#m8fcc87584b" x="398.511818" y="140.807638" style="stroke: #000000; stroke-width: 0.8"/>
      </g>
     </g>
     <g id="text_29">
      <!-- 2.5 -->
      <g transform="translate(375.608693 144.606857) scale(0.1 -0.1)">
       <use xlink:href="#DejaVuSans-32"/>
       <use xlink:href="#DejaVuSans-2e" x="63.623047"/>
       <use xlink:href="#DejaVuSans-35" x="95.410156"/>
      </g>
     </g>
    </g>
    <g id="ytick_12">
     <g id="line2d_27">
      <g>
       <use xlink:href="#m8fcc87584b" x="398.511818" y="107.093956" style="stroke: #000000; stroke-width: 0.8"/>
      </g>
     </g>
     <g id="text_30">
      <!-- 5.0 -->
      <g transform="translate(375.608693 110.893175) scale(0.1 -0.1)">
       <use xlink:href="#DejaVuSans-35"/>
       <use xlink:href="#DejaVuSans-2e" x="63.623047"/>
       <use xlink:href="#DejaVuSans-30" x="95.410156"/>
      </g>
     </g>
    </g>
    <g id="ytick_13">
     <g id="line2d_28">
      <g>
       <use xlink:href="#m8fcc87584b" x="398.511818" y="73.380275" style="stroke: #000000; stroke-width: 0.8"/>
      </g>
     </g>
     <g id="text_31">
      <!-- 7.5 -->
      <g transform="translate(375.608693 77.179493) scale(0.1 -0.1)">
       <use xlink:href="#DejaVuSans-37"/>
       <use xlink:href="#DejaVuSans-2e" x="63.623047"/>
       <use xlink:href="#DejaVuSans-35" x="95.410156"/>
      </g>
     </g>
    </g>
    <g id="ytick_14">
     <g id="line2d_29">
      <g>
       <use xlink:href="#m8fcc87584b" x="398.511818" y="39.666593" style="stroke: #000000; stroke-width: 0.8"/>
      </g>
     </g>
     <g id="text_32">
      <!-- 10.0 -->
      <g transform="translate(369.246193 43.465811) scale(0.1 -0.1)">
       <use xlink:href="#DejaVuSans-31"/>
       <use xlink:href="#DejaVuSans-30" x="63.623047"/>
       <use xlink:href="#DejaVuSans-2e" x="127.246094"/>
       <use xlink:href="#DejaVuSans-30" x="159.033203"/>
      </g>
     </g>
    </g>
   </g>
   <g id="line2d_30">
    <path d="M 398.511818 174.52132 
L 702.9 174.52132 
" clip-path="url(#pa1bfe7e6ab)" style="fill: none; stroke-dasharray: 2.775,1.2; stroke-dashoffset: 0; stroke: #000000; stroke-width: 0.75"/>
   </g>
   <g id="line2d_31">
    <path d="M 398.511818 117.307305 
L 398.609476 117.287468 
L 402.51833 116.428848 
L 404.040271 120.196939 
L 407.084153 128.789438 
L 408.606094 131.997647 
L 410.128035 134.169139 
L 411.649976 136.090681 
L 413.171917 137.734016 
L 414.693858 139.176813 
L 416.215799 141.068656 
L 417.73774 143.422242 
L 419.25968 146.539527 
L 420.781621 148.974088 
L 422.303562 150.153423 
L 423.825503 148.511339 
L 425.347444 144.95538 
L 426.869385 148.77478 
L 429.913267 156.984984 
L 431.435208 160.734322 
L 432.957149 162.443487 
L 434.47909 161.464751 
L 436.00103 158.931013 
L 437.522971 155.693053 
L 439.044912 152.106868 
L 442.088794 160.057685 
L 443.610735 163.306687 
L 445.132676 164.665809 
L 446.654617 163.460493 
L 448.176558 160.448442 
L 449.698499 163.158307 
L 451.22044 164.660014 
L 452.74238 163.696861 
L 454.264321 160.787787 
L 455.786262 163.461956 
L 457.308203 165.014014 
L 458.830144 164.133781 
L 460.352085 161.278385 
L 461.874026 163.877156 
L 463.395967 165.341564 
L 464.917908 164.358136 
L 466.439849 161.452173 
L 467.96179 164.05427 
L 469.48373 165.550623 
L 471.005671 164.582772 
L 472.527612 161.688232 
L 474.049553 164.260019 
L 475.571494 165.697939 
L 477.093435 164.649293 
L 478.615376 161.706183 
L 480.137317 164.306363 
L 481.659258 165.804237 
L 483.181199 164.802792 
L 484.70314 161.879674 
L 486.22508 164.408547 
L 487.747021 165.891736 
L 489.268962 164.921803 
L 490.790903 162.011684 
L 492.312844 164.464022 
L 493.834785 165.953266 
L 495.356726 165.057832 
L 496.878667 162.186747 
L 498.400608 164.527227 
L 499.922549 165.989423 
L 501.44449 165.15863 
L 502.96643 162.323608 
L 504.488371 164.570454 
L 506.010312 166.003949 
L 507.532253 165.221688 
L 509.054194 162.414098 
L 510.576135 164.609409 
L 512.098076 166.013661 
L 513.620017 165.235903 
L 515.141958 162.431181 
L 516.663899 164.618985 
L 518.18584 166.018546 
L 519.70778 165.239912 
L 521.229721 162.434182 
L 522.751662 164.623216 
L 524.273603 166.023006 
L 525.795544 165.242876 
L 527.317485 162.435868 
L 528.839426 164.61996 
L 530.361367 166.024481 
L 531.883308 165.257742 
L 533.405249 162.457963 
L 534.92719 164.630823 
L 536.44913 166.028101 
L 537.971071 165.260819 
L 539.493012 162.460809 
L 541.014953 164.633751 
L 542.536894 166.030615 
L 544.058835 165.262093 
L 545.580776 162.461181 
L 547.102717 164.634017 
L 548.624658 166.032048 
L 550.146599 165.265537 
L 551.66854 162.465682 
L 553.19048 164.636233 
L 554.712421 166.033473 
L 556.234362 165.267875 
L 557.756303 162.468405 
L 559.278244 164.636753 
L 560.800185 166.034154 
L 562.322126 165.271252 
L 563.844067 162.473332 
L 565.366008 158.696091 
L 568.40989 164.934195 
L 569.93183 166.092053 
L 571.453771 164.728291 
L 572.975712 161.6574 
L 574.497653 157.810283 
L 577.541535 164.409392 
L 579.063476 166.112209 
L 580.585417 165.282288 
L 582.107358 162.428207 
L 583.629299 158.619814 
L 586.67318 164.966202 
L 588.195121 166.259809 
L 589.717062 164.969158 
L 591.239003 161.868789 
L 592.760944 157.960777 
L 595.804826 164.592128 
L 597.326767 166.330548 
L 598.848708 165.500989 
L 600.370649 162.625688 
L 601.89259 158.803858 
L 604.936471 165.185164 
L 606.458412 166.504667 
L 607.980353 165.253246 
L 609.502294 162.245952 
L 611.024235 158.453229 
L 614.068117 165.017382 
L 615.590058 166.602279 
L 617.111999 165.552353 
L 618.63394 162.542771 
L 620.15588 158.665582 
L 623.199762 165.199038 
L 624.721703 166.739856 
L 626.243644 165.626897 
L 627.765585 162.590037 
L 629.287526 158.714127 
L 632.331408 165.288391 
L 633.853349 166.874182 
L 635.37529 165.809713 
L 636.89723 162.83526 
L 638.419171 159.025513 
L 641.463053 165.543891 
L 642.984994 167.01618 
L 644.506935 165.931337 
L 646.028876 163.150774 
L 647.550817 159.603944 
L 650.594699 165.962 
L 652.11664 167.117155 
L 653.63858 165.966391 
L 655.160521 163.536608 
L 656.682462 160.480781 
L 658.204403 163.677127 
L 659.726344 166.502357 
L 661.248285 167.084904 
L 662.770226 165.899157 
L 664.292167 163.970256 
L 665.814108 161.613739 
L 667.336049 164.703244 
L 668.85799 167.048961 
L 670.37993 166.800499 
L 671.901871 165.80262 
L 673.423812 164.616798 
L 674.945753 163.237327 
L 676.467694 166.038279 
L 677.989635 167.410153 
L 679.511576 165.950999 
L 681.033517 165.675056 
L 684.077399 165.606794 
L 685.59934 167.335648 
L 687.12128 166.942311 
L 688.643221 164.457945 
L 691.687103 166.809456 
L 693.209044 167.469095 
L 694.730985 167.342805 
L 696.252926 166.288094 
L 697.774867 164.594259 
L 699.296808 166.437776 
L 700.818749 167.525892 
L 702.9 166.84291 
L 702.9 166.84291 
" clip-path="url(#pa1bfe7e6ab)" style="fill: none; stroke: #0000ff; stroke-width: 0.5; stroke-linecap: square"/>
   </g>
   <g id="line2d_32">
    <path d="M 398.511818 153.349128 
L 398.609476 153.385258 
L 402.51833 154.860718 
L 404.040271 160.134276 
L 405.562212 165.879087 
L 408.606094 176.354839 
L 410.128035 176.36711 
L 413.171917 175.34839 
L 414.693858 172.298561 
L 417.73774 165.689355 
L 419.25968 165.801209 
L 420.781621 166.255688 
L 422.303562 171.518307 
L 425.347444 183.00793 
L 426.869385 183.886171 
L 429.913267 184.66655 
L 431.435208 181.308212 
L 434.47909 173.839681 
L 437.522971 168.823626 
L 439.044912 166.37415 
L 440.566853 167.963651 
L 442.088794 169.958207 
L 445.132676 174.906265 
L 448.176558 178.481193 
L 449.698499 176.935111 
L 454.264321 171.243312 
L 455.786262 172.421095 
L 457.308203 173.908427 
L 460.352085 177.313323 
L 461.874026 176.266461 
L 463.395967 174.94285 
L 466.439849 171.925807 
L 467.96179 172.944255 
L 471.005671 175.601337 
L 472.527612 176.996856 
L 474.049553 175.990533 
L 477.093435 173.412318 
L 478.615376 172.07289 
L 480.137317 173.069596 
L 483.181199 175.600202 
L 484.70314 176.906702 
L 486.22508 175.938933 
L 489.268962 173.473224 
L 490.790903 172.195939 
L 492.312844 173.132874 
L 495.356726 175.532334 
L 496.878667 176.780974 
L 498.400608 175.873179 
L 501.44449 173.532592 
L 502.96643 172.306788 
L 504.488371 173.1961 
L 507.532253 175.503108 
L 509.054194 176.719132 
L 510.576135 175.834662 
L 513.620017 173.539847 
L 515.141958 172.329667 
L 516.663899 173.215096 
L 519.70778 175.510169 
L 521.229721 176.72007 
L 522.751662 175.833857 
L 525.795544 173.538474 
L 527.317485 172.329232 
L 528.839426 173.211917 
L 531.883308 175.50286 
L 533.405249 176.711955 
L 534.92719 175.831343 
L 537.971071 173.544823 
L 539.493012 172.337837 
L 541.014953 173.218532 
L 544.058835 175.504434 
L 545.580776 176.710882 
L 547.102717 175.830334 
L 550.146599 173.545262 
L 551.66854 172.339468 
L 553.19048 173.219107 
L 556.234362 175.502781 
L 557.756303 176.708318 
L 559.278244 175.829286 
L 562.322126 173.546958 
L 565.366008 171.137182 
L 566.887949 172.144206 
L 572.975712 176.957064 
L 574.497653 178.132195 
L 576.019594 177.170787 
L 582.107358 172.364237 
L 583.629299 171.134157 
L 585.15124 172.100032 
L 592.760944 178.020818 
L 594.282885 177.102789 
L 600.370649 172.468185 
L 601.89259 171.276733 
L 603.41453 172.193455 
L 611.024235 177.805879 
L 612.546176 176.914482 
L 620.15588 171.363547 
L 621.677821 172.219407 
L 629.287526 177.608087 
L 630.809467 176.775378 
L 638.419171 171.577478 
L 639.941112 172.386375 
L 647.550817 177.304889 
L 649.072758 176.491937 
L 653.63858 173.644555 
L 656.682462 171.944965 
L 658.204403 172.76481 
L 661.248285 174.739384 
L 665.814108 176.863638 
L 667.336049 176.017371 
L 670.37993 174.01483 
L 674.945753 172.555306 
L 676.467694 173.420029 
L 679.511576 175.41726 
L 682.555458 175.654109 
L 684.077399 175.730506 
L 687.12128 174.04553 
L 688.643221 173.159166 
L 690.165162 173.463897 
L 694.730985 174.844443 
L 697.774867 175.930468 
L 700.818749 174.639152 
L 702.34069 173.936737 
L 702.9 173.886968 
L 702.9 173.886968 
" clip-path="url(#pa1bfe7e6ab)" style="fill: none; stroke: #ff0000; stroke-width: 0.5; stroke-linecap: square"/>
   </g>
   <g id="patch_9">
    <path d="M 398.511818 322.86152 
L 398.511818 26.18112 
" style="fill: none; stroke: #000000; stroke-width: 0.8; stroke-linejoin: miter; stroke-linecap: square"/>
   </g>
   <g id="patch_10">
    <path d="M 702.9 322.86152 
L 702.9 26.18112 
" style="fill: none; stroke: #000000; stroke-width: 0.8; stroke-linejoin: miter; stroke-linecap: square"/>
   </g>
   <g id="patch_11">
    <path d="M 398.511818 322.86152 
L 702.9 322.86152 
" style="fill: none; stroke: #000000; stroke-width: 0.8; stroke-linejoin: miter; stroke-linecap: square"/>
   </g>
   <g id="patch_12">
    <path d="M 398.511818 26.18112 
L 702.9 26.18112 
" style="fill: none; stroke: #000000; stroke-width: 0.8; stroke-linejoin: miter; stroke-linecap: square"/>
   </g>
   <g id="legend_1">
    <g id="patch_13">
     <path d="M 608.4 63.959245 
L 695.9 63.959245 
Q 697.9 63.959245 697.9 61.959245 
L 697.9 33.18112 
Q 697.9 31.18112 695.9 31.18112 
L 608.4 31.18112 
Q 606.4 31.18112 606.4 33.18112 
L 606.4 61.959245 
Q 606.4 63.959245 608.4 63.959245 
z
" style="fill: #ffffff; opacity: 0.8; stroke: #cccccc; stroke-linejoin: miter"/>
    </g>
    <g id="line2d_33">
     <path d="M 610.4 39.38112 
L 620.4 39.38112 
L 630.4 39.38112 
" style="fill: none; stroke: #0000ff; stroke-width: 0.5; stroke-linecap: square"/>
    </g>
    <g id="text_33">
     <!-- $\Vert(x,y)\Vert$ [m] -->
     <g transform="translate(638.4 42.88112) scale(0.1 -0.1)">
      <defs>
       <path id="DejaVuSans-2016" d="M 1344 4891 
L 1344 -1509 
L 813 -1509 
L 813 4891 
L 1344 4891 
z
M 2376 4891 
L 2376 -1509 
L 1845 -1509 
L 1845 4891 
L 2376 4891 
z
" transform="scale(0.015625)"/>
       <path id="DejaVuSans-28" d="M 1984 4856 
Q 1566 4138 1362 3434 
Q 1159 2731 1159 2009 
Q 1159 1288 1364 580 
Q 1569 -128 1984 -844 
L 1484 -844 
Q 1016 -109 783 600 
Q 550 1309 550 2009 
Q 550 2706 781 3412 
Q 1013 4119 1484 4856 
L 1984 4856 
z
" transform="scale(0.015625)"/>
       <path id="DejaVuSans-Oblique-78" d="M 3841 3500 
L 2234 1784 
L 3219 0 
L 2559 0 
L 1819 1388 
L 531 0 
L -166 0 
L 1556 1844 
L 641 3500 
L 1300 3500 
L 1972 2234 
L 3144 3500 
L 3841 3500 
z
" transform="scale(0.015625)"/>
       <path id="DejaVuSans-Oblique-79" d="M 1588 -325 
Q 1188 -997 936 -1164 
Q 684 -1331 294 -1331 
L -159 -1331 
L -63 -850 
L 269 -850 
Q 509 -850 678 -719 
Q 847 -588 1056 -206 
L 1234 128 
L 459 3500 
L 1069 3500 
L 1650 819 
L 3256 3500 
L 3859 3500 
L 1588 -325 
z
" transform="scale(0.015625)"/>
       <path id="DejaVuSans-29" d="M 513 4856 
L 1013 4856 
Q 1481 4119 1714 3412 
Q 1947 2706 1947 2009 
Q 1947 1309 1714 600 
Q 1481 -109 1013 -844 
L 513 -844 
Q 928 -128 1133 580 
Q 1338 1288 1338 2009 
Q 1338 2731 1133 3434 
Q 928 4138 513 4856 
z
" transform="scale(0.015625)"/>
      </defs>
      <use xlink:href="#DejaVuSans-2016" transform="translate(0 0.578125)"/>
      <use xlink:href="#DejaVuSans-28" transform="translate(50 0.578125)"/>
      <use xlink:href="#DejaVuSans-Oblique-78" transform="translate(89.013672 0.578125)"/>
      <use xlink:href="#DejaVuSans-2c" transform="translate(148.193359 0.578125)"/>
      <use xlink:href="#DejaVuSans-Oblique-79" transform="translate(199.462891 0.578125)"/>
      <use xlink:href="#DejaVuSans-29" transform="translate(258.642578 0.578125)"/>
      <use xlink:href="#DejaVuSans-2016" transform="translate(297.65625 0.578125)"/>
      <use xlink:href="#DejaVuSans-20" transform="translate(347.65625 0.578125)"/>
      <use xlink:href="#DejaVuSans-5b" transform="translate(379.443359 0.578125)"/>
      <use xlink:href="#DejaVuSans-6d" transform="translate(418.457031 0.578125)"/>
      <use xlink:href="#DejaVuSans-5d" transform="translate(515.869141 0.578125)"/>
     </g>
    </g>
    <g id="line2d_34">
     <path d="M 610.4 54.379558 
L 620.4 54.379558 
L 630.4 54.379558 
" style="fill: none; stroke: #ff0000; stroke-width: 0.5; stroke-linecap: square"/>
    </g>
    <g id="text_34">
     <!-- $\alpha$ [rad] -->
     <g transform="translate(638.4 57.879558) scale(0.1 -0.1)">
      <defs>
       <path id="DejaVuSans-Oblique-3b1" d="M 2619 1628 
L 2622 2350 
Q 2625 3088 2069 3091 
Q 1653 3094 1394 2747 
Q 1069 2319 959 1747 
Q 825 1059 994 731 
Q 1169 397 1547 397 
Q 1966 397 2319 1063 
L 2619 1628 
z
M 2166 3578 
Q 3141 3594 3128 2584 
Q 3128 2584 3616 3500 
L 4128 3500 
L 3119 1603 
L 3109 919 
Q 3109 766 3194 638 
Q 3291 488 3391 488 
L 3669 488 
L 3575 0 
L 3228 0 
Q 2934 0 2722 263 
Q 2622 394 2619 669 
Q 2416 334 2066 50 
Q 1900 -81 1453 -78 
Q 722 -72 456 397 
Q 184 884 353 1747 
Q 534 2675 1009 3097 
Q 1544 3569 2166 3578 
z
" transform="scale(0.015625)"/>
      </defs>
      <use xlink:href="#DejaVuSans-Oblique-3b1" transform="translate(0 0.015625)"/>
      <use xlink:href="#DejaVuSans-20" transform="translate(65.917969 0.015625)"/>
      <use xlink:href="#DejaVuSans-5b" transform="translate(97.705078 0.015625)"/>
      <use xlink:href="#DejaVuSans-72" transform="translate(136.71875 0.015625)"/>
      <use xlink:href="#DejaVuSans-61" transform="translate(177.832031 0.015625)"/>
      <use xlink:href="#DejaVuSans-64" transform="translate(239.111328 0.015625)"/>
      <use xlink:href="#DejaVuSans-5d" transform="translate(302.587891 0.015625)"/>
     </g>
    </g>
   </g>
  </g>
  <g id="axes_3">
   <g id="patch_14">
    <path d="M 45.731818 660.41096 
L 350.12 660.41096 
L 350.12 363.73056 
L 45.731818 363.73056 
z
" style="fill: #ffffff"/>
   </g>
   <g id="matplotlib.axis_5">
    <g id="xtick_13">
     <g id="line2d_35">
      <g>
       <use xlink:href="#m2cf0fa0f10" x="45.731818" y="660.41096" style="stroke: #000000; stroke-width: 0.8"/>
      </g>
     </g>
     <g id="text_35">
      <!-- 0 -->
      <g transform="translate(42.550568 675.009397) scale(0.1 -0.1)">
       <use xlink:href="#DejaVuSans-30"/>
      </g>
     </g>
    </g>
    <g id="xtick_14">
     <g id="line2d_36">
      <g>
       <use xlink:href="#m2cf0fa0f10" x="96.463182" y="660.41096" style="stroke: #000000; stroke-width: 0.8"/>
      </g>
     </g>
     <g id="text_36">
      <!-- 5 -->
      <g transform="translate(93.281932 675.009397) scale(0.1 -0.1)">
       <use xlink:href="#DejaVuSans-35"/>
      </g>
     </g>
    </g>
    <g id="xtick_15">
     <g id="line2d_37">
      <g>
       <use xlink:href="#m2cf0fa0f10" x="147.194545" y="660.41096" style="stroke: #000000; stroke-width: 0.8"/>
      </g>
     </g>
     <g id="text_37">
      <!-- 10 -->
      <g transform="translate(140.832045 675.009397) scale(0.1 -0.1)">
       <use xlink:href="#DejaVuSans-31"/>
       <use xlink:href="#DejaVuSans-30" x="63.623047"/>
      </g>
     </g>
    </g>
    <g id="xtick_16">
     <g id="line2d_38">
      <g>
       <use xlink:href="#m2cf0fa0f10" x="197.925909" y="660.41096" style="stroke: #000000; stroke-width: 0.8"/>
      </g>
     </g>
     <g id="text_38">
      <!-- 15 -->
      <g transform="translate(191.563409 675.009397) scale(0.1 -0.1)">
       <use xlink:href="#DejaVuSans-31"/>
       <use xlink:href="#DejaVuSans-35" x="63.623047"/>
      </g>
     </g>
    </g>
    <g id="xtick_17">
     <g id="line2d_39">
      <g>
       <use xlink:href="#m2cf0fa0f10" x="248.657273" y="660.41096" style="stroke: #000000; stroke-width: 0.8"/>
      </g>
     </g>
     <g id="text_39">
      <!-- 20 -->
      <g transform="translate(242.294773 675.009397) scale(0.1 -0.1)">
       <use xlink:href="#DejaVuSans-32"/>
       <use xlink:href="#DejaVuSans-30" x="63.623047"/>
      </g>
     </g>
    </g>
    <g id="xtick_18">
     <g id="line2d_40">
      <g>
       <use xlink:href="#m2cf0fa0f10" x="299.388636" y="660.41096" style="stroke: #000000; stroke-width: 0.8"/>
      </g>
     </g>
     <g id="text_40">
      <!-- 25 -->
      <g transform="translate(293.026136 675.009397) scale(0.1 -0.1)">
       <use xlink:href="#DejaVuSans-32"/>
       <use xlink:href="#DejaVuSans-35" x="63.623047"/>
      </g>
     </g>
    </g>
    <g id="xtick_19">
     <g id="line2d_41">
      <g>
       <use xlink:href="#m2cf0fa0f10" x="350.12" y="660.41096" style="stroke: #000000; stroke-width: 0.8"/>
      </g>
     </g>
     <g id="text_41">
      <!-- 30 -->
      <g transform="translate(343.7575 675.009397) scale(0.1 -0.1)">
       <use xlink:href="#DejaVuSans-33"/>
       <use xlink:href="#DejaVuSans-30" x="63.623047"/>
      </g>
     </g>
    </g>
    <g id="text_42">
     <!-- t [s] -->
     <g transform="translate(187.87044 688.687523) scale(0.1 -0.1)">
      <use xlink:href="#DejaVuSans-74"/>
      <use xlink:href="#DejaVuSans-20" x="39.208984"/>
      <use xlink:href="#DejaVuSans-5b" x="70.996094"/>
      <use xlink:href="#DejaVuSans-73" x="110.009766"/>
      <use xlink:href="#DejaVuSans-5d" x="162.109375"/>
     </g>
    </g>
   </g>
   <g id="matplotlib.axis_6">
    <g id="ytick_15">
     <g id="line2d_42">
      <g>
       <use xlink:href="#m8fcc87584b" x="45.731818" y="660.41096" style="stroke: #000000; stroke-width: 0.8"/>
      </g>
     </g>
     <g id="text_43">
      <!-- $\mathdefault{0}$ -->
      <g transform="translate(32.331818 664.210179) scale(0.1 -0.1)">
       <use xlink:href="#DejaVuSans-30" transform="translate(0 0.78125)"/>
      </g>
     </g>
    </g>
    <g id="ytick_16">
     <g id="line2d_43">
      <g>
       <use xlink:href="#m8fcc87584b" x="45.731818" y="638.257376" style="stroke: #000000; stroke-width: 0.8"/>
      </g>
     </g>
     <g id="text_44">
      <!-- $\mathdefault{10^{0}}$ -->
      <g transform="translate(21.131818 642.056595) scale(0.1 -0.1)">
       <use xlink:href="#DejaVuSans-31" transform="translate(0 0.765625)"/>
       <use xlink:href="#DejaVuSans-30" transform="translate(63.623047 0.765625)"/>
       <use xlink:href="#DejaVuSans-30" transform="translate(128.203125 39.046875) scale(0.7)"/>
      </g>
     </g>
    </g>
    <g id="ytick_17">
     <g id="line2d_44">
      <g>
       <use xlink:href="#m8fcc87584b" x="45.731818" y="588.231348" style="stroke: #000000; stroke-width: 0.8"/>
      </g>
     </g>
     <g id="text_45">
      <!-- $\mathdefault{10^{1}}$ -->
      <g transform="translate(21.131818 592.030567) scale(0.1 -0.1)">
       <use xlink:href="#DejaVuSans-31" transform="translate(0 0.684375)"/>
       <use xlink:href="#DejaVuSans-30" transform="translate(63.623047 0.684375)"/>
       <use xlink:href="#DejaVuSans-31" transform="translate(128.203125 38.965625) scale(0.7)"/>
      </g>
     </g>
    </g>
    <g id="ytick_18">
     <g id="line2d_45">
      <g>
       <use xlink:href="#m8fcc87584b" x="45.731818" y="548.354896" style="stroke: #000000; stroke-width: 0.8"/>
      </g>
     </g>
     <g id="text_46">
      <!-- $\mathdefault{10^{2}}$ -->
      <g transform="translate(21.131818 552.154115) scale(0.1 -0.1)">
       <use xlink:href="#DejaVuSans-31" transform="translate(0 0.765625)"/>
       <use xlink:href="#DejaVuSans-30" transform="translate(63.623047 0.765625)"/>
       <use xlink:href="#DejaVuSans-32" transform="translate(128.203125 39.046875) scale(0.7)"/>
      </g>
     </g>
    </g>
    <g id="ytick_19">
     <g id="line2d_46">
      <g>
       <use xlink:href="#m8fcc87584b" x="45.731818" y="508.478445" style="stroke: #000000; stroke-width: 0.8"/>
      </g>
     </g>
     <g id="text_47">
      <!-- $\mathdefault{10^{3}}$ -->
      <g transform="translate(21.131818 512.277663) scale(0.1 -0.1)">
       <use xlink:href="#DejaVuSans-31" transform="translate(0 0.765625)"/>
       <use xlink:href="#DejaVuSans-30" transform="translate(63.623047 0.765625)"/>
       <use xlink:href="#DejaVuSans-33" transform="translate(128.203125 39.046875) scale(0.7)"/>
      </g>
     </g>
    </g>
    <g id="ytick_20">
     <g id="line2d_47">
      <g>
       <use xlink:href="#m8fcc87584b" x="45.731818" y="468.601993" style="stroke: #000000; stroke-width: 0.8"/>
      </g>
     </g>
     <g id="text_48">
      <!-- $\mathdefault{10^{4}}$ -->
      <g transform="translate(21.131818 472.401212) scale(0.1 -0.1)">
       <use xlink:href="#DejaVuSans-31" transform="translate(0 0.684375)"/>
       <use xlink:href="#DejaVuSans-30" transform="translate(63.623047 0.684375)"/>
       <use xlink:href="#DejaVuSans-34" transform="translate(128.203125 38.965625) scale(0.7)"/>
      </g>
     </g>
    </g>
    <g id="ytick_21">
     <g id="line2d_48">
      <g>
       <use xlink:href="#m8fcc87584b" x="45.731818" y="428.725542" style="stroke: #000000; stroke-width: 0.8"/>
      </g>
     </g>
     <g id="text_49">
      <!-- $\mathdefault{10^{5}}$ -->
      <g transform="translate(21.131818 432.52476) scale(0.1 -0.1)">
       <use xlink:href="#DejaVuSans-31" transform="translate(0 0.684375)"/>
       <use xlink:href="#DejaVuSans-30" transform="translate(63.623047 0.684375)"/>
       <use xlink:href="#DejaVuSans-35" transform="translate(128.203125 38.965625) scale(0.7)"/>
      </g>
     </g>
    </g>
    <g id="ytick_22">
     <g id="line2d_49">
      <g>
       <use xlink:href="#m8fcc87584b" x="45.731818" y="388.84909" style="stroke: #000000; stroke-width: 0.8"/>
      </g>
     </g>
     <g id="text_50">
      <!-- $\mathdefault{10^{6}}$ -->
      <g transform="translate(21.131818 392.648309) scale(0.1 -0.1)">
       <defs>
        <path id="DejaVuSans-36" d="M 2113 2584 
Q 1688 2584 1439 2293 
Q 1191 2003 1191 1497 
Q 1191 994 1439 701 
Q 1688 409 2113 409 
Q 2538 409 2786 701 
Q 3034 994 3034 1497 
Q 3034 2003 2786 2293 
Q 2538 2584 2113 2584 
z
M 3366 4563 
L 3366 3988 
Q 3128 4100 2886 4159 
Q 2644 4219 2406 4219 
Q 1781 4219 1451 3797 
Q 1122 3375 1075 2522 
Q 1259 2794 1537 2939 
Q 1816 3084 2150 3084 
Q 2853 3084 3261 2657 
Q 3669 2231 3669 1497 
Q 3669 778 3244 343 
Q 2819 -91 2113 -91 
Q 1303 -91 875 529 
Q 447 1150 447 2328 
Q 447 3434 972 4092 
Q 1497 4750 2381 4750 
Q 2619 4750 2861 4703 
Q 3103 4656 3366 4563 
z
" transform="scale(0.015625)"/>
       </defs>
       <use xlink:href="#DejaVuSans-31" transform="translate(0 0.765625)"/>
       <use xlink:href="#DejaVuSans-30" transform="translate(63.623047 0.765625)"/>
       <use xlink:href="#DejaVuSans-36" transform="translate(128.203125 39.046875) scale(0.7)"/>
      </g>
     </g>
    </g>
   </g>
   <g id="line2d_50">
    <path d="M 45.731818 523.236366 
L 45.829476 523.265454 
L 49.73833 524.428472 
L 51.260271 530.767043 
L 52.782212 538.35488 
L 54.304153 545.013008 
L 55.826094 548.134413 
L 60.391917 553.385182 
L 61.913858 554.186562 
L 63.435799 552.583396 
L 64.95774 549.04845 
L 66.47968 551.196426 
L 68.001621 553.697099 
L 69.523562 565.290105 
L 71.045503 563.655149 
L 72.567444 550.633562 
L 74.089385 551.235692 
L 75.611326 552.662946 
L 77.133267 553.685278 
L 78.655208 566.153804 
L 80.177149 583.495088 
L 81.69909 588.885155 
L 84.742971 565.412947 
L 86.264912 556.049854 
L 87.786853 563.164918 
L 89.308794 573.842428 
L 90.830735 589.361159 
L 92.352676 598.830448 
L 93.874617 589.295587 
L 95.396558 576.654627 
L 98.44044 598.566597 
L 99.96238 593.274356 
L 101.484321 579.791407 
L 104.528203 599.63338 
L 106.050144 595.496225 
L 107.572085 582.49109 
L 109.094026 592.303303 
L 110.615967 601.191503 
L 112.137908 596.180994 
L 113.659849 583.559672 
L 115.18179 593.464516 
L 116.70373 602.152648 
L 118.225671 596.868965 
L 119.747612 584.470193 
L 121.269553 594.465576 
L 122.791494 602.815011 
L 124.313435 596.976451 
L 125.835376 584.608317 
L 127.357317 594.665982 
L 128.879258 603.233434 
L 130.401199 597.564803 
L 131.92314 585.194758 
L 133.44508 595.093172 
L 134.967021 603.579553 
L 136.488962 598.053835 
L 138.010903 585.693063 
L 139.532844 595.369561 
L 141.054785 603.817633 
L 142.576726 598.626852 
L 144.098667 586.309473 
L 145.620608 595.69911 
L 147.142549 603.964842 
L 148.66449 599.038417 
L 150.18643 586.773848 
L 151.708371 595.931551 
L 153.230312 604.027739 
L 154.752253 599.273476 
L 156.274194 587.032899 
L 157.796135 596.093807 
L 159.318076 604.072838 
L 160.840017 599.322258 
L 162.361958 587.093759 
L 163.883899 596.150312 
L 165.40584 604.100348 
L 166.92778 599.30945 
L 168.449721 587.072458 
L 169.971662 596.138044 
L 171.493603 604.112836 
L 173.015544 599.340781 
L 174.537485 587.102164 
L 176.059426 596.140708 
L 177.581367 604.117971 
L 179.103308 599.395362 
L 180.625249 587.155535 
L 182.14719 596.170619 
L 183.66913 604.129596 
L 185.191071 599.423644 
L 186.713012 587.189708 
L 188.234953 596.207853 
L 189.756894 604.147127 
L 191.278835 599.404378 
L 192.800776 587.16669 
L 194.322717 596.184119 
L 195.844658 604.146296 
L 197.366599 599.441088 
L 198.88854 587.206639 
L 200.41048 596.217521 
L 201.932421 604.157995 
L 203.454362 599.429724 
L 204.976303 587.192358 
L 206.498244 596.19641 
L 208.020185 604.154085 
L 209.542126 599.466363 
L 211.064067 587.233395 
L 212.586008 576.16812 
L 214.107949 585.290518 
L 215.62989 597.727428 
L 217.15183 604.491209 
L 218.673771 596.657663 
L 220.195712 584.559477 
L 221.717653 574.167996 
L 223.239594 582.733399 
L 224.761535 594.867173 
L 226.283476 604.373649 
L 227.805417 599.668772 
L 229.327358 587.221883 
L 230.849299 576.044014 
L 232.37124 585.025312 
L 233.89318 597.488652 
L 235.415121 605.197187 
L 236.937062 597.892211 
L 238.459003 585.432318 
L 239.980944 574.723287 
L 241.502885 583.272738 
L 243.024826 595.47531 
L 244.546767 605.232183 
L 246.068708 600.647346 
L 247.590649 588.060615 
L 249.11259 576.779022 
L 250.63453 585.769193 
L 252.156471 598.320972 
L 253.678412 606.231583 
L 255.200353 599.138466 
L 256.722294 586.793057 
L 258.244235 576.115764 
L 259.766176 584.909451 
L 261.288117 597.379604 
L 262.810058 606.551492 
L 264.331999 600.651289 
L 265.85394 587.943502 
L 267.37588 576.837735 
L 268.897821 585.650954 
L 270.419762 598.165812 
L 271.941703 607.170111 
L 273.463644 600.967131 
L 274.985585 588.213775 
L 276.507526 577.134774 
L 278.029467 585.953447 
L 279.551408 598.531769 
L 281.073349 607.759347 
L 282.59529 601.808166 
L 284.11723 589.150753 
L 285.639171 578.081758 
L 287.161112 587.038531 
L 288.683053 599.737084 
L 290.204994 608.465028 
L 291.726935 602.297189 
L 293.248876 590.235534 
L 294.770817 579.562033 
L 296.292758 588.910367 
L 297.814699 601.850305 
L 299.33664 608.997594 
L 300.85858 602.264809 
L 302.380521 591.512021 
L 303.902462 581.808475 
L 305.424403 591.746566 
L 306.946344 604.710949 
L 308.468285 608.699393 
L 309.990226 601.764103 
L 313.034108 584.818607 
L 314.556049 595.608595 
L 316.07799 607.937545 
L 317.59993 606.818036 
L 322.165753 589.813446 
L 323.687694 601.5894 
L 325.209635 610.360629 
L 326.731576 602.136054 
L 328.253517 600.525929 
L 331.297399 599.643531 
L 332.81934 609.479337 
L 334.34128 607.52041 
L 335.863221 595.456195 
L 337.385162 600.261405 
L 338.907103 606.45793 
L 340.429044 610.533456 
L 341.950985 609.722832 
L 343.472926 603.504311 
L 344.994867 595.663033 
L 346.516808 604.260375 
L 348.038749 610.915996 
L 349.56069 607.206752 
L 350.12 606.595087 
L 350.12 606.595087 
" clip-path="url(#p02fac26f7f)" style="fill: none; stroke: #ff0000; stroke-width: 0.5; stroke-linecap: square"/>
   </g>
   <g id="line2d_51">
    <path d="M 45.731818 660.41096 
L 45.829476 525.071638 
L 46.694449 520.159122 
L 48.21639 516.425692 
L 49.73833 513.427896 
L 51.260271 511.616989 
L 52.782212 510.541638 
L 54.304153 509.845948 
L 57.348035 508.795111 
L 60.391917 507.983754 
L 63.435799 507.24371 
L 66.47968 506.389735 
L 68.001621 506.054718 
L 71.045503 505.701755 
L 75.611326 504.627873 
L 77.133267 504.324777 
L 80.177149 504.125937 
L 83.22103 504.009964 
L 86.264912 503.607392 
L 89.308794 503.352511 
L 128.879258 502.517888 
L 191.278835 501.539943 
L 201.932421 501.376867 
L 218.673771 501.07022 
L 243.024826 500.483464 
L 255.200353 500.274912 
L 288.683053 499.61086 
L 302.380521 499.41625 
L 308.468285 499.325418 
L 350.12 498.913523 
L 350.12 498.913523 
" clip-path="url(#p02fac26f7f)" style="fill: none; stroke: #008000; stroke-width: 0.5; stroke-linecap: square"/>
   </g>
   <g id="patch_15">
    <path d="M 45.731818 660.41096 
L 45.731818 363.73056 
" style="fill: none; stroke: #000000; stroke-width: 0.8; stroke-linejoin: miter; stroke-linecap: square"/>
   </g>
   <g id="patch_16">
    <path d="M 350.12 660.41096 
L 350.12 363.73056 
" style="fill: none; stroke: #000000; stroke-width: 0.8; stroke-linejoin: miter; stroke-linecap: square"/>
   </g>
   <g id="patch_17">
    <path d="M 45.731818 660.41096 
L 350.12 660.41096 
" style="fill: none; stroke: #000000; stroke-width: 0.8; stroke-linejoin: miter; stroke-linecap: square"/>
   </g>
   <g id="patch_18">
    <path d="M 45.731818 363.73056 
L 350.12 363.73056 
" style="fill: none; stroke: #000000; stroke-width: 0.8; stroke-linejoin: miter; stroke-linecap: square"/>
   </g>
   <g id="legend_2">
    <g id="patch_19">
     <path d="M 245.02 405.308685 
L 343.12 405.308685 
Q 345.12 405.308685 345.12 403.308685 
L 345.12 370.73056 
Q 345.12 368.73056 343.12 368.73056 
L 245.02 368.73056 
Q 243.02 368.73056 243.02 370.73056 
L 243.02 403.308685 
Q 243.02 405.308685 245.02 405.308685 
z
" style="fill: #ffffff; opacity: 0.8; stroke: #cccccc; stroke-linejoin: miter"/>
    </g>
    <g id="line2d_52">
     <path d="M 247.02 376.828998 
L 257.02 376.828998 
L 267.02 376.828998 
" style="fill: none; stroke: #ff0000; stroke-width: 0.5; stroke-linecap: square"/>
    </g>
    <g id="text_51">
     <!-- Run. obj. -->
     <g transform="translate(275.02 380.328998) scale(0.1 -0.1)">
      <defs>
       <path id="DejaVuSans-52" d="M 2841 2188 
Q 3044 2119 3236 1894 
Q 3428 1669 3622 1275 
L 4263 0 
L 3584 0 
L 2988 1197 
Q 2756 1666 2539 1819 
Q 2322 1972 1947 1972 
L 1259 1972 
L 1259 0 
L 628 0 
L 628 4666 
L 2053 4666 
Q 2853 4666 3247 4331 
Q 3641 3997 3641 3322 
Q 3641 2881 3436 2590 
Q 3231 2300 2841 2188 
z
M 1259 4147 
L 1259 2491 
L 2053 2491 
Q 2509 2491 2742 2702 
Q 2975 2913 2975 3322 
Q 2975 3731 2742 3939 
Q 2509 4147 2053 4147 
L 1259 4147 
z
" transform="scale(0.015625)"/>
       <path id="DejaVuSans-6e" d="M 3513 2113 
L 3513 0 
L 2938 0 
L 2938 2094 
Q 2938 2591 2744 2837 
Q 2550 3084 2163 3084 
Q 1697 3084 1428 2787 
Q 1159 2491 1159 1978 
L 1159 0 
L 581 0 
L 581 3500 
L 1159 3500 
L 1159 2956 
Q 1366 3272 1645 3428 
Q 1925 3584 2291 3584 
Q 2894 3584 3203 3211 
Q 3513 2838 3513 2113 
z
" transform="scale(0.015625)"/>
       <path id="DejaVuSans-62" d="M 3116 1747 
Q 3116 2381 2855 2742 
Q 2594 3103 2138 3103 
Q 1681 3103 1420 2742 
Q 1159 2381 1159 1747 
Q 1159 1113 1420 752 
Q 1681 391 2138 391 
Q 2594 391 2855 752 
Q 3116 1113 3116 1747 
z
M 1159 2969 
Q 1341 3281 1617 3432 
Q 1894 3584 2278 3584 
Q 2916 3584 3314 3078 
Q 3713 2572 3713 1747 
Q 3713 922 3314 415 
Q 2916 -91 2278 -91 
Q 1894 -91 1617 61 
Q 1341 213 1159 525 
L 1159 0 
L 581 0 
L 581 4863 
L 1159 4863 
L 1159 2969 
z
" transform="scale(0.015625)"/>
       <path id="DejaVuSans-6a" d="M 603 3500 
L 1178 3500 
L 1178 -63 
Q 1178 -731 923 -1031 
Q 669 -1331 103 -1331 
L -116 -1331 
L -116 -844 
L 38 -844 
Q 366 -844 484 -692 
Q 603 -541 603 -63 
L 603 3500 
z
M 603 4863 
L 1178 4863 
L 1178 4134 
L 603 4134 
L 603 4863 
z
" transform="scale(0.015625)"/>
      </defs>
      <use xlink:href="#DejaVuSans-52"/>
      <use xlink:href="#DejaVuSans-75" x="64.982422"/>
      <use xlink:href="#DejaVuSans-6e" x="128.361328"/>
      <use xlink:href="#DejaVuSans-2e" x="191.740234"/>
      <use xlink:href="#DejaVuSans-20" x="223.527344"/>
      <use xlink:href="#DejaVuSans-6f" x="255.314453"/>
      <use xlink:href="#DejaVuSans-62" x="316.496094"/>
      <use xlink:href="#DejaVuSans-6a" x="379.972656"/>
      <use xlink:href="#DejaVuSans-2e" x="407.755859"/>
     </g>
    </g>
    <g id="line2d_53">
     <path d="M 247.02 394.708685 
L 257.02 394.708685 
L 267.02 394.708685 
" style="fill: none; stroke: #008000; stroke-width: 0.5; stroke-linecap: square"/>
    </g>
    <g id="text_52">
     <!-- $\int \mathrm{Run.\,obj.} \,\mathrm{d}t$ -->
     <g transform="translate(275.02 398.208685) scale(0.1 -0.1)">
      <defs>
       <path id="DejaVuSansDisplay-222b" d="M 2134 5525 
Q 2172 6263 2528 6556 
Q 2884 6850 3218 6850 
Q 3553 6850 3833 6575 
Q 4113 6300 4200 5678 
L 3544 5613 
Q 3469 6188 3219 6188 
Q 2906 6188 2869 5413 
L 2581 -597 
Q 2547 -1334 2187 -1628 
Q 1828 -1922 1497 -1922 
Q 1163 -1922 883 -1647 
Q 603 -1372 516 -750 
L 1172 -684 
Q 1247 -1259 1497 -1259 
Q 1809 -1259 1847 -488 
L 2134 5525 
z
" transform="scale(0.015625)"/>
       <path id="DejaVuSans-Oblique-74" d="M 2706 3500 
L 2619 3053 
L 1472 3053 
L 1100 1153 
Q 1081 1047 1072 975 
Q 1063 903 1063 863 
Q 1063 663 1183 572 
Q 1303 481 1569 481 
L 2150 481 
L 2053 0 
L 1503 0 
Q 991 0 739 200 
Q 488 400 488 806 
Q 488 878 497 964 
Q 506 1050 525 1153 
L 897 3053 
L 409 3053 
L 500 3500 
L 978 3500 
L 1172 4494 
L 1747 4494 
L 1556 3500 
L 2706 3500 
z
" transform="scale(0.015625)"/>
      </defs>
      <use xlink:href="#DejaVuSansDisplay-222b" transform="translate(0 0.96875)"/>
      <use xlink:href="#DejaVuSans-52" transform="translate(73.632812 0.96875)"/>
      <use xlink:href="#DejaVuSans-75" transform="translate(143.115234 0.96875)"/>
      <use xlink:href="#DejaVuSans-6e" transform="translate(206.494141 0.96875)"/>
      <use xlink:href="#DejaVuSans-2e" transform="translate(269.873047 0.96875)"/>
      <use xlink:href="#DejaVuSans-6f" transform="translate(337.378254 0.96875)"/>
      <use xlink:href="#DejaVuSans-62" transform="translate(398.559895 0.96875)"/>
      <use xlink:href="#DejaVuSans-6a" transform="translate(462.036458 0.96875)"/>
      <use xlink:href="#DejaVuSans-2e" transform="translate(489.819661 0.96875)"/>
      <use xlink:href="#DejaVuSans-64" transform="translate(557.324868 0.96875)"/>
      <use xlink:href="#DejaVuSans-Oblique-74" transform="translate(620.801431 0.96875)"/>
     </g>
    </g>
   </g>
  </g>
  <g id="axes_4">
   <g id="patch_20">
    <path d="M 398.511818 660.41096 
L 702.9 660.41096 
L 702.9 363.73056 
L 398.511818 363.73056 
z
" style="fill: #ffffff"/>
   </g>
   <g id="matplotlib.axis_7">
    <g id="xtick_20">
     <g id="line2d_54">
      <g>
       <use xlink:href="#m2cf0fa0f10" x="398.511818" y="660.41096" style="stroke: #000000; stroke-width: 0.8"/>
      </g>
     </g>
     <g id="text_53">
      <!-- 0 -->
      <g transform="translate(395.330568 675.009397) scale(0.1 -0.1)">
       <use xlink:href="#DejaVuSans-30"/>
      </g>
     </g>
    </g>
    <g id="xtick_21">
     <g id="line2d_55">
      <g>
       <use xlink:href="#m2cf0fa0f10" x="449.243182" y="660.41096" style="stroke: #000000; stroke-width: 0.8"/>
      </g>
     </g>
     <g id="text_54">
      <!-- 5 -->
      <g transform="translate(446.061932 675.009397) scale(0.1 -0.1)">
       <use xlink:href="#DejaVuSans-35"/>
      </g>
     </g>
    </g>
    <g id="xtick_22">
     <g id="line2d_56">
      <g>
       <use xlink:href="#m2cf0fa0f10" x="499.974545" y="660.41096" style="stroke: #000000; stroke-width: 0.8"/>
      </g>
     </g>
     <g id="text_55">
      <!-- 10 -->
      <g transform="translate(493.612045 675.009397) scale(0.1 -0.1)">
       <use xlink:href="#DejaVuSans-31"/>
       <use xlink:href="#DejaVuSans-30" x="63.623047"/>
      </g>
     </g>
    </g>
    <g id="xtick_23">
     <g id="line2d_57">
      <g>
       <use xlink:href="#m2cf0fa0f10" x="550.705909" y="660.41096" style="stroke: #000000; stroke-width: 0.8"/>
      </g>
     </g>
     <g id="text_56">
      <!-- 15 -->
      <g transform="translate(544.343409 675.009397) scale(0.1 -0.1)">
       <use xlink:href="#DejaVuSans-31"/>
       <use xlink:href="#DejaVuSans-35" x="63.623047"/>
      </g>
     </g>
    </g>
    <g id="xtick_24">
     <g id="line2d_58">
      <g>
       <use xlink:href="#m2cf0fa0f10" x="601.437273" y="660.41096" style="stroke: #000000; stroke-width: 0.8"/>
      </g>
     </g>
     <g id="text_57">
      <!-- 20 -->
      <g transform="translate(595.074773 675.009397) scale(0.1 -0.1)">
       <use xlink:href="#DejaVuSans-32"/>
       <use xlink:href="#DejaVuSans-30" x="63.623047"/>
      </g>
     </g>
    </g>
    <g id="xtick_25">
     <g id="line2d_59">
      <g>
       <use xlink:href="#m2cf0fa0f10" x="652.168636" y="660.41096" style="stroke: #000000; stroke-width: 0.8"/>
      </g>
     </g>
     <g id="text_58">
      <!-- 25 -->
      <g transform="translate(645.806136 675.009397) scale(0.1 -0.1)">
       <use xlink:href="#DejaVuSans-32"/>
       <use xlink:href="#DejaVuSans-35" x="63.623047"/>
      </g>
     </g>
    </g>
    <g id="xtick_26">
     <g id="line2d_60">
      <g>
       <use xlink:href="#m2cf0fa0f10" x="702.9" y="660.41096" style="stroke: #000000; stroke-width: 0.8"/>
      </g>
     </g>
     <g id="text_59">
      <!-- 30 -->
      <g transform="translate(696.5375 675.009397) scale(0.1 -0.1)">
       <use xlink:href="#DejaVuSans-33"/>
       <use xlink:href="#DejaVuSans-30" x="63.623047"/>
      </g>
     </g>
    </g>
    <g id="text_60">
     <!-- t [s] -->
     <g transform="translate(540.65044 688.687523) scale(0.1 -0.1)">
      <use xlink:href="#DejaVuSans-74"/>
      <use xlink:href="#DejaVuSans-20" x="39.208984"/>
      <use xlink:href="#DejaVuSans-5b" x="70.996094"/>
      <use xlink:href="#DejaVuSans-73" x="110.009766"/>
      <use xlink:href="#DejaVuSans-5d" x="162.109375"/>
     </g>
    </g>
   </g>
   <g id="matplotlib.axis_8">
    <g id="ytick_23">
     <g id="line2d_61">
      <g>
       <use xlink:href="#m8fcc87584b" x="398.511818" y="654.522937" style="stroke: #000000; stroke-width: 0.8"/>
      </g>
     </g>
     <g id="text_61">
      <!-- −3 -->
      <g transform="translate(376.769631 658.322155) scale(0.1 -0.1)">
       <use xlink:href="#DejaVuSans-2212"/>
       <use xlink:href="#DejaVuSans-33" x="83.789062"/>
      </g>
     </g>
    </g>
    <g id="ytick_24">
     <g id="line2d_62">
      <g>
       <use xlink:href="#m8fcc87584b" x="398.511818" y="607.038878" style="stroke: #000000; stroke-width: 0.8"/>
      </g>
     </g>
     <g id="text_62">
      <!-- −2 -->
      <g transform="translate(376.769631 610.838097) scale(0.1 -0.1)">
       <use xlink:href="#DejaVuSans-2212"/>
       <use xlink:href="#DejaVuSans-32" x="83.789062"/>
      </g>
     </g>
    </g>
    <g id="ytick_25">
     <g id="line2d_63">
      <g>
       <use xlink:href="#m8fcc87584b" x="398.511818" y="559.554819" style="stroke: #000000; stroke-width: 0.8"/>
      </g>
     </g>
     <g id="text_63">
      <!-- −1 -->
      <g transform="translate(376.769631 563.354038) scale(0.1 -0.1)">
       <use xlink:href="#DejaVuSans-2212"/>
       <use xlink:href="#DejaVuSans-31" x="83.789062"/>
      </g>
     </g>
    </g>
    <g id="ytick_26">
     <g id="line2d_64">
      <g>
       <use xlink:href="#m8fcc87584b" x="398.511818" y="512.07076" style="stroke: #000000; stroke-width: 0.8"/>
      </g>
     </g>
     <g id="text_64">
      <!-- 0 -->
      <g transform="translate(385.149318 515.869979) scale(0.1 -0.1)">
       <use xlink:href="#DejaVuSans-30"/>
      </g>
     </g>
    </g>
    <g id="ytick_27">
     <g id="line2d_65">
      <g>
       <use xlink:href="#m8fcc87584b" x="398.511818" y="464.586701" style="stroke: #000000; stroke-width: 0.8"/>
      </g>
     </g>
     <g id="text_65">
      <!-- 1 -->
      <g transform="translate(385.149318 468.38592) scale(0.1 -0.1)">
       <use xlink:href="#DejaVuSans-31"/>
      </g>
     </g>
    </g>
    <g id="ytick_28">
     <g id="line2d_66">
      <g>
       <use xlink:href="#m8fcc87584b" x="398.511818" y="417.102642" style="stroke: #000000; stroke-width: 0.8"/>
      </g>
     </g>
     <g id="text_66">
      <!-- 2 -->
      <g transform="translate(385.149318 420.901861) scale(0.1 -0.1)">
       <use xlink:href="#DejaVuSans-32"/>
      </g>
     </g>
    </g>
    <g id="ytick_29">
     <g id="line2d_67">
      <g>
       <use xlink:href="#m8fcc87584b" x="398.511818" y="369.618583" style="stroke: #000000; stroke-width: 0.8"/>
      </g>
     </g>
     <g id="text_67">
      <!-- 3 -->
      <g transform="translate(385.149318 373.417802) scale(0.1 -0.1)">
       <use xlink:href="#DejaVuSans-33"/>
      </g>
     </g>
    </g>
   </g>
   <g id="line2d_68">
    <path d="M 398.511818 512.07076 
L 702.9 512.07076 
" clip-path="url(#p388869fbdf)" style="fill: none; stroke-dasharray: 2.775,1.2; stroke-dashoffset: 0; stroke: #000000; stroke-width: 0.75"/>
   </g>
   <g id="line2d_69">
    <path d="M 398.511818 512.07076 
L 398.609476 522.517253 
L 400.99639 522.517253 
L 402.51833 407.60583 
L 411.649976 407.60583 
L 413.171917 426.702651 
L 416.215799 426.702651 
L 417.73774 407.60583 
L 423.825503 407.60583 
L 425.347444 616.53569 
L 432.957149 616.53569 
L 434.47909 599.104223 
L 437.522971 599.104223 
L 439.044912 407.60583 
L 446.654617 407.60583 
L 448.176558 616.53569 
L 452.74238 616.53569 
L 454.264321 407.60583 
L 458.830144 407.60583 
L 460.352085 616.53569 
L 464.917908 616.53569 
L 466.439849 407.60583 
L 471.005671 407.60583 
L 472.527612 616.53569 
L 477.093435 616.53569 
L 478.615376 407.60583 
L 483.181199 407.60583 
L 484.70314 614.335363 
L 486.22508 614.335363 
L 487.747021 616.53569 
L 489.268962 616.53569 
L 490.790903 412.499553 
L 492.312844 412.499553 
L 493.834785 407.60583 
L 495.356726 407.60583 
L 496.878667 608.205219 
L 498.400608 608.205219 
L 499.922549 616.53569 
L 501.44449 616.53569 
L 502.96643 418.774594 
L 504.488371 418.774594 
L 506.010312 407.60583 
L 507.532253 407.60583 
L 509.054194 603.975415 
L 510.576135 603.975415 
L 512.098076 616.53569 
L 513.620017 616.53569 
L 515.141958 420.371126 
L 516.663899 420.371126 
L 518.18584 407.60583 
L 519.70778 407.60583 
L 521.229721 603.796508 
L 522.751662 603.796508 
L 524.273603 616.53569 
L 525.795544 616.53569 
L 527.317485 420.595648 
L 528.839426 420.595648 
L 530.361367 407.60583 
L 531.883308 407.60583 
L 533.405249 603.255919 
L 534.92719 603.255919 
L 536.44913 616.53569 
L 537.971071 616.53569 
L 539.493012 420.875896 
L 541.014953 420.875896 
L 542.536894 407.60583 
L 544.058835 407.60583 
L 545.580776 603.23898 
L 547.102717 603.23898 
L 548.624658 616.53569 
L 550.146599 616.53569 
L 551.66854 420.970317 
L 553.19048 420.970317 
L 554.712421 407.60583 
L 556.234362 407.60583 
L 557.756303 603.087192 
L 559.278244 603.087192 
L 560.800185 616.53569 
L 563.844067 616.53569 
L 565.366008 407.60583 
L 568.40989 407.60583 
L 569.93183 409.073256 
L 572.975712 409.073256 
L 574.497653 616.53569 
L 582.107358 616.53569 
L 583.629299 407.60583 
L 591.239003 407.60583 
L 592.760944 616.53569 
L 600.370649 616.53569 
L 601.89259 407.60583 
L 604.936471 407.60583 
L 606.458412 410.333402 
L 609.502294 410.333402 
L 611.024235 616.53569 
L 618.63394 616.53569 
L 620.15588 407.60583 
L 623.199762 407.60583 
L 624.721703 408.088485 
L 627.765585 408.088485 
L 629.287526 616.53569 
L 632.331408 616.53569 
L 633.853349 614.646653 
L 636.89723 614.646653 
L 638.419171 407.60583 
L 641.463053 407.60583 
L 642.984994 415.737761 
L 646.028876 415.737761 
L 647.550817 616.53569 
L 650.594699 616.53569 
L 652.11664 596.566924 
L 655.160521 596.566924 
L 656.682462 407.60583 
L 659.726344 407.60583 
L 661.248285 445.067564 
L 664.292167 445.067564 
L 665.814108 616.53569 
L 668.85799 616.53569 
L 670.37993 553.755268 
L 673.423812 553.755268 
L 674.945753 407.60583 
L 677.989635 407.60583 
L 679.511576 510.818988 
L 682.555458 510.818988 
L 684.077399 609.212959 
L 687.12128 609.212959 
L 688.643221 461.029887 
L 691.687103 461.029887 
L 693.209044 451.994813 
L 696.252926 451.994813 
L 697.774867 590.674054 
L 700.818749 590.674054 
L 702.34069 521.26967 
L 702.9 521.26967 
L 702.9 521.26967 
" clip-path="url(#p388869fbdf)" style="fill: none; stroke: #1f77b4; stroke-width: 0.5; stroke-linecap: square"/>
   </g>
   <g id="line2d_70">
    <path d="M 398.511818 512.07076 
L 398.609476 525.556233 
L 400.99639 525.556233 
L 402.51833 646.925487 
L 404.040271 646.925487 
L 405.562212 634.457391 
L 407.084153 634.457391 
L 408.606094 500.113952 
L 411.649976 500.113952 
L 413.171917 434.497918 
L 416.215799 434.497918 
L 417.73774 522.739272 
L 419.25968 522.739272 
L 420.781621 646.925487 
L 423.825503 646.925487 
L 425.347444 521.230136 
L 428.391326 521.230136 
L 429.913267 424.411955 
L 432.957149 424.411955 
L 434.47909 454.571324 
L 437.522971 454.571324 
L 439.044912 558.891317 
L 440.566853 558.891317 
L 442.088794 570.683988 
L 443.610735 570.683988 
L 445.132676 553.2348 
L 446.654617 553.2348 
L 448.176558 468.009856 
L 449.698499 468.009856 
L 451.22044 467.26197 
L 452.74238 467.26197 
L 454.264321 546.984654 
L 455.786262 546.984654 
L 457.308203 552.275442 
L 458.830144 552.275442 
L 460.352085 481.000078 
L 461.874026 481.000078 
L 463.395967 476.4522 
L 464.917908 476.4522 
L 466.439849 541.947618 
L 467.96179 541.947618 
L 469.48373 544.8294 
L 471.005671 544.8294 
L 472.527612 482.793892 
L 474.049553 482.793892 
L 475.571494 480.6288 
L 477.093435 480.6288 
L 478.615376 540.96721 
L 480.137317 540.96721 
L 481.659258 542.739761 
L 483.181199 542.739761 
L 484.70314 483.999231 
L 486.22508 483.999231 
L 487.747021 482.087553 
L 489.268962 482.087553 
L 490.790903 539.277127 
L 492.312844 539.277127 
L 493.834785 541.381554 
L 495.356726 541.381554 
L 496.878667 485.684464 
L 498.400608 485.684464 
L 499.922549 483.296009 
L 501.44449 483.296009 
L 502.96643 537.925916 
L 504.488371 537.925916 
L 506.010312 540.615915 
L 507.532253 540.615915 
L 509.054194 486.363687 
L 510.576135 486.363687 
L 512.098076 483.662767 
L 513.620017 483.662767 
L 515.141958 537.788862 
L 516.663899 537.788862 
L 518.18584 540.472183 
L 519.70778 540.472183 
L 521.229721 486.333102 
L 522.751662 486.333102 
L 524.273603 483.684791 
L 525.795544 483.684791 
L 527.317485 537.715781 
L 528.839426 537.715781 
L 530.361367 540.453254 
L 531.883308 540.453254 
L 533.405249 486.479661 
L 534.92719 486.479661 
L 536.44913 483.737761 
L 537.971071 483.737761 
L 539.493012 537.659063 
L 541.014953 537.659063 
L 542.536894 540.391138 
L 544.058835 540.391138 
L 545.580776 486.487522 
L 547.102717 486.487522 
L 548.624658 483.765739 
L 550.146599 483.765739 
L 551.66854 537.628956 
L 553.19048 537.628956 
L 554.712421 540.369751 
L 556.234362 540.369751 
L 557.756303 486.528836 
L 559.278244 486.528836 
L 560.800185 483.787 
L 563.844067 483.787 
L 565.366008 540.916993 
L 568.40989 540.916993 
L 569.93183 539.655999 
L 572.975712 539.655999 
L 574.497653 484.472784 
L 577.541535 484.472784 
L 579.063476 483.195629 
L 582.107358 483.195629 
L 583.629299 539.913478 
L 591.239003 539.835093 
L 592.760944 485.575233 
L 595.804826 485.575233 
L 597.326767 484.102402 
L 600.370649 484.102402 
L 601.89259 538.553023 
L 604.936471 538.553023 
L 606.458412 538.324657 
L 609.502294 538.324657 
L 611.024235 486.414565 
L 614.068117 486.414565 
L 615.590058 485.719218 
L 618.63394 485.719218 
L 620.15588 536.818889 
L 623.199762 536.818889 
L 624.721703 537.76572 
L 627.765585 537.76572 
L 629.287526 487.986419 
L 632.331408 487.986419 
L 633.853349 487.438186 
L 636.89723 487.438186 
L 638.419171 535.43354 
L 641.463053 535.43354 
L 642.984994 534.967438 
L 646.028876 534.967438 
L 647.550817 488.777348 
L 650.594699 488.777348 
L 652.11664 492.122523 
L 655.160521 492.122523 
L 656.682462 535.246512 
L 659.726344 535.246512 
L 661.248285 528.487098 
L 664.292167 528.487098 
L 665.814108 488.566765 
L 668.85799 488.566765 
L 670.37993 501.029012 
L 673.423812 501.029012 
L 674.945753 535.512441 
L 677.989635 535.512441 
L 679.511576 513.864099 
L 682.555458 513.864099 
L 684.077399 491.264104 
L 687.12128 491.264104 
L 688.643221 522.028077 
L 691.687103 522.028077 
L 693.209044 524.817535 
L 696.252926 524.817535 
L 697.774867 495.582133 
L 700.818749 495.582133 
L 702.34069 510.226494 
L 702.9 510.226494 
L 702.9 510.226494 
" clip-path="url(#p388869fbdf)" style="fill: none; stroke: #ff7f0e; stroke-width: 0.5; stroke-linecap: square"/>
   </g>
   <g id="patch_21">
    <path d="M 398.511818 660.41096 
L 398.511818 363.73056 
" style="fill: none; stroke: #000000; stroke-width: 0.8; stroke-linejoin: miter; stroke-linecap: square"/>
   </g>
   <g id="patch_22">
    <path d="M 702.9 660.41096 
L 702.9 363.73056 
" style="fill: none; stroke: #000000; stroke-width: 0.8; stroke-linejoin: miter; stroke-linecap: square"/>
   </g>
   <g id="patch_23">
    <path d="M 398.511818 660.41096 
L 702.9 660.41096 
" style="fill: none; stroke: #000000; stroke-width: 0.8; stroke-linejoin: miter; stroke-linecap: square"/>
   </g>
   <g id="patch_24">
    <path d="M 398.511818 363.73056 
L 702.9 363.73056 
" style="fill: none; stroke: #000000; stroke-width: 0.8; stroke-linejoin: miter; stroke-linecap: square"/>
   </g>
   <g id="legend_3">
    <g id="patch_25">
     <path d="M 619.3 401.08681 
L 695.9 401.08681 
Q 697.9 401.08681 697.9 399.08681 
L 697.9 370.73056 
Q 697.9 368.73056 695.9 368.73056 
L 619.3 368.73056 
Q 617.3 368.73056 617.3 370.73056 
L 617.3 399.08681 
Q 617.3 401.08681 619.3 401.08681 
z
" style="fill: #ffffff; opacity: 0.8; stroke: #cccccc; stroke-linejoin: miter"/>
    </g>
    <g id="line2d_71">
     <path d="M 621.3 376.828998 
L 631.3 376.828998 
L 641.3 376.828998 
" style="fill: none; stroke: #1f77b4; stroke-width: 0.5; stroke-linecap: square"/>
    </g>
    <g id="text_68">
     <!-- v [m/s] -->
     <g transform="translate(649.3 380.328998) scale(0.1 -0.1)">
      <defs>
       <path id="DejaVuSans-76" d="M 191 3500 
L 800 3500 
L 1894 563 
L 2988 3500 
L 3597 3500 
L 2284 0 
L 1503 0 
L 191 3500 
z
" transform="scale(0.015625)"/>
       <path id="DejaVuSans-2f" d="M 1625 4666 
L 2156 4666 
L 531 -594 
L 0 -594 
L 1625 4666 
z
" transform="scale(0.015625)"/>
      </defs>
      <use xlink:href="#DejaVuSans-76"/>
      <use xlink:href="#DejaVuSans-20" x="59.179688"/>
      <use xlink:href="#DejaVuSans-5b" x="90.966797"/>
      <use xlink:href="#DejaVuSans-6d" x="129.980469"/>
      <use xlink:href="#DejaVuSans-2f" x="227.392578"/>
      <use xlink:href="#DejaVuSans-73" x="261.083984"/>
      <use xlink:href="#DejaVuSans-5d" x="313.183594"/>
     </g>
    </g>
    <g id="line2d_72">
     <path d="M 621.3 391.507123 
L 631.3 391.507123 
L 641.3 391.507123 
" style="fill: none; stroke: #ff7f0e; stroke-width: 0.5; stroke-linecap: square"/>
    </g>
    <g id="text_69">
     <!-- $\omega$ [rad/s] -->
     <g transform="translate(649.3 395.007123) scale(0.1 -0.1)">
      <defs>
       <path id="DejaVuSans-Oblique-3c9" d="M 1369 -91 
Q 72 -91 434 1766 
Q 575 2500 1256 3500 
L 1875 3500 
Q 1231 2500 1088 1750 
Q 819 397 1519 397 
Q 2166 397 2478 2078 
L 3009 2078 
Q 2669 388 3316 397 
Q 4013 403 4275 1750 
Q 4419 2500 4169 3500 
L 4788 3500 
Q 5075 2500 4934 1766 
Q 4578 -94 3278 -91 
Q 2428 -88 2503 844 
Q 2194 -91 1369 -91 
z
" transform="scale(0.015625)"/>
      </defs>
      <use xlink:href="#DejaVuSans-Oblique-3c9" transform="translate(0 0.015625)"/>
      <use xlink:href="#DejaVuSans-20" transform="translate(83.740234 0.015625)"/>
      <use xlink:href="#DejaVuSans-5b" transform="translate(115.527344 0.015625)"/>
      <use xlink:href="#DejaVuSans-72" transform="translate(154.541016 0.015625)"/>
      <use xlink:href="#DejaVuSans-61" transform="translate(195.654297 0.015625)"/>
      <use xlink:href="#DejaVuSans-64" transform="translate(256.933594 0.015625)"/>
      <use xlink:href="#DejaVuSans-2f" transform="translate(320.410156 0.015625)"/>
      <use xlink:href="#DejaVuSans-73" transform="translate(354.101562 0.015625)"/>
      <use xlink:href="#DejaVuSans-5d" transform="translate(406.201172 0.015625)"/>
     </g>
    </g>
   </g>
  </g>
  <g id="text_70">
   <!-- $\int \mathrm{Run.\,obj.} \,\mathrm{d}t$ = 1737.3 -->
   <g transform="translate(36 354.49) scale(0.1 -0.1)">
    <use xlink:href="#DejaVuSansDisplay-222b" transform="translate(0 0.96875)"/>
    <use xlink:href="#DejaVuSans-52" transform="translate(73.632812 0.96875)"/>
    <use xlink:href="#DejaVuSans-75" transform="translate(143.115234 0.96875)"/>
    <use xlink:href="#DejaVuSans-6e" transform="translate(206.494141 0.96875)"/>
    <use xlink:href="#DejaVuSans-2e" transform="translate(269.873047 0.96875)"/>
    <use xlink:href="#DejaVuSans-6f" transform="translate(337.378254 0.96875)"/>
    <use xlink:href="#DejaVuSans-62" transform="translate(398.559895 0.96875)"/>
    <use xlink:href="#DejaVuSans-6a" transform="translate(462.036458 0.96875)"/>
    <use xlink:href="#DejaVuSans-2e" transform="translate(489.819661 0.96875)"/>
    <use xlink:href="#DejaVuSans-64" transform="translate(557.324868 0.96875)"/>
    <use xlink:href="#DejaVuSans-Oblique-74" transform="translate(620.801431 0.96875)"/>
    <use xlink:href="#DejaVuSans-20" transform="translate(660.010415 0.96875)"/>
    <use xlink:href="#DejaVuSans-3d" transform="translate(691.797524 0.96875)"/>
    <use xlink:href="#DejaVuSans-20" transform="translate(775.586587 0.96875)"/>
    <use xlink:href="#DejaVuSans-31" transform="translate(807.373696 0.96875)"/>
    <use xlink:href="#DejaVuSans-37" transform="translate(870.996743 0.96875)"/>
    <use xlink:href="#DejaVuSans-33" transform="translate(934.61979 0.96875)"/>
    <use xlink:href="#DejaVuSans-37" transform="translate(998.242837 0.96875)"/>
    <use xlink:href="#DejaVuSans-2e" transform="translate(1061.865884 0.96875)"/>
    <use xlink:href="#DejaVuSans-33" transform="translate(1093.652993 0.96875)"/>
   </g>
  </g>
 </g>
 <defs>
  <clipPath id="p55abb74592">
   <rect x="49.585709" y="26.18112" width="296.6804" height="296.6804"/>
  </clipPath>
  <clipPath id="pa1bfe7e6ab">
   <rect x="398.511818" y="26.18112" width="304.388182" height="296.6804"/>
  </clipPath>
  <clipPath id="p02fac26f7f">
   <rect x="45.731818" y="363.73056" width="304.388182" height="296.6804"/>
  </clipPath>
  <clipPath id="p388869fbdf">
   <rect x="398.511818" y="363.73056" width="304.388182" height="296.6804"/>
  </clipPath>
 </defs>
</svg>
