<?xml version="1.0" encoding="utf-8" standalone="no"?>
<!DOCTYPE svg PUBLIC "-//W3C//DTD SVG 1.1//EN"
  "http://www.w3.org/Graphics/SVG/1.1/DTD/svg11.dtd">
<svg xmlns:xlink="http://www.w3.org/1999/xlink" width="720pt" height="701.28pt" viewBox="0 0 720 701.28" xmlns="http://www.w3.org/2000/svg" version="1.1">
 <metadata>
  <rdf:RDF xmlns:dc="http://purl.org/dc/elements/1.1/" xmlns:cc="http://creativecommons.org/ns#" xmlns:rdf="http://www.w3.org/1999/02/22-rdf-syntax-ns#">
   <cc:Work>
    <dc:type rdf:resource="http://purl.org/dc/dcmitype/StillImage"/>
    <dc:date>2024-07-13T22:04:49.064060</dc:date>
    <dc:format>image/svg+xml</dc:format>
    <dc:creator>
     <cc:Agent>
      <dc:title>Matplotlib v3.7.5, https://matplotlib.org/</dc:title>
     </cc:Agent>
    </dc:creator>
   </cc:Work>
  </rdf:RDF>
 </metadata>
 <defs>
  <style type="text/css">*{stroke-linejoin: round; stroke-linecap: butt}</style>
 </defs>
 <g id="figure_1">
  <g id="patch_1">
   <path d="M 0 701.28 
L 720 701.28 
L 720 0 
L 0 0 
z
" style="fill: #ffffff"/>
  </g>
  <g id="axes_1">
   <g id="patch_2">
    <path d="M 49.585709 322.86152 
L 346.266109 322.86152 
L 346.266109 26.18112 
L 49.585709 26.18112 
z
" style="fill: #ffffff"/>
   </g>
   <g id="patch_3">
    <path d="M 197.925909 180.454928 
C 199.49952 180.454928 201.008892 179.829726 202.121604 178.717014 
C 203.234315 177.604303 203.859517 176.094931 203.859517 174.52132 
C 203.859517 172.947709 203.234315 171.438337 202.121604 170.325626 
C 201.008892 169.212914 199.49952 168.587712 197.925909 168.587712 
C 196.352298 168.587712 194.842926 169.212914 193.730215 170.325626 
C 192.617503 171.438337 191.992301 172.947709 191.992301 174.52132 
C 191.992301 176.094931 192.617503 177.604303 193.730215 178.717014 
C 194.842926 179.829726 196.352298 180.454928 197.925909 180.454928 
z
" clip-path="url(#pab2bb15cca)" style="fill: #bfbf00; stroke: #bfbf00; stroke-width: 2; stroke-linejoin: miter"/>
   </g>
   <g id="patch_4">
    <path d="M 138.589829 201.222556 
C 141.737052 201.222556 144.755796 199.972151 146.981218 197.746729 
C 149.20664 195.521307 150.457045 192.502562 150.457045 189.35534 
C 150.457045 186.208118 149.20664 183.189373 146.981218 180.963951 
C 144.755796 178.738529 141.737052 177.488124 138.589829 177.488124 
C 135.442607 177.488124 132.423863 178.738529 130.19844 180.963951 
C 127.973018 183.189373 126.722613 186.208118 126.722613 189.35534 
C 126.722613 192.502562 127.973018 195.521307 130.19844 197.746729 
C 132.423863 199.972151 135.442607 201.222556 138.589829 201.222556 
z
" clip-path="url(#pab2bb15cca)" style="fill: #90ee90; stroke: #90ee90; stroke-width: 2; stroke-linejoin: miter"/>
   </g>
   <g id="patch_5">
    <path d="M 138.589829 198.255752 
C 140.950246 198.255752 143.214304 197.317948 144.883371 195.648882 
C 146.552438 193.979815 147.490241 191.715757 147.490241 189.35534 
C 147.490241 186.994923 146.552438 184.730865 144.883371 183.061798 
C 143.214304 181.392732 140.950246 180.454928 138.589829 180.454928 
C 136.229412 180.454928 133.965354 181.392732 132.296287 183.061798 
C 130.627221 184.730865 129.689417 186.994923 129.689417 189.35534 
C 129.689417 191.715757 130.627221 193.979815 132.296287 195.648882 
C 133.965354 197.317948 136.229412 198.255752 138.589829 198.255752 
z
" clip-path="url(#pab2bb15cca)" style="fill: #ffff00; stroke: #ffff00; stroke-width: 2; stroke-linejoin: miter"/>
   </g>
   <g id="patch_6">
    <path d="M 138.589829 195.288948 
C 140.16344 195.288948 141.672812 194.663746 142.785524 193.551034 
C 143.898235 192.438323 144.523437 190.928951 144.523437 189.35534 
C 144.523437 187.781729 143.898235 186.272357 142.785524 185.159646 
C 141.672812 184.046934 140.16344 183.421732 138.589829 183.421732 
C 137.016218 183.421732 135.506846 184.046934 134.394135 185.159646 
C 133.281423 186.272357 132.656221 187.781729 132.656221 189.35534 
C 132.656221 190.928951 133.281423 192.438323 134.394135 193.551034 
C 135.506846 194.663746 137.016218 195.288948 138.589829 195.288948 
z
" clip-path="url(#pab2bb15cca)" style="fill: #ffa500; stroke: #ffa500; stroke-width: 2; stroke-linejoin: miter"/>
   </g>
   <g id="patch_7">
    <path d="M 138.589829 192.322144 
C 139.376635 192.322144 140.131321 192.009543 140.687676 191.453187 
C 141.244032 190.896832 141.556633 190.142146 141.556633 189.35534 
C 141.556633 188.568534 141.244032 187.813848 140.687676 187.257493 
C 140.131321 186.701137 139.376635 186.388536 138.589829 186.388536 
C 137.803023 186.388536 137.048337 186.701137 136.491982 187.257493 
C 135.935626 187.813848 135.623025 188.568534 135.623025 189.35534 
C 135.623025 190.142146 135.935626 190.896832 136.491982 191.453187 
C 137.048337 192.009543 137.803023 192.322144 138.589829 192.322144 
z
" clip-path="url(#pab2bb15cca)" style="fill: #ff0000; stroke: #ff0000; stroke-width: 2; stroke-linejoin: miter"/>
   </g>
   <g id="PathCollection_1">
    <defs>
     <path id="m746e1d2f7f" d="M 9.741864 2.698877 
L 4.04576 0.174821 
L 3.614614 1.147799 
L 1.861293 0.370868 
L 3.66848 -3.707487 
L -0.234354 -5.436923 
L 0.441042 -6.961107 
L 2.811644 -5.910634 
L 4.097075 -8.811501 
L -1.599035 -11.335572 
L -2.884471 -8.434695 
L -0.513875 -7.384237 
L -1.189271 -5.860052 
L -5.09211 -7.589477 
L -9.129884 1.522675 
L -5.22705 3.252111 
L -5.898809 4.768088 
L -8.269405 3.71763 
L -9.555081 6.619048 
L -3.858977 9.143104 
L -2.573291 6.241691 
L -4.943897 5.191228 
L -4.272133 3.67524 
L -0.369294 5.404665 
L 1.437903 1.326315 
L 3.191245 2.103255 
L 2.760089 3.076228 
L 8.456203 5.600289 
L 9.741864 2.698877 
z
" style="stroke: #0000ff"/>
    </defs>
    <g clip-path="url(#pab2bb15cca)">
     <use xlink:href="#m746e1d2f7f" x="194.467988" y="173.898873" style="fill: #0000ff; stroke: #0000ff"/>
    </g>
   </g>
   <g id="matplotlib.axis_1">
    <g id="xtick_1">
     <g id="line2d_1">
      <defs>
       <path id="med1791b43c" d="M 0 0 
L 0 3.5 
" style="stroke: #000000; stroke-width: 0.8"/>
      </defs>
      <g>
       <use xlink:href="#med1791b43c" x="79.253749" y="322.86152" style="stroke: #000000; stroke-width: 0.8"/>
      </g>
     </g>
     <g id="text_1">
      <!-- −4 -->
      <g transform="translate(71.882655 337.459958) scale(0.1 -0.1)">
       <defs>
        <path id="DejaVuSans-2212" d="M 678 2272 
L 4684 2272 
L 4684 1741 
L 678 1741 
L 678 2272 
z
" transform="scale(0.015625)"/>
        <path id="DejaVuSans-34" d="M 2419 4116 
L 825 1625 
L 2419 1625 
L 2419 4116 
z
M 2253 4666 
L 3047 4666 
L 3047 1625 
L 3713 1625 
L 3713 1100 
L 3047 1100 
L 3047 0 
L 2419 0 
L 2419 1100 
L 313 1100 
L 313 1709 
L 2253 4666 
z
" transform="scale(0.015625)"/>
       </defs>
       <use xlink:href="#DejaVuSans-2212"/>
       <use xlink:href="#DejaVuSans-34" x="83.789062"/>
      </g>
     </g>
    </g>
    <g id="xtick_2">
     <g id="line2d_2">
      <g>
       <use xlink:href="#med1791b43c" x="138.589829" y="322.86152" style="stroke: #000000; stroke-width: 0.8"/>
      </g>
     </g>
     <g id="text_2">
      <!-- −2 -->
      <g transform="translate(131.218735 337.459958) scale(0.1 -0.1)">
       <defs>
        <path id="DejaVuSans-32" d="M 1228 531 
L 3431 531 
L 3431 0 
L 469 0 
L 469 531 
Q 828 903 1448 1529 
Q 2069 2156 2228 2338 
Q 2531 2678 2651 2914 
Q 2772 3150 2772 3378 
Q 2772 3750 2511 3984 
Q 2250 4219 1831 4219 
Q 1534 4219 1204 4116 
Q 875 4013 500 3803 
L 500 4441 
Q 881 4594 1212 4672 
Q 1544 4750 1819 4750 
Q 2544 4750 2975 4387 
Q 3406 4025 3406 3419 
Q 3406 3131 3298 2873 
Q 3191 2616 2906 2266 
Q 2828 2175 2409 1742 
Q 1991 1309 1228 531 
z
" transform="scale(0.015625)"/>
       </defs>
       <use xlink:href="#DejaVuSans-2212"/>
       <use xlink:href="#DejaVuSans-32" x="83.789062"/>
      </g>
     </g>
    </g>
    <g id="xtick_3">
     <g id="line2d_3">
      <g>
       <use xlink:href="#med1791b43c" x="197.925909" y="322.86152" style="stroke: #000000; stroke-width: 0.8"/>
      </g>
     </g>
     <g id="text_3">
      <!-- 0 -->
      <g transform="translate(194.744659 337.459958) scale(0.1 -0.1)">
       <defs>
        <path id="DejaVuSans-30" d="M 2034 4250 
Q 1547 4250 1301 3770 
Q 1056 3291 1056 2328 
Q 1056 1369 1301 889 
Q 1547 409 2034 409 
Q 2525 409 2770 889 
Q 3016 1369 3016 2328 
Q 3016 3291 2770 3770 
Q 2525 4250 2034 4250 
z
M 2034 4750 
Q 2819 4750 3233 4129 
Q 3647 3509 3647 2328 
Q 3647 1150 3233 529 
Q 2819 -91 2034 -91 
Q 1250 -91 836 529 
Q 422 1150 422 2328 
Q 422 3509 836 4129 
Q 1250 4750 2034 4750 
z
" transform="scale(0.015625)"/>
       </defs>
       <use xlink:href="#DejaVuSans-30"/>
      </g>
     </g>
    </g>
    <g id="xtick_4">
     <g id="line2d_4">
      <g>
       <use xlink:href="#med1791b43c" x="257.261989" y="322.86152" style="stroke: #000000; stroke-width: 0.8"/>
      </g>
     </g>
     <g id="text_4">
      <!-- 2 -->
      <g transform="translate(254.080739 337.459958) scale(0.1 -0.1)">
       <use xlink:href="#DejaVuSans-32"/>
      </g>
     </g>
    </g>
    <g id="xtick_5">
     <g id="line2d_5">
      <g>
       <use xlink:href="#med1791b43c" x="316.598069" y="322.86152" style="stroke: #000000; stroke-width: 0.8"/>
      </g>
     </g>
     <g id="text_5">
      <!-- 4 -->
      <g transform="translate(313.416819 337.459958) scale(0.1 -0.1)">
       <use xlink:href="#DejaVuSans-34"/>
      </g>
     </g>
    </g>
    <g id="text_6">
     <!-- x [m] -->
     <g transform="translate(184.605597 351.138083) scale(0.1 -0.1)">
      <defs>
       <path id="DejaVuSans-78" d="M 3513 3500 
L 2247 1797 
L 3578 0 
L 2900 0 
L 1881 1375 
L 863 0 
L 184 0 
L 1544 1831 
L 300 3500 
L 978 3500 
L 1906 2253 
L 2834 3500 
L 3513 3500 
z
" transform="scale(0.015625)"/>
       <path id="DejaVuSans-20" transform="scale(0.015625)"/>
       <path id="DejaVuSans-5b" d="M 550 4863 
L 1875 4863 
L 1875 4416 
L 1125 4416 
L 1125 -397 
L 1875 -397 
L 1875 -844 
L 550 -844 
L 550 4863 
z
" transform="scale(0.015625)"/>
       <path id="DejaVuSans-6d" d="M 3328 2828 
Q 3544 3216 3844 3400 
Q 4144 3584 4550 3584 
Q 5097 3584 5394 3201 
Q 5691 2819 5691 2113 
L 5691 0 
L 5113 0 
L 5113 2094 
Q 5113 2597 4934 2840 
Q 4756 3084 4391 3084 
Q 3944 3084 3684 2787 
Q 3425 2491 3425 1978 
L 3425 0 
L 2847 0 
L 2847 2094 
Q 2847 2600 2669 2842 
Q 2491 3084 2119 3084 
Q 1678 3084 1418 2786 
Q 1159 2488 1159 1978 
L 1159 0 
L 581 0 
L 581 3500 
L 1159 3500 
L 1159 2956 
Q 1356 3278 1631 3431 
Q 1906 3584 2284 3584 
Q 2666 3584 2933 3390 
Q 3200 3197 3328 2828 
z
" transform="scale(0.015625)"/>
       <path id="DejaVuSans-5d" d="M 1947 4863 
L 1947 -844 
L 622 -844 
L 622 -397 
L 1369 -397 
L 1369 4416 
L 622 4416 
L 622 4863 
L 1947 4863 
z
" transform="scale(0.015625)"/>
      </defs>
      <use xlink:href="#DejaVuSans-78"/>
      <use xlink:href="#DejaVuSans-20" x="59.179688"/>
      <use xlink:href="#DejaVuSans-5b" x="90.966797"/>
      <use xlink:href="#DejaVuSans-6d" x="129.980469"/>
      <use xlink:href="#DejaVuSans-5d" x="227.392578"/>
     </g>
    </g>
   </g>
   <g id="matplotlib.axis_2">
    <g id="ytick_1">
     <g id="line2d_6">
      <defs>
       <path id="maf386682fd" d="M 0 0 
L -3.5 0 
" style="stroke: #000000; stroke-width: 0.8"/>
      </defs>
      <g>
       <use xlink:href="#maf386682fd" x="49.585709" y="293.19348" style="stroke: #000000; stroke-width: 0.8"/>
      </g>
     </g>
     <g id="text_7">
      <!-- −4 -->
      <g transform="translate(27.843522 296.992699) scale(0.1 -0.1)">
       <use xlink:href="#DejaVuSans-2212"/>
       <use xlink:href="#DejaVuSans-34" x="83.789062"/>
      </g>
     </g>
    </g>
    <g id="ytick_2">
     <g id="line2d_7">
      <g>
       <use xlink:href="#maf386682fd" x="49.585709" y="233.8574" style="stroke: #000000; stroke-width: 0.8"/>
      </g>
     </g>
     <g id="text_8">
      <!-- −2 -->
      <g transform="translate(27.843522 237.656619) scale(0.1 -0.1)">
       <use xlink:href="#DejaVuSans-2212"/>
       <use xlink:href="#DejaVuSans-32" x="83.789062"/>
      </g>
     </g>
    </g>
    <g id="ytick_3">
     <g id="line2d_8">
      <g>
       <use xlink:href="#maf386682fd" x="49.585709" y="174.52132" style="stroke: #000000; stroke-width: 0.8"/>
      </g>
     </g>
     <g id="text_9">
      <!-- 0 -->
      <g transform="translate(36.223209 178.320539) scale(0.1 -0.1)">
       <use xlink:href="#DejaVuSans-30"/>
      </g>
     </g>
    </g>
    <g id="ytick_4">
     <g id="line2d_9">
      <g>
       <use xlink:href="#maf386682fd" x="49.585709" y="115.18524" style="stroke: #000000; stroke-width: 0.8"/>
      </g>
     </g>
     <g id="text_10">
      <!-- 2 -->
      <g transform="translate(36.223209 118.984459) scale(0.1 -0.1)">
       <use xlink:href="#DejaVuSans-32"/>
      </g>
     </g>
    </g>
    <g id="ytick_5">
     <g id="line2d_10">
      <g>
       <use xlink:href="#maf386682fd" x="49.585709" y="55.84916" style="stroke: #000000; stroke-width: 0.8"/>
      </g>
     </g>
     <g id="text_11">
      <!-- 4 -->
      <g transform="translate(36.223209 59.648379) scale(0.1 -0.1)">
       <use xlink:href="#DejaVuSans-34"/>
      </g>
     </g>
    </g>
    <g id="text_12">
     <!-- y [m] -->
     <g transform="translate(21.763834 187.841633) rotate(-90) scale(0.1 -0.1)">
      <defs>
       <path id="DejaVuSans-79" d="M 2059 -325 
Q 1816 -950 1584 -1140 
Q 1353 -1331 966 -1331 
L 506 -1331 
L 506 -850 
L 844 -850 
Q 1081 -850 1212 -737 
Q 1344 -625 1503 -206 
L 1606 56 
L 191 3500 
L 800 3500 
L 1894 763 
L 2988 3500 
L 3597 3500 
L 2059 -325 
z
" transform="scale(0.015625)"/>
      </defs>
      <use xlink:href="#DejaVuSans-79"/>
      <use xlink:href="#DejaVuSans-20" x="59.179688"/>
      <use xlink:href="#DejaVuSans-5b" x="90.966797"/>
      <use xlink:href="#DejaVuSans-6d" x="129.980469"/>
      <use xlink:href="#DejaVuSans-5d" x="227.392578"/>
     </g>
    </g>
   </g>
   <g id="line2d_11">
    <path d="M 49.585709 174.52132 
L 346.266109 174.52132 
" clip-path="url(#pab2bb15cca)" style="fill: none; stroke-dasharray: 2.775,1.2; stroke-dashoffset: 0; stroke: #000000; stroke-width: 0.75"/>
   </g>
   <g id="line2d_12">
    <path d="M 197.925909 322.86152 
L 197.925909 26.18112 
" clip-path="url(#pab2bb15cca)" style="fill: none; stroke-dasharray: 2.775,1.2; stroke-dashoffset: 0; stroke: #000000; stroke-width: 0.75"/>
   </g>
   <g id="line2d_13">
    <path d="M 108.921789 263.52544 
L 108.921789 263.52544 
L 108.921784 263.531372 
L 108.921658 263.587014 
L 108.918206 263.913342 
L 108.910122 264.239587 
L 109.09046 261.305027 
L 109.482261 258.065671 
L 110.073672 254.856752 
L 110.785252 251.664749 
L 111.497383 248.47991 
L 112.212086 245.295647 
L 112.887555 242.100986 
L 113.46137 238.888483 
L 114.023878 235.665366 
L 114.702305 232.473362 
L 115.424445 229.284709 
L 116.079545 226.087711 
L 116.64153 222.872385 
L 117.069461 219.637315 
L 117.379769 216.388427 
L 117.596607 213.132266 
L 117.733698 209.871508 
L 117.811015 206.608986 
L 117.779807 203.343588 
L 117.569603 200.087291 
L 117.166558 196.849159 
L 116.551358 193.644785 
L 115.967811 190.358021 
L 115.874737 187.098607 
L 116.199802 184.222644 
L 116.921866 181.457786 
L 117.407068 180.272963 
L 117.983597 179.30997 
L 119.375179 177.606401 
L 121.067735 176.037997 
L 123.667194 174.214238 
L 126.542515 172.674868 
L 126.487542 172.686938 
L 126.124652 172.82045 
L 124.588218 173.232654 
L 122.899438 173.443857 
L 121.852129 173.53096 
L 120.938063 173.755162 
L 121.786196 173.517265 
L 122.794014 173.391224 
L 123.809525 173.409082 
L 124.245461 173.475102 
L 124.611512 173.58897 
L 124.957764 173.753497 
L 124.518297 173.454236 
L 124.052874 173.039743 
L 123.650797 172.563553 
L 123.468653 172.304215 
L 123.308985 172.070245 
L 123.152391 171.834205 
L 123.293338 172.055167 
L 123.458805 172.325282 
L 123.618792 172.598679 
L 123.732857 172.827845 
L 123.810166 173.063114 
L 123.8534 173.306956 
L 123.851145 173.154543 
L 123.871988 172.963226 
L 123.919697 172.776784 
L 124.012747 172.552957 
L 124.138778 172.340067 
L 124.29367 172.147157 
L 124.01972 172.397505 
L 123.664886 172.645652 
L 123.278505 172.841084 
L 126.050396 171.905027 
L 129.241656 171.232535 
L 132.491962 170.964402 
L 131.384124 171.040768 
L 129.930115 171.348015 
L 128.534224 171.857945 
L 126.420983 172.998623 
L 124.412778 174.475937 
L 122.63386 176.22259 
L 124.617328 174.139791 
L 127.193026 172.140234 
L 130.025783 170.525324 
L 133.058576 169.32757 
L 136.230353 168.571081 
L 139.477267 168.271087 
L 142.733957 168.433627 
L 145.934864 169.055427 
L 149.015556 170.123973 
L 152.02506 171.472862 
L 155.000149 172.814191 
L 157.969736 174.167656 
L 161.04173 175.372148 
L 164.216604 176.115534 
L 167.464729 176.402119 
L 170.72072 176.226134 
L 173.919033 175.591122 
L 176.995286 174.509865 
L 180.156739 173.256857 
L 183.337545 172.539277 
L 186.58789 172.279078 
L 189.317897 172.445128 
L 191.944637 172.988865 
L 194.467988 173.898873 
" clip-path="url(#pab2bb15cca)" style="fill: none; stroke-dasharray: 1.85,0.8; stroke-dashoffset: 0; stroke: #0000ff; stroke-width: 0.5"/>
   </g>
   <g id="patch_8">
    <path d="M 49.585709 322.86152 
L 49.585709 26.18112 
" style="fill: none; stroke: #000000; stroke-width: 0.8; stroke-linejoin: miter; stroke-linecap: square"/>
   </g>
   <g id="patch_9">
    <path d="M 346.266109 322.86152 
L 346.266109 26.18112 
" style="fill: none; stroke: #000000; stroke-width: 0.8; stroke-linejoin: miter; stroke-linecap: square"/>
   </g>
   <g id="patch_10">
    <path d="M 49.585709 322.86152 
L 346.266109 322.86152 
" style="fill: none; stroke: #000000; stroke-width: 0.8; stroke-linejoin: miter; stroke-linecap: square"/>
   </g>
   <g id="patch_11">
    <path d="M 49.585709 26.18112 
L 346.266109 26.18112 
" style="fill: none; stroke: #000000; stroke-width: 0.8; stroke-linejoin: miter; stroke-linecap: square"/>
   </g>
   <g id="text_13">
    <!-- Target -->
    <g transform="translate(310.664461 58.608535) scale(0.1 -0.1)">
     <defs>
      <path id="DejaVuSans-54" d="M -19 4666 
L 3928 4666 
L 3928 4134 
L 2272 4134 
L 2272 0 
L 1638 0 
L 1638 4134 
L -19 4134 
L -19 4666 
z
" transform="scale(0.015625)"/>
      <path id="DejaVuSans-61" d="M 2194 1759 
Q 1497 1759 1228 1600 
Q 959 1441 959 1056 
Q 959 750 1161 570 
Q 1363 391 1709 391 
Q 2188 391 2477 730 
Q 2766 1069 2766 1631 
L 2766 1759 
L 2194 1759 
z
M 3341 1997 
L 3341 0 
L 2766 0 
L 2766 531 
Q 2569 213 2275 61 
Q 1981 -91 1556 -91 
Q 1019 -91 701 211 
Q 384 513 384 1019 
Q 384 1609 779 1909 
Q 1175 2209 1959 2209 
L 2766 2209 
L 2766 2266 
Q 2766 2663 2505 2880 
Q 2244 3097 1772 3097 
Q 1472 3097 1187 3025 
Q 903 2953 641 2809 
L 641 3341 
Q 956 3463 1253 3523 
Q 1550 3584 1831 3584 
Q 2591 3584 2966 3190 
Q 3341 2797 3341 1997 
z
" transform="scale(0.015625)"/>
      <path id="DejaVuSans-72" d="M 2631 2963 
Q 2534 3019 2420 3045 
Q 2306 3072 2169 3072 
Q 1681 3072 1420 2755 
Q 1159 2438 1159 1844 
L 1159 0 
L 581 0 
L 581 3500 
L 1159 3500 
L 1159 2956 
Q 1341 3275 1631 3429 
Q 1922 3584 2338 3584 
Q 2397 3584 2469 3576 
Q 2541 3569 2628 3553 
L 2631 2963 
z
" transform="scale(0.015625)"/>
      <path id="DejaVuSans-67" d="M 2906 1791 
Q 2906 2416 2648 2759 
Q 2391 3103 1925 3103 
Q 1463 3103 1205 2759 
Q 947 2416 947 1791 
Q 947 1169 1205 825 
Q 1463 481 1925 481 
Q 2391 481 2648 825 
Q 2906 1169 2906 1791 
z
M 3481 434 
Q 3481 -459 3084 -895 
Q 2688 -1331 1869 -1331 
Q 1566 -1331 1297 -1286 
Q 1028 -1241 775 -1147 
L 775 -588 
Q 1028 -725 1275 -790 
Q 1522 -856 1778 -856 
Q 2344 -856 2625 -561 
Q 2906 -266 2906 331 
L 2906 616 
Q 2728 306 2450 153 
Q 2172 0 1784 0 
Q 1141 0 747 490 
Q 353 981 353 1791 
Q 353 2603 747 3093 
Q 1141 3584 1784 3584 
Q 2172 3584 2450 3431 
Q 2728 3278 2906 2969 
L 2906 3500 
L 3481 3500 
L 3481 434 
z
" transform="scale(0.015625)"/>
      <path id="DejaVuSans-65" d="M 3597 1894 
L 3597 1613 
L 953 1613 
Q 991 1019 1311 708 
Q 1631 397 2203 397 
Q 2534 397 2845 478 
Q 3156 559 3463 722 
L 3463 178 
Q 3153 47 2828 -22 
Q 2503 -91 2169 -91 
Q 1331 -91 842 396 
Q 353 884 353 1716 
Q 353 2575 817 3079 
Q 1281 3584 2069 3584 
Q 2775 3584 3186 3129 
Q 3597 2675 3597 1894 
z
M 3022 2063 
Q 3016 2534 2758 2815 
Q 2500 3097 2075 3097 
Q 1594 3097 1305 2825 
Q 1016 2553 972 2059 
L 3022 2063 
z
" transform="scale(0.015625)"/>
      <path id="DejaVuSans-74" d="M 1172 4494 
L 1172 3500 
L 2356 3500 
L 2356 3053 
L 1172 3053 
L 1172 1153 
Q 1172 725 1289 603 
Q 1406 481 1766 481 
L 2356 481 
L 2356 0 
L 1766 0 
Q 1100 0 847 248 
Q 594 497 594 1153 
L 594 3053 
L 172 3053 
L 172 3500 
L 594 3500 
L 594 4494 
L 1172 4494 
z
" transform="scale(0.015625)"/>
     </defs>
     <use xlink:href="#DejaVuSans-54"/>
     <use xlink:href="#DejaVuSans-61" x="44.583984"/>
     <use xlink:href="#DejaVuSans-72" x="105.863281"/>
     <use xlink:href="#DejaVuSans-67" x="145.226562"/>
     <use xlink:href="#DejaVuSans-65" x="208.703125"/>
     <use xlink:href="#DejaVuSans-74" x="270.226562"/>
    </g>
   </g>
   <g id="text_14">
    <!-- t = 5.010 -->
    <g transform="translate(64.419729 43.774515) scale(0.1 -0.1)">
     <defs>
      <path id="DejaVuSans-3d" d="M 678 2906 
L 4684 2906 
L 4684 2381 
L 678 2381 
L 678 2906 
z
M 678 1631 
L 4684 1631 
L 4684 1100 
L 678 1100 
L 678 1631 
z
" transform="scale(0.015625)"/>
      <path id="DejaVuSans-35" d="M 691 4666 
L 3169 4666 
L 3169 4134 
L 1269 4134 
L 1269 2991 
Q 1406 3038 1543 3061 
Q 1681 3084 1819 3084 
Q 2600 3084 3056 2656 
Q 3513 2228 3513 1497 
Q 3513 744 3044 326 
Q 2575 -91 1722 -91 
Q 1428 -91 1123 -41 
Q 819 9 494 109 
L 494 744 
Q 775 591 1075 516 
Q 1375 441 1709 441 
Q 2250 441 2565 725 
Q 2881 1009 2881 1497 
Q 2881 1984 2565 2268 
Q 2250 2553 1709 2553 
Q 1456 2553 1204 2497 
Q 953 2441 691 2322 
L 691 4666 
z
" transform="scale(0.015625)"/>
      <path id="DejaVuSans-2e" d="M 684 794 
L 1344 794 
L 1344 0 
L 684 0 
L 684 794 
z
" transform="scale(0.015625)"/>
      <path id="DejaVuSans-31" d="M 794 531 
L 1825 531 
L 1825 4091 
L 703 3866 
L 703 4441 
L 1819 4666 
L 2450 4666 
L 2450 531 
L 3481 531 
L 3481 0 
L 794 0 
L 794 531 
z
" transform="scale(0.015625)"/>
     </defs>
     <use xlink:href="#DejaVuSans-74"/>
     <use xlink:href="#DejaVuSans-20" x="39.208984"/>
     <use xlink:href="#DejaVuSans-3d" x="70.996094"/>
     <use xlink:href="#DejaVuSans-20" x="154.785156"/>
     <use xlink:href="#DejaVuSans-35" x="186.572266"/>
     <use xlink:href="#DejaVuSans-2e" x="250.195312"/>
     <use xlink:href="#DejaVuSans-30" x="281.982422"/>
     <use xlink:href="#DejaVuSans-31" x="345.605469"/>
     <use xlink:href="#DejaVuSans-30" x="409.228516"/>
    </g>
   </g>
   <g id="text_15">
    <!-- Pause - space, q - quit, click - data cursor -->
    <g transform="translate(74.016534 20.18112) scale(0.12 -0.12)">
     <defs>
      <path id="DejaVuSans-50" d="M 1259 4147 
L 1259 2394 
L 2053 2394 
Q 2494 2394 2734 2622 
Q 2975 2850 2975 3272 
Q 2975 3691 2734 3919 
Q 2494 4147 2053 4147 
L 1259 4147 
z
M 628 4666 
L 2053 4666 
Q 2838 4666 3239 4311 
Q 3641 3956 3641 3272 
Q 3641 2581 3239 2228 
Q 2838 1875 2053 1875 
L 1259 1875 
L 1259 0 
L 628 0 
L 628 4666 
z
" transform="scale(0.015625)"/>
      <path id="DejaVuSans-75" d="M 544 1381 
L 544 3500 
L 1119 3500 
L 1119 1403 
Q 1119 906 1312 657 
Q 1506 409 1894 409 
Q 2359 409 2629 706 
Q 2900 1003 2900 1516 
L 2900 3500 
L 3475 3500 
L 3475 0 
L 2900 0 
L 2900 538 
Q 2691 219 2414 64 
Q 2138 -91 1772 -91 
Q 1169 -91 856 284 
Q 544 659 544 1381 
z
M 1991 3584 
L 1991 3584 
z
" transform="scale(0.015625)"/>
      <path id="DejaVuSans-73" d="M 2834 3397 
L 2834 2853 
Q 2591 2978 2328 3040 
Q 2066 3103 1784 3103 
Q 1356 3103 1142 2972 
Q 928 2841 928 2578 
Q 928 2378 1081 2264 
Q 1234 2150 1697 2047 
L 1894 2003 
Q 2506 1872 2764 1633 
Q 3022 1394 3022 966 
Q 3022 478 2636 193 
Q 2250 -91 1575 -91 
Q 1294 -91 989 -36 
Q 684 19 347 128 
L 347 722 
Q 666 556 975 473 
Q 1284 391 1588 391 
Q 1994 391 2212 530 
Q 2431 669 2431 922 
Q 2431 1156 2273 1281 
Q 2116 1406 1581 1522 
L 1381 1569 
Q 847 1681 609 1914 
Q 372 2147 372 2553 
Q 372 3047 722 3315 
Q 1072 3584 1716 3584 
Q 2034 3584 2315 3537 
Q 2597 3491 2834 3397 
z
" transform="scale(0.015625)"/>
      <path id="DejaVuSans-2d" d="M 313 2009 
L 1997 2009 
L 1997 1497 
L 313 1497 
L 313 2009 
z
" transform="scale(0.015625)"/>
      <path id="DejaVuSans-70" d="M 1159 525 
L 1159 -1331 
L 581 -1331 
L 581 3500 
L 1159 3500 
L 1159 2969 
Q 1341 3281 1617 3432 
Q 1894 3584 2278 3584 
Q 2916 3584 3314 3078 
Q 3713 2572 3713 1747 
Q 3713 922 3314 415 
Q 2916 -91 2278 -91 
Q 1894 -91 1617 61 
Q 1341 213 1159 525 
z
M 3116 1747 
Q 3116 2381 2855 2742 
Q 2594 3103 2138 3103 
Q 1681 3103 1420 2742 
Q 1159 2381 1159 1747 
Q 1159 1113 1420 752 
Q 1681 391 2138 391 
Q 2594 391 2855 752 
Q 3116 1113 3116 1747 
z
" transform="scale(0.015625)"/>
      <path id="DejaVuSans-63" d="M 3122 3366 
L 3122 2828 
Q 2878 2963 2633 3030 
Q 2388 3097 2138 3097 
Q 1578 3097 1268 2742 
Q 959 2388 959 1747 
Q 959 1106 1268 751 
Q 1578 397 2138 397 
Q 2388 397 2633 464 
Q 2878 531 3122 666 
L 3122 134 
Q 2881 22 2623 -34 
Q 2366 -91 2075 -91 
Q 1284 -91 818 406 
Q 353 903 353 1747 
Q 353 2603 823 3093 
Q 1294 3584 2113 3584 
Q 2378 3584 2631 3529 
Q 2884 3475 3122 3366 
z
" transform="scale(0.015625)"/>
      <path id="DejaVuSans-2c" d="M 750 794 
L 1409 794 
L 1409 256 
L 897 -744 
L 494 -744 
L 750 256 
L 750 794 
z
" transform="scale(0.015625)"/>
      <path id="DejaVuSans-71" d="M 947 1747 
Q 947 1113 1208 752 
Q 1469 391 1925 391 
Q 2381 391 2643 752 
Q 2906 1113 2906 1747 
Q 2906 2381 2643 2742 
Q 2381 3103 1925 3103 
Q 1469 3103 1208 2742 
Q 947 2381 947 1747 
z
M 2906 525 
Q 2725 213 2448 61 
Q 2172 -91 1784 -91 
Q 1150 -91 751 415 
Q 353 922 353 1747 
Q 353 2572 751 3078 
Q 1150 3584 1784 3584 
Q 2172 3584 2448 3432 
Q 2725 3281 2906 2969 
L 2906 3500 
L 3481 3500 
L 3481 -1331 
L 2906 -1331 
L 2906 525 
z
" transform="scale(0.015625)"/>
      <path id="DejaVuSans-69" d="M 603 3500 
L 1178 3500 
L 1178 0 
L 603 0 
L 603 3500 
z
M 603 4863 
L 1178 4863 
L 1178 4134 
L 603 4134 
L 603 4863 
z
" transform="scale(0.015625)"/>
      <path id="DejaVuSans-6c" d="M 603 4863 
L 1178 4863 
L 1178 0 
L 603 0 
L 603 4863 
z
" transform="scale(0.015625)"/>
      <path id="DejaVuSans-6b" d="M 581 4863 
L 1159 4863 
L 1159 1991 
L 2875 3500 
L 3609 3500 
L 1753 1863 
L 3688 0 
L 2938 0 
L 1159 1709 
L 1159 0 
L 581 0 
L 581 4863 
z
" transform="scale(0.015625)"/>
      <path id="DejaVuSans-64" d="M 2906 2969 
L 2906 4863 
L 3481 4863 
L 3481 0 
L 2906 0 
L 2906 525 
Q 2725 213 2448 61 
Q 2172 -91 1784 -91 
Q 1150 -91 751 415 
Q 353 922 353 1747 
Q 353 2572 751 3078 
Q 1150 3584 1784 3584 
Q 2172 3584 2448 3432 
Q 2725 3281 2906 2969 
z
M 947 1747 
Q 947 1113 1208 752 
Q 1469 391 1925 391 
Q 2381 391 2643 752 
Q 2906 1113 2906 1747 
Q 2906 2381 2643 2742 
Q 2381 3103 1925 3103 
Q 1469 3103 1208 2742 
Q 947 2381 947 1747 
z
" transform="scale(0.015625)"/>
      <path id="DejaVuSans-6f" d="M 1959 3097 
Q 1497 3097 1228 2736 
Q 959 2375 959 1747 
Q 959 1119 1226 758 
Q 1494 397 1959 397 
Q 2419 397 2687 759 
Q 2956 1122 2956 1747 
Q 2956 2369 2687 2733 
Q 2419 3097 1959 3097 
z
M 1959 3584 
Q 2709 3584 3137 3096 
Q 3566 2609 3566 1747 
Q 3566 888 3137 398 
Q 2709 -91 1959 -91 
Q 1206 -91 779 398 
Q 353 888 353 1747 
Q 353 2609 779 3096 
Q 1206 3584 1959 3584 
z
" transform="scale(0.015625)"/>
     </defs>
     <use xlink:href="#DejaVuSans-50"/>
     <use xlink:href="#DejaVuSans-61" x="55.802734"/>
     <use xlink:href="#DejaVuSans-75" x="117.082031"/>
     <use xlink:href="#DejaVuSans-73" x="180.460938"/>
     <use xlink:href="#DejaVuSans-65" x="232.560547"/>
     <use xlink:href="#DejaVuSans-20" x="294.083984"/>
     <use xlink:href="#DejaVuSans-2d" x="325.871094"/>
     <use xlink:href="#DejaVuSans-20" x="361.955078"/>
     <use xlink:href="#DejaVuSans-73" x="393.742188"/>
     <use xlink:href="#DejaVuSans-70" x="445.841797"/>
     <use xlink:href="#DejaVuSans-61" x="509.318359"/>
     <use xlink:href="#DejaVuSans-63" x="570.597656"/>
     <use xlink:href="#DejaVuSans-65" x="625.578125"/>
     <use xlink:href="#DejaVuSans-2c" x="687.101562"/>
     <use xlink:href="#DejaVuSans-20" x="718.888672"/>
     <use xlink:href="#DejaVuSans-71" x="750.675781"/>
     <use xlink:href="#DejaVuSans-20" x="814.152344"/>
     <use xlink:href="#DejaVuSans-2d" x="845.939453"/>
     <use xlink:href="#DejaVuSans-20" x="882.023438"/>
     <use xlink:href="#DejaVuSans-71" x="913.810547"/>
     <use xlink:href="#DejaVuSans-75" x="977.287109"/>
     <use xlink:href="#DejaVuSans-69" x="1040.666016"/>
     <use xlink:href="#DejaVuSans-74" x="1068.449219"/>
     <use xlink:href="#DejaVuSans-2c" x="1107.658203"/>
     <use xlink:href="#DejaVuSans-20" x="1139.445312"/>
     <use xlink:href="#DejaVuSans-63" x="1171.232422"/>
     <use xlink:href="#DejaVuSans-6c" x="1226.212891"/>
     <use xlink:href="#DejaVuSans-69" x="1253.996094"/>
     <use xlink:href="#DejaVuSans-63" x="1281.779297"/>
     <use xlink:href="#DejaVuSans-6b" x="1336.759766"/>
     <use xlink:href="#DejaVuSans-20" x="1394.669922"/>
     <use xlink:href="#DejaVuSans-2d" x="1426.457031"/>
     <use xlink:href="#DejaVuSans-20" x="1462.541016"/>
     <use xlink:href="#DejaVuSans-64" x="1494.328125"/>
     <use xlink:href="#DejaVuSans-61" x="1557.804688"/>
     <use xlink:href="#DejaVuSans-74" x="1619.083984"/>
     <use xlink:href="#DejaVuSans-61" x="1658.292969"/>
     <use xlink:href="#DejaVuSans-20" x="1719.572266"/>
     <use xlink:href="#DejaVuSans-63" x="1751.359375"/>
     <use xlink:href="#DejaVuSans-75" x="1806.339844"/>
     <use xlink:href="#DejaVuSans-72" x="1869.71875"/>
     <use xlink:href="#DejaVuSans-73" x="1910.832031"/>
     <use xlink:href="#DejaVuSans-6f" x="1962.931641"/>
     <use xlink:href="#DejaVuSans-72" x="2024.113281"/>
    </g>
   </g>
  </g>
  <g id="axes_2">
   <g id="patch_12">
    <path d="M 398.511818 322.86152 
L 702.9 322.86152 
L 702.9 26.18112 
L 398.511818 26.18112 
z
" style="fill: #ffffff"/>
   </g>
   <g id="matplotlib.axis_3">
    <g id="xtick_6">
     <g id="line2d_14">
      <g>
       <use xlink:href="#med1791b43c" x="398.511818" y="322.86152" style="stroke: #000000; stroke-width: 0.8"/>
      </g>
     </g>
     <g id="text_16">
      <!-- 0 -->
      <g transform="translate(395.330568 337.459958) scale(0.1 -0.1)">
       <use xlink:href="#DejaVuSans-30"/>
      </g>
     </g>
    </g>
    <g id="xtick_7">
     <g id="line2d_15">
      <g>
       <use xlink:href="#med1791b43c" x="449.243182" y="322.86152" style="stroke: #000000; stroke-width: 0.8"/>
      </g>
     </g>
     <g id="text_17">
      <!-- 5 -->
      <g transform="translate(446.061932 337.459958) scale(0.1 -0.1)">
       <use xlink:href="#DejaVuSans-35"/>
      </g>
     </g>
    </g>
    <g id="xtick_8">
     <g id="line2d_16">
      <g>
       <use xlink:href="#med1791b43c" x="499.974545" y="322.86152" style="stroke: #000000; stroke-width: 0.8"/>
      </g>
     </g>
     <g id="text_18">
      <!-- 10 -->
      <g transform="translate(493.612045 337.459958) scale(0.1 -0.1)">
       <use xlink:href="#DejaVuSans-31"/>
       <use xlink:href="#DejaVuSans-30" x="63.623047"/>
      </g>
     </g>
    </g>
    <g id="xtick_9">
     <g id="line2d_17">
      <g>
       <use xlink:href="#med1791b43c" x="550.705909" y="322.86152" style="stroke: #000000; stroke-width: 0.8"/>
      </g>
     </g>
     <g id="text_19">
      <!-- 15 -->
      <g transform="translate(544.343409 337.459958) scale(0.1 -0.1)">
       <use xlink:href="#DejaVuSans-31"/>
       <use xlink:href="#DejaVuSans-35" x="63.623047"/>
      </g>
     </g>
    </g>
    <g id="xtick_10">
     <g id="line2d_18">
      <g>
       <use xlink:href="#med1791b43c" x="601.437273" y="322.86152" style="stroke: #000000; stroke-width: 0.8"/>
      </g>
     </g>
     <g id="text_20">
      <!-- 20 -->
      <g transform="translate(595.074773 337.459958) scale(0.1 -0.1)">
       <use xlink:href="#DejaVuSans-32"/>
       <use xlink:href="#DejaVuSans-30" x="63.623047"/>
      </g>
     </g>
    </g>
    <g id="xtick_11">
     <g id="line2d_19">
      <g>
       <use xlink:href="#med1791b43c" x="652.168636" y="322.86152" style="stroke: #000000; stroke-width: 0.8"/>
      </g>
     </g>
     <g id="text_21">
      <!-- 25 -->
      <g transform="translate(645.806136 337.459958) scale(0.1 -0.1)">
       <use xlink:href="#DejaVuSans-32"/>
       <use xlink:href="#DejaVuSans-35" x="63.623047"/>
      </g>
     </g>
    </g>
    <g id="xtick_12">
     <g id="line2d_20">
      <g>
       <use xlink:href="#med1791b43c" x="702.9" y="322.86152" style="stroke: #000000; stroke-width: 0.8"/>
      </g>
     </g>
     <g id="text_22">
      <!-- 30 -->
      <g transform="translate(696.5375 337.459958) scale(0.1 -0.1)">
       <defs>
        <path id="DejaVuSans-33" d="M 2597 2516 
Q 3050 2419 3304 2112 
Q 3559 1806 3559 1356 
Q 3559 666 3084 287 
Q 2609 -91 1734 -91 
Q 1441 -91 1130 -33 
Q 819 25 488 141 
L 488 750 
Q 750 597 1062 519 
Q 1375 441 1716 441 
Q 2309 441 2620 675 
Q 2931 909 2931 1356 
Q 2931 1769 2642 2001 
Q 2353 2234 1838 2234 
L 1294 2234 
L 1294 2753 
L 1863 2753 
Q 2328 2753 2575 2939 
Q 2822 3125 2822 3475 
Q 2822 3834 2567 4026 
Q 2313 4219 1838 4219 
Q 1578 4219 1281 4162 
Q 984 4106 628 3988 
L 628 4550 
Q 988 4650 1302 4700 
Q 1616 4750 1894 4750 
Q 2613 4750 3031 4423 
Q 3450 4097 3450 3541 
Q 3450 3153 3228 2886 
Q 3006 2619 2597 2516 
z
" transform="scale(0.015625)"/>
       </defs>
       <use xlink:href="#DejaVuSans-33"/>
       <use xlink:href="#DejaVuSans-30" x="63.623047"/>
      </g>
     </g>
    </g>
    <g id="text_23">
     <!-- t [s] -->
     <g transform="translate(540.65044 351.138083) scale(0.1 -0.1)">
      <use xlink:href="#DejaVuSans-74"/>
      <use xlink:href="#DejaVuSans-20" x="39.208984"/>
      <use xlink:href="#DejaVuSans-5b" x="70.996094"/>
      <use xlink:href="#DejaVuSans-73" x="110.009766"/>
      <use xlink:href="#DejaVuSans-5d" x="162.109375"/>
     </g>
    </g>
   </g>
   <g id="matplotlib.axis_4">
    <g id="ytick_6">
     <g id="line2d_21">
      <g>
       <use xlink:href="#maf386682fd" x="398.511818" y="309.376047" style="stroke: #000000; stroke-width: 0.8"/>
      </g>
     </g>
     <g id="text_24">
      <!-- −10.0 -->
      <g transform="translate(360.866506 313.175266) scale(0.1 -0.1)">
       <use xlink:href="#DejaVuSans-2212"/>
       <use xlink:href="#DejaVuSans-31" x="83.789062"/>
       <use xlink:href="#DejaVuSans-30" x="147.412109"/>
       <use xlink:href="#DejaVuSans-2e" x="211.035156"/>
       <use xlink:href="#DejaVuSans-30" x="242.822266"/>
      </g>
     </g>
    </g>
    <g id="ytick_7">
     <g id="line2d_22">
      <g>
       <use xlink:href="#maf386682fd" x="398.511818" y="275.662365" style="stroke: #000000; stroke-width: 0.8"/>
      </g>
     </g>
     <g id="text_25">
      <!-- −7.5 -->
      <g transform="translate(367.229006 279.461584) scale(0.1 -0.1)">
       <defs>
        <path id="DejaVuSans-37" d="M 525 4666 
L 3525 4666 
L 3525 4397 
L 1831 0 
L 1172 0 
L 2766 4134 
L 525 4134 
L 525 4666 
z
" transform="scale(0.015625)"/>
       </defs>
       <use xlink:href="#DejaVuSans-2212"/>
       <use xlink:href="#DejaVuSans-37" x="83.789062"/>
       <use xlink:href="#DejaVuSans-2e" x="147.412109"/>
       <use xlink:href="#DejaVuSans-35" x="179.199219"/>
      </g>
     </g>
    </g>
    <g id="ytick_8">
     <g id="line2d_23">
      <g>
       <use xlink:href="#maf386682fd" x="398.511818" y="241.948684" style="stroke: #000000; stroke-width: 0.8"/>
      </g>
     </g>
     <g id="text_26">
      <!-- −5.0 -->
      <g transform="translate(367.229006 245.747902) scale(0.1 -0.1)">
       <use xlink:href="#DejaVuSans-2212"/>
       <use xlink:href="#DejaVuSans-35" x="83.789062"/>
       <use xlink:href="#DejaVuSans-2e" x="147.412109"/>
       <use xlink:href="#DejaVuSans-30" x="179.199219"/>
      </g>
     </g>
    </g>
    <g id="ytick_9">
     <g id="line2d_24">
      <g>
       <use xlink:href="#maf386682fd" x="398.511818" y="208.235002" style="stroke: #000000; stroke-width: 0.8"/>
      </g>
     </g>
     <g id="text_27">
      <!-- −2.5 -->
      <g transform="translate(367.229006 212.034221) scale(0.1 -0.1)">
       <use xlink:href="#DejaVuSans-2212"/>
       <use xlink:href="#DejaVuSans-32" x="83.789062"/>
       <use xlink:href="#DejaVuSans-2e" x="147.412109"/>
       <use xlink:href="#DejaVuSans-35" x="179.199219"/>
      </g>
     </g>
    </g>
    <g id="ytick_10">
     <g id="line2d_25">
      <g>
       <use xlink:href="#maf386682fd" x="398.511818" y="174.52132" style="stroke: #000000; stroke-width: 0.8"/>
      </g>
     </g>
     <g id="text_28">
      <!-- 0.0 -->
      <g transform="translate(375.608693 178.320539) scale(0.1 -0.1)">
       <use xlink:href="#DejaVuSans-30"/>
       <use xlink:href="#DejaVuSans-2e" x="63.623047"/>
       <use xlink:href="#DejaVuSans-30" x="95.410156"/>
      </g>
     </g>
    </g>
    <g id="ytick_11">
     <g id="line2d_26">
      <g>
       <use xlink:href="#maf386682fd" x="398.511818" y="140.807638" style="stroke: #000000; stroke-width: 0.8"/>
      </g>
     </g>
     <g id="text_29">
      <!-- 2.5 -->
      <g transform="translate(375.608693 144.606857) scale(0.1 -0.1)">
       <use xlink:href="#DejaVuSans-32"/>
       <use xlink:href="#DejaVuSans-2e" x="63.623047"/>
       <use xlink:href="#DejaVuSans-35" x="95.410156"/>
      </g>
     </g>
    </g>
    <g id="ytick_12">
     <g id="line2d_27">
      <g>
       <use xlink:href="#maf386682fd" x="398.511818" y="107.093956" style="stroke: #000000; stroke-width: 0.8"/>
      </g>
     </g>
     <g id="text_30">
      <!-- 5.0 -->
      <g transform="translate(375.608693 110.893175) scale(0.1 -0.1)">
       <use xlink:href="#DejaVuSans-35"/>
       <use xlink:href="#DejaVuSans-2e" x="63.623047"/>
       <use xlink:href="#DejaVuSans-30" x="95.410156"/>
      </g>
     </g>
    </g>
    <g id="ytick_13">
     <g id="line2d_28">
      <g>
       <use xlink:href="#maf386682fd" x="398.511818" y="73.380275" style="stroke: #000000; stroke-width: 0.8"/>
      </g>
     </g>
     <g id="text_31">
      <!-- 7.5 -->
      <g transform="translate(375.608693 77.179493) scale(0.1 -0.1)">
       <use xlink:href="#DejaVuSans-37"/>
       <use xlink:href="#DejaVuSans-2e" x="63.623047"/>
       <use xlink:href="#DejaVuSans-35" x="95.410156"/>
      </g>
     </g>
    </g>
    <g id="ytick_14">
     <g id="line2d_29">
      <g>
       <use xlink:href="#maf386682fd" x="398.511818" y="39.666593" style="stroke: #000000; stroke-width: 0.8"/>
      </g>
     </g>
     <g id="text_32">
      <!-- 10.0 -->
      <g transform="translate(369.246193 43.465811) scale(0.1 -0.1)">
       <use xlink:href="#DejaVuSans-31"/>
       <use xlink:href="#DejaVuSans-30" x="63.623047"/>
       <use xlink:href="#DejaVuSans-2e" x="127.246094"/>
       <use xlink:href="#DejaVuSans-30" x="159.033203"/>
      </g>
     </g>
    </g>
   </g>
   <g id="line2d_30">
    <path d="M 398.511818 174.52132 
L 702.9 174.52132 
" clip-path="url(#p0c1f97f4e6)" style="fill: none; stroke-dasharray: 2.775,1.2; stroke-dashoffset: 0; stroke: #000000; stroke-width: 0.75"/>
   </g>
   <g id="line2d_31">
    <path d="M 398.511818 117.307305 
L 398.512833 117.307305 
L 398.522979 117.305396 
L 398.609476 117.287468 
L 399.11679 117.181344 
L 399.624104 117.073575 
L 400.131417 118.071334 
L 400.638731 119.219859 
L 401.146044 120.409794 
L 401.653358 121.620737 
L 402.160672 122.815375 
L 402.667985 123.995439 
L 403.175299 125.148115 
L 403.682613 126.25084 
L 404.189926 127.33139 
L 404.69724 128.424477 
L 405.204554 129.510944 
L 405.711867 130.550255 
L 406.219181 131.531374 
L 406.726494 132.434195 
L 407.233808 133.258868 
L 407.741122 134.009099 
L 408.248435 134.685846 
L 408.755749 135.293192 
L 409.263063 135.807172 
L 409.770376 136.191642 
L 410.27769 136.435387 
L 410.785004 136.525223 
L 411.292317 136.578532 
L 411.799631 136.789713 
L 412.306944 137.112278 
L 412.814258 137.566552 
L 413.321572 137.82859 
L 413.828885 138.118772 
L 414.336199 138.788915 
L 414.843513 139.578985 
L 415.350826 140.76707 
L 415.85814 142.063469 
L 416.365454 142.038632 
L 416.872767 141.875229 
L 417.380081 141.18086 
L 417.887394 140.414862 
L 418.394708 139.939399 
L 418.902022 139.525112 
L 419.409335 139.909351 
L 419.916649 140.366595 
L 420.423963 140.828261 
L 420.931276 141.026831 
L 421.43859 141.1939 
L 421.945904 141.352145 
L 422.453217 141.150699 
L 422.960531 140.935915 
L 423.467844 140.748179 
L 423.975158 140.662112 
L 424.482472 140.586242 
L 424.989785 140.511417 
L 425.497099 140.578908 
L 426.004413 140.657921 
L 426.511726 140.734054 
L 427.01904 140.788422 
L 427.526354 140.825826 
L 428.033667 140.847473 
L 428.540981 140.845242 
L 429.048294 140.852997 
L 429.555608 140.872788 
L 430.062922 140.912517 
L 430.570235 140.967063 
L 431.077549 141.034727 
L 431.584863 140.91373 
L 432.092176 140.755544 
L 432.59949 140.582087 
L 433.106804 141.828995 
L 433.614117 143.265435 
L 434.121431 144.734706 
L 434.628744 144.233706 
L 435.136058 143.580501 
L 435.643372 142.956421 
L 436.150685 142.011712 
L 436.657999 141.106254 
L 437.165313 140.288926 
L 437.672626 141.198787 
L 438.17994 142.351798 
L 438.687254 143.604225 
L 439.194567 144.941808 
L 439.701881 146.347762 
L 440.209194 147.802285 
L 440.716508 149.281922 
L 441.223822 150.758787 
L 441.731135 152.19967 
L 442.238449 153.611335 
L 442.745763 154.994187 
L 443.253076 156.358712 
L 443.76039 157.751324 
L 444.267704 159.181783 
L 444.775017 160.648961 
L 445.282331 162.131069 
L 445.789644 163.598274 
L 446.296958 165.007399 
L 446.804272 166.424 
L 447.311585 167.829323 
L 447.818899 169.267861 
L 448.326213 170.496386 
L 448.833526 171.714744 
L 449.34084 172.924276 
" clip-path="url(#p0c1f97f4e6)" style="fill: none; stroke: #0000ff; stroke-width: 0.5; stroke-linecap: square"/>
   </g>
   <g id="line2d_32">
    <path d="M 398.511818 153.349128 
L 398.512833 153.349128 
L 398.522979 153.352609 
L 398.609476 153.385258 
L 399.11679 153.576752 
L 399.624104 153.768246 
L 400.131417 154.54426 
L 400.638731 155.378893 
L 401.146044 156.213526 
L 401.653358 156.2995 
L 402.160672 156.310393 
L 402.667985 156.321286 
L 403.175299 155.935049 
L 403.682613 155.508985 
L 404.189926 155.916826 
L 404.69724 156.408296 
L 405.204554 156.202076 
L 405.711867 155.925889 
L 406.219181 155.391869 
L 406.726494 154.831993 
L 407.233808 154.42883 
L 407.741122 154.041382 
L 408.248435 153.781474 
L 408.755749 153.534357 
L 409.263063 152.839142 
L 409.770376 152.09899 
L 410.27769 151.224471 
L 410.785004 150.336477 
L 411.292317 151.995938 
L 411.799631 153.910875 
L 412.306944 155.825812 
L 412.814258 157.74075 
L 413.321572 159.655687 
L 413.828885 161.570624 
L 414.336199 163.485561 
L 414.843513 165.400498 
L 415.350826 167.07011 
L 415.85814 168.71512 
L 416.365454 169.446985 
L 416.872767 170.087275 
L 417.380081 171.886033 
L 417.887394 173.80097 
L 418.394708 172.23511 
L 418.902022 170.320173 
L 419.409335 171.886033 
L 419.916649 173.80097 
L 420.423963 175.715907 
L 420.931276 177.630844 
L 421.43859 179.545781 
L 421.945904 181.460718 
L 422.453217 183.375656 
L 422.960531 185.290593 
L 423.467844 187.20553 
L 423.975158 187.54043 
L 424.482472 187.716874 
L 424.989785 187.893318 
L 425.497099 188.156484 
L 426.004413 188.428347 
L 426.511726 188.70021 
L 427.01904 190.465387 
L 427.526354 192.380324 
L 428.033667 194.295262 
L 428.540981 196.210199 
L 429.048294 198.125136 
L 429.555608 200.040073 
L 430.062922 201.95501 
L 430.570235 203.869947 
L 431.077549 205.784884 
L 431.584863 207.699821 
L 432.092176 209.614759 
L 432.59949 211.529696 
L 433.106804 213.240959 
L 433.614117 214.931796 
L 434.121431 216.622633 
L 434.628744 215.036347 
L 435.136058 213.12141 
L 435.643372 211.206473 
L 436.150685 209.291536 
L 436.657999 207.376598 
L 437.165313 205.461661 
L 437.672626 207.027521 
L 438.17994 208.942458 
L 438.687254 210.857396 
L 439.194567 212.772333 
L 439.701881 214.68727 
L 440.209194 216.602207 
L 440.716508 133.78542 
L 441.223822 135.700357 
L 441.731135 137.615294 
L 442.238449 137.839878 
L 442.745763 137.894941 
L 443.253076 137.950005 
L 443.76039 136.214625 
L 444.267704 134.299688 
L 444.775017 132.384751 
L 445.282331 215.201538 
L 445.789644 213.286601 
L 446.296958 211.371664 
L 446.804272 212.937524 
L 447.311585 214.852461 
L 447.818899 216.767398 
L 448.326213 133.950611 
L 448.833526 135.865548 
L 449.34084 137.780485 
" clip-path="url(#p0c1f97f4e6)" style="fill: none; stroke: #ff0000; stroke-width: 0.5; stroke-linecap: square"/>
   </g>
   <g id="patch_13">
    <path d="M 398.511818 322.86152 
L 398.511818 26.18112 
" style="fill: none; stroke: #000000; stroke-width: 0.8; stroke-linejoin: miter; stroke-linecap: square"/>
   </g>
   <g id="patch_14">
    <path d="M 702.9 322.86152 
L 702.9 26.18112 
" style="fill: none; stroke: #000000; stroke-width: 0.8; stroke-linejoin: miter; stroke-linecap: square"/>
   </g>
   <g id="patch_15">
    <path d="M 398.511818 322.86152 
L 702.9 322.86152 
" style="fill: none; stroke: #000000; stroke-width: 0.8; stroke-linejoin: miter; stroke-linecap: square"/>
   </g>
   <g id="patch_16">
    <path d="M 398.511818 26.18112 
L 702.9 26.18112 
" style="fill: none; stroke: #000000; stroke-width: 0.8; stroke-linejoin: miter; stroke-linecap: square"/>
   </g>
   <g id="legend_1">
    <g id="patch_17">
     <path d="M 608.4 63.959245 
L 695.9 63.959245 
Q 697.9 63.959245 697.9 61.959245 
L 697.9 33.18112 
Q 697.9 31.18112 695.9 31.18112 
L 608.4 31.18112 
Q 606.4 31.18112 606.4 33.18112 
L 606.4 61.959245 
Q 606.4 63.959245 608.4 63.959245 
z
" style="fill: #ffffff; opacity: 0.8; stroke: #cccccc; stroke-linejoin: miter"/>
    </g>
    <g id="line2d_33">
     <path d="M 610.4 39.38112 
L 620.4 39.38112 
L 630.4 39.38112 
" style="fill: none; stroke: #0000ff; stroke-width: 0.5; stroke-linecap: square"/>
    </g>
    <g id="text_33">
     <!-- $\Vert(x,y)\Vert$ [m] -->
     <g transform="translate(638.4 42.88112) scale(0.1 -0.1)">
      <defs>
       <path id="DejaVuSans-2016" d="M 1344 4891 
L 1344 -1509 
L 813 -1509 
L 813 4891 
L 1344 4891 
z
M 2376 4891 
L 2376 -1509 
L 1845 -1509 
L 1845 4891 
L 2376 4891 
z
" transform="scale(0.015625)"/>
       <path id="DejaVuSans-28" d="M 1984 4856 
Q 1566 4138 1362 3434 
Q 1159 2731 1159 2009 
Q 1159 1288 1364 580 
Q 1569 -128 1984 -844 
L 1484 -844 
Q 1016 -109 783 600 
Q 550 1309 550 2009 
Q 550 2706 781 3412 
Q 1013 4119 1484 4856 
L 1984 4856 
z
" transform="scale(0.015625)"/>
       <path id="DejaVuSans-Oblique-78" d="M 3841 3500 
L 2234 1784 
L 3219 0 
L 2559 0 
L 1819 1388 
L 531 0 
L -166 0 
L 1556 1844 
L 641 3500 
L 1300 3500 
L 1972 2234 
L 3144 3500 
L 3841 3500 
z
" transform="scale(0.015625)"/>
       <path id="DejaVuSans-Oblique-79" d="M 1588 -325 
Q 1188 -997 936 -1164 
Q 684 -1331 294 -1331 
L -159 -1331 
L -63 -850 
L 269 -850 
Q 509 -850 678 -719 
Q 847 -588 1056 -206 
L 1234 128 
L 459 3500 
L 1069 3500 
L 1650 819 
L 3256 3500 
L 3859 3500 
L 1588 -325 
z
" transform="scale(0.015625)"/>
       <path id="DejaVuSans-29" d="M 513 4856 
L 1013 4856 
Q 1481 4119 1714 3412 
Q 1947 2706 1947 2009 
Q 1947 1309 1714 600 
Q 1481 -109 1013 -844 
L 513 -844 
Q 928 -128 1133 580 
Q 1338 1288 1338 2009 
Q 1338 2731 1133 3434 
Q 928 4138 513 4856 
z
" transform="scale(0.015625)"/>
      </defs>
      <use xlink:href="#DejaVuSans-2016" transform="translate(0 0.578125)"/>
      <use xlink:href="#DejaVuSans-28" transform="translate(50 0.578125)"/>
      <use xlink:href="#DejaVuSans-Oblique-78" transform="translate(89.013672 0.578125)"/>
      <use xlink:href="#DejaVuSans-2c" transform="translate(148.193359 0.578125)"/>
      <use xlink:href="#DejaVuSans-Oblique-79" transform="translate(199.462891 0.578125)"/>
      <use xlink:href="#DejaVuSans-29" transform="translate(258.642578 0.578125)"/>
      <use xlink:href="#DejaVuSans-2016" transform="translate(297.65625 0.578125)"/>
      <use xlink:href="#DejaVuSans-20" transform="translate(347.65625 0.578125)"/>
      <use xlink:href="#DejaVuSans-5b" transform="translate(379.443359 0.578125)"/>
      <use xlink:href="#DejaVuSans-6d" transform="translate(418.457031 0.578125)"/>
      <use xlink:href="#DejaVuSans-5d" transform="translate(515.869141 0.578125)"/>
     </g>
    </g>
    <g id="line2d_34">
     <path d="M 610.4 54.379558 
L 620.4 54.379558 
L 630.4 54.379558 
" style="fill: none; stroke: #ff0000; stroke-width: 0.5; stroke-linecap: square"/>
    </g>
    <g id="text_34">
     <!-- $\alpha$ [rad] -->
     <g transform="translate(638.4 57.879558) scale(0.1 -0.1)">
      <defs>
       <path id="DejaVuSans-Oblique-3b1" d="M 2619 1628 
L 2622 2350 
Q 2625 3088 2069 3091 
Q 1653 3094 1394 2747 
Q 1069 2319 959 1747 
Q 825 1059 994 731 
Q 1169 397 1547 397 
Q 1966 397 2319 1063 
L 2619 1628 
z
M 2166 3578 
Q 3141 3594 3128 2584 
Q 3128 2584 3616 3500 
L 4128 3500 
L 3119 1603 
L 3109 919 
Q 3109 766 3194 638 
Q 3291 488 3391 488 
L 3669 488 
L 3575 0 
L 3228 0 
Q 2934 0 2722 263 
Q 2622 394 2619 669 
Q 2416 334 2066 50 
Q 1900 -81 1453 -78 
Q 722 -72 456 397 
Q 184 884 353 1747 
Q 534 2675 1009 3097 
Q 1544 3569 2166 3578 
z
" transform="scale(0.015625)"/>
      </defs>
      <use xlink:href="#DejaVuSans-Oblique-3b1" transform="translate(0 0.015625)"/>
      <use xlink:href="#DejaVuSans-20" transform="translate(65.917969 0.015625)"/>
      <use xlink:href="#DejaVuSans-5b" transform="translate(97.705078 0.015625)"/>
      <use xlink:href="#DejaVuSans-72" transform="translate(136.71875 0.015625)"/>
      <use xlink:href="#DejaVuSans-61" transform="translate(177.832031 0.015625)"/>
      <use xlink:href="#DejaVuSans-64" transform="translate(239.111328 0.015625)"/>
      <use xlink:href="#DejaVuSans-5d" transform="translate(302.587891 0.015625)"/>
     </g>
    </g>
   </g>
  </g>
  <g id="axes_3">
   <g id="patch_18">
    <path d="M 45.731818 660.41096 
L 350.12 660.41096 
L 350.12 363.73056 
L 45.731818 363.73056 
z
" style="fill: #ffffff"/>
   </g>
   <g id="matplotlib.axis_5">
    <g id="xtick_13">
     <g id="line2d_35">
      <g>
       <use xlink:href="#med1791b43c" x="45.731818" y="660.41096" style="stroke: #000000; stroke-width: 0.8"/>
      </g>
     </g>
     <g id="text_35">
      <!-- 0 -->
      <g transform="translate(42.550568 675.009397) scale(0.1 -0.1)">
       <use xlink:href="#DejaVuSans-30"/>
      </g>
     </g>
    </g>
    <g id="xtick_14">
     <g id="line2d_36">
      <g>
       <use xlink:href="#med1791b43c" x="96.463182" y="660.41096" style="stroke: #000000; stroke-width: 0.8"/>
      </g>
     </g>
     <g id="text_36">
      <!-- 5 -->
      <g transform="translate(93.281932 675.009397) scale(0.1 -0.1)">
       <use xlink:href="#DejaVuSans-35"/>
      </g>
     </g>
    </g>
    <g id="xtick_15">
     <g id="line2d_37">
      <g>
       <use xlink:href="#med1791b43c" x="147.194545" y="660.41096" style="stroke: #000000; stroke-width: 0.8"/>
      </g>
     </g>
     <g id="text_37">
      <!-- 10 -->
      <g transform="translate(140.832045 675.009397) scale(0.1 -0.1)">
       <use xlink:href="#DejaVuSans-31"/>
       <use xlink:href="#DejaVuSans-30" x="63.623047"/>
      </g>
     </g>
    </g>
    <g id="xtick_16">
     <g id="line2d_38">
      <g>
       <use xlink:href="#med1791b43c" x="197.925909" y="660.41096" style="stroke: #000000; stroke-width: 0.8"/>
      </g>
     </g>
     <g id="text_38">
      <!-- 15 -->
      <g transform="translate(191.563409 675.009397) scale(0.1 -0.1)">
       <use xlink:href="#DejaVuSans-31"/>
       <use xlink:href="#DejaVuSans-35" x="63.623047"/>
      </g>
     </g>
    </g>
    <g id="xtick_17">
     <g id="line2d_39">
      <g>
       <use xlink:href="#med1791b43c" x="248.657273" y="660.41096" style="stroke: #000000; stroke-width: 0.8"/>
      </g>
     </g>
     <g id="text_39">
      <!-- 20 -->
      <g transform="translate(242.294773 675.009397) scale(0.1 -0.1)">
       <use xlink:href="#DejaVuSans-32"/>
       <use xlink:href="#DejaVuSans-30" x="63.623047"/>
      </g>
     </g>
    </g>
    <g id="xtick_18">
     <g id="line2d_40">
      <g>
       <use xlink:href="#med1791b43c" x="299.388636" y="660.41096" style="stroke: #000000; stroke-width: 0.8"/>
      </g>
     </g>
     <g id="text_40">
      <!-- 25 -->
      <g transform="translate(293.026136 675.009397) scale(0.1 -0.1)">
       <use xlink:href="#DejaVuSans-32"/>
       <use xlink:href="#DejaVuSans-35" x="63.623047"/>
      </g>
     </g>
    </g>
    <g id="xtick_19">
     <g id="line2d_41">
      <g>
       <use xlink:href="#med1791b43c" x="350.12" y="660.41096" style="stroke: #000000; stroke-width: 0.8"/>
      </g>
     </g>
     <g id="text_41">
      <!-- 30 -->
      <g transform="translate(343.7575 675.009397) scale(0.1 -0.1)">
       <use xlink:href="#DejaVuSans-33"/>
       <use xlink:href="#DejaVuSans-30" x="63.623047"/>
      </g>
     </g>
    </g>
    <g id="text_42">
     <!-- t [s] -->
     <g transform="translate(187.87044 688.687523) scale(0.1 -0.1)">
      <use xlink:href="#DejaVuSans-74"/>
      <use xlink:href="#DejaVuSans-20" x="39.208984"/>
      <use xlink:href="#DejaVuSans-5b" x="70.996094"/>
      <use xlink:href="#DejaVuSans-73" x="110.009766"/>
      <use xlink:href="#DejaVuSans-5d" x="162.109375"/>
     </g>
    </g>
   </g>
   <g id="matplotlib.axis_6">
    <g id="ytick_15">
     <g id="line2d_42">
      <g>
       <use xlink:href="#maf386682fd" x="45.731818" y="660.41096" style="stroke: #000000; stroke-width: 0.8"/>
      </g>
     </g>
     <g id="text_43">
      <!-- $\mathdefault{0}$ -->
      <g transform="translate(32.331818 664.210179) scale(0.1 -0.1)">
       <use xlink:href="#DejaVuSans-30" transform="translate(0 0.78125)"/>
      </g>
     </g>
    </g>
    <g id="ytick_16">
     <g id="line2d_43">
      <g>
       <use xlink:href="#maf386682fd" x="45.731818" y="639.295352" style="stroke: #000000; stroke-width: 0.8"/>
      </g>
     </g>
     <g id="text_44">
      <!-- $\mathdefault{10^{0}}$ -->
      <g transform="translate(21.131818 643.094571) scale(0.1 -0.1)">
       <use xlink:href="#DejaVuSans-31" transform="translate(0 0.765625)"/>
       <use xlink:href="#DejaVuSans-30" transform="translate(63.623047 0.765625)"/>
       <use xlink:href="#DejaVuSans-30" transform="translate(128.203125 39.046875) scale(0.7)"/>
      </g>
     </g>
    </g>
    <g id="ytick_17">
     <g id="line2d_44">
      <g>
       <use xlink:href="#maf386682fd" x="45.731818" y="591.613227" style="stroke: #000000; stroke-width: 0.8"/>
      </g>
     </g>
     <g id="text_45">
      <!-- $\mathdefault{10^{1}}$ -->
      <g transform="translate(21.131818 595.412445) scale(0.1 -0.1)">
       <use xlink:href="#DejaVuSans-31" transform="translate(0 0.684375)"/>
       <use xlink:href="#DejaVuSans-30" transform="translate(63.623047 0.684375)"/>
       <use xlink:href="#DejaVuSans-31" transform="translate(128.203125 38.965625) scale(0.7)"/>
      </g>
     </g>
    </g>
    <g id="ytick_18">
     <g id="line2d_45">
      <g>
       <use xlink:href="#maf386682fd" x="45.731818" y="553.605133" style="stroke: #000000; stroke-width: 0.8"/>
      </g>
     </g>
     <g id="text_46">
      <!-- $\mathdefault{10^{2}}$ -->
      <g transform="translate(21.131818 557.404351) scale(0.1 -0.1)">
       <use xlink:href="#DejaVuSans-31" transform="translate(0 0.765625)"/>
       <use xlink:href="#DejaVuSans-30" transform="translate(63.623047 0.765625)"/>
       <use xlink:href="#DejaVuSans-32" transform="translate(128.203125 39.046875) scale(0.7)"/>
      </g>
     </g>
    </g>
    <g id="ytick_19">
     <g id="line2d_46">
      <g>
       <use xlink:href="#maf386682fd" x="45.731818" y="515.597038" style="stroke: #000000; stroke-width: 0.8"/>
      </g>
     </g>
     <g id="text_47">
      <!-- $\mathdefault{10^{3}}$ -->
      <g transform="translate(21.131818 519.396257) scale(0.1 -0.1)">
       <use xlink:href="#DejaVuSans-31" transform="translate(0 0.765625)"/>
       <use xlink:href="#DejaVuSans-30" transform="translate(63.623047 0.765625)"/>
       <use xlink:href="#DejaVuSans-33" transform="translate(128.203125 39.046875) scale(0.7)"/>
      </g>
     </g>
    </g>
    <g id="ytick_20">
     <g id="line2d_47">
      <g>
       <use xlink:href="#maf386682fd" x="45.731818" y="477.588944" style="stroke: #000000; stroke-width: 0.8"/>
      </g>
     </g>
     <g id="text_48">
      <!-- $\mathdefault{10^{4}}$ -->
      <g transform="translate(21.131818 481.388163) scale(0.1 -0.1)">
       <use xlink:href="#DejaVuSans-31" transform="translate(0 0.684375)"/>
       <use xlink:href="#DejaVuSans-30" transform="translate(63.623047 0.684375)"/>
       <use xlink:href="#DejaVuSans-34" transform="translate(128.203125 38.965625) scale(0.7)"/>
      </g>
     </g>
    </g>
    <g id="ytick_21">
     <g id="line2d_48">
      <g>
       <use xlink:href="#maf386682fd" x="45.731818" y="439.58085" style="stroke: #000000; stroke-width: 0.8"/>
      </g>
     </g>
     <g id="text_49">
      <!-- $\mathdefault{10^{5}}$ -->
      <g transform="translate(21.131818 443.380069) scale(0.1 -0.1)">
       <use xlink:href="#DejaVuSans-31" transform="translate(0 0.684375)"/>
       <use xlink:href="#DejaVuSans-30" transform="translate(63.623047 0.684375)"/>
       <use xlink:href="#DejaVuSans-35" transform="translate(128.203125 38.965625) scale(0.7)"/>
      </g>
     </g>
    </g>
    <g id="ytick_22">
     <g id="line2d_49">
      <g>
       <use xlink:href="#maf386682fd" x="45.731818" y="401.572756" style="stroke: #000000; stroke-width: 0.8"/>
      </g>
     </g>
     <g id="text_50">
      <!-- $\mathdefault{10^{6}}$ -->
      <g transform="translate(21.131818 405.371975) scale(0.1 -0.1)">
       <defs>
        <path id="DejaVuSans-36" d="M 2113 2584 
Q 1688 2584 1439 2293 
Q 1191 2003 1191 1497 
Q 1191 994 1439 701 
Q 1688 409 2113 409 
Q 2538 409 2786 701 
Q 3034 994 3034 1497 
Q 3034 2003 2786 2293 
Q 2538 2584 2113 2584 
z
M 3366 4563 
L 3366 3988 
Q 3128 4100 2886 4159 
Q 2644 4219 2406 4219 
Q 1781 4219 1451 3797 
Q 1122 3375 1075 2522 
Q 1259 2794 1537 2939 
Q 1816 3084 2150 3084 
Q 2853 3084 3261 2657 
Q 3669 2231 3669 1497 
Q 3669 778 3244 343 
Q 2819 -91 2113 -91 
Q 1303 -91 875 529 
Q 447 1150 447 2328 
Q 447 3434 972 4092 
Q 1497 4750 2381 4750 
Q 2619 4750 2861 4703 
Q 3103 4656 3366 4563 
z
" transform="scale(0.015625)"/>
       </defs>
       <use xlink:href="#DejaVuSans-31" transform="translate(0 0.765625)"/>
       <use xlink:href="#DejaVuSans-30" transform="translate(63.623047 0.765625)"/>
       <use xlink:href="#DejaVuSans-36" transform="translate(128.203125 39.046875) scale(0.7)"/>
      </g>
     </g>
    </g>
   </g>
   <g id="line2d_50">
    <path d="M 45.731818 515.762936 
L 45.732833 515.762936 
L 45.742979 515.760936 
L 45.829476 515.742175 
L 46.33679 515.632249 
L 46.844104 515.522526 
L 47.351417 516.525342 
L 47.858731 517.672677 
L 48.366044 518.854515 
L 48.873358 520.075363 
L 49.380672 521.336507 
L 49.887985 522.64323 
L 50.395299 524.000956 
L 50.902613 525.412598 
L 51.409926 526.883369 
L 51.91724 528.406126 
L 52.424554 529.993284 
L 52.931867 531.646607 
L 53.439181 533.3722 
L 53.946494 535.1693 
L 54.453808 537.036376 
L 54.961122 538.970466 
L 55.468435 540.967157 
L 55.975749 543.019204 
L 56.483063 545.104818 
L 56.990376 547.173123 
L 57.49769 549.141705 
L 58.005004 550.962397 
L 58.512317 552.77393 
L 59.019631 554.507164 
L 59.526944 555.955506 
L 60.034258 557.260743 
L 60.541572 557.803836 
L 61.048885 558.26945 
L 61.556199 559.103575 
L 62.063513 559.691825 
L 62.570826 558.588692 
L 63.07814 551.237769 
L 63.585454 551.649147 
L 64.092767 553.452351 
L 64.600081 559.432267 
L 65.107394 560.755069 
L 65.614708 560.466296 
L 66.122022 560.108111 
L 66.629335 560.441541 
L 67.136649 560.753902 
L 67.643963 560.461341 
L 68.151276 559.534712 
L 68.65859 557.516898 
L 69.165904 553.361648 
L 69.673217 558.721416 
L 70.180531 560.744656 
L 70.687844 561.059298 
L 71.195158 561.026678 
L 71.702472 560.957573 
L 72.209785 560.869651 
L 72.717099 560.95024 
L 73.224413 561.023572 
L 73.731726 561.047509 
L 74.23904 560.996282 
L 74.746354 560.846397 
L 75.253667 560.565105 
L 75.760981 560.745752 
L 76.268294 560.901352 
L 76.775608 561.007113 
L 77.282922 561.102475 
L 77.790235 561.178321 
L 78.297549 561.244375 
L 78.804863 561.150779 
L 79.312176 561.046624 
L 79.81949 560.941569 
L 80.326804 560.481345 
L 80.834117 547.749982 
L 81.341431 516.94452 
L 81.848744 527.23443 
L 82.356058 536.692232 
L 82.863372 542.317969 
L 83.370685 547.232937 
L 83.877999 550.343411 
L 84.385313 551.870524 
L 84.892626 552.294242 
L 85.39994 552.638861 
L 85.907254 553.878912 
L 86.414567 556.004925 
L 86.921881 558.843792 
L 87.429194 562.129196 
L 87.936508 565.598589 
L 88.443822 569.076836 
L 88.951135 572.483664 
L 89.458449 576.022137 
L 89.965763 579.109171 
L 90.473076 581.770184 
L 90.98039 584.338189 
L 91.487704 587.032172 
L 91.995017 590.124651 
L 92.502331 593.838457 
L 93.009644 598.278581 
L 93.516958 603.130138 
L 94.024272 607.720687 
L 94.531585 612.25146 
L 95.038899 617.92031 
L 95.546213 632.294101 
L 96.053526 646.194675 
L 96.56084 656.612992 
" clip-path="url(#pd2645c45f4)" style="fill: none; stroke: #ff0000; stroke-width: 0.5; stroke-linecap: square"/>
   </g>
   <g id="line2d_51">
    <path d="M 45.731818 660.41096 
L 45.732833 553.77103 
L 45.742979 542.328454 
L 45.829476 535.628971 
L 46.33679 530.849427 
L 46.844104 527.125472 
L 47.351417 524.25324 
L 47.858731 521.960839 
L 48.366044 520.079758 
L 48.873358 518.506101 
L 49.380672 517.171012 
L 49.887985 516.026699 
L 50.395299 515.038616 
L 50.902613 514.180817 
L 51.409926 513.433364 
L 51.91724 512.78008 
L 52.424554 512.208293 
L 52.931867 511.707532 
L 53.439181 511.269124 
L 53.946494 510.885604 
L 54.453808 510.550475 
L 54.961122 510.258011 
L 55.468435 510.003129 
L 55.975749 509.781268 
L 56.483063 509.588183 
L 56.990376 509.419693 
L 57.49769 509.271572 
L 58.005004 509.140039 
L 58.512317 509.02306 
L 59.019631 508.918447 
L 59.526944 508.823199 
L 60.034258 508.735679 
L 60.541572 508.651431 
L 61.048885 508.569937 
L 61.556199 508.492829 
L 62.063513 508.418761 
L 62.570826 508.33994 
L 63.07814 508.217647 
L 63.585454 508.099231 
L 64.092767 507.993787 
L 64.600081 507.920783 
L 65.107394 507.853687 
L 65.614708 507.785686 
L 66.122022 507.716481 
L 66.629335 507.64894 
L 67.136649 507.582933 
L 67.643963 507.516016 
L 68.151276 507.445528 
L 68.65859 507.366236 
L 69.165904 507.264804 
L 69.673217 507.19188 
L 70.180531 507.127636 
L 70.687844 507.064847 
L 71.195158 507.002173 
L 71.702472 506.939474 
L 72.209785 506.87668 
L 72.717099 506.814428 
L 73.224413 506.752683 
L 73.731726 506.691258 
L 74.23904 506.629871 
L 74.746354 506.568155 
L 75.253667 506.505613 
L 75.760981 506.443985 
L 76.268294 506.383161 
L 76.775608 506.322946 
L 77.282922 506.263295 
L 77.790235 506.204131 
L 78.297549 506.145414 
L 78.804863 506.086572 
L 79.312176 506.027569 
L 79.81949 505.968401 
L 80.326804 505.907781 
L 80.834117 505.777444 
L 81.341431 504.958904 
L 81.848744 504.53622 
L 82.356058 504.302578 
L 82.863372 504.138403 
L 83.370685 504.017553 
L 83.877999 503.918125 
L 84.385313 503.828002 
L 84.892626 503.740633 
L 85.39994 503.655516 
L 85.907254 503.576949 
L 86.414567 503.508184 
L 86.921881 503.450506 
L 87.429194 503.403387 
L 87.936508 503.365299 
L 88.443822 503.334511 
L 88.951135 503.309508 
L 89.458449 503.289356 
L 89.965763 503.27266 
L 90.473076 503.258463 
L 90.98039 503.246322 
L 91.487704 503.236015 
L 91.995017 503.227475 
L 92.502331 503.220658 
L 93.009644 503.215451 
L 93.516958 503.211571 
L 94.024272 503.208633 
L 94.531585 503.206401 
L 95.038899 503.204818 
L 95.546213 503.203781 
L 96.053526 503.203256 
L 96.56084 503.203116 
" clip-path="url(#pd2645c45f4)" style="fill: none; stroke: #008000; stroke-width: 0.5; stroke-linecap: square"/>
   </g>
   <g id="patch_19">
    <path d="M 45.731818 660.41096 
L 45.731818 363.73056 
" style="fill: none; stroke: #000000; stroke-width: 0.8; stroke-linejoin: miter; stroke-linecap: square"/>
   </g>
   <g id="patch_20">
    <path d="M 350.12 660.41096 
L 350.12 363.73056 
" style="fill: none; stroke: #000000; stroke-width: 0.8; stroke-linejoin: miter; stroke-linecap: square"/>
   </g>
   <g id="patch_21">
    <path d="M 45.731818 660.41096 
L 350.12 660.41096 
" style="fill: none; stroke: #000000; stroke-width: 0.8; stroke-linejoin: miter; stroke-linecap: square"/>
   </g>
   <g id="patch_22">
    <path d="M 45.731818 363.73056 
L 350.12 363.73056 
" style="fill: none; stroke: #000000; stroke-width: 0.8; stroke-linejoin: miter; stroke-linecap: square"/>
   </g>
   <g id="legend_2">
    <g id="patch_23">
     <path d="M 245.02 405.308685 
L 343.12 405.308685 
Q 345.12 405.308685 345.12 403.308685 
L 345.12 370.73056 
Q 345.12 368.73056 343.12 368.73056 
L 245.02 368.73056 
Q 243.02 368.73056 243.02 370.73056 
L 243.02 403.308685 
Q 243.02 405.308685 245.02 405.308685 
z
" style="fill: #ffffff; opacity: 0.8; stroke: #cccccc; stroke-linejoin: miter"/>
    </g>
    <g id="line2d_52">
     <path d="M 247.02 376.828998 
L 257.02 376.828998 
L 267.02 376.828998 
" style="fill: none; stroke: #ff0000; stroke-width: 0.5; stroke-linecap: square"/>
    </g>
    <g id="text_51">
     <!-- Run. obj. -->
     <g transform="translate(275.02 380.328998) scale(0.1 -0.1)">
      <defs>
       <path id="DejaVuSans-52" d="M 2841 2188 
Q 3044 2119 3236 1894 
Q 3428 1669 3622 1275 
L 4263 0 
L 3584 0 
L 2988 1197 
Q 2756 1666 2539 1819 
Q 2322 1972 1947 1972 
L 1259 1972 
L 1259 0 
L 628 0 
L 628 4666 
L 2053 4666 
Q 2853 4666 3247 4331 
Q 3641 3997 3641 3322 
Q 3641 2881 3436 2590 
Q 3231 2300 2841 2188 
z
M 1259 4147 
L 1259 2491 
L 2053 2491 
Q 2509 2491 2742 2702 
Q 2975 2913 2975 3322 
Q 2975 3731 2742 3939 
Q 2509 4147 2053 4147 
L 1259 4147 
z
" transform="scale(0.015625)"/>
       <path id="DejaVuSans-6e" d="M 3513 2113 
L 3513 0 
L 2938 0 
L 2938 2094 
Q 2938 2591 2744 2837 
Q 2550 3084 2163 3084 
Q 1697 3084 1428 2787 
Q 1159 2491 1159 1978 
L 1159 0 
L 581 0 
L 581 3500 
L 1159 3500 
L 1159 2956 
Q 1366 3272 1645 3428 
Q 1925 3584 2291 3584 
Q 2894 3584 3203 3211 
Q 3513 2838 3513 2113 
z
" transform="scale(0.015625)"/>
       <path id="DejaVuSans-62" d="M 3116 1747 
Q 3116 2381 2855 2742 
Q 2594 3103 2138 3103 
Q 1681 3103 1420 2742 
Q 1159 2381 1159 1747 
Q 1159 1113 1420 752 
Q 1681 391 2138 391 
Q 2594 391 2855 752 
Q 3116 1113 3116 1747 
z
M 1159 2969 
Q 1341 3281 1617 3432 
Q 1894 3584 2278 3584 
Q 2916 3584 3314 3078 
Q 3713 2572 3713 1747 
Q 3713 922 3314 415 
Q 2916 -91 2278 -91 
Q 1894 -91 1617 61 
Q 1341 213 1159 525 
L 1159 0 
L 581 0 
L 581 4863 
L 1159 4863 
L 1159 2969 
z
" transform="scale(0.015625)"/>
       <path id="DejaVuSans-6a" d="M 603 3500 
L 1178 3500 
L 1178 -63 
Q 1178 -731 923 -1031 
Q 669 -1331 103 -1331 
L -116 -1331 
L -116 -844 
L 38 -844 
Q 366 -844 484 -692 
Q 603 -541 603 -63 
L 603 3500 
z
M 603 4863 
L 1178 4863 
L 1178 4134 
L 603 4134 
L 603 4863 
z
" transform="scale(0.015625)"/>
      </defs>
      <use xlink:href="#DejaVuSans-52"/>
      <use xlink:href="#DejaVuSans-75" x="64.982422"/>
      <use xlink:href="#DejaVuSans-6e" x="128.361328"/>
      <use xlink:href="#DejaVuSans-2e" x="191.740234"/>
      <use xlink:href="#DejaVuSans-20" x="223.527344"/>
      <use xlink:href="#DejaVuSans-6f" x="255.314453"/>
      <use xlink:href="#DejaVuSans-62" x="316.496094"/>
      <use xlink:href="#DejaVuSans-6a" x="379.972656"/>
      <use xlink:href="#DejaVuSans-2e" x="407.755859"/>
     </g>
    </g>
    <g id="line2d_53">
     <path d="M 247.02 394.708685 
L 257.02 394.708685 
L 267.02 394.708685 
" style="fill: none; stroke: #008000; stroke-width: 0.5; stroke-linecap: square"/>
    </g>
    <g id="text_52">
     <!-- $\int \mathrm{Run.\,obj.} \,\mathrm{d}t$ -->
     <g transform="translate(275.02 398.208685) scale(0.1 -0.1)">
      <defs>
       <path id="DejaVuSansDisplay-222b" d="M 2134 5525 
Q 2172 6263 2528 6556 
Q 2884 6850 3218 6850 
Q 3553 6850 3833 6575 
Q 4113 6300 4200 5678 
L 3544 5613 
Q 3469 6188 3219 6188 
Q 2906 6188 2869 5413 
L 2581 -597 
Q 2547 -1334 2187 -1628 
Q 1828 -1922 1497 -1922 
Q 1163 -1922 883 -1647 
Q 603 -1372 516 -750 
L 1172 -684 
Q 1247 -1259 1497 -1259 
Q 1809 -1259 1847 -488 
L 2134 5525 
z
" transform="scale(0.015625)"/>
       <path id="DejaVuSans-Oblique-74" d="M 2706 3500 
L 2619 3053 
L 1472 3053 
L 1100 1153 
Q 1081 1047 1072 975 
Q 1063 903 1063 863 
Q 1063 663 1183 572 
Q 1303 481 1569 481 
L 2150 481 
L 2053 0 
L 1503 0 
Q 991 0 739 200 
Q 488 400 488 806 
Q 488 878 497 964 
Q 506 1050 525 1153 
L 897 3053 
L 409 3053 
L 500 3500 
L 978 3500 
L 1172 4494 
L 1747 4494 
L 1556 3500 
L 2706 3500 
z
" transform="scale(0.015625)"/>
      </defs>
      <use xlink:href="#DejaVuSansDisplay-222b" transform="translate(0 0.96875)"/>
      <use xlink:href="#DejaVuSans-52" transform="translate(73.632812 0.96875)"/>
      <use xlink:href="#DejaVuSans-75" transform="translate(143.115234 0.96875)"/>
      <use xlink:href="#DejaVuSans-6e" transform="translate(206.494141 0.96875)"/>
      <use xlink:href="#DejaVuSans-2e" transform="translate(269.873047 0.96875)"/>
      <use xlink:href="#DejaVuSans-6f" transform="translate(337.378254 0.96875)"/>
      <use xlink:href="#DejaVuSans-62" transform="translate(398.559895 0.96875)"/>
      <use xlink:href="#DejaVuSans-6a" transform="translate(462.036458 0.96875)"/>
      <use xlink:href="#DejaVuSans-2e" transform="translate(489.819661 0.96875)"/>
      <use xlink:href="#DejaVuSans-64" transform="translate(557.324868 0.96875)"/>
      <use xlink:href="#DejaVuSans-Oblique-74" transform="translate(620.801431 0.96875)"/>
     </g>
    </g>
   </g>
  </g>
  <g id="axes_4">
   <g id="patch_24">
    <path d="M 398.511818 660.41096 
L 702.9 660.41096 
L 702.9 363.73056 
L 398.511818 363.73056 
z
" style="fill: #ffffff"/>
   </g>
   <g id="matplotlib.axis_7">
    <g id="xtick_20">
     <g id="line2d_54">
      <g>
       <use xlink:href="#med1791b43c" x="398.511818" y="660.41096" style="stroke: #000000; stroke-width: 0.8"/>
      </g>
     </g>
     <g id="text_53">
      <!-- 0 -->
      <g transform="translate(395.330568 675.009397) scale(0.1 -0.1)">
       <use xlink:href="#DejaVuSans-30"/>
      </g>
     </g>
    </g>
    <g id="xtick_21">
     <g id="line2d_55">
      <g>
       <use xlink:href="#med1791b43c" x="449.243182" y="660.41096" style="stroke: #000000; stroke-width: 0.8"/>
      </g>
     </g>
     <g id="text_54">
      <!-- 5 -->
      <g transform="translate(446.061932 675.009397) scale(0.1 -0.1)">
       <use xlink:href="#DejaVuSans-35"/>
      </g>
     </g>
    </g>
    <g id="xtick_22">
     <g id="line2d_56">
      <g>
       <use xlink:href="#med1791b43c" x="499.974545" y="660.41096" style="stroke: #000000; stroke-width: 0.8"/>
      </g>
     </g>
     <g id="text_55">
      <!-- 10 -->
      <g transform="translate(493.612045 675.009397) scale(0.1 -0.1)">
       <use xlink:href="#DejaVuSans-31"/>
       <use xlink:href="#DejaVuSans-30" x="63.623047"/>
      </g>
     </g>
    </g>
    <g id="xtick_23">
     <g id="line2d_57">
      <g>
       <use xlink:href="#med1791b43c" x="550.705909" y="660.41096" style="stroke: #000000; stroke-width: 0.8"/>
      </g>
     </g>
     <g id="text_56">
      <!-- 15 -->
      <g transform="translate(544.343409 675.009397) scale(0.1 -0.1)">
       <use xlink:href="#DejaVuSans-31"/>
       <use xlink:href="#DejaVuSans-35" x="63.623047"/>
      </g>
     </g>
    </g>
    <g id="xtick_24">
     <g id="line2d_58">
      <g>
       <use xlink:href="#med1791b43c" x="601.437273" y="660.41096" style="stroke: #000000; stroke-width: 0.8"/>
      </g>
     </g>
     <g id="text_57">
      <!-- 20 -->
      <g transform="translate(595.074773 675.009397) scale(0.1 -0.1)">
       <use xlink:href="#DejaVuSans-32"/>
       <use xlink:href="#DejaVuSans-30" x="63.623047"/>
      </g>
     </g>
    </g>
    <g id="xtick_25">
     <g id="line2d_59">
      <g>
       <use xlink:href="#med1791b43c" x="652.168636" y="660.41096" style="stroke: #000000; stroke-width: 0.8"/>
      </g>
     </g>
     <g id="text_58">
      <!-- 25 -->
      <g transform="translate(645.806136 675.009397) scale(0.1 -0.1)">
       <use xlink:href="#DejaVuSans-32"/>
       <use xlink:href="#DejaVuSans-35" x="63.623047"/>
      </g>
     </g>
    </g>
    <g id="xtick_26">
     <g id="line2d_60">
      <g>
       <use xlink:href="#med1791b43c" x="702.9" y="660.41096" style="stroke: #000000; stroke-width: 0.8"/>
      </g>
     </g>
     <g id="text_59">
      <!-- 30 -->
      <g transform="translate(696.5375 675.009397) scale(0.1 -0.1)">
       <use xlink:href="#DejaVuSans-33"/>
       <use xlink:href="#DejaVuSans-30" x="63.623047"/>
      </g>
     </g>
    </g>
    <g id="text_60">
     <!-- t [s] -->
     <g transform="translate(540.65044 688.687523) scale(0.1 -0.1)">
      <use xlink:href="#DejaVuSans-74"/>
      <use xlink:href="#DejaVuSans-20" x="39.208984"/>
      <use xlink:href="#DejaVuSans-5b" x="70.996094"/>
      <use xlink:href="#DejaVuSans-73" x="110.009766"/>
      <use xlink:href="#DejaVuSans-5d" x="162.109375"/>
     </g>
    </g>
   </g>
   <g id="matplotlib.axis_8">
    <g id="ytick_23">
     <g id="line2d_61">
      <g>
       <use xlink:href="#maf386682fd" x="398.511818" y="654.522937" style="stroke: #000000; stroke-width: 0.8"/>
      </g>
     </g>
     <g id="text_61">
      <!-- −3 -->
      <g transform="translate(376.769631 658.322155) scale(0.1 -0.1)">
       <use xlink:href="#DejaVuSans-2212"/>
       <use xlink:href="#DejaVuSans-33" x="83.789062"/>
      </g>
     </g>
    </g>
    <g id="ytick_24">
     <g id="line2d_62">
      <g>
       <use xlink:href="#maf386682fd" x="398.511818" y="607.038878" style="stroke: #000000; stroke-width: 0.8"/>
      </g>
     </g>
     <g id="text_62">
      <!-- −2 -->
      <g transform="translate(376.769631 610.838097) scale(0.1 -0.1)">
       <use xlink:href="#DejaVuSans-2212"/>
       <use xlink:href="#DejaVuSans-32" x="83.789062"/>
      </g>
     </g>
    </g>
    <g id="ytick_25">
     <g id="line2d_63">
      <g>
       <use xlink:href="#maf386682fd" x="398.511818" y="559.554819" style="stroke: #000000; stroke-width: 0.8"/>
      </g>
     </g>
     <g id="text_63">
      <!-- −1 -->
      <g transform="translate(376.769631 563.354038) scale(0.1 -0.1)">
       <use xlink:href="#DejaVuSans-2212"/>
       <use xlink:href="#DejaVuSans-31" x="83.789062"/>
      </g>
     </g>
    </g>
    <g id="ytick_26">
     <g id="line2d_64">
      <g>
       <use xlink:href="#maf386682fd" x="398.511818" y="512.07076" style="stroke: #000000; stroke-width: 0.8"/>
      </g>
     </g>
     <g id="text_64">
      <!-- 0 -->
      <g transform="translate(385.149318 515.869979) scale(0.1 -0.1)">
       <use xlink:href="#DejaVuSans-30"/>
      </g>
     </g>
    </g>
    <g id="ytick_27">
     <g id="line2d_65">
      <g>
       <use xlink:href="#maf386682fd" x="398.511818" y="464.586701" style="stroke: #000000; stroke-width: 0.8"/>
      </g>
     </g>
     <g id="text_65">
      <!-- 1 -->
      <g transform="translate(385.149318 468.38592) scale(0.1 -0.1)">
       <use xlink:href="#DejaVuSans-31"/>
      </g>
     </g>
    </g>
    <g id="ytick_28">
     <g id="line2d_66">
      <g>
       <use xlink:href="#maf386682fd" x="398.511818" y="417.102642" style="stroke: #000000; stroke-width: 0.8"/>
      </g>
     </g>
     <g id="text_66">
      <!-- 2 -->
      <g transform="translate(385.149318 420.901861) scale(0.1 -0.1)">
       <use xlink:href="#DejaVuSans-32"/>
      </g>
     </g>
    </g>
    <g id="ytick_29">
     <g id="line2d_67">
      <g>
       <use xlink:href="#maf386682fd" x="398.511818" y="369.618583" style="stroke: #000000; stroke-width: 0.8"/>
      </g>
     </g>
     <g id="text_67">
      <!-- 3 -->
      <g transform="translate(385.149318 373.417802) scale(0.1 -0.1)">
       <use xlink:href="#DejaVuSans-33"/>
      </g>
     </g>
    </g>
   </g>
   <g id="line2d_68">
    <path d="M 398.511818 512.07076 
L 702.9 512.07076 
" clip-path="url(#p37103a4cec)" style="fill: none; stroke-dasharray: 2.775,1.2; stroke-dashoffset: 0; stroke: #000000; stroke-width: 0.75"/>
   </g>
   <g id="line2d_69">
    <path d="M 398.511818 512.07076 
L 398.512833 522.517253 
L 398.522979 522.517253 
L 398.609476 522.517253 
L 399.11679 522.517253 
L 399.624104 407.60583 
L 400.131417 407.60583 
L 400.638731 407.60583 
L 401.146044 407.60583 
L 401.653358 407.60583 
L 402.160672 407.60583 
L 402.667985 407.60583 
L 403.175299 407.60583 
L 403.682613 407.60583 
L 404.189926 407.60583 
L 404.69724 407.60583 
L 405.204554 407.60583 
L 405.711867 407.60583 
L 406.219181 407.60583 
L 406.726494 407.60583 
L 407.233808 407.60583 
L 407.741122 407.60583 
L 408.248435 407.60583 
L 408.755749 407.60583 
L 409.263063 407.60583 
L 409.770376 407.60583 
L 410.27769 407.60583 
L 410.785004 407.60583 
L 411.292317 407.60583 
L 411.799631 420.521729 
L 412.306944 420.521729 
L 412.814258 476.112819 
L 413.321572 476.112819 
L 413.828885 438.14446 
L 414.336199 438.14446 
L 414.843513 407.60583 
L 415.350826 407.60583 
L 415.85814 524.44936 
L 416.365454 524.44936 
L 416.872767 566.595906 
L 417.380081 566.595906 
L 417.887394 542.222842 
L 418.394708 542.222842 
L 418.902022 479.531643 
L 419.409335 479.531643 
L 419.916649 479.531643 
L 420.423963 499.789236 
L 420.931276 499.789236 
L 421.43859 499.789236 
L 421.945904 532.037474 
L 422.453217 532.037474 
L 422.960531 532.037474 
L 423.467844 521.138056 
L 423.975158 521.138056 
L 424.482472 521.138056 
L 424.989785 501.930789 
L 425.497099 501.930789 
L 426.004413 501.930789 
L 426.511726 504.136915 
L 427.01904 504.136915 
L 427.526354 504.136915 
L 428.033667 518.236273 
L 428.540981 518.236273 
L 429.048294 518.236273 
L 429.555608 519.996691 
L 430.062922 519.996691 
L 430.570235 519.996691 
L 431.077549 498.198852 
L 431.584863 498.198852 
L 432.092176 498.198852 
L 432.59949 616.53569 
L 433.106804 616.53569 
L 433.614117 616.53569 
L 434.121431 464.459832 
L 434.628744 464.459832 
L 435.136058 464.459832 
L 435.643372 432.200232 
L 436.150685 432.200232 
L 436.657999 432.200232 
L 437.165313 616.53569 
L 437.672626 616.53569 
L 438.17994 616.53569 
L 438.687254 616.53569 
L 439.194567 616.53569 
L 439.701881 616.53569 
L 440.209194 616.53569 
L 440.716508 616.53569 
L 441.223822 616.53569 
L 441.731135 616.53569 
L 442.238449 616.53569 
L 442.745763 616.53569 
L 443.253076 616.53569 
L 443.76039 616.53569 
L 444.267704 616.53569 
L 444.775017 616.53569 
L 445.282331 616.53569 
L 445.789644 616.53569 
L 446.296958 616.53569 
L 446.804272 616.53569 
L 447.311585 616.53569 
L 447.818899 598.008084 
L 448.326213 598.008084 
L 448.833526 598.008084 
L 449.34084 607.310656 
" clip-path="url(#p37103a4cec)" style="fill: none; stroke: #1f77b4; stroke-width: 0.5; stroke-linecap: square"/>
   </g>
   <g id="line2d_70">
    <path d="M 398.511818 512.07076 
L 398.512833 525.556233 
L 398.522979 525.556233 
L 398.609476 525.556233 
L 399.11679 525.556233 
L 399.624104 570.847745 
L 400.131417 570.847745 
L 400.638731 570.847745 
L 401.146044 512.837899 
L 401.653358 512.837899 
L 402.160672 512.837899 
L 402.667985 482.066248 
L 403.175299 482.066248 
L 403.682613 546.681318 
L 404.189926 546.681318 
L 404.69724 492.620904 
L 405.204554 492.620904 
L 405.711867 472.642862 
L 406.219181 472.642862 
L 406.726494 484.785732 
L 407.233808 484.785732 
L 407.741122 494.668126 
L 408.248435 494.668126 
L 408.755749 459.947336 
L 409.263063 459.947336 
L 409.770376 449.535958 
L 410.27769 449.535958 
L 410.785004 646.925487 
L 411.292317 646.925487 
L 411.799631 646.925487 
L 412.306944 646.925487 
L 412.814258 646.925487 
L 413.321572 646.925487 
L 413.828885 646.925487 
L 414.336199 646.925487 
L 414.843513 627.916496 
L 415.350826 627.916496 
L 415.85814 557.161559 
L 416.365454 557.161559 
L 416.872767 646.925487 
L 417.380081 646.925487 
L 417.887394 377.216033 
L 418.394708 377.216033 
L 418.902022 646.925487 
L 419.409335 646.925487 
L 419.916649 646.925487 
L 420.423963 646.925487 
L 420.931276 646.925487 
L 421.43859 646.925487 
L 421.945904 646.925487 
L 422.453217 646.925487 
L 422.960531 646.925487 
L 423.467844 524.49639 
L 423.975158 524.49639 
L 424.482472 524.49639 
L 424.989785 531.216031 
L 425.497099 531.216031 
L 426.004413 531.216031 
L 426.511726 646.925487 
L 427.01904 646.925487 
L 427.526354 646.925487 
L 428.033667 646.925487 
L 428.540981 646.925487 
L 429.048294 646.925487 
L 429.555608 646.925487 
L 430.062922 646.925487 
L 430.570235 646.925487 
L 431.077549 646.925487 
L 431.584863 646.925487 
L 432.092176 646.925487 
L 432.59949 631.143795 
L 433.106804 631.143795 
L 433.614117 631.143795 
L 434.121431 377.216033 
L 434.628744 377.216033 
L 435.136058 377.216033 
L 435.643372 377.216033 
L 436.150685 377.216033 
L 436.657999 377.216033 
L 437.165313 646.925487 
L 437.672626 646.925487 
L 438.17994 646.925487 
L 438.687254 646.925487 
L 439.194567 646.925487 
L 439.701881 646.925487 
L 440.209194 646.925487 
L 440.716508 646.925487 
L 441.223822 646.925487 
L 441.731135 515.948483 
L 442.238449 515.948483 
L 442.745763 515.948483 
L 443.253076 377.216033 
L 443.76039 377.216033 
L 444.267704 377.216033 
L 444.775017 377.216033 
L 445.282331 377.216033 
L 445.789644 377.216033 
L 446.296958 646.925487 
L 446.804272 646.925487 
L 447.311585 646.925487 
L 447.818899 646.925487 
L 448.326213 646.925487 
L 448.833526 646.925487 
L 449.34084 507.35731 
" clip-path="url(#p37103a4cec)" style="fill: none; stroke: #ff7f0e; stroke-width: 0.5; stroke-linecap: square"/>
   </g>
   <g id="patch_25">
    <path d="M 398.511818 660.41096 
L 398.511818 363.73056 
" style="fill: none; stroke: #000000; stroke-width: 0.8; stroke-linejoin: miter; stroke-linecap: square"/>
   </g>
   <g id="patch_26">
    <path d="M 702.9 660.41096 
L 702.9 363.73056 
" style="fill: none; stroke: #000000; stroke-width: 0.8; stroke-linejoin: miter; stroke-linecap: square"/>
   </g>
   <g id="patch_27">
    <path d="M 398.511818 660.41096 
L 702.9 660.41096 
" style="fill: none; stroke: #000000; stroke-width: 0.8; stroke-linejoin: miter; stroke-linecap: square"/>
   </g>
   <g id="patch_28">
    <path d="M 398.511818 363.73056 
L 702.9 363.73056 
" style="fill: none; stroke: #000000; stroke-width: 0.8; stroke-linejoin: miter; stroke-linecap: square"/>
   </g>
   <g id="legend_3">
    <g id="patch_29">
     <path d="M 619.3 401.08681 
L 695.9 401.08681 
Q 697.9 401.08681 697.9 399.08681 
L 697.9 370.73056 
Q 697.9 368.73056 695.9 368.73056 
L 619.3 368.73056 
Q 617.3 368.73056 617.3 370.73056 
L 617.3 399.08681 
Q 617.3 401.08681 619.3 401.08681 
z
" style="fill: #ffffff; opacity: 0.8; stroke: #cccccc; stroke-linejoin: miter"/>
    </g>
    <g id="line2d_71">
     <path d="M 621.3 376.828998 
L 631.3 376.828998 
L 641.3 376.828998 
" style="fill: none; stroke: #1f77b4; stroke-width: 0.5; stroke-linecap: square"/>
    </g>
    <g id="text_68">
     <!-- v [m/s] -->
     <g transform="translate(649.3 380.328998) scale(0.1 -0.1)">
      <defs>
       <path id="DejaVuSans-76" d="M 191 3500 
L 800 3500 
L 1894 563 
L 2988 3500 
L 3597 3500 
L 2284 0 
L 1503 0 
L 191 3500 
z
" transform="scale(0.015625)"/>
       <path id="DejaVuSans-2f" d="M 1625 4666 
L 2156 4666 
L 531 -594 
L 0 -594 
L 1625 4666 
z
" transform="scale(0.015625)"/>
      </defs>
      <use xlink:href="#DejaVuSans-76"/>
      <use xlink:href="#DejaVuSans-20" x="59.179688"/>
      <use xlink:href="#DejaVuSans-5b" x="90.966797"/>
      <use xlink:href="#DejaVuSans-6d" x="129.980469"/>
      <use xlink:href="#DejaVuSans-2f" x="227.392578"/>
      <use xlink:href="#DejaVuSans-73" x="261.083984"/>
      <use xlink:href="#DejaVuSans-5d" x="313.183594"/>
     </g>
    </g>
    <g id="line2d_72">
     <path d="M 621.3 391.507123 
L 631.3 391.507123 
L 641.3 391.507123 
" style="fill: none; stroke: #ff7f0e; stroke-width: 0.5; stroke-linecap: square"/>
    </g>
    <g id="text_69">
     <!-- $\omega$ [rad/s] -->
     <g transform="translate(649.3 395.007123) scale(0.1 -0.1)">
      <defs>
       <path id="DejaVuSans-Oblique-3c9" d="M 1369 -91 
Q 72 -91 434 1766 
Q 575 2500 1256 3500 
L 1875 3500 
Q 1231 2500 1088 1750 
Q 819 397 1519 397 
Q 2166 397 2478 2078 
L 3009 2078 
Q 2669 388 3316 397 
Q 4013 403 4275 1750 
Q 4419 2500 4169 3500 
L 4788 3500 
Q 5075 2500 4934 1766 
Q 4578 -94 3278 -91 
Q 2428 -88 2503 844 
Q 2194 -91 1369 -91 
z
" transform="scale(0.015625)"/>
      </defs>
      <use xlink:href="#DejaVuSans-Oblique-3c9" transform="translate(0 0.015625)"/>
      <use xlink:href="#DejaVuSans-20" transform="translate(83.740234 0.015625)"/>
      <use xlink:href="#DejaVuSans-5b" transform="translate(115.527344 0.015625)"/>
      <use xlink:href="#DejaVuSans-72" transform="translate(154.541016 0.015625)"/>
      <use xlink:href="#DejaVuSans-61" transform="translate(195.654297 0.015625)"/>
      <use xlink:href="#DejaVuSans-64" transform="translate(256.933594 0.015625)"/>
      <use xlink:href="#DejaVuSans-2f" transform="translate(320.410156 0.015625)"/>
      <use xlink:href="#DejaVuSans-73" transform="translate(354.101562 0.015625)"/>
      <use xlink:href="#DejaVuSans-5d" transform="translate(406.201172 0.015625)"/>
     </g>
    </g>
   </g>
  </g>
  <g id="text_70">
   <!-- $\int \mathrm{Run.\,obj.} \,\mathrm{d}t$ = 2118.8 -->
   <g transform="translate(36 354.49) scale(0.1 -0.1)">
    <defs>
     <path id="DejaVuSans-38" d="M 2034 2216 
Q 1584 2216 1326 1975 
Q 1069 1734 1069 1313 
Q 1069 891 1326 650 
Q 1584 409 2034 409 
Q 2484 409 2743 651 
Q 3003 894 3003 1313 
Q 3003 1734 2745 1975 
Q 2488 2216 2034 2216 
z
M 1403 2484 
Q 997 2584 770 2862 
Q 544 3141 544 3541 
Q 544 4100 942 4425 
Q 1341 4750 2034 4750 
Q 2731 4750 3128 4425 
Q 3525 4100 3525 3541 
Q 3525 3141 3298 2862 
Q 3072 2584 2669 2484 
Q 3125 2378 3379 2068 
Q 3634 1759 3634 1313 
Q 3634 634 3220 271 
Q 2806 -91 2034 -91 
Q 1263 -91 848 271 
Q 434 634 434 1313 
Q 434 1759 690 2068 
Q 947 2378 1403 2484 
z
M 1172 3481 
Q 1172 3119 1398 2916 
Q 1625 2713 2034 2713 
Q 2441 2713 2670 2916 
Q 2900 3119 2900 3481 
Q 2900 3844 2670 4047 
Q 2441 4250 2034 4250 
Q 1625 4250 1398 4047 
Q 1172 3844 1172 3481 
z
" transform="scale(0.015625)"/>
    </defs>
    <use xlink:href="#DejaVuSansDisplay-222b" transform="translate(0 0.96875)"/>
    <use xlink:href="#DejaVuSans-52" transform="translate(73.632812 0.96875)"/>
    <use xlink:href="#DejaVuSans-75" transform="translate(143.115234 0.96875)"/>
    <use xlink:href="#DejaVuSans-6e" transform="translate(206.494141 0.96875)"/>
    <use xlink:href="#DejaVuSans-2e" transform="translate(269.873047 0.96875)"/>
    <use xlink:href="#DejaVuSans-6f" transform="translate(337.378254 0.96875)"/>
    <use xlink:href="#DejaVuSans-62" transform="translate(398.559895 0.96875)"/>
    <use xlink:href="#DejaVuSans-6a" transform="translate(462.036458 0.96875)"/>
    <use xlink:href="#DejaVuSans-2e" transform="translate(489.819661 0.96875)"/>
    <use xlink:href="#DejaVuSans-64" transform="translate(557.324868 0.96875)"/>
    <use xlink:href="#DejaVuSans-Oblique-74" transform="translate(620.801431 0.96875)"/>
    <use xlink:href="#DejaVuSans-20" transform="translate(660.010415 0.96875)"/>
    <use xlink:href="#DejaVuSans-3d" transform="translate(691.797524 0.96875)"/>
    <use xlink:href="#DejaVuSans-20" transform="translate(775.586587 0.96875)"/>
    <use xlink:href="#DejaVuSans-32" transform="translate(807.373696 0.96875)"/>
    <use xlink:href="#DejaVuSans-31" transform="translate(870.996743 0.96875)"/>
    <use xlink:href="#DejaVuSans-31" transform="translate(934.61979 0.96875)"/>
    <use xlink:href="#DejaVuSans-38" transform="translate(998.242837 0.96875)"/>
    <use xlink:href="#DejaVuSans-2e" transform="translate(1061.865884 0.96875)"/>
    <use xlink:href="#DejaVuSans-38" transform="translate(1091.027993 0.96875)"/>
   </g>
  </g>
 </g>
 <defs>
  <clipPath id="pab2bb15cca">
   <rect x="49.585709" y="26.18112" width="296.6804" height="296.6804"/>
  </clipPath>
  <clipPath id="p0c1f97f4e6">
   <rect x="398.511818" y="26.18112" width="304.388182" height="296.6804"/>
  </clipPath>
  <clipPath id="pd2645c45f4">
   <rect x="45.731818" y="363.73056" width="304.388182" height="296.6804"/>
  </clipPath>
  <clipPath id="p37103a4cec">
   <rect x="398.511818" y="363.73056" width="304.388182" height="296.6804"/>
  </clipPath>
 </defs>
</svg>
