<?xml version="1.0" encoding="utf-8" standalone="no"?>
<!DOCTYPE svg PUBLIC "-//W3C//DTD SVG 1.1//EN"
  "http://www.w3.org/Graphics/SVG/1.1/DTD/svg11.dtd">
<svg xmlns:xlink="http://www.w3.org/1999/xlink" width="720pt" height="701.28pt" viewBox="0 0 720 701.28" xmlns="http://www.w3.org/2000/svg" version="1.1">
 <metadata>
  <rdf:RDF xmlns:dc="http://purl.org/dc/elements/1.1/" xmlns:cc="http://creativecommons.org/ns#" xmlns:rdf="http://www.w3.org/1999/02/22-rdf-syntax-ns#">
   <cc:Work>
    <dc:type rdf:resource="http://purl.org/dc/dcmitype/StillImage"/>
    <dc:date>2024-04-18T18:53:38.507605</dc:date>
    <dc:format>image/svg+xml</dc:format>
    <dc:creator>
     <cc:Agent>
      <dc:title>Matplotlib v3.7.5, https://matplotlib.org/</dc:title>
     </cc:Agent>
    </dc:creator>
   </cc:Work>
  </rdf:RDF>
 </metadata>
 <defs>
  <style type="text/css">*{stroke-linejoin: round; stroke-linecap: butt}</style>
 </defs>
 <g id="figure_1">
  <g id="patch_1">
   <path d="M 0 701.28 
L 720 701.28 
L 720 0 
L 0 0 
z
" style="fill: #ffffff"/>
  </g>
  <g id="axes_1">
   <g id="patch_2">
    <path d="M 62.653205 320.126528 
L 356.598613 320.126528 
L 356.598613 26.18112 
L 62.653205 26.18112 
z
" style="fill: #ffffff"/>
   </g>
   <g id="patch_3">
    <path d="M 209.625909 176.093278 
C 210.405461 176.093278 211.15319 175.783559 211.704417 175.232332 
C 212.255644 174.681105 212.565363 173.933376 212.565363 173.153824 
C 212.565363 172.374272 212.255644 171.626543 211.704417 171.075316 
C 211.15319 170.524089 210.405461 170.21437 209.625909 170.21437 
C 208.846357 170.21437 208.098628 170.524089 207.547401 171.075316 
C 206.996174 171.626543 206.686455 172.374272 206.686455 173.153824 
C 206.686455 173.933376 206.996174 174.681105 207.547401 175.232332 
C 208.098628 175.783559 208.846357 176.093278 209.625909 176.093278 
z
" clip-path="url(#pf540324a6f)" style="fill: #bfbf00; stroke: #bfbf00; stroke-width: 2; stroke-linejoin: miter"/>
   </g>
   <g id="PathCollection_1">
    <defs>
     <path id="m62e70182d8" d="M -9.973761 1.646796 
L -3.744352 1.542258 
L -3.762209 0.478184 
L -1.844731 0.446006 
L -1.769871 4.906196 
L 2.498376 4.83458 
L 2.526349 6.501469 
L -0.066209 6.544964 
L -0.01297 9.717428 
L 6.21645 9.612901 
L 6.163211 6.440425 
L 3.570665 6.483932 
L 3.542692 4.817044 
L 7.810939 4.745416 
L 7.643707 -5.219872 
L 3.37546 -5.148256 
L 3.347638 -6.806169 
L 5.940184 -6.849676 
L 5.886935 -10.022742 
L -0.342473 -9.918204 
L -0.289236 -6.745137 
L 2.303321 -6.788644 
L 2.331144 -5.130719 
L -1.937103 -5.059092 
L -1.862255 -0.598902 
L -3.779756 -0.566723 
L -3.797601 -1.630797 
L -10.027021 -1.526258 
L -9.973761 1.646796 
z
" style="stroke: #0000ff"/>
    </defs>
    <g clip-path="url(#pf540324a6f)">
     <use xlink:href="#m62e70182d8" x="206.79821" y="173.143721" style="fill: #0000ff; stroke: #0000ff"/>
    </g>
   </g>
   <g id="matplotlib.axis_1">
    <g id="xtick_1">
     <g id="line2d_1">
      <defs>
       <path id="m0d7190bf06" d="M 0 0 
L 0 3.5 
" style="stroke: #000000; stroke-width: 0.8"/>
      </defs>
      <g>
       <use xlink:href="#m0d7190bf06" x="62.653205" y="320.126528" style="stroke: #000000; stroke-width: 0.8"/>
      </g>
     </g>
     <g id="text_1">
      <!-- −10.0 -->
      <g transform="translate(47.330549 334.724965) scale(0.1 -0.1)">
       <defs>
        <path id="DejaVuSans-2212" d="M 678 2272 
L 4684 2272 
L 4684 1741 
L 678 1741 
L 678 2272 
z
" transform="scale(0.015625)"/>
        <path id="DejaVuSans-31" d="M 794 531 
L 1825 531 
L 1825 4091 
L 703 3866 
L 703 4441 
L 1819 4666 
L 2450 4666 
L 2450 531 
L 3481 531 
L 3481 0 
L 794 0 
L 794 531 
z
" transform="scale(0.015625)"/>
        <path id="DejaVuSans-30" d="M 2034 4250 
Q 1547 4250 1301 3770 
Q 1056 3291 1056 2328 
Q 1056 1369 1301 889 
Q 1547 409 2034 409 
Q 2525 409 2770 889 
Q 3016 1369 3016 2328 
Q 3016 3291 2770 3770 
Q 2525 4250 2034 4250 
z
M 2034 4750 
Q 2819 4750 3233 4129 
Q 3647 3509 3647 2328 
Q 3647 1150 3233 529 
Q 2819 -91 2034 -91 
Q 1250 -91 836 529 
Q 422 1150 422 2328 
Q 422 3509 836 4129 
Q 1250 4750 2034 4750 
z
" transform="scale(0.015625)"/>
        <path id="DejaVuSans-2e" d="M 684 794 
L 1344 794 
L 1344 0 
L 684 0 
L 684 794 
z
" transform="scale(0.015625)"/>
       </defs>
       <use xlink:href="#DejaVuSans-2212"/>
       <use xlink:href="#DejaVuSans-31" x="83.789062"/>
       <use xlink:href="#DejaVuSans-30" x="147.412109"/>
       <use xlink:href="#DejaVuSans-2e" x="211.035156"/>
       <use xlink:href="#DejaVuSans-30" x="242.822266"/>
      </g>
     </g>
    </g>
    <g id="xtick_2">
     <g id="line2d_2">
      <g>
       <use xlink:href="#m0d7190bf06" x="99.396381" y="320.126528" style="stroke: #000000; stroke-width: 0.8"/>
      </g>
     </g>
     <g id="text_2">
      <!-- −7.5 -->
      <g transform="translate(87.254975 334.724965) scale(0.1 -0.1)">
       <defs>
        <path id="DejaVuSans-37" d="M 525 4666 
L 3525 4666 
L 3525 4397 
L 1831 0 
L 1172 0 
L 2766 4134 
L 525 4134 
L 525 4666 
z
" transform="scale(0.015625)"/>
        <path id="DejaVuSans-35" d="M 691 4666 
L 3169 4666 
L 3169 4134 
L 1269 4134 
L 1269 2991 
Q 1406 3038 1543 3061 
Q 1681 3084 1819 3084 
Q 2600 3084 3056 2656 
Q 3513 2228 3513 1497 
Q 3513 744 3044 326 
Q 2575 -91 1722 -91 
Q 1428 -91 1123 -41 
Q 819 9 494 109 
L 494 744 
Q 775 591 1075 516 
Q 1375 441 1709 441 
Q 2250 441 2565 725 
Q 2881 1009 2881 1497 
Q 2881 1984 2565 2268 
Q 2250 2553 1709 2553 
Q 1456 2553 1204 2497 
Q 953 2441 691 2322 
L 691 4666 
z
" transform="scale(0.015625)"/>
       </defs>
       <use xlink:href="#DejaVuSans-2212"/>
       <use xlink:href="#DejaVuSans-37" x="83.789062"/>
       <use xlink:href="#DejaVuSans-2e" x="147.412109"/>
       <use xlink:href="#DejaVuSans-35" x="179.199219"/>
      </g>
     </g>
    </g>
    <g id="xtick_3">
     <g id="line2d_3">
      <g>
       <use xlink:href="#m0d7190bf06" x="136.139557" y="320.126528" style="stroke: #000000; stroke-width: 0.8"/>
      </g>
     </g>
     <g id="text_3">
      <!-- −5.0 -->
      <g transform="translate(123.998151 334.724965) scale(0.1 -0.1)">
       <use xlink:href="#DejaVuSans-2212"/>
       <use xlink:href="#DejaVuSans-35" x="83.789062"/>
       <use xlink:href="#DejaVuSans-2e" x="147.412109"/>
       <use xlink:href="#DejaVuSans-30" x="179.199219"/>
      </g>
     </g>
    </g>
    <g id="xtick_4">
     <g id="line2d_4">
      <g>
       <use xlink:href="#m0d7190bf06" x="172.882733" y="320.126528" style="stroke: #000000; stroke-width: 0.8"/>
      </g>
     </g>
     <g id="text_4">
      <!-- −2.5 -->
      <g transform="translate(160.741327 334.724965) scale(0.1 -0.1)">
       <defs>
        <path id="DejaVuSans-32" d="M 1228 531 
L 3431 531 
L 3431 0 
L 469 0 
L 469 531 
Q 828 903 1448 1529 
Q 2069 2156 2228 2338 
Q 2531 2678 2651 2914 
Q 2772 3150 2772 3378 
Q 2772 3750 2511 3984 
Q 2250 4219 1831 4219 
Q 1534 4219 1204 4116 
Q 875 4013 500 3803 
L 500 4441 
Q 881 4594 1212 4672 
Q 1544 4750 1819 4750 
Q 2544 4750 2975 4387 
Q 3406 4025 3406 3419 
Q 3406 3131 3298 2873 
Q 3191 2616 2906 2266 
Q 2828 2175 2409 1742 
Q 1991 1309 1228 531 
z
" transform="scale(0.015625)"/>
       </defs>
       <use xlink:href="#DejaVuSans-2212"/>
       <use xlink:href="#DejaVuSans-32" x="83.789062"/>
       <use xlink:href="#DejaVuSans-2e" x="147.412109"/>
       <use xlink:href="#DejaVuSans-35" x="179.199219"/>
      </g>
     </g>
    </g>
    <g id="xtick_5">
     <g id="line2d_5">
      <g>
       <use xlink:href="#m0d7190bf06" x="209.625909" y="320.126528" style="stroke: #000000; stroke-width: 0.8"/>
      </g>
     </g>
     <g id="text_5">
      <!-- 0.0 -->
      <g transform="translate(201.674347 334.724965) scale(0.1 -0.1)">
       <use xlink:href="#DejaVuSans-30"/>
       <use xlink:href="#DejaVuSans-2e" x="63.623047"/>
       <use xlink:href="#DejaVuSans-30" x="95.410156"/>
      </g>
     </g>
    </g>
    <g id="xtick_6">
     <g id="line2d_6">
      <g>
       <use xlink:href="#m0d7190bf06" x="246.369085" y="320.126528" style="stroke: #000000; stroke-width: 0.8"/>
      </g>
     </g>
     <g id="text_6">
      <!-- 2.5 -->
      <g transform="translate(238.417523 334.724965) scale(0.1 -0.1)">
       <use xlink:href="#DejaVuSans-32"/>
       <use xlink:href="#DejaVuSans-2e" x="63.623047"/>
       <use xlink:href="#DejaVuSans-35" x="95.410156"/>
      </g>
     </g>
    </g>
    <g id="xtick_7">
     <g id="line2d_7">
      <g>
       <use xlink:href="#m0d7190bf06" x="283.112261" y="320.126528" style="stroke: #000000; stroke-width: 0.8"/>
      </g>
     </g>
     <g id="text_7">
      <!-- 5.0 -->
      <g transform="translate(275.160699 334.724965) scale(0.1 -0.1)">
       <use xlink:href="#DejaVuSans-35"/>
       <use xlink:href="#DejaVuSans-2e" x="63.623047"/>
       <use xlink:href="#DejaVuSans-30" x="95.410156"/>
      </g>
     </g>
    </g>
    <g id="xtick_8">
     <g id="line2d_8">
      <g>
       <use xlink:href="#m0d7190bf06" x="319.855437" y="320.126528" style="stroke: #000000; stroke-width: 0.8"/>
      </g>
     </g>
     <g id="text_8">
      <!-- 7.5 -->
      <g transform="translate(311.903875 334.724965) scale(0.1 -0.1)">
       <use xlink:href="#DejaVuSans-37"/>
       <use xlink:href="#DejaVuSans-2e" x="63.623047"/>
       <use xlink:href="#DejaVuSans-35" x="95.410156"/>
      </g>
     </g>
    </g>
    <g id="xtick_9">
     <g id="line2d_9">
      <g>
       <use xlink:href="#m0d7190bf06" x="356.598613" y="320.126528" style="stroke: #000000; stroke-width: 0.8"/>
      </g>
     </g>
     <g id="text_9">
      <!-- 10.0 -->
      <g transform="translate(345.465801 334.724965) scale(0.1 -0.1)">
       <use xlink:href="#DejaVuSans-31"/>
       <use xlink:href="#DejaVuSans-30" x="63.623047"/>
       <use xlink:href="#DejaVuSans-2e" x="127.246094"/>
       <use xlink:href="#DejaVuSans-30" x="159.033203"/>
      </g>
     </g>
    </g>
    <g id="text_10">
     <!-- x [m] -->
     <g transform="translate(196.305597 348.403091) scale(0.1 -0.1)">
      <defs>
       <path id="DejaVuSans-78" d="M 3513 3500 
L 2247 1797 
L 3578 0 
L 2900 0 
L 1881 1375 
L 863 0 
L 184 0 
L 1544 1831 
L 300 3500 
L 978 3500 
L 1906 2253 
L 2834 3500 
L 3513 3500 
z
" transform="scale(0.015625)"/>
       <path id="DejaVuSans-20" transform="scale(0.015625)"/>
       <path id="DejaVuSans-5b" d="M 550 4863 
L 1875 4863 
L 1875 4416 
L 1125 4416 
L 1125 -397 
L 1875 -397 
L 1875 -844 
L 550 -844 
L 550 4863 
z
" transform="scale(0.015625)"/>
       <path id="DejaVuSans-6d" d="M 3328 2828 
Q 3544 3216 3844 3400 
Q 4144 3584 4550 3584 
Q 5097 3584 5394 3201 
Q 5691 2819 5691 2113 
L 5691 0 
L 5113 0 
L 5113 2094 
Q 5113 2597 4934 2840 
Q 4756 3084 4391 3084 
Q 3944 3084 3684 2787 
Q 3425 2491 3425 1978 
L 3425 0 
L 2847 0 
L 2847 2094 
Q 2847 2600 2669 2842 
Q 2491 3084 2119 3084 
Q 1678 3084 1418 2786 
Q 1159 2488 1159 1978 
L 1159 0 
L 581 0 
L 581 3500 
L 1159 3500 
L 1159 2956 
Q 1356 3278 1631 3431 
Q 1906 3584 2284 3584 
Q 2666 3584 2933 3390 
Q 3200 3197 3328 2828 
z
" transform="scale(0.015625)"/>
       <path id="DejaVuSans-5d" d="M 1947 4863 
L 1947 -844 
L 622 -844 
L 622 -397 
L 1369 -397 
L 1369 4416 
L 622 4416 
L 622 4863 
L 1947 4863 
z
" transform="scale(0.015625)"/>
      </defs>
      <use xlink:href="#DejaVuSans-78"/>
      <use xlink:href="#DejaVuSans-20" x="59.179688"/>
      <use xlink:href="#DejaVuSans-5b" x="90.966797"/>
      <use xlink:href="#DejaVuSans-6d" x="129.980469"/>
      <use xlink:href="#DejaVuSans-5d" x="227.392578"/>
     </g>
    </g>
   </g>
   <g id="matplotlib.axis_2">
    <g id="ytick_1">
     <g id="line2d_10">
      <defs>
       <path id="m6e2158b0bd" d="M 0 0 
L -3.5 0 
" style="stroke: #000000; stroke-width: 0.8"/>
      </defs>
      <g>
       <use xlink:href="#m6e2158b0bd" x="62.653205" y="320.126528" style="stroke: #000000; stroke-width: 0.8"/>
      </g>
     </g>
     <g id="text_11">
      <!-- −10.0 -->
      <g transform="translate(25.007893 323.925747) scale(0.1 -0.1)">
       <use xlink:href="#DejaVuSans-2212"/>
       <use xlink:href="#DejaVuSans-31" x="83.789062"/>
       <use xlink:href="#DejaVuSans-30" x="147.412109"/>
       <use xlink:href="#DejaVuSans-2e" x="211.035156"/>
       <use xlink:href="#DejaVuSans-30" x="242.822266"/>
      </g>
     </g>
    </g>
    <g id="ytick_2">
     <g id="line2d_11">
      <g>
       <use xlink:href="#m6e2158b0bd" x="62.653205" y="283.383352" style="stroke: #000000; stroke-width: 0.8"/>
      </g>
     </g>
     <g id="text_12">
      <!-- −7.5 -->
      <g transform="translate(31.370393 287.182571) scale(0.1 -0.1)">
       <use xlink:href="#DejaVuSans-2212"/>
       <use xlink:href="#DejaVuSans-37" x="83.789062"/>
       <use xlink:href="#DejaVuSans-2e" x="147.412109"/>
       <use xlink:href="#DejaVuSans-35" x="179.199219"/>
      </g>
     </g>
    </g>
    <g id="ytick_3">
     <g id="line2d_12">
      <g>
       <use xlink:href="#m6e2158b0bd" x="62.653205" y="246.640176" style="stroke: #000000; stroke-width: 0.8"/>
      </g>
     </g>
     <g id="text_13">
      <!-- −5.0 -->
      <g transform="translate(31.370393 250.439395) scale(0.1 -0.1)">
       <use xlink:href="#DejaVuSans-2212"/>
       <use xlink:href="#DejaVuSans-35" x="83.789062"/>
       <use xlink:href="#DejaVuSans-2e" x="147.412109"/>
       <use xlink:href="#DejaVuSans-30" x="179.199219"/>
      </g>
     </g>
    </g>
    <g id="ytick_4">
     <g id="line2d_13">
      <g>
       <use xlink:href="#m6e2158b0bd" x="62.653205" y="209.897" style="stroke: #000000; stroke-width: 0.8"/>
      </g>
     </g>
     <g id="text_14">
      <!-- −2.5 -->
      <g transform="translate(31.370393 213.696219) scale(0.1 -0.1)">
       <use xlink:href="#DejaVuSans-2212"/>
       <use xlink:href="#DejaVuSans-32" x="83.789062"/>
       <use xlink:href="#DejaVuSans-2e" x="147.412109"/>
       <use xlink:href="#DejaVuSans-35" x="179.199219"/>
      </g>
     </g>
    </g>
    <g id="ytick_5">
     <g id="line2d_14">
      <g>
       <use xlink:href="#m6e2158b0bd" x="62.653205" y="173.153824" style="stroke: #000000; stroke-width: 0.8"/>
      </g>
     </g>
     <g id="text_15">
      <!-- 0.0 -->
      <g transform="translate(39.75008 176.953043) scale(0.1 -0.1)">
       <use xlink:href="#DejaVuSans-30"/>
       <use xlink:href="#DejaVuSans-2e" x="63.623047"/>
       <use xlink:href="#DejaVuSans-30" x="95.410156"/>
      </g>
     </g>
    </g>
    <g id="ytick_6">
     <g id="line2d_15">
      <g>
       <use xlink:href="#m6e2158b0bd" x="62.653205" y="136.410648" style="stroke: #000000; stroke-width: 0.8"/>
      </g>
     </g>
     <g id="text_16">
      <!-- 2.5 -->
      <g transform="translate(39.75008 140.209867) scale(0.1 -0.1)">
       <use xlink:href="#DejaVuSans-32"/>
       <use xlink:href="#DejaVuSans-2e" x="63.623047"/>
       <use xlink:href="#DejaVuSans-35" x="95.410156"/>
      </g>
     </g>
    </g>
    <g id="ytick_7">
     <g id="line2d_16">
      <g>
       <use xlink:href="#m6e2158b0bd" x="62.653205" y="99.667472" style="stroke: #000000; stroke-width: 0.8"/>
      </g>
     </g>
     <g id="text_17">
      <!-- 5.0 -->
      <g transform="translate(39.75008 103.466691) scale(0.1 -0.1)">
       <use xlink:href="#DejaVuSans-35"/>
       <use xlink:href="#DejaVuSans-2e" x="63.623047"/>
       <use xlink:href="#DejaVuSans-30" x="95.410156"/>
      </g>
     </g>
    </g>
    <g id="ytick_8">
     <g id="line2d_17">
      <g>
       <use xlink:href="#m6e2158b0bd" x="62.653205" y="62.924296" style="stroke: #000000; stroke-width: 0.8"/>
      </g>
     </g>
     <g id="text_18">
      <!-- 7.5 -->
      <g transform="translate(39.75008 66.723515) scale(0.1 -0.1)">
       <use xlink:href="#DejaVuSans-37"/>
       <use xlink:href="#DejaVuSans-2e" x="63.623047"/>
       <use xlink:href="#DejaVuSans-35" x="95.410156"/>
      </g>
     </g>
    </g>
    <g id="ytick_9">
     <g id="line2d_18">
      <g>
       <use xlink:href="#m6e2158b0bd" x="62.653205" y="26.18112" style="stroke: #000000; stroke-width: 0.8"/>
      </g>
     </g>
     <g id="text_19">
      <!-- 10.0 -->
      <g transform="translate(33.38758 29.980339) scale(0.1 -0.1)">
       <use xlink:href="#DejaVuSans-31"/>
       <use xlink:href="#DejaVuSans-30" x="63.623047"/>
       <use xlink:href="#DejaVuSans-2e" x="127.246094"/>
       <use xlink:href="#DejaVuSans-30" x="159.033203"/>
      </g>
     </g>
    </g>
    <g id="text_20">
     <!-- y [m] -->
     <g transform="translate(18.928205 186.474136) rotate(-90) scale(0.1 -0.1)">
      <defs>
       <path id="DejaVuSans-79" d="M 2059 -325 
Q 1816 -950 1584 -1140 
Q 1353 -1331 966 -1331 
L 506 -1331 
L 506 -850 
L 844 -850 
Q 1081 -850 1212 -737 
Q 1344 -625 1503 -206 
L 1606 56 
L 191 3500 
L 800 3500 
L 1894 763 
L 2988 3500 
L 3597 3500 
L 2059 -325 
z
" transform="scale(0.015625)"/>
      </defs>
      <use xlink:href="#DejaVuSans-79"/>
      <use xlink:href="#DejaVuSans-20" x="59.179688"/>
      <use xlink:href="#DejaVuSans-5b" x="90.966797"/>
      <use xlink:href="#DejaVuSans-6d" x="129.980469"/>
      <use xlink:href="#DejaVuSans-5d" x="227.392578"/>
     </g>
    </g>
   </g>
   <g id="line2d_19">
    <path d="M 62.653205 173.153824 
L 356.598613 173.153824 
" clip-path="url(#pf540324a6f)" style="fill: none; stroke-dasharray: 2.775,1.2; stroke-dashoffset: 0; stroke: #000000; stroke-width: 0.75"/>
   </g>
   <g id="line2d_20">
    <path d="M 209.625909 320.126528 
L 209.625909 26.18112 
" clip-path="url(#pf540324a6f)" style="fill: none; stroke-dasharray: 2.775,1.2; stroke-dashoffset: 0; stroke: #000000; stroke-width: 0.75"/>
   </g>
   <g id="line2d_21">
    <path d="M 165.534098 217.245635 
L 165.534098 217.245635 
L 165.534095 217.248574 
L 165.534033 217.276139 
L 165.532323 217.437798 
L 165.528318 217.599417 
L 165.611945 216.145959 
L 165.786472 214.5389 
L 166.046269 212.943404 
L 166.382692 211.362069 
L 166.783488 209.795954 
L 167.248017 208.247546 
L 167.770713 206.717696 
L 168.343898 205.206095 
L 168.96514 203.713579 
L 169.63119 202.240522 
L 170.340236 200.787659 
L 171.089933 199.355354 
L 171.878909 197.944296 
L 172.705442 196.554906 
L 173.568484 195.18789 
L 174.466776 193.843776 
L 175.399506 192.523326 
L 176.365758 191.227204 
L 177.364892 189.956257 
L 178.396244 188.711312 
L 179.459299 187.493327 
L 180.553578 186.303317 
L 181.665154 185.156267 
L 182.805447 184.040535 
L 183.876527 183.047281 
L 184.964416 182.092813 
L 185.983156 181.2473 
L 187.015316 180.438119 
L 187.978905 179.724613 
L 188.952606 179.044491 
L 189.858704 178.44753 
L 190.771879 177.880736 
L 191.618963 177.385495 
L 192.470491 176.917102 
L 193.25802 176.50966 
L 194.047811 176.125777 
L 194.776225 175.793307 
L 195.505172 175.481247 
L 196.175797 175.212144 
L 196.845642 174.960514 
L 197.520895 174.723783 
L 198.110081 174.531066 
L 198.693838 174.353002 
L 199.281021 174.186589 
L 199.791688 174.052177 
L 200.296637 173.928775 
L 200.803673 173.814251 
L 201.243604 173.722467 
L 201.677955 173.638768 
L 202.113527 173.561678 
L 202.490786 173.500406 
L 202.862845 173.444947 
L 203.23559 173.394304 
L 203.558018 173.354426 
L 203.87575 173.318644 
L 204.193851 173.286302 
L 204.468763 173.261116 
L 204.739525 173.238759 
L 205.010474 173.218812 
L 205.244495 173.203499 
L 205.4749 173.190097 
L 205.705395 173.178353 
L 205.904397 173.169515 
L 206.10028 173.161941 
L 206.296203 173.155482 
L 206.465315 173.150774 
L 206.631755 173.146881 
L 206.79821 173.143721 
" clip-path="url(#pf540324a6f)" style="fill: none; stroke-dasharray: 1.85,0.8; stroke-dashoffset: 0; stroke: #0000ff; stroke-width: 0.5"/>
   </g>
   <g id="patch_4">
    <path d="M 62.653205 320.126528 
L 62.653205 26.18112 
" style="fill: none; stroke: #000000; stroke-width: 0.8; stroke-linejoin: miter; stroke-linecap: square"/>
   </g>
   <g id="patch_5">
    <path d="M 356.598613 320.126528 
L 356.598613 26.18112 
" style="fill: none; stroke: #000000; stroke-width: 0.8; stroke-linejoin: miter; stroke-linecap: square"/>
   </g>
   <g id="patch_6">
    <path d="M 62.653205 320.126528 
L 356.598613 320.126528 
" style="fill: none; stroke: #000000; stroke-width: 0.8; stroke-linejoin: miter; stroke-linecap: square"/>
   </g>
   <g id="patch_7">
    <path d="M 62.653205 26.18112 
L 356.598613 26.18112 
" style="fill: none; stroke: #000000; stroke-width: 0.8; stroke-linejoin: miter; stroke-linecap: square"/>
   </g>
   <g id="text_21">
    <!-- Target -->
    <g transform="translate(321.325164 58.335036) scale(0.1 -0.1)">
     <defs>
      <path id="DejaVuSans-54" d="M -19 4666 
L 3928 4666 
L 3928 4134 
L 2272 4134 
L 2272 0 
L 1638 0 
L 1638 4134 
L -19 4134 
L -19 4666 
z
" transform="scale(0.015625)"/>
      <path id="DejaVuSans-61" d="M 2194 1759 
Q 1497 1759 1228 1600 
Q 959 1441 959 1056 
Q 959 750 1161 570 
Q 1363 391 1709 391 
Q 2188 391 2477 730 
Q 2766 1069 2766 1631 
L 2766 1759 
L 2194 1759 
z
M 3341 1997 
L 3341 0 
L 2766 0 
L 2766 531 
Q 2569 213 2275 61 
Q 1981 -91 1556 -91 
Q 1019 -91 701 211 
Q 384 513 384 1019 
Q 384 1609 779 1909 
Q 1175 2209 1959 2209 
L 2766 2209 
L 2766 2266 
Q 2766 2663 2505 2880 
Q 2244 3097 1772 3097 
Q 1472 3097 1187 3025 
Q 903 2953 641 2809 
L 641 3341 
Q 956 3463 1253 3523 
Q 1550 3584 1831 3584 
Q 2591 3584 2966 3190 
Q 3341 2797 3341 1997 
z
" transform="scale(0.015625)"/>
      <path id="DejaVuSans-72" d="M 2631 2963 
Q 2534 3019 2420 3045 
Q 2306 3072 2169 3072 
Q 1681 3072 1420 2755 
Q 1159 2438 1159 1844 
L 1159 0 
L 581 0 
L 581 3500 
L 1159 3500 
L 1159 2956 
Q 1341 3275 1631 3429 
Q 1922 3584 2338 3584 
Q 2397 3584 2469 3576 
Q 2541 3569 2628 3553 
L 2631 2963 
z
" transform="scale(0.015625)"/>
      <path id="DejaVuSans-67" d="M 2906 1791 
Q 2906 2416 2648 2759 
Q 2391 3103 1925 3103 
Q 1463 3103 1205 2759 
Q 947 2416 947 1791 
Q 947 1169 1205 825 
Q 1463 481 1925 481 
Q 2391 481 2648 825 
Q 2906 1169 2906 1791 
z
M 3481 434 
Q 3481 -459 3084 -895 
Q 2688 -1331 1869 -1331 
Q 1566 -1331 1297 -1286 
Q 1028 -1241 775 -1147 
L 775 -588 
Q 1028 -725 1275 -790 
Q 1522 -856 1778 -856 
Q 2344 -856 2625 -561 
Q 2906 -266 2906 331 
L 2906 616 
Q 2728 306 2450 153 
Q 2172 0 1784 0 
Q 1141 0 747 490 
Q 353 981 353 1791 
Q 353 2603 747 3093 
Q 1141 3584 1784 3584 
Q 2172 3584 2450 3431 
Q 2728 3278 2906 2969 
L 2906 3500 
L 3481 3500 
L 3481 434 
z
" transform="scale(0.015625)"/>
      <path id="DejaVuSans-65" d="M 3597 1894 
L 3597 1613 
L 953 1613 
Q 991 1019 1311 708 
Q 1631 397 2203 397 
Q 2534 397 2845 478 
Q 3156 559 3463 722 
L 3463 178 
Q 3153 47 2828 -22 
Q 2503 -91 2169 -91 
Q 1331 -91 842 396 
Q 353 884 353 1716 
Q 353 2575 817 3079 
Q 1281 3584 2069 3584 
Q 2775 3584 3186 3129 
Q 3597 2675 3597 1894 
z
M 3022 2063 
Q 3016 2534 2758 2815 
Q 2500 3097 2075 3097 
Q 1594 3097 1305 2825 
Q 1016 2553 972 2059 
L 3022 2063 
z
" transform="scale(0.015625)"/>
      <path id="DejaVuSans-74" d="M 1172 4494 
L 1172 3500 
L 2356 3500 
L 2356 3053 
L 1172 3053 
L 1172 1153 
Q 1172 725 1289 603 
Q 1406 481 1766 481 
L 2356 481 
L 2356 0 
L 1766 0 
Q 1100 0 847 248 
Q 594 497 594 1153 
L 594 3053 
L 172 3053 
L 172 3500 
L 594 3500 
L 594 4494 
L 1172 4494 
z
" transform="scale(0.015625)"/>
     </defs>
     <use xlink:href="#DejaVuSans-54"/>
     <use xlink:href="#DejaVuSans-61" x="44.583984"/>
     <use xlink:href="#DejaVuSans-72" x="105.863281"/>
     <use xlink:href="#DejaVuSans-67" x="145.226562"/>
     <use xlink:href="#DejaVuSans-65" x="208.703125"/>
     <use xlink:href="#DejaVuSans-74" x="270.226562"/>
    </g>
   </g>
   <g id="text_22">
    <!-- t = 3.510 -->
    <g transform="translate(77.350475 43.637765) scale(0.1 -0.1)">
     <defs>
      <path id="DejaVuSans-3d" d="M 678 2906 
L 4684 2906 
L 4684 2381 
L 678 2381 
L 678 2906 
z
M 678 1631 
L 4684 1631 
L 4684 1100 
L 678 1100 
L 678 1631 
z
" transform="scale(0.015625)"/>
      <path id="DejaVuSans-33" d="M 2597 2516 
Q 3050 2419 3304 2112 
Q 3559 1806 3559 1356 
Q 3559 666 3084 287 
Q 2609 -91 1734 -91 
Q 1441 -91 1130 -33 
Q 819 25 488 141 
L 488 750 
Q 750 597 1062 519 
Q 1375 441 1716 441 
Q 2309 441 2620 675 
Q 2931 909 2931 1356 
Q 2931 1769 2642 2001 
Q 2353 2234 1838 2234 
L 1294 2234 
L 1294 2753 
L 1863 2753 
Q 2328 2753 2575 2939 
Q 2822 3125 2822 3475 
Q 2822 3834 2567 4026 
Q 2313 4219 1838 4219 
Q 1578 4219 1281 4162 
Q 984 4106 628 3988 
L 628 4550 
Q 988 4650 1302 4700 
Q 1616 4750 1894 4750 
Q 2613 4750 3031 4423 
Q 3450 4097 3450 3541 
Q 3450 3153 3228 2886 
Q 3006 2619 2597 2516 
z
" transform="scale(0.015625)"/>
     </defs>
     <use xlink:href="#DejaVuSans-74"/>
     <use xlink:href="#DejaVuSans-20" x="39.208984"/>
     <use xlink:href="#DejaVuSans-3d" x="70.996094"/>
     <use xlink:href="#DejaVuSans-20" x="154.785156"/>
     <use xlink:href="#DejaVuSans-33" x="186.572266"/>
     <use xlink:href="#DejaVuSans-2e" x="250.195312"/>
     <use xlink:href="#DejaVuSans-35" x="281.982422"/>
     <use xlink:href="#DejaVuSans-31" x="345.605469"/>
     <use xlink:href="#DejaVuSans-30" x="409.228516"/>
    </g>
   </g>
   <g id="text_23">
    <!-- Pause - space, q - quit, click - data cursor -->
    <g transform="translate(85.716534 20.18112) scale(0.12 -0.12)">
     <defs>
      <path id="DejaVuSans-50" d="M 1259 4147 
L 1259 2394 
L 2053 2394 
Q 2494 2394 2734 2622 
Q 2975 2850 2975 3272 
Q 2975 3691 2734 3919 
Q 2494 4147 2053 4147 
L 1259 4147 
z
M 628 4666 
L 2053 4666 
Q 2838 4666 3239 4311 
Q 3641 3956 3641 3272 
Q 3641 2581 3239 2228 
Q 2838 1875 2053 1875 
L 1259 1875 
L 1259 0 
L 628 0 
L 628 4666 
z
" transform="scale(0.015625)"/>
      <path id="DejaVuSans-75" d="M 544 1381 
L 544 3500 
L 1119 3500 
L 1119 1403 
Q 1119 906 1312 657 
Q 1506 409 1894 409 
Q 2359 409 2629 706 
Q 2900 1003 2900 1516 
L 2900 3500 
L 3475 3500 
L 3475 0 
L 2900 0 
L 2900 538 
Q 2691 219 2414 64 
Q 2138 -91 1772 -91 
Q 1169 -91 856 284 
Q 544 659 544 1381 
z
M 1991 3584 
L 1991 3584 
z
" transform="scale(0.015625)"/>
      <path id="DejaVuSans-73" d="M 2834 3397 
L 2834 2853 
Q 2591 2978 2328 3040 
Q 2066 3103 1784 3103 
Q 1356 3103 1142 2972 
Q 928 2841 928 2578 
Q 928 2378 1081 2264 
Q 1234 2150 1697 2047 
L 1894 2003 
Q 2506 1872 2764 1633 
Q 3022 1394 3022 966 
Q 3022 478 2636 193 
Q 2250 -91 1575 -91 
Q 1294 -91 989 -36 
Q 684 19 347 128 
L 347 722 
Q 666 556 975 473 
Q 1284 391 1588 391 
Q 1994 391 2212 530 
Q 2431 669 2431 922 
Q 2431 1156 2273 1281 
Q 2116 1406 1581 1522 
L 1381 1569 
Q 847 1681 609 1914 
Q 372 2147 372 2553 
Q 372 3047 722 3315 
Q 1072 3584 1716 3584 
Q 2034 3584 2315 3537 
Q 2597 3491 2834 3397 
z
" transform="scale(0.015625)"/>
      <path id="DejaVuSans-2d" d="M 313 2009 
L 1997 2009 
L 1997 1497 
L 313 1497 
L 313 2009 
z
" transform="scale(0.015625)"/>
      <path id="DejaVuSans-70" d="M 1159 525 
L 1159 -1331 
L 581 -1331 
L 581 3500 
L 1159 3500 
L 1159 2969 
Q 1341 3281 1617 3432 
Q 1894 3584 2278 3584 
Q 2916 3584 3314 3078 
Q 3713 2572 3713 1747 
Q 3713 922 3314 415 
Q 2916 -91 2278 -91 
Q 1894 -91 1617 61 
Q 1341 213 1159 525 
z
M 3116 1747 
Q 3116 2381 2855 2742 
Q 2594 3103 2138 3103 
Q 1681 3103 1420 2742 
Q 1159 2381 1159 1747 
Q 1159 1113 1420 752 
Q 1681 391 2138 391 
Q 2594 391 2855 752 
Q 3116 1113 3116 1747 
z
" transform="scale(0.015625)"/>
      <path id="DejaVuSans-63" d="M 3122 3366 
L 3122 2828 
Q 2878 2963 2633 3030 
Q 2388 3097 2138 3097 
Q 1578 3097 1268 2742 
Q 959 2388 959 1747 
Q 959 1106 1268 751 
Q 1578 397 2138 397 
Q 2388 397 2633 464 
Q 2878 531 3122 666 
L 3122 134 
Q 2881 22 2623 -34 
Q 2366 -91 2075 -91 
Q 1284 -91 818 406 
Q 353 903 353 1747 
Q 353 2603 823 3093 
Q 1294 3584 2113 3584 
Q 2378 3584 2631 3529 
Q 2884 3475 3122 3366 
z
" transform="scale(0.015625)"/>
      <path id="DejaVuSans-2c" d="M 750 794 
L 1409 794 
L 1409 256 
L 897 -744 
L 494 -744 
L 750 256 
L 750 794 
z
" transform="scale(0.015625)"/>
      <path id="DejaVuSans-71" d="M 947 1747 
Q 947 1113 1208 752 
Q 1469 391 1925 391 
Q 2381 391 2643 752 
Q 2906 1113 2906 1747 
Q 2906 2381 2643 2742 
Q 2381 3103 1925 3103 
Q 1469 3103 1208 2742 
Q 947 2381 947 1747 
z
M 2906 525 
Q 2725 213 2448 61 
Q 2172 -91 1784 -91 
Q 1150 -91 751 415 
Q 353 922 353 1747 
Q 353 2572 751 3078 
Q 1150 3584 1784 3584 
Q 2172 3584 2448 3432 
Q 2725 3281 2906 2969 
L 2906 3500 
L 3481 3500 
L 3481 -1331 
L 2906 -1331 
L 2906 525 
z
" transform="scale(0.015625)"/>
      <path id="DejaVuSans-69" d="M 603 3500 
L 1178 3500 
L 1178 0 
L 603 0 
L 603 3500 
z
M 603 4863 
L 1178 4863 
L 1178 4134 
L 603 4134 
L 603 4863 
z
" transform="scale(0.015625)"/>
      <path id="DejaVuSans-6c" d="M 603 4863 
L 1178 4863 
L 1178 0 
L 603 0 
L 603 4863 
z
" transform="scale(0.015625)"/>
      <path id="DejaVuSans-6b" d="M 581 4863 
L 1159 4863 
L 1159 1991 
L 2875 3500 
L 3609 3500 
L 1753 1863 
L 3688 0 
L 2938 0 
L 1159 1709 
L 1159 0 
L 581 0 
L 581 4863 
z
" transform="scale(0.015625)"/>
      <path id="DejaVuSans-64" d="M 2906 2969 
L 2906 4863 
L 3481 4863 
L 3481 0 
L 2906 0 
L 2906 525 
Q 2725 213 2448 61 
Q 2172 -91 1784 -91 
Q 1150 -91 751 415 
Q 353 922 353 1747 
Q 353 2572 751 3078 
Q 1150 3584 1784 3584 
Q 2172 3584 2448 3432 
Q 2725 3281 2906 2969 
z
M 947 1747 
Q 947 1113 1208 752 
Q 1469 391 1925 391 
Q 2381 391 2643 752 
Q 2906 1113 2906 1747 
Q 2906 2381 2643 2742 
Q 2381 3103 1925 3103 
Q 1469 3103 1208 2742 
Q 947 2381 947 1747 
z
" transform="scale(0.015625)"/>
      <path id="DejaVuSans-6f" d="M 1959 3097 
Q 1497 3097 1228 2736 
Q 959 2375 959 1747 
Q 959 1119 1226 758 
Q 1494 397 1959 397 
Q 2419 397 2687 759 
Q 2956 1122 2956 1747 
Q 2956 2369 2687 2733 
Q 2419 3097 1959 3097 
z
M 1959 3584 
Q 2709 3584 3137 3096 
Q 3566 2609 3566 1747 
Q 3566 888 3137 398 
Q 2709 -91 1959 -91 
Q 1206 -91 779 398 
Q 353 888 353 1747 
Q 353 2609 779 3096 
Q 1206 3584 1959 3584 
z
" transform="scale(0.015625)"/>
     </defs>
     <use xlink:href="#DejaVuSans-50"/>
     <use xlink:href="#DejaVuSans-61" x="55.802734"/>
     <use xlink:href="#DejaVuSans-75" x="117.082031"/>
     <use xlink:href="#DejaVuSans-73" x="180.460938"/>
     <use xlink:href="#DejaVuSans-65" x="232.560547"/>
     <use xlink:href="#DejaVuSans-20" x="294.083984"/>
     <use xlink:href="#DejaVuSans-2d" x="325.871094"/>
     <use xlink:href="#DejaVuSans-20" x="361.955078"/>
     <use xlink:href="#DejaVuSans-73" x="393.742188"/>
     <use xlink:href="#DejaVuSans-70" x="445.841797"/>
     <use xlink:href="#DejaVuSans-61" x="509.318359"/>
     <use xlink:href="#DejaVuSans-63" x="570.597656"/>
     <use xlink:href="#DejaVuSans-65" x="625.578125"/>
     <use xlink:href="#DejaVuSans-2c" x="687.101562"/>
     <use xlink:href="#DejaVuSans-20" x="718.888672"/>
     <use xlink:href="#DejaVuSans-71" x="750.675781"/>
     <use xlink:href="#DejaVuSans-20" x="814.152344"/>
     <use xlink:href="#DejaVuSans-2d" x="845.939453"/>
     <use xlink:href="#DejaVuSans-20" x="882.023438"/>
     <use xlink:href="#DejaVuSans-71" x="913.810547"/>
     <use xlink:href="#DejaVuSans-75" x="977.287109"/>
     <use xlink:href="#DejaVuSans-69" x="1040.666016"/>
     <use xlink:href="#DejaVuSans-74" x="1068.449219"/>
     <use xlink:href="#DejaVuSans-2c" x="1107.658203"/>
     <use xlink:href="#DejaVuSans-20" x="1139.445312"/>
     <use xlink:href="#DejaVuSans-63" x="1171.232422"/>
     <use xlink:href="#DejaVuSans-6c" x="1226.212891"/>
     <use xlink:href="#DejaVuSans-69" x="1253.996094"/>
     <use xlink:href="#DejaVuSans-63" x="1281.779297"/>
     <use xlink:href="#DejaVuSans-6b" x="1336.759766"/>
     <use xlink:href="#DejaVuSans-20" x="1394.669922"/>
     <use xlink:href="#DejaVuSans-2d" x="1426.457031"/>
     <use xlink:href="#DejaVuSans-20" x="1462.541016"/>
     <use xlink:href="#DejaVuSans-64" x="1494.328125"/>
     <use xlink:href="#DejaVuSans-61" x="1557.804688"/>
     <use xlink:href="#DejaVuSans-74" x="1619.083984"/>
     <use xlink:href="#DejaVuSans-61" x="1658.292969"/>
     <use xlink:href="#DejaVuSans-20" x="1719.572266"/>
     <use xlink:href="#DejaVuSans-63" x="1751.359375"/>
     <use xlink:href="#DejaVuSans-75" x="1806.339844"/>
     <use xlink:href="#DejaVuSans-72" x="1869.71875"/>
     <use xlink:href="#DejaVuSans-73" x="1910.832031"/>
     <use xlink:href="#DejaVuSans-6f" x="1962.931641"/>
     <use xlink:href="#DejaVuSans-72" x="2024.113281"/>
    </g>
   </g>
  </g>
  <g id="axes_2">
   <g id="patch_8">
    <path d="M 406.791818 320.126528 
L 702.9 320.126528 
L 702.9 26.18112 
L 406.791818 26.18112 
z
" style="fill: #ffffff"/>
   </g>
   <g id="matplotlib.axis_3">
    <g id="xtick_10">
     <g id="line2d_22">
      <g>
       <use xlink:href="#m0d7190bf06" x="406.791818" y="320.126528" style="stroke: #000000; stroke-width: 0.8"/>
      </g>
     </g>
     <g id="text_24">
      <!-- 0 -->
      <g transform="translate(403.610568 334.724965) scale(0.1 -0.1)">
       <use xlink:href="#DejaVuSans-30"/>
      </g>
     </g>
    </g>
    <g id="xtick_11">
     <g id="line2d_23">
      <g>
       <use xlink:href="#m0d7190bf06" x="456.143182" y="320.126528" style="stroke: #000000; stroke-width: 0.8"/>
      </g>
     </g>
     <g id="text_25">
      <!-- 5 -->
      <g transform="translate(452.961932 334.724965) scale(0.1 -0.1)">
       <use xlink:href="#DejaVuSans-35"/>
      </g>
     </g>
    </g>
    <g id="xtick_12">
     <g id="line2d_24">
      <g>
       <use xlink:href="#m0d7190bf06" x="505.494545" y="320.126528" style="stroke: #000000; stroke-width: 0.8"/>
      </g>
     </g>
     <g id="text_26">
      <!-- 10 -->
      <g transform="translate(499.132045 334.724965) scale(0.1 -0.1)">
       <use xlink:href="#DejaVuSans-31"/>
       <use xlink:href="#DejaVuSans-30" x="63.623047"/>
      </g>
     </g>
    </g>
    <g id="xtick_13">
     <g id="line2d_25">
      <g>
       <use xlink:href="#m0d7190bf06" x="554.845909" y="320.126528" style="stroke: #000000; stroke-width: 0.8"/>
      </g>
     </g>
     <g id="text_27">
      <!-- 15 -->
      <g transform="translate(548.483409 334.724965) scale(0.1 -0.1)">
       <use xlink:href="#DejaVuSans-31"/>
       <use xlink:href="#DejaVuSans-35" x="63.623047"/>
      </g>
     </g>
    </g>
    <g id="xtick_14">
     <g id="line2d_26">
      <g>
       <use xlink:href="#m0d7190bf06" x="604.197273" y="320.126528" style="stroke: #000000; stroke-width: 0.8"/>
      </g>
     </g>
     <g id="text_28">
      <!-- 20 -->
      <g transform="translate(597.834773 334.724965) scale(0.1 -0.1)">
       <use xlink:href="#DejaVuSans-32"/>
       <use xlink:href="#DejaVuSans-30" x="63.623047"/>
      </g>
     </g>
    </g>
    <g id="xtick_15">
     <g id="line2d_27">
      <g>
       <use xlink:href="#m0d7190bf06" x="653.548636" y="320.126528" style="stroke: #000000; stroke-width: 0.8"/>
      </g>
     </g>
     <g id="text_29">
      <!-- 25 -->
      <g transform="translate(647.186136 334.724965) scale(0.1 -0.1)">
       <use xlink:href="#DejaVuSans-32"/>
       <use xlink:href="#DejaVuSans-35" x="63.623047"/>
      </g>
     </g>
    </g>
    <g id="xtick_16">
     <g id="line2d_28">
      <g>
       <use xlink:href="#m0d7190bf06" x="702.9" y="320.126528" style="stroke: #000000; stroke-width: 0.8"/>
      </g>
     </g>
     <g id="text_30">
      <!-- 30 -->
      <g transform="translate(696.5375 334.724965) scale(0.1 -0.1)">
       <use xlink:href="#DejaVuSans-33"/>
       <use xlink:href="#DejaVuSans-30" x="63.623047"/>
      </g>
     </g>
    </g>
    <g id="text_31">
     <!-- t [s] -->
     <g transform="translate(544.79044 348.403091) scale(0.1 -0.1)">
      <use xlink:href="#DejaVuSans-74"/>
      <use xlink:href="#DejaVuSans-20" x="39.208984"/>
      <use xlink:href="#DejaVuSans-5b" x="70.996094"/>
      <use xlink:href="#DejaVuSans-73" x="110.009766"/>
      <use xlink:href="#DejaVuSans-5d" x="162.109375"/>
     </g>
    </g>
   </g>
   <g id="matplotlib.axis_4">
    <g id="ytick_10">
     <g id="line2d_29">
      <g>
       <use xlink:href="#m6e2158b0bd" x="406.791818" y="306.765373" style="stroke: #000000; stroke-width: 0.8"/>
      </g>
     </g>
     <g id="text_32">
      <!-- −20 -->
      <g transform="translate(378.687131 310.564592) scale(0.1 -0.1)">
       <use xlink:href="#DejaVuSans-2212"/>
       <use xlink:href="#DejaVuSans-32" x="83.789062"/>
       <use xlink:href="#DejaVuSans-30" x="147.412109"/>
      </g>
     </g>
    </g>
    <g id="ytick_11">
     <g id="line2d_30">
      <g>
       <use xlink:href="#m6e2158b0bd" x="406.791818" y="273.362486" style="stroke: #000000; stroke-width: 0.8"/>
      </g>
     </g>
     <g id="text_33">
      <!-- −15 -->
      <g transform="translate(378.687131 277.161705) scale(0.1 -0.1)">
       <use xlink:href="#DejaVuSans-2212"/>
       <use xlink:href="#DejaVuSans-31" x="83.789062"/>
       <use xlink:href="#DejaVuSans-35" x="147.412109"/>
      </g>
     </g>
    </g>
    <g id="ytick_12">
     <g id="line2d_31">
      <g>
       <use xlink:href="#m6e2158b0bd" x="406.791818" y="239.959599" style="stroke: #000000; stroke-width: 0.8"/>
      </g>
     </g>
     <g id="text_34">
      <!-- −10 -->
      <g transform="translate(378.687131 243.758817) scale(0.1 -0.1)">
       <use xlink:href="#DejaVuSans-2212"/>
       <use xlink:href="#DejaVuSans-31" x="83.789062"/>
       <use xlink:href="#DejaVuSans-30" x="147.412109"/>
      </g>
     </g>
    </g>
    <g id="ytick_13">
     <g id="line2d_32">
      <g>
       <use xlink:href="#m6e2158b0bd" x="406.791818" y="206.556711" style="stroke: #000000; stroke-width: 0.8"/>
      </g>
     </g>
     <g id="text_35">
      <!-- −5 -->
      <g transform="translate(385.049631 210.35593) scale(0.1 -0.1)">
       <use xlink:href="#DejaVuSans-2212"/>
       <use xlink:href="#DejaVuSans-35" x="83.789062"/>
      </g>
     </g>
    </g>
    <g id="ytick_14">
     <g id="line2d_33">
      <g>
       <use xlink:href="#m6e2158b0bd" x="406.791818" y="173.153824" style="stroke: #000000; stroke-width: 0.8"/>
      </g>
     </g>
     <g id="text_36">
      <!-- 0 -->
      <g transform="translate(393.429318 176.953043) scale(0.1 -0.1)">
       <use xlink:href="#DejaVuSans-30"/>
      </g>
     </g>
    </g>
    <g id="ytick_15">
     <g id="line2d_34">
      <g>
       <use xlink:href="#m6e2158b0bd" x="406.791818" y="139.750937" style="stroke: #000000; stroke-width: 0.8"/>
      </g>
     </g>
     <g id="text_37">
      <!-- 5 -->
      <g transform="translate(393.429318 143.550155) scale(0.1 -0.1)">
       <use xlink:href="#DejaVuSans-35"/>
      </g>
     </g>
    </g>
    <g id="ytick_16">
     <g id="line2d_35">
      <g>
       <use xlink:href="#m6e2158b0bd" x="406.791818" y="106.348049" style="stroke: #000000; stroke-width: 0.8"/>
      </g>
     </g>
     <g id="text_38">
      <!-- 10 -->
      <g transform="translate(387.066818 110.147268) scale(0.1 -0.1)">
       <use xlink:href="#DejaVuSans-31"/>
       <use xlink:href="#DejaVuSans-30" x="63.623047"/>
      </g>
     </g>
    </g>
    <g id="ytick_17">
     <g id="line2d_36">
      <g>
       <use xlink:href="#m6e2158b0bd" x="406.791818" y="72.945162" style="stroke: #000000; stroke-width: 0.8"/>
      </g>
     </g>
     <g id="text_39">
      <!-- 15 -->
      <g transform="translate(387.066818 76.744381) scale(0.1 -0.1)">
       <use xlink:href="#DejaVuSans-31"/>
       <use xlink:href="#DejaVuSans-35" x="63.623047"/>
      </g>
     </g>
    </g>
    <g id="ytick_18">
     <g id="line2d_37">
      <g>
       <use xlink:href="#m6e2158b0bd" x="406.791818" y="39.542275" style="stroke: #000000; stroke-width: 0.8"/>
      </g>
     </g>
     <g id="text_40">
      <!-- 20 -->
      <g transform="translate(387.066818 43.341494) scale(0.1 -0.1)">
       <use xlink:href="#DejaVuSans-32"/>
       <use xlink:href="#DejaVuSans-30" x="63.623047"/>
      </g>
     </g>
    </g>
   </g>
   <g id="line2d_38">
    <path d="M 406.791818 173.153824 
L 702.9 173.153824 
" clip-path="url(#p23a6e15c08)" style="fill: none; stroke-dasharray: 2.775,1.2; stroke-dashoffset: 0; stroke: #000000; stroke-width: 0.75"/>
   </g>
   <g id="line2d_39">
    <path d="M 406.791818 144.810534 
L 406.792805 144.810534 
L 406.802675 144.809589 
L 406.88682 144.800707 
L 407.380333 144.748134 
L 407.873847 144.694747 
L 408.367361 145.187076 
L 408.860874 145.750271 
L 409.354388 146.330266 
L 409.847902 146.924362 
L 410.341415 147.528912 
L 410.834929 148.143681 
L 411.328443 148.767171 
L 411.821956 149.397344 
L 412.31547 150.033599 
L 412.808983 150.675122 
L 413.302497 151.321476 
L 413.796011 151.972096 
L 414.289524 152.626662 
L 414.783038 153.284772 
L 415.276552 153.946183 
L 415.770065 154.610605 
L 416.263579 155.277849 
L 416.757093 155.947704 
L 417.250606 156.620018 
L 417.74412 157.294633 
L 418.237633 157.971423 
L 418.731147 158.650265 
L 419.224661 159.32292 
L 419.718174 159.996655 
L 420.211688 160.615361 
L 420.705202 161.230388 
L 421.198715 161.794878 
L 421.692229 162.356098 
L 422.185743 162.870964 
L 422.679256 163.382837 
L 423.17277 163.852112 
L 423.666283 164.318576 
L 424.159797 164.745874 
L 424.653311 165.170491 
L 425.146824 165.559113 
L 425.640338 165.945162 
L 426.133852 166.29817 
L 426.627365 166.648707 
L 427.120879 166.968962 
L 427.614393 167.286852 
L 428.107906 167.605462 
L 428.60142 167.882055 
L 429.094933 168.154894 
L 429.588447 168.428228 
L 430.081961 168.665111 
L 430.575474 168.898641 
L 431.068988 169.132496 
L 431.562502 169.334928 
L 432.056015 169.534399 
L 432.549529 169.734076 
L 433.043043 169.906762 
L 433.536556 170.076857 
L 434.03007 170.247078 
L 434.523583 170.394185 
L 435.017097 170.539042 
L 435.510611 170.683972 
L 436.004124 170.80916 
L 436.497638 170.932405 
L 436.991152 171.055691 
L 437.484665 171.162144 
L 437.978179 171.266929 
L 438.471693 171.371737 
L 438.965206 171.462212 
L 439.45872 171.551261 
L 439.952233 171.640321 
L 440.445747 171.71719 
L 440.939261 171.792841 
L 441.432774 171.868498 
" clip-path="url(#p23a6e15c08)" style="fill: none; stroke: #0000ff; stroke-width: 0.5; stroke-linecap: square"/>
   </g>
   <g id="line2d_40">
    <path d="M 406.791818 162.665317 
L 406.792805 162.665317 
L 406.802675 162.667042 
L 406.88682 162.683216 
L 407.380333 162.77808 
L 407.873847 162.872945 
L 408.367361 163.204842 
L 408.860874 163.560511 
L 409.354388 163.916179 
L 409.847902 164.197058 
L 410.341415 164.470436 
L 410.834929 164.743814 
L 411.328443 164.970371 
L 411.821956 165.192233 
L 412.31547 165.39593 
L 412.808983 165.597805 
L 413.302497 165.787297 
L 413.796011 165.975546 
L 414.289524 166.155558 
L 414.783038 166.334744 
L 415.276552 166.508957 
L 415.770065 166.682671 
L 416.263579 166.854069 
L 416.757093 167.025234 
L 417.250606 167.196334 
L 417.74412 167.367429 
L 418.237633 167.540479 
L 418.731147 167.713725 
L 419.224661 167.890869 
L 419.718174 168.068404 
L 420.211688 168.251105 
L 420.705202 168.434324 
L 421.198715 168.61937 
L 421.692229 168.804599 
L 422.185743 168.988632 
L 422.679256 169.172544 
L 423.17277 169.352852 
L 423.666283 169.532799 
L 424.159797 169.707262 
L 424.653311 169.881176 
L 425.146824 170.048175 
L 425.640338 170.214482 
L 426.133852 170.372823 
L 426.627365 170.530366 
L 427.120879 170.679214 
L 427.614393 170.82719 
L 428.107906 170.975165 
L 428.60142 171.109469 
L 429.094933 171.242402 
L 429.588447 171.375335 
L 430.081961 171.493974 
L 430.575474 171.611181 
L 431.068988 171.728387 
L 431.562502 171.83132 
L 432.056015 171.932822 
L 432.549529 172.034324 
L 433.043043 172.122099 
L 433.536556 172.208498 
L 434.03007 172.294897 
L 434.523583 172.368482 
L 435.017097 172.440782 
L 435.510611 172.513082 
L 436.004124 172.573712 
L 436.497638 172.633172 
L 436.991152 172.692632 
L 437.484665 172.74169 
L 437.978179 172.789706 
L 438.471693 172.837721 
L 438.965206 172.876644 
L 439.45872 172.914655 
L 439.952233 172.952666 
L 440.445747 172.982874 
L 440.939261 173.012299 
L 441.432774 173.041725 
" clip-path="url(#p23a6e15c08)" style="fill: none; stroke: #ff0000; stroke-width: 0.5; stroke-linecap: square"/>
   </g>
   <g id="patch_9">
    <path d="M 406.791818 320.126528 
L 406.791818 26.18112 
" style="fill: none; stroke: #000000; stroke-width: 0.8; stroke-linejoin: miter; stroke-linecap: square"/>
   </g>
   <g id="patch_10">
    <path d="M 702.9 320.126528 
L 702.9 26.18112 
" style="fill: none; stroke: #000000; stroke-width: 0.8; stroke-linejoin: miter; stroke-linecap: square"/>
   </g>
   <g id="patch_11">
    <path d="M 406.791818 320.126528 
L 702.9 320.126528 
" style="fill: none; stroke: #000000; stroke-width: 0.8; stroke-linejoin: miter; stroke-linecap: square"/>
   </g>
   <g id="patch_12">
    <path d="M 406.791818 26.18112 
L 702.9 26.18112 
" style="fill: none; stroke: #000000; stroke-width: 0.8; stroke-linejoin: miter; stroke-linecap: square"/>
   </g>
   <g id="legend_1">
    <g id="patch_13">
     <path d="M 608.4 63.959245 
L 695.9 63.959245 
Q 697.9 63.959245 697.9 61.959245 
L 697.9 33.18112 
Q 697.9 31.18112 695.9 31.18112 
L 608.4 31.18112 
Q 606.4 31.18112 606.4 33.18112 
L 606.4 61.959245 
Q 606.4 63.959245 608.4 63.959245 
z
" style="fill: #ffffff; opacity: 0.8; stroke: #cccccc; stroke-linejoin: miter"/>
    </g>
    <g id="line2d_41">
     <path d="M 610.4 39.38112 
L 620.4 39.38112 
L 630.4 39.38112 
" style="fill: none; stroke: #0000ff; stroke-width: 0.5; stroke-linecap: square"/>
    </g>
    <g id="text_41">
     <!-- $\Vert(x,y)\Vert$ [m] -->
     <g transform="translate(638.4 42.88112) scale(0.1 -0.1)">
      <defs>
       <path id="DejaVuSans-2016" d="M 1344 4891 
L 1344 -1509 
L 813 -1509 
L 813 4891 
L 1344 4891 
z
M 2376 4891 
L 2376 -1509 
L 1845 -1509 
L 1845 4891 
L 2376 4891 
z
" transform="scale(0.015625)"/>
       <path id="DejaVuSans-28" d="M 1984 4856 
Q 1566 4138 1362 3434 
Q 1159 2731 1159 2009 
Q 1159 1288 1364 580 
Q 1569 -128 1984 -844 
L 1484 -844 
Q 1016 -109 783 600 
Q 550 1309 550 2009 
Q 550 2706 781 3412 
Q 1013 4119 1484 4856 
L 1984 4856 
z
" transform="scale(0.015625)"/>
       <path id="DejaVuSans-Oblique-78" d="M 3841 3500 
L 2234 1784 
L 3219 0 
L 2559 0 
L 1819 1388 
L 531 0 
L -166 0 
L 1556 1844 
L 641 3500 
L 1300 3500 
L 1972 2234 
L 3144 3500 
L 3841 3500 
z
" transform="scale(0.015625)"/>
       <path id="DejaVuSans-Oblique-79" d="M 1588 -325 
Q 1188 -997 936 -1164 
Q 684 -1331 294 -1331 
L -159 -1331 
L -63 -850 
L 269 -850 
Q 509 -850 678 -719 
Q 847 -588 1056 -206 
L 1234 128 
L 459 3500 
L 1069 3500 
L 1650 819 
L 3256 3500 
L 3859 3500 
L 1588 -325 
z
" transform="scale(0.015625)"/>
       <path id="DejaVuSans-29" d="M 513 4856 
L 1013 4856 
Q 1481 4119 1714 3412 
Q 1947 2706 1947 2009 
Q 1947 1309 1714 600 
Q 1481 -109 1013 -844 
L 513 -844 
Q 928 -128 1133 580 
Q 1338 1288 1338 2009 
Q 1338 2731 1133 3434 
Q 928 4138 513 4856 
z
" transform="scale(0.015625)"/>
      </defs>
      <use xlink:href="#DejaVuSans-2016" transform="translate(0 0.578125)"/>
      <use xlink:href="#DejaVuSans-28" transform="translate(50 0.578125)"/>
      <use xlink:href="#DejaVuSans-Oblique-78" transform="translate(89.013672 0.578125)"/>
      <use xlink:href="#DejaVuSans-2c" transform="translate(148.193359 0.578125)"/>
      <use xlink:href="#DejaVuSans-Oblique-79" transform="translate(199.462891 0.578125)"/>
      <use xlink:href="#DejaVuSans-29" transform="translate(258.642578 0.578125)"/>
      <use xlink:href="#DejaVuSans-2016" transform="translate(297.65625 0.578125)"/>
      <use xlink:href="#DejaVuSans-20" transform="translate(347.65625 0.578125)"/>
      <use xlink:href="#DejaVuSans-5b" transform="translate(379.443359 0.578125)"/>
      <use xlink:href="#DejaVuSans-6d" transform="translate(418.457031 0.578125)"/>
      <use xlink:href="#DejaVuSans-5d" transform="translate(515.869141 0.578125)"/>
     </g>
    </g>
    <g id="line2d_42">
     <path d="M 610.4 54.379558 
L 620.4 54.379558 
L 630.4 54.379558 
" style="fill: none; stroke: #ff0000; stroke-width: 0.5; stroke-linecap: square"/>
    </g>
    <g id="text_42">
     <!-- $\alpha$ [rad] -->
     <g transform="translate(638.4 57.879558) scale(0.1 -0.1)">
      <defs>
       <path id="DejaVuSans-Oblique-3b1" d="M 2619 1628 
L 2622 2350 
Q 2625 3088 2069 3091 
Q 1653 3094 1394 2747 
Q 1069 2319 959 1747 
Q 825 1059 994 731 
Q 1169 397 1547 397 
Q 1966 397 2319 1063 
L 2619 1628 
z
M 2166 3578 
Q 3141 3594 3128 2584 
Q 3128 2584 3616 3500 
L 4128 3500 
L 3119 1603 
L 3109 919 
Q 3109 766 3194 638 
Q 3291 488 3391 488 
L 3669 488 
L 3575 0 
L 3228 0 
Q 2934 0 2722 263 
Q 2622 394 2619 669 
Q 2416 334 2066 50 
Q 1900 -81 1453 -78 
Q 722 -72 456 397 
Q 184 884 353 1747 
Q 534 2675 1009 3097 
Q 1544 3569 2166 3578 
z
" transform="scale(0.015625)"/>
      </defs>
      <use xlink:href="#DejaVuSans-Oblique-3b1" transform="translate(0 0.015625)"/>
      <use xlink:href="#DejaVuSans-20" transform="translate(65.917969 0.015625)"/>
      <use xlink:href="#DejaVuSans-5b" transform="translate(97.705078 0.015625)"/>
      <use xlink:href="#DejaVuSans-72" transform="translate(136.71875 0.015625)"/>
      <use xlink:href="#DejaVuSans-61" transform="translate(177.832031 0.015625)"/>
      <use xlink:href="#DejaVuSans-64" transform="translate(239.111328 0.015625)"/>
      <use xlink:href="#DejaVuSans-5d" transform="translate(302.587891 0.015625)"/>
     </g>
    </g>
   </g>
  </g>
  <g id="axes_3">
   <g id="patch_14">
    <path d="M 61.571818 660.41096 
L 357.68 660.41096 
L 357.68 366.465552 
L 61.571818 366.465552 
z
" style="fill: #ffffff"/>
   </g>
   <g id="matplotlib.axis_5">
    <g id="xtick_17">
     <g id="line2d_43">
      <g>
       <use xlink:href="#m0d7190bf06" x="61.571818" y="660.41096" style="stroke: #000000; stroke-width: 0.8"/>
      </g>
     </g>
     <g id="text_43">
      <!-- 0 -->
      <g transform="translate(58.390568 675.009398) scale(0.1 -0.1)">
       <use xlink:href="#DejaVuSans-30"/>
      </g>
     </g>
    </g>
    <g id="xtick_18">
     <g id="line2d_44">
      <g>
       <use xlink:href="#m0d7190bf06" x="110.923182" y="660.41096" style="stroke: #000000; stroke-width: 0.8"/>
      </g>
     </g>
     <g id="text_44">
      <!-- 5 -->
      <g transform="translate(107.741932 675.009398) scale(0.1 -0.1)">
       <use xlink:href="#DejaVuSans-35"/>
      </g>
     </g>
    </g>
    <g id="xtick_19">
     <g id="line2d_45">
      <g>
       <use xlink:href="#m0d7190bf06" x="160.274545" y="660.41096" style="stroke: #000000; stroke-width: 0.8"/>
      </g>
     </g>
     <g id="text_45">
      <!-- 10 -->
      <g transform="translate(153.912045 675.009398) scale(0.1 -0.1)">
       <use xlink:href="#DejaVuSans-31"/>
       <use xlink:href="#DejaVuSans-30" x="63.623047"/>
      </g>
     </g>
    </g>
    <g id="xtick_20">
     <g id="line2d_46">
      <g>
       <use xlink:href="#m0d7190bf06" x="209.625909" y="660.41096" style="stroke: #000000; stroke-width: 0.8"/>
      </g>
     </g>
     <g id="text_46">
      <!-- 15 -->
      <g transform="translate(203.263409 675.009398) scale(0.1 -0.1)">
       <use xlink:href="#DejaVuSans-31"/>
       <use xlink:href="#DejaVuSans-35" x="63.623047"/>
      </g>
     </g>
    </g>
    <g id="xtick_21">
     <g id="line2d_47">
      <g>
       <use xlink:href="#m0d7190bf06" x="258.977273" y="660.41096" style="stroke: #000000; stroke-width: 0.8"/>
      </g>
     </g>
     <g id="text_47">
      <!-- 20 -->
      <g transform="translate(252.614773 675.009398) scale(0.1 -0.1)">
       <use xlink:href="#DejaVuSans-32"/>
       <use xlink:href="#DejaVuSans-30" x="63.623047"/>
      </g>
     </g>
    </g>
    <g id="xtick_22">
     <g id="line2d_48">
      <g>
       <use xlink:href="#m0d7190bf06" x="308.328636" y="660.41096" style="stroke: #000000; stroke-width: 0.8"/>
      </g>
     </g>
     <g id="text_48">
      <!-- 25 -->
      <g transform="translate(301.966136 675.009398) scale(0.1 -0.1)">
       <use xlink:href="#DejaVuSans-32"/>
       <use xlink:href="#DejaVuSans-35" x="63.623047"/>
      </g>
     </g>
    </g>
    <g id="xtick_23">
     <g id="line2d_49">
      <g>
       <use xlink:href="#m0d7190bf06" x="357.68" y="660.41096" style="stroke: #000000; stroke-width: 0.8"/>
      </g>
     </g>
     <g id="text_49">
      <!-- 30 -->
      <g transform="translate(351.3175 675.009398) scale(0.1 -0.1)">
       <use xlink:href="#DejaVuSans-33"/>
       <use xlink:href="#DejaVuSans-30" x="63.623047"/>
      </g>
     </g>
    </g>
    <g id="text_50">
     <!-- t [s] -->
     <g transform="translate(199.57044 688.687523) scale(0.1 -0.1)">
      <use xlink:href="#DejaVuSans-74"/>
      <use xlink:href="#DejaVuSans-20" x="39.208984"/>
      <use xlink:href="#DejaVuSans-5b" x="70.996094"/>
      <use xlink:href="#DejaVuSans-73" x="110.009766"/>
      <use xlink:href="#DejaVuSans-5d" x="162.109375"/>
     </g>
    </g>
   </g>
   <g id="matplotlib.axis_6">
    <g id="ytick_19">
     <g id="line2d_50">
      <g>
       <use xlink:href="#m6e2158b0bd" x="61.571818" y="660.41096" style="stroke: #000000; stroke-width: 0.8"/>
      </g>
     </g>
     <g id="text_51">
      <!-- $\mathdefault{0}$ -->
      <g transform="translate(48.171818 664.210179) scale(0.1 -0.1)">
       <use xlink:href="#DejaVuSans-30" transform="translate(0 0.78125)"/>
      </g>
     </g>
    </g>
    <g id="ytick_20">
     <g id="line2d_51">
      <g>
       <use xlink:href="#m6e2158b0bd" x="61.571818" y="626.460804" style="stroke: #000000; stroke-width: 0.8"/>
      </g>
     </g>
     <g id="text_52">
      <!-- $\mathdefault{10^{0}}$ -->
      <g transform="translate(36.971818 630.260023) scale(0.1 -0.1)">
       <use xlink:href="#DejaVuSans-31" transform="translate(0 0.765625)"/>
       <use xlink:href="#DejaVuSans-30" transform="translate(63.623047 0.765625)"/>
       <use xlink:href="#DejaVuSans-30" transform="translate(128.203125 39.046875) scale(0.7)"/>
      </g>
     </g>
    </g>
    <g id="ytick_21">
     <g id="line2d_52">
      <g>
       <use xlink:href="#m6e2158b0bd" x="61.571818" y="549.796395" style="stroke: #000000; stroke-width: 0.8"/>
      </g>
     </g>
     <g id="text_53">
      <!-- $\mathdefault{10^{1}}$ -->
      <g transform="translate(36.971818 553.595613) scale(0.1 -0.1)">
       <use xlink:href="#DejaVuSans-31" transform="translate(0 0.684375)"/>
       <use xlink:href="#DejaVuSans-30" transform="translate(63.623047 0.684375)"/>
       <use xlink:href="#DejaVuSans-31" transform="translate(128.203125 38.965625) scale(0.7)"/>
      </g>
     </g>
    </g>
    <g id="ytick_22">
     <g id="line2d_53">
      <g>
       <use xlink:href="#m6e2158b0bd" x="61.571818" y="488.686114" style="stroke: #000000; stroke-width: 0.8"/>
      </g>
     </g>
     <g id="text_54">
      <!-- $\mathdefault{10^{2}}$ -->
      <g transform="translate(36.971818 492.485333) scale(0.1 -0.1)">
       <use xlink:href="#DejaVuSans-31" transform="translate(0 0.765625)"/>
       <use xlink:href="#DejaVuSans-30" transform="translate(63.623047 0.765625)"/>
       <use xlink:href="#DejaVuSans-32" transform="translate(128.203125 39.046875) scale(0.7)"/>
      </g>
     </g>
    </g>
    <g id="ytick_23">
     <g id="line2d_54">
      <g>
       <use xlink:href="#m6e2158b0bd" x="61.571818" y="427.575833" style="stroke: #000000; stroke-width: 0.8"/>
      </g>
     </g>
     <g id="text_55">
      <!-- $\mathdefault{10^{3}}$ -->
      <g transform="translate(36.971818 431.375052) scale(0.1 -0.1)">
       <use xlink:href="#DejaVuSans-31" transform="translate(0 0.765625)"/>
       <use xlink:href="#DejaVuSans-30" transform="translate(63.623047 0.765625)"/>
       <use xlink:href="#DejaVuSans-33" transform="translate(128.203125 39.046875) scale(0.7)"/>
      </g>
     </g>
    </g>
    <g id="ytick_24">
     <g id="line2d_55">
      <g>
       <use xlink:href="#m6e2158b0bd" x="61.571818" y="366.465552" style="stroke: #000000; stroke-width: 0.8"/>
      </g>
     </g>
     <g id="text_56">
      <!-- $\mathdefault{10^{4}}$ -->
      <g transform="translate(36.971818 370.264771) scale(0.1 -0.1)">
       <defs>
        <path id="DejaVuSans-34" d="M 2419 4116 
L 825 1625 
L 2419 1625 
L 2419 4116 
z
M 2253 4666 
L 3047 4666 
L 3047 1625 
L 3713 1625 
L 3713 1100 
L 3047 1100 
L 3047 0 
L 2419 0 
L 2419 1100 
L 313 1100 
L 313 1709 
L 2253 4666 
z
" transform="scale(0.015625)"/>
       </defs>
       <use xlink:href="#DejaVuSans-31" transform="translate(0 0.684375)"/>
       <use xlink:href="#DejaVuSans-30" transform="translate(63.623047 0.684375)"/>
       <use xlink:href="#DejaVuSans-34" transform="translate(128.203125 38.965625) scale(0.7)"/>
      </g>
     </g>
    </g>
   </g>
   <g id="line2d_56">
    <path d="M 61.571818 626.460804 
L 61.572805 626.460804 
L 61.582675 626.460804 
L 61.66682 626.460804 
L 62.160333 626.460804 
L 62.653847 626.460804 
L 63.147361 626.460804 
L 63.640874 626.460804 
L 64.134388 626.460804 
L 64.627902 626.460804 
L 65.121415 626.460804 
L 65.614929 626.460804 
L 66.108443 626.460804 
L 66.601956 626.460804 
L 67.09547 626.460804 
L 67.588983 626.460804 
L 68.082497 626.460804 
L 68.576011 626.460804 
L 69.069524 626.460804 
L 69.563038 626.460804 
L 70.056552 626.460804 
L 70.550065 626.460804 
L 71.043579 626.460804 
L 71.537093 626.460804 
L 72.030606 626.460804 
L 72.52412 626.460804 
L 73.017633 626.460804 
L 73.511147 626.460804 
L 74.004661 626.460804 
L 74.498174 626.460804 
L 74.991688 626.460804 
L 75.485202 626.460804 
L 75.978715 626.460804 
L 76.472229 626.460804 
L 76.965743 626.460804 
L 77.459256 626.460804 
L 77.95277 626.460804 
L 78.446283 626.460804 
L 78.939797 626.460804 
L 79.433311 626.460804 
L 79.926824 626.460804 
L 80.420338 626.460804 
L 80.913852 626.460804 
L 81.407365 626.460804 
L 81.900879 626.460804 
L 82.394393 626.460804 
L 82.887906 626.460804 
L 83.38142 626.460804 
L 83.874933 626.460804 
L 84.368447 626.460804 
L 84.861961 626.460804 
L 85.355474 626.460804 
L 85.848988 626.460804 
L 86.342502 626.460804 
L 86.836015 626.460804 
L 87.329529 626.460804 
L 87.823043 626.460804 
L 88.316556 626.460804 
L 88.81007 626.460804 
L 89.303583 626.460804 
L 89.797097 626.460804 
L 90.290611 626.460804 
L 90.784124 626.460804 
L 91.277638 626.460804 
L 91.771152 626.460804 
L 92.264665 626.460804 
L 92.758179 626.460804 
L 93.251693 626.460804 
L 93.745206 626.460804 
L 94.23872 626.460804 
L 94.732233 626.460804 
L 95.225747 626.460804 
L 95.719261 626.460804 
L 96.212774 626.460804 
" clip-path="url(#p41c7ede57c)" style="fill: none; stroke: #ff0000; stroke-width: 0.5; stroke-linecap: square"/>
   </g>
   <g id="line2d_57">
    <path d="M 61.571818 660.41096 
L 61.572805 657.015944 
L 61.582675 653.620929 
L 61.66682 650.225913 
L 62.160333 646.830898 
L 62.653847 643.435882 
L 63.147361 640.040866 
L 63.640874 636.645851 
L 64.134388 633.250835 
L 64.627902 629.85582 
L 65.121415 626.460804 
L 65.614929 623.065788 
L 66.108443 619.670773 
L 66.601956 616.275757 
L 67.09547 612.880742 
L 67.588983 609.485726 
L 68.082497 606.09071 
L 68.576011 602.695695 
L 69.069524 599.300679 
L 69.563038 595.905664 
L 70.056552 592.510648 
L 70.550065 591.215764 
L 71.043579 589.981129 
L 71.537093 588.801386 
L 72.030606 587.67186 
L 72.52412 586.58845 
L 73.017633 585.547538 
L 73.511147 584.545915 
L 74.004661 583.580723 
L 74.498174 582.649404 
L 74.991688 581.749662 
L 75.485202 580.879424 
L 75.978715 580.036818 
L 76.472229 579.220143 
L 76.965743 578.42785 
L 77.459256 577.658524 
L 77.95277 576.910873 
L 78.446283 576.183709 
L 78.939797 575.475937 
L 79.433311 574.786551 
L 79.926824 574.11462 
L 80.420338 573.459282 
L 80.913852 572.819736 
L 81.407365 572.19524 
L 81.900879 571.585102 
L 82.394393 570.988675 
L 82.887906 570.405358 
L 83.38142 569.834587 
L 83.874933 569.275832 
L 84.368447 568.728599 
L 84.861961 568.192422 
L 85.355474 567.666863 
L 85.848988 567.15151 
L 86.342502 566.645974 
L 86.836015 566.149887 
L 87.329529 565.662904 
L 87.823043 565.184695 
L 88.316556 564.714951 
L 88.81007 564.253376 
L 89.303583 563.799693 
L 89.797097 563.353634 
L 90.290611 562.914949 
L 90.784124 562.483397 
L 91.277638 562.05875 
L 91.771152 561.640791 
L 92.264665 561.229312 
L 92.758179 560.824115 
L 93.251693 560.425012 
L 93.745206 560.031822 
L 94.23872 559.644372 
L 94.732233 559.262497 
L 95.225747 558.886039 
L 95.719261 558.514846 
L 96.212774 558.148773 
" clip-path="url(#p41c7ede57c)" style="fill: none; stroke: #008000; stroke-width: 0.5; stroke-linecap: square"/>
   </g>
   <g id="patch_15">
    <path d="M 61.571818 660.41096 
L 61.571818 366.465552 
" style="fill: none; stroke: #000000; stroke-width: 0.8; stroke-linejoin: miter; stroke-linecap: square"/>
   </g>
   <g id="patch_16">
    <path d="M 357.68 660.41096 
L 357.68 366.465552 
" style="fill: none; stroke: #000000; stroke-width: 0.8; stroke-linejoin: miter; stroke-linecap: square"/>
   </g>
   <g id="patch_17">
    <path d="M 61.571818 660.41096 
L 357.68 660.41096 
" style="fill: none; stroke: #000000; stroke-width: 0.8; stroke-linejoin: miter; stroke-linecap: square"/>
   </g>
   <g id="patch_18">
    <path d="M 61.571818 366.465552 
L 357.68 366.465552 
" style="fill: none; stroke: #000000; stroke-width: 0.8; stroke-linejoin: miter; stroke-linecap: square"/>
   </g>
   <g id="legend_2">
    <g id="patch_19">
     <path d="M 252.58 408.043677 
L 350.68 408.043677 
Q 352.68 408.043677 352.68 406.043677 
L 352.68 373.465552 
Q 352.68 371.465552 350.68 371.465552 
L 252.58 371.465552 
Q 250.58 371.465552 250.58 373.465552 
L 250.58 406.043677 
Q 250.58 408.043677 252.58 408.043677 
z
" style="fill: #ffffff; opacity: 0.8; stroke: #cccccc; stroke-linejoin: miter"/>
    </g>
    <g id="line2d_58">
     <path d="M 254.58 379.56399 
L 264.58 379.56399 
L 274.58 379.56399 
" style="fill: none; stroke: #ff0000; stroke-width: 0.5; stroke-linecap: square"/>
    </g>
    <g id="text_57">
     <!-- Run. obj. -->
     <g transform="translate(282.58 383.06399) scale(0.1 -0.1)">
      <defs>
       <path id="DejaVuSans-52" d="M 2841 2188 
Q 3044 2119 3236 1894 
Q 3428 1669 3622 1275 
L 4263 0 
L 3584 0 
L 2988 1197 
Q 2756 1666 2539 1819 
Q 2322 1972 1947 1972 
L 1259 1972 
L 1259 0 
L 628 0 
L 628 4666 
L 2053 4666 
Q 2853 4666 3247 4331 
Q 3641 3997 3641 3322 
Q 3641 2881 3436 2590 
Q 3231 2300 2841 2188 
z
M 1259 4147 
L 1259 2491 
L 2053 2491 
Q 2509 2491 2742 2702 
Q 2975 2913 2975 3322 
Q 2975 3731 2742 3939 
Q 2509 4147 2053 4147 
L 1259 4147 
z
" transform="scale(0.015625)"/>
       <path id="DejaVuSans-6e" d="M 3513 2113 
L 3513 0 
L 2938 0 
L 2938 2094 
Q 2938 2591 2744 2837 
Q 2550 3084 2163 3084 
Q 1697 3084 1428 2787 
Q 1159 2491 1159 1978 
L 1159 0 
L 581 0 
L 581 3500 
L 1159 3500 
L 1159 2956 
Q 1366 3272 1645 3428 
Q 1925 3584 2291 3584 
Q 2894 3584 3203 3211 
Q 3513 2838 3513 2113 
z
" transform="scale(0.015625)"/>
       <path id="DejaVuSans-62" d="M 3116 1747 
Q 3116 2381 2855 2742 
Q 2594 3103 2138 3103 
Q 1681 3103 1420 2742 
Q 1159 2381 1159 1747 
Q 1159 1113 1420 752 
Q 1681 391 2138 391 
Q 2594 391 2855 752 
Q 3116 1113 3116 1747 
z
M 1159 2969 
Q 1341 3281 1617 3432 
Q 1894 3584 2278 3584 
Q 2916 3584 3314 3078 
Q 3713 2572 3713 1747 
Q 3713 922 3314 415 
Q 2916 -91 2278 -91 
Q 1894 -91 1617 61 
Q 1341 213 1159 525 
L 1159 0 
L 581 0 
L 581 4863 
L 1159 4863 
L 1159 2969 
z
" transform="scale(0.015625)"/>
       <path id="DejaVuSans-6a" d="M 603 3500 
L 1178 3500 
L 1178 -63 
Q 1178 -731 923 -1031 
Q 669 -1331 103 -1331 
L -116 -1331 
L -116 -844 
L 38 -844 
Q 366 -844 484 -692 
Q 603 -541 603 -63 
L 603 3500 
z
M 603 4863 
L 1178 4863 
L 1178 4134 
L 603 4134 
L 603 4863 
z
" transform="scale(0.015625)"/>
      </defs>
      <use xlink:href="#DejaVuSans-52"/>
      <use xlink:href="#DejaVuSans-75" x="64.982422"/>
      <use xlink:href="#DejaVuSans-6e" x="128.361328"/>
      <use xlink:href="#DejaVuSans-2e" x="191.740234"/>
      <use xlink:href="#DejaVuSans-20" x="223.527344"/>
      <use xlink:href="#DejaVuSans-6f" x="255.314453"/>
      <use xlink:href="#DejaVuSans-62" x="316.496094"/>
      <use xlink:href="#DejaVuSans-6a" x="379.972656"/>
      <use xlink:href="#DejaVuSans-2e" x="407.755859"/>
     </g>
    </g>
    <g id="line2d_59">
     <path d="M 254.58 397.443677 
L 264.58 397.443677 
L 274.58 397.443677 
" style="fill: none; stroke: #008000; stroke-width: 0.5; stroke-linecap: square"/>
    </g>
    <g id="text_58">
     <!-- $\int \mathrm{Run.\,obj.} \,\mathrm{d}t$ -->
     <g transform="translate(282.58 400.943677) scale(0.1 -0.1)">
      <defs>
       <path id="DejaVuSansDisplay-222b" d="M 2134 5525 
Q 2172 6263 2528 6556 
Q 2884 6850 3218 6850 
Q 3553 6850 3833 6575 
Q 4113 6300 4200 5678 
L 3544 5613 
Q 3469 6188 3219 6188 
Q 2906 6188 2869 5413 
L 2581 -597 
Q 2547 -1334 2187 -1628 
Q 1828 -1922 1497 -1922 
Q 1163 -1922 883 -1647 
Q 603 -1372 516 -750 
L 1172 -684 
Q 1247 -1259 1497 -1259 
Q 1809 -1259 1847 -488 
L 2134 5525 
z
" transform="scale(0.015625)"/>
       <path id="DejaVuSans-Oblique-74" d="M 2706 3500 
L 2619 3053 
L 1472 3053 
L 1100 1153 
Q 1081 1047 1072 975 
Q 1063 903 1063 863 
Q 1063 663 1183 572 
Q 1303 481 1569 481 
L 2150 481 
L 2053 0 
L 1503 0 
Q 991 0 739 200 
Q 488 400 488 806 
Q 488 878 497 964 
Q 506 1050 525 1153 
L 897 3053 
L 409 3053 
L 500 3500 
L 978 3500 
L 1172 4494 
L 1747 4494 
L 1556 3500 
L 2706 3500 
z
" transform="scale(0.015625)"/>
      </defs>
      <use xlink:href="#DejaVuSansDisplay-222b" transform="translate(0 0.96875)"/>
      <use xlink:href="#DejaVuSans-52" transform="translate(73.632812 0.96875)"/>
      <use xlink:href="#DejaVuSans-75" transform="translate(143.115234 0.96875)"/>
      <use xlink:href="#DejaVuSans-6e" transform="translate(206.494141 0.96875)"/>
      <use xlink:href="#DejaVuSans-2e" transform="translate(269.873047 0.96875)"/>
      <use xlink:href="#DejaVuSans-6f" transform="translate(337.378254 0.96875)"/>
      <use xlink:href="#DejaVuSans-62" transform="translate(398.559895 0.96875)"/>
      <use xlink:href="#DejaVuSans-6a" transform="translate(462.036458 0.96875)"/>
      <use xlink:href="#DejaVuSans-2e" transform="translate(489.819661 0.96875)"/>
      <use xlink:href="#DejaVuSans-64" transform="translate(557.324868 0.96875)"/>
      <use xlink:href="#DejaVuSans-Oblique-74" transform="translate(620.801431 0.96875)"/>
     </g>
    </g>
   </g>
  </g>
  <g id="axes_4">
   <g id="patch_20">
    <path d="M 406.791818 660.41096 
L 702.9 660.41096 
L 702.9 366.465552 
L 406.791818 366.465552 
z
" style="fill: #ffffff"/>
   </g>
   <g id="matplotlib.axis_7">
    <g id="xtick_24">
     <g id="line2d_60">
      <g>
       <use xlink:href="#m0d7190bf06" x="406.791818" y="660.41096" style="stroke: #000000; stroke-width: 0.8"/>
      </g>
     </g>
     <g id="text_59">
      <!-- 0 -->
      <g transform="translate(403.610568 675.009398) scale(0.1 -0.1)">
       <use xlink:href="#DejaVuSans-30"/>
      </g>
     </g>
    </g>
    <g id="xtick_25">
     <g id="line2d_61">
      <g>
       <use xlink:href="#m0d7190bf06" x="456.143182" y="660.41096" style="stroke: #000000; stroke-width: 0.8"/>
      </g>
     </g>
     <g id="text_60">
      <!-- 5 -->
      <g transform="translate(452.961932 675.009398) scale(0.1 -0.1)">
       <use xlink:href="#DejaVuSans-35"/>
      </g>
     </g>
    </g>
    <g id="xtick_26">
     <g id="line2d_62">
      <g>
       <use xlink:href="#m0d7190bf06" x="505.494545" y="660.41096" style="stroke: #000000; stroke-width: 0.8"/>
      </g>
     </g>
     <g id="text_61">
      <!-- 10 -->
      <g transform="translate(499.132045 675.009398) scale(0.1 -0.1)">
       <use xlink:href="#DejaVuSans-31"/>
       <use xlink:href="#DejaVuSans-30" x="63.623047"/>
      </g>
     </g>
    </g>
    <g id="xtick_27">
     <g id="line2d_63">
      <g>
       <use xlink:href="#m0d7190bf06" x="554.845909" y="660.41096" style="stroke: #000000; stroke-width: 0.8"/>
      </g>
     </g>
     <g id="text_62">
      <!-- 15 -->
      <g transform="translate(548.483409 675.009398) scale(0.1 -0.1)">
       <use xlink:href="#DejaVuSans-31"/>
       <use xlink:href="#DejaVuSans-35" x="63.623047"/>
      </g>
     </g>
    </g>
    <g id="xtick_28">
     <g id="line2d_64">
      <g>
       <use xlink:href="#m0d7190bf06" x="604.197273" y="660.41096" style="stroke: #000000; stroke-width: 0.8"/>
      </g>
     </g>
     <g id="text_63">
      <!-- 20 -->
      <g transform="translate(597.834773 675.009398) scale(0.1 -0.1)">
       <use xlink:href="#DejaVuSans-32"/>
       <use xlink:href="#DejaVuSans-30" x="63.623047"/>
      </g>
     </g>
    </g>
    <g id="xtick_29">
     <g id="line2d_65">
      <g>
       <use xlink:href="#m0d7190bf06" x="653.548636" y="660.41096" style="stroke: #000000; stroke-width: 0.8"/>
      </g>
     </g>
     <g id="text_64">
      <!-- 25 -->
      <g transform="translate(647.186136 675.009398) scale(0.1 -0.1)">
       <use xlink:href="#DejaVuSans-32"/>
       <use xlink:href="#DejaVuSans-35" x="63.623047"/>
      </g>
     </g>
    </g>
    <g id="xtick_30">
     <g id="line2d_66">
      <g>
       <use xlink:href="#m0d7190bf06" x="702.9" y="660.41096" style="stroke: #000000; stroke-width: 0.8"/>
      </g>
     </g>
     <g id="text_65">
      <!-- 30 -->
      <g transform="translate(696.5375 675.009398) scale(0.1 -0.1)">
       <use xlink:href="#DejaVuSans-33"/>
       <use xlink:href="#DejaVuSans-30" x="63.623047"/>
      </g>
     </g>
    </g>
    <g id="text_66">
     <!-- t [s] -->
     <g transform="translate(544.79044 688.687523) scale(0.1 -0.1)">
      <use xlink:href="#DejaVuSans-74"/>
      <use xlink:href="#DejaVuSans-20" x="39.208984"/>
      <use xlink:href="#DejaVuSans-5b" x="70.996094"/>
      <use xlink:href="#DejaVuSans-73" x="110.009766"/>
      <use xlink:href="#DejaVuSans-5d" x="162.109375"/>
     </g>
    </g>
   </g>
   <g id="matplotlib.axis_8">
    <g id="ytick_25">
     <g id="line2d_67">
      <g>
       <use xlink:href="#m6e2158b0bd" x="406.791818" y="654.577216" style="stroke: #000000; stroke-width: 0.8"/>
      </g>
     </g>
     <g id="text_67">
      <!-- −3 -->
      <g transform="translate(385.049631 658.376435) scale(0.1 -0.1)">
       <use xlink:href="#DejaVuSans-2212"/>
       <use xlink:href="#DejaVuSans-33" x="83.789062"/>
      </g>
     </g>
    </g>
    <g id="ytick_26">
     <g id="line2d_68">
      <g>
       <use xlink:href="#m6e2158b0bd" x="406.791818" y="607.530896" style="stroke: #000000; stroke-width: 0.8"/>
      </g>
     </g>
     <g id="text_68">
      <!-- −2 -->
      <g transform="translate(385.049631 611.330115) scale(0.1 -0.1)">
       <use xlink:href="#DejaVuSans-2212"/>
       <use xlink:href="#DejaVuSans-32" x="83.789062"/>
      </g>
     </g>
    </g>
    <g id="ytick_27">
     <g id="line2d_69">
      <g>
       <use xlink:href="#m6e2158b0bd" x="406.791818" y="560.484576" style="stroke: #000000; stroke-width: 0.8"/>
      </g>
     </g>
     <g id="text_69">
      <!-- −1 -->
      <g transform="translate(385.049631 564.283795) scale(0.1 -0.1)">
       <use xlink:href="#DejaVuSans-2212"/>
       <use xlink:href="#DejaVuSans-31" x="83.789062"/>
      </g>
     </g>
    </g>
    <g id="ytick_28">
     <g id="line2d_70">
      <g>
       <use xlink:href="#m6e2158b0bd" x="406.791818" y="513.438256" style="stroke: #000000; stroke-width: 0.8"/>
      </g>
     </g>
     <g id="text_70">
      <!-- 0 -->
      <g transform="translate(393.429318 517.237475) scale(0.1 -0.1)">
       <use xlink:href="#DejaVuSans-30"/>
      </g>
     </g>
    </g>
    <g id="ytick_29">
     <g id="line2d_71">
      <g>
       <use xlink:href="#m6e2158b0bd" x="406.791818" y="466.391936" style="stroke: #000000; stroke-width: 0.8"/>
      </g>
     </g>
     <g id="text_71">
      <!-- 1 -->
      <g transform="translate(393.429318 470.191155) scale(0.1 -0.1)">
       <use xlink:href="#DejaVuSans-31"/>
      </g>
     </g>
    </g>
    <g id="ytick_30">
     <g id="line2d_72">
      <g>
       <use xlink:href="#m6e2158b0bd" x="406.791818" y="419.345616" style="stroke: #000000; stroke-width: 0.8"/>
      </g>
     </g>
     <g id="text_72">
      <!-- 2 -->
      <g transform="translate(393.429318 423.144835) scale(0.1 -0.1)">
       <use xlink:href="#DejaVuSans-32"/>
      </g>
     </g>
    </g>
    <g id="ytick_31">
     <g id="line2d_73">
      <g>
       <use xlink:href="#m6e2158b0bd" x="406.791818" y="372.299296" style="stroke: #000000; stroke-width: 0.8"/>
      </g>
     </g>
     <g id="text_73">
      <!-- 3 -->
      <g transform="translate(393.429318 376.098514) scale(0.1 -0.1)">
       <use xlink:href="#DejaVuSans-33"/>
      </g>
     </g>
    </g>
   </g>
   <g id="line2d_74">
    <path d="M 406.791818 513.438256 
L 702.9 513.438256 
" clip-path="url(#p4265958ab2)" style="fill: none; stroke-dasharray: 2.775,1.2; stroke-dashoffset: 0; stroke: #000000; stroke-width: 0.75"/>
   </g>
   <g id="line2d_75">
    <path d="M 406.791818 513.438256 
L 406.792805 523.788446 
L 406.802675 523.788446 
L 406.88682 523.788446 
L 407.380333 523.788446 
L 407.873847 313.02222 
L 408.367361 409.936352 
L 408.860874 409.936352 
L 409.354388 324.539964 
L 409.847902 409.936352 
L 410.341415 409.936352 
L 410.834929 337.310489 
L 411.328443 409.936352 
L 411.821956 346.139099 
L 412.31547 409.936352 
L 412.808983 355.137536 
L 413.302497 409.936352 
L 413.796011 364.271155 
L 414.289524 409.936352 
L 414.783038 373.515352 
L 415.276552 409.936352 
L 415.770065 382.852203 
L 416.263579 409.936352 
L 416.757093 392.268398 
L 417.250606 409.936352 
L 417.74412 401.753816 
L 418.237633 409.936352 
L 418.731147 411.300517 
L 419.224661 411.300517 
L 419.718174 420.782137 
L 420.211688 420.782137 
L 420.705202 429.470394 
L 421.198715 429.470394 
L 421.692229 437.397931 
L 422.185743 437.397931 
L 422.679256 444.628486 
L 423.17277 444.628486 
L 423.666283 451.218202 
L 424.159797 451.218202 
L 424.653311 457.217602 
L 425.146824 457.217602 
L 425.640338 462.673034 
L 426.133852 462.673034 
L 426.627365 467.62757 
L 427.120879 467.62757 
L 427.614393 467.62757 
L 428.107906 474.365281 
L 428.60142 474.365281 
L 429.094933 474.365281 
L 429.588447 480.159408 
L 430.081961 480.159408 
L 430.575474 480.159408 
L 431.068988 485.119045 
L 431.562502 485.119045 
L 432.056015 485.119045 
L 432.549529 489.355526 
L 433.043043 489.355526 
L 433.536556 489.355526 
L 434.03007 492.968211 
L 434.523583 492.968211 
L 435.017097 492.968211 
L 435.510611 496.044935 
L 436.004124 496.044935 
L 436.497638 496.044935 
L 436.991152 498.662672 
L 437.484665 498.662672 
L 437.978179 498.662672 
L 438.471693 500.888349 
L 438.965206 500.888349 
L 439.45872 500.888349 
L 439.952233 502.779783 
L 440.445747 502.779783 
L 440.939261 502.779783 
L 441.432774 504.386665 
" clip-path="url(#p4265958ab2)" style="fill: none; stroke: #1f77b4; stroke-width: 0.5; stroke-linecap: square"/>
   </g>
   <g id="line2d_76">
    <path d="M 406.791818 513.438256 
L 406.792805 526.799411 
L 406.802675 526.799411 
L 406.88682 526.799411 
L 407.380333 526.799411 
L 407.873847 563.532439 
L 408.367361 563.532439 
L 408.860874 563.532439 
L 409.354388 551.942226 
L 409.847902 551.942226 
L 410.341415 551.942226 
L 410.834929 544.686362 
L 411.328443 544.686362 
L 411.821956 541.871393 
L 412.31547 541.871393 
L 412.808983 539.952254 
L 413.302497 539.952254 
L 413.796011 538.6757 
L 414.289524 538.6757 
L 414.783038 537.905087 
L 415.276552 537.905087 
L 415.770065 537.546 
L 416.263579 537.546 
L 416.757093 537.536032 
L 417.250606 537.536032 
L 417.74412 537.839155 
L 418.237633 537.839155 
L 418.731147 538.443123 
L 419.224661 538.443123 
L 419.718174 539.243775 
L 420.211688 539.243775 
L 420.705202 539.526887 
L 421.198715 539.526887 
L 421.692229 539.341443 
L 422.185743 539.341443 
L 422.679256 538.782846 
L 423.17277 538.782846 
L 423.666283 537.9331 
L 424.159797 537.9331 
L 424.653311 536.861672 
L 425.146824 536.861672 
L 425.640338 535.627375 
L 426.133852 535.627375 
L 426.627365 534.279927 
L 427.120879 534.279927 
L 427.614393 534.279927 
L 428.107906 532.161167 
L 428.60142 532.161167 
L 429.094933 532.161167 
L 429.588447 529.946211 
L 430.081961 529.946211 
L 430.575474 529.946211 
L 431.068988 527.734263 
L 431.562502 527.734263 
L 432.056015 527.734263 
L 432.549529 525.60711 
L 433.043043 525.60711 
L 433.536556 525.60711 
L 434.03007 523.621367 
L 434.523583 523.621367 
L 435.017097 523.621367 
L 435.510611 521.812887 
L 436.004124 521.812887 
L 436.497638 521.812887 
L 436.991152 520.200949 
L 437.484665 520.200949 
L 437.978179 520.200949 
L 438.471693 518.791956 
L 438.965206 518.791956 
L 439.45872 518.791956 
L 439.952233 517.582662 
L 440.445747 517.582662 
L 440.939261 517.582662 
L 441.432774 516.56294 
" clip-path="url(#p4265958ab2)" style="fill: none; stroke: #ff7f0e; stroke-width: 0.5; stroke-linecap: square"/>
   </g>
   <g id="patch_21">
    <path d="M 406.791818 660.41096 
L 406.791818 366.465552 
" style="fill: none; stroke: #000000; stroke-width: 0.8; stroke-linejoin: miter; stroke-linecap: square"/>
   </g>
   <g id="patch_22">
    <path d="M 702.9 660.41096 
L 702.9 366.465552 
" style="fill: none; stroke: #000000; stroke-width: 0.8; stroke-linejoin: miter; stroke-linecap: square"/>
   </g>
   <g id="patch_23">
    <path d="M 406.791818 660.41096 
L 702.9 660.41096 
" style="fill: none; stroke: #000000; stroke-width: 0.8; stroke-linejoin: miter; stroke-linecap: square"/>
   </g>
   <g id="patch_24">
    <path d="M 406.791818 366.465552 
L 702.9 366.465552 
" style="fill: none; stroke: #000000; stroke-width: 0.8; stroke-linejoin: miter; stroke-linecap: square"/>
   </g>
   <g id="legend_3">
    <g id="patch_25">
     <path d="M 619.3 403.821802 
L 695.9 403.821802 
Q 697.9 403.821802 697.9 401.821802 
L 697.9 373.465552 
Q 697.9 371.465552 695.9 371.465552 
L 619.3 371.465552 
Q 617.3 371.465552 617.3 373.465552 
L 617.3 401.821802 
Q 617.3 403.821802 619.3 403.821802 
z
" style="fill: #ffffff; opacity: 0.8; stroke: #cccccc; stroke-linejoin: miter"/>
    </g>
    <g id="line2d_77">
     <path d="M 621.3 379.56399 
L 631.3 379.56399 
L 641.3 379.56399 
" style="fill: none; stroke: #1f77b4; stroke-width: 0.5; stroke-linecap: square"/>
    </g>
    <g id="text_74">
     <!-- v [m/s] -->
     <g transform="translate(649.3 383.06399) scale(0.1 -0.1)">
      <defs>
       <path id="DejaVuSans-76" d="M 191 3500 
L 800 3500 
L 1894 563 
L 2988 3500 
L 3597 3500 
L 2284 0 
L 1503 0 
L 191 3500 
z
" transform="scale(0.015625)"/>
       <path id="DejaVuSans-2f" d="M 1625 4666 
L 2156 4666 
L 531 -594 
L 0 -594 
L 1625 4666 
z
" transform="scale(0.015625)"/>
      </defs>
      <use xlink:href="#DejaVuSans-76"/>
      <use xlink:href="#DejaVuSans-20" x="59.179688"/>
      <use xlink:href="#DejaVuSans-5b" x="90.966797"/>
      <use xlink:href="#DejaVuSans-6d" x="129.980469"/>
      <use xlink:href="#DejaVuSans-2f" x="227.392578"/>
      <use xlink:href="#DejaVuSans-73" x="261.083984"/>
      <use xlink:href="#DejaVuSans-5d" x="313.183594"/>
     </g>
    </g>
    <g id="line2d_78">
     <path d="M 621.3 394.242115 
L 631.3 394.242115 
L 641.3 394.242115 
" style="fill: none; stroke: #ff7f0e; stroke-width: 0.5; stroke-linecap: square"/>
    </g>
    <g id="text_75">
     <!-- $\omega$ [rad/s] -->
     <g transform="translate(649.3 397.742115) scale(0.1 -0.1)">
      <defs>
       <path id="DejaVuSans-Oblique-3c9" d="M 1369 -91 
Q 72 -91 434 1766 
Q 575 2500 1256 3500 
L 1875 3500 
Q 1231 2500 1088 1750 
Q 819 397 1519 397 
Q 2166 397 2478 2078 
L 3009 2078 
Q 2669 388 3316 397 
Q 4013 403 4275 1750 
Q 4419 2500 4169 3500 
L 4788 3500 
Q 5075 2500 4934 1766 
Q 4578 -94 3278 -91 
Q 2428 -88 2503 844 
Q 2194 -91 1369 -91 
z
" transform="scale(0.015625)"/>
      </defs>
      <use xlink:href="#DejaVuSans-Oblique-3c9" transform="translate(0 0.015625)"/>
      <use xlink:href="#DejaVuSans-20" transform="translate(83.740234 0.015625)"/>
      <use xlink:href="#DejaVuSans-5b" transform="translate(115.527344 0.015625)"/>
      <use xlink:href="#DejaVuSans-72" transform="translate(154.541016 0.015625)"/>
      <use xlink:href="#DejaVuSans-61" transform="translate(195.654297 0.015625)"/>
      <use xlink:href="#DejaVuSans-64" transform="translate(256.933594 0.015625)"/>
      <use xlink:href="#DejaVuSans-2f" transform="translate(320.410156 0.015625)"/>
      <use xlink:href="#DejaVuSans-73" transform="translate(354.101562 0.015625)"/>
      <use xlink:href="#DejaVuSans-5d" transform="translate(406.201172 0.015625)"/>
     </g>
    </g>
   </g>
  </g>
  <g id="text_76">
   <!-- $\int \mathrm{Run.\,obj.} \,\mathrm{d}t$ = 7.3 -->
   <g transform="translate(36 354.49) scale(0.1 -0.1)">
    <use xlink:href="#DejaVuSansDisplay-222b" transform="translate(0 0.96875)"/>
    <use xlink:href="#DejaVuSans-52" transform="translate(73.632812 0.96875)"/>
    <use xlink:href="#DejaVuSans-75" transform="translate(143.115234 0.96875)"/>
    <use xlink:href="#DejaVuSans-6e" transform="translate(206.494141 0.96875)"/>
    <use xlink:href="#DejaVuSans-2e" transform="translate(269.873047 0.96875)"/>
    <use xlink:href="#DejaVuSans-6f" transform="translate(337.378254 0.96875)"/>
    <use xlink:href="#DejaVuSans-62" transform="translate(398.559895 0.96875)"/>
    <use xlink:href="#DejaVuSans-6a" transform="translate(462.036458 0.96875)"/>
    <use xlink:href="#DejaVuSans-2e" transform="translate(489.819661 0.96875)"/>
    <use xlink:href="#DejaVuSans-64" transform="translate(557.324868 0.96875)"/>
    <use xlink:href="#DejaVuSans-Oblique-74" transform="translate(620.801431 0.96875)"/>
    <use xlink:href="#DejaVuSans-20" transform="translate(660.010415 0.96875)"/>
    <use xlink:href="#DejaVuSans-3d" transform="translate(691.797524 0.96875)"/>
    <use xlink:href="#DejaVuSans-20" transform="translate(775.586587 0.96875)"/>
    <use xlink:href="#DejaVuSans-37" transform="translate(807.373696 0.96875)"/>
    <use xlink:href="#DejaVuSans-2e" transform="translate(870.996743 0.96875)"/>
    <use xlink:href="#DejaVuSans-33" transform="translate(902.783853 0.96875)"/>
   </g>
  </g>
 </g>
 <defs>
  <clipPath id="pf540324a6f">
   <rect x="62.653205" y="26.18112" width="293.945408" height="293.945408"/>
  </clipPath>
  <clipPath id="p23a6e15c08">
   <rect x="406.791818" y="26.18112" width="296.108182" height="293.945408"/>
  </clipPath>
  <clipPath id="p41c7ede57c">
   <rect x="61.571818" y="366.465552" width="296.108182" height="293.945408"/>
  </clipPath>
  <clipPath id="p4265958ab2">
   <rect x="406.791818" y="366.465552" width="296.108182" height="293.945408"/>
  </clipPath>
 </defs>
</svg>
